<?xml version="1.0" standalone="no"?>
<svg width="567.429" height="556.072" viewBox="0 0 567.429 556.072" xmlns="http://www.w3.org/2000/svg" shape-rendering="crispEdges">
<title>
./plots/eff_fwshower_onytpfp/eff_fwshower_onytpfp.svg
</title>
<desc>
Creator: ROOT Version 6.32.08
CreationDate: Fri Jun 13 09:43:53 2025</desc>
<defs>
</defs>
<rect x="0.5" y="0" width="566.929" height="555.572" fill="white"/>
<rect x="57.1929" y="55.5572" width="453.543" height="444.457" fill="white"/>
<rect x="57.1929" y="55.5572" width="453.543" height="444.457" fill="none" stroke="black"/>
<path d="M57.1929,500.014h 453.543" fill="none" stroke="black"/>
<text xml:space="preserve" x="83.3152" y="514.401" fill="black" font-size="10.6939" font-family="Helvetica">-2
</text>
<text xml:space="preserve" x="105.084" y="514.401" fill="black" font-size="10.6939" font-family="Helvetica">-1
</text>
<text xml:space="preserve" x="126.379" y="514.401" fill="black" font-size="10.6939" font-family="Helvetica">0
</text>
<text xml:space="preserve" x="144.835" y="514.401" fill="black" font-size="10.6939" font-family="Helvetica">+1
</text>
<text xml:space="preserve" x="164.237" y="514.401" fill="black" font-size="10.6939" font-family="Helvetica">+2
</text>
<text xml:space="preserve" x="186.479" y="514.401" fill="black" font-size="10.6939" font-family="Helvetica">-2
</text>
<text xml:space="preserve" x="208.248" y="514.401" fill="black" font-size="10.6939" font-family="Helvetica">-1
</text>
<text xml:space="preserve" x="229.543" y="514.401" fill="black" font-size="10.6939" font-family="Helvetica">0
</text>
<text xml:space="preserve" x="247.999" y="514.401" fill="black" font-size="10.6939" font-family="Helvetica">+1
</text>
<text xml:space="preserve" x="267.402" y="514.401" fill="black" font-size="10.6939" font-family="Helvetica">+2
</text>
<text xml:space="preserve" x="289.643" y="514.401" fill="black" font-size="10.6939" font-family="Helvetica">-2
</text>
<text xml:space="preserve" x="310.939" y="514.401" fill="black" font-size="10.6939" font-family="Helvetica">-1
</text>
<text xml:space="preserve" x="332.707" y="514.401" fill="black" font-size="10.6939" font-family="Helvetica">0
</text>
<text xml:space="preserve" x="350.69" y="514.401" fill="black" font-size="10.6939" font-family="Helvetica">+1
</text>
<text xml:space="preserve" x="370.566" y="514.401" fill="black" font-size="10.6939" font-family="Helvetica">+2
</text>
<text xml:space="preserve" x="392.807" y="514.401" fill="black" font-size="10.6939" font-family="Helvetica">-2
</text>
<text xml:space="preserve" x="414.103" y="514.401" fill="black" font-size="10.6939" font-family="Helvetica">-1
</text>
<text xml:space="preserve" x="435.871" y="514.401" fill="black" font-size="10.6939" font-family="Helvetica">0
</text>
<text xml:space="preserve" x="453.854" y="514.401" fill="black" font-size="10.6939" font-family="Helvetica">+1
</text>
<text xml:space="preserve" x="473.73" y="514.401" fill="black" font-size="10.6939" font-family="Helvetica">+2
</text>
<path d="M57.1929,486.681v 13.3337" fill="none" stroke="black"/>
<path d="M77.8085,486.681v 13.3337" fill="none" stroke="black"/>
<path d="M98.4241,486.681v 13.3337" fill="none" stroke="black"/>
<path d="M119.04,486.681v 13.3337" fill="none" stroke="black"/>
<path d="M139.655,486.681v 13.3337" fill="none" stroke="black"/>
<path d="M160.271,486.681v 13.3337" fill="none" stroke="black"/>
<path d="M180.887,486.681v 13.3337" fill="none" stroke="black"/>
<path d="M201.502,486.681v 13.3337" fill="none" stroke="black"/>
<path d="M222.118,486.681v 13.3337" fill="none" stroke="black"/>
<path d="M242.733,486.681v 13.3337" fill="none" stroke="black"/>
<path d="M263.349,486.681v 13.3337" fill="none" stroke="black"/>
<path d="M283.965,486.681v 13.3337" fill="none" stroke="black"/>
<path d="M304.58,486.681v 13.3337" fill="none" stroke="black"/>
<path d="M325.196,486.681v 13.3337" fill="none" stroke="black"/>
<path d="M345.811,486.681v 13.3337" fill="none" stroke="black"/>
<path d="M366.427,486.681v 13.3337" fill="none" stroke="black"/>
<path d="M387.043,486.681v 13.3337" fill="none" stroke="black"/>
<path d="M407.658,486.681v 13.3337" fill="none" stroke="black"/>
<path d="M428.274,486.681v 13.3337" fill="none" stroke="black"/>
<path d="M448.889,486.681v 13.3337" fill="none" stroke="black"/>
<path d="M469.505,486.681v 13.3337" fill="none" stroke="black"/>
<path d="M490.121,486.681v 13.3337" fill="none" stroke="black"/>
<path d="M510.736,486.681v 13.3337" fill="none" stroke="black"/>
<text xml:space="preserve" x="452.908" y="543.741" fill="black" font-size="20.8879" font-family="Helvetica">Wheel
</text>
<path d="M57.1929,500.014v -444.457" fill="none" stroke="black"/>
<path d="M70.7992,415.699h -13.6063" fill="none" stroke="black"/>
<path d="M63.9961,394.514h -6.80315" fill="none" stroke="black"/>
<path d="M63.9961,373.329h -6.80315" fill="none" stroke="black"/>
<path d="M63.9961,352.145h -6.80315" fill="none" stroke="black"/>
<path d="M70.7992,330.96h -13.6063" fill="none" stroke="black"/>
<path d="M63.9961,309.775h -6.80315" fill="none" stroke="black"/>
<path d="M63.9961,288.59h -6.80315" fill="none" stroke="black"/>
<path d="M63.9961,267.405h -6.80315" fill="none" stroke="black"/>
<path d="M70.7992,246.22h -13.6063" fill="none" stroke="black"/>
<path d="M63.9961,225.036h -6.80315" fill="none" stroke="black"/>
<path d="M63.9961,203.851h -6.80315" fill="none" stroke="black"/>
<path d="M63.9961,182.666h -6.80315" fill="none" stroke="black"/>
<path d="M70.7992,161.481h -13.6063" fill="none" stroke="black"/>
<path d="M63.9961,140.296h -6.80315" fill="none" stroke="black"/>
<path d="M63.9961,119.112h -6.80315" fill="none" stroke="black"/>
<path d="M63.9961,97.9268h -6.80315" fill="none" stroke="black"/>
<path d="M70.7992,76.742h -13.6063" fill="none" stroke="black"/>
<path d="M70.7992,415.699h -13.6063" fill="none" stroke="black"/>
<path d="M63.9961,436.884h -6.80315" fill="none" stroke="black"/>
<path d="M63.9961,458.069h -6.80315" fill="none" stroke="black"/>
<path d="M63.9961,479.253h -6.80315" fill="none" stroke="black"/>
<path d="M70.7992,76.742h -13.6063" fill="none" stroke="black"/>
<text xml:space="preserve" x="38.3584" y="419.755" fill="black" font-size="12.2231" font-family="Helvetica">0.2
</text>
<text xml:space="preserve" x="38.3584" y="335.047" fill="black" font-size="12.2231" font-family="Helvetica">0.4
</text>
<text xml:space="preserve" x="38.3584" y="250.339" fill="black" font-size="12.2231" font-family="Helvetica">0.6
</text>
<text xml:space="preserve" x="38.3584" y="165.63" fill="black" font-size="12.2231" font-family="Helvetica">0.8
</text>
<text xml:space="preserve" x="50.1891" y="81.3955" fill="black" font-size="12.2231" font-family="Helvetica">1
</text>
<g transform="rotate(-90,31.7332,150.487)">
<text xml:space="preserve" x="31.7332" y="150.487" fill="black" font-size="14.7716" font-family="Helvetica">TP + FP + FN
</text>
</g>
<g transform="rotate(-90,16.5898,114.995)">
<text xml:space="preserve" x="16.5898" y="114.995" fill="black" font-size="14.7716" font-family="Helvetica">TP
</text>
</g>
<path d="M18.4827,150.487l 0.47323, -89.4404" fill="none" stroke="black" stroke-width="2"/>
<path d="M5.70553,154.273h 26.0276" fill="none" stroke="black" stroke-width="2"/>
<path d="M5.70553,154.273v -3.78584" fill="none" stroke="black" stroke-width="2"/>
<path d="M31.7332,154.273v -3.78584" fill="none" stroke="black" stroke-width="2"/>
<path d="M5.70553,57.2608h 26.0276" fill="none" stroke="black" stroke-width="2"/>
<path d="M5.70553,57.2608v 3.78584" fill="none" stroke="black" stroke-width="2"/>
<path d="M31.7332,57.2608v 3.78584" fill="none" stroke="black" stroke-width="2"/>
<g transform="rotate(-90,22.7418,411.71)">
<text xml:space="preserve" x="22.7418" y="411.71" fill="black" font-size="20.8879" font-family="Helvetica">Shower Trigger Efficiency 
</text>
</g>
<path d="M88.1163,400.876v 1.03073" fill="none" stroke="black"/>
<path d="M88.1163,406.555v -1.05396" fill="none" stroke="black"/>
<path d="M87.1699,401.907h 1.89292" fill="none" stroke="black"/>
<path d="M87.1699,405.501h 1.89292" fill="none" stroke="black"/>
<path d="M108.732,357.678v 0.712832" fill="none" stroke="black"/>
<path d="M108.732,363.357v -0.728913" fill="none" stroke="black"/>
<path d="M107.785,358.391h 1.89292" fill="none" stroke="black"/>
<path d="M107.785,362.628h 1.89292" fill="none" stroke="black"/>
<path d="M129.348,344.158v 0.267635" fill="none" stroke="black"/>
<path d="M129.348,349.836v -0.285899" fill="none" stroke="black"/>
<path d="M128.401,344.425h 1.89292" fill="none" stroke="black"/>
<path d="M128.401,349.551h 1.89292" fill="none" stroke="black"/>
<path d="M149.963,357.292v 0.706264" fill="none" stroke="black"/>
<path d="M149.963,362.971v -0.722335" fill="none" stroke="black"/>
<path d="M149.017,357.999h 1.89292" fill="none" stroke="black"/>
<path d="M149.017,362.249h 1.89292" fill="none" stroke="black"/>
<path d="M170.579,394.063v 0.988719" fill="none" stroke="black"/>
<path d="M170.579,399.742v -1.01058" fill="none" stroke="black"/>
<path d="M169.632,395.052h 1.89292" fill="none" stroke="black"/>
<path d="M169.632,398.732h 1.89292" fill="none" stroke="black"/>
<path d="M191.194,299.687v -0.662904" fill="none" stroke="black"/>
<path d="M191.194,305.365v 0.655392" fill="none" stroke="black"/>
<path d="M190.248,299.024h 1.89292" fill="none" stroke="black"/>
<path d="M190.248,306.021h 1.89292" fill="none" stroke="black"/>
<path d="M211.81,316.183v -0.277431" fill="none" stroke="black"/>
<path d="M211.81,321.862v 0.26423" fill="none" stroke="black"/>
<path d="M210.863,315.905h 1.89292" fill="none" stroke="black"/>
<path d="M210.863,322.126h 1.89292" fill="none" stroke="black"/>
<path d="M232.426,302.343v -0.281491" fill="none" stroke="black"/>
<path d="M232.426,308.022v 0.274364" fill="none" stroke="black"/>
<path d="M231.479,302.062h 1.89292" fill="none" stroke="black"/>
<path d="M231.479,308.296h 1.89292" fill="none" stroke="black"/>
<path d="M253.041,319.1v -0.28108" fill="none" stroke="black"/>
<path d="M253.041,324.778v 0.266526" fill="none" stroke="black"/>
<path d="M252.095,318.819h 1.89292" fill="none" stroke="black"/>
<path d="M252.095,325.045h 1.89292" fill="none" stroke="black"/>
<path d="M273.657,293.126v -0.591038" fill="none" stroke="black"/>
<path d="M273.657,298.805v 0.58723" fill="none" stroke="black"/>
<path d="M272.71,292.535h 1.89292" fill="none" stroke="black"/>
<path d="M272.71,299.392h 1.89292" fill="none" stroke="black"/>
<path d="M294.272,260.775v -1.34008" fill="none" stroke="black"/>
<path d="M294.272,266.454v 1.3595" fill="none" stroke="black"/>
<path d="M293.326,259.435h 1.89292" fill="none" stroke="black"/>
<path d="M293.326,267.813h 1.89292" fill="none" stroke="black"/>
<path d="M314.888,276.643v -1.06076" fill="none" stroke="black"/>
<path d="M314.888,282.321v 1.06684" fill="none" stroke="black"/>
<path d="M313.942,275.582h 1.89292" fill="none" stroke="black"/>
<path d="M313.942,283.388h 1.89292" fill="none" stroke="black"/>
<path d="M335.504,272.478v -0.907634" fill="none" stroke="black"/>
<path d="M335.504,278.157v 0.915847" fill="none" stroke="black"/>
<path d="M334.557,271.57h 1.89292" fill="none" stroke="black"/>
<path d="M334.557,279.073h 1.89292" fill="none" stroke="black"/>
<path d="M356.119,273.601v -1.06545" fill="none" stroke="black"/>
<path d="M356.119,279.28v 1.0736" fill="none" stroke="black"/>
<path d="M355.173,272.536h 1.89292" fill="none" stroke="black"/>
<path d="M355.173,280.354h 1.89292" fill="none" stroke="black"/>
<path d="M376.735,262.141v -1.32996" fill="none" stroke="black"/>
<path d="M376.735,267.819v 1.34821" fill="none" stroke="black"/>
<path d="M375.788,260.811h 1.89292" fill="none" stroke="black"/>
<path d="M375.788,269.168h 1.89292" fill="none" stroke="black"/>
<path d="M397.35,236.228v -1.02302" fill="none" stroke="black"/>
<path d="M397.35,241.907v 1.05751" fill="none" stroke="black"/>
<path d="M396.404,235.205h 1.89292" fill="none" stroke="black"/>
<path d="M396.404,242.964h 1.89292" fill="none" stroke="black"/>
<path d="M417.966,243.814v -0.924539" fill="none" stroke="black"/>
<path d="M417.966,249.493v 0.951801" fill="none" stroke="black"/>
<path d="M417.02,242.889h 1.89292" fill="none" stroke="black"/>
<path d="M417.02,250.445h 1.89292" fill="none" stroke="black"/>
<path d="M438.582,243.878v -0.67722" fill="none" stroke="black"/>
<path d="M438.582,249.557v 0.700994" fill="none" stroke="black"/>
<path d="M437.635,243.201h 1.89292" fill="none" stroke="black"/>
<path d="M437.635,250.258h 1.89292" fill="none" stroke="black"/>
<path d="M459.197,244.045v -0.890587" fill="none" stroke="black"/>
<path d="M459.197,249.724v 0.917202" fill="none" stroke="black"/>
<path d="M458.251,243.155h 1.89292" fill="none" stroke="black"/>
<path d="M458.251,250.641h 1.89292" fill="none" stroke="black"/>
<path d="M479.813,232.436v -1.05094" fill="none" stroke="black"/>
<path d="M479.813,238.115v 1.08897" fill="none" stroke="black"/>
<path d="M478.866,231.386h 1.89292" fill="none" stroke="black"/>
<path d="M478.866,239.204h 1.89292" fill="none" stroke="black"/>
<g fill="black">
<circle cx="88.1163" cy="403.715" r="2.83938"/>
<circle cx="108.732" cy="360.518" r="2.83938"/>
<circle cx="129.348" cy="346.997" r="2.83938"/>
<circle cx="149.963" cy="360.132" r="2.83938"/>
<circle cx="170.579" cy="396.903" r="2.83938"/>
<circle cx="191.194" cy="302.526" r="2.83938"/>
<circle cx="211.81" cy="319.022" r="2.83938"/>
<circle cx="232.426" cy="305.183" r="2.83938"/>
<circle cx="253.041" cy="321.939" r="2.83938"/>
<circle cx="273.657" cy="295.966" r="2.83938"/>
<circle cx="294.272" cy="263.614" r="2.83938"/>
<circle cx="314.888" cy="279.482" r="2.83938"/>
<circle cx="335.504" cy="275.317" r="2.83938"/>
<circle cx="356.119" cy="276.441" r="2.83938"/>
<circle cx="376.735" cy="264.98" r="2.83938"/>
<circle cx="397.35" cy="239.067" r="2.83938"/>
<circle cx="417.966" cy="246.653" r="2.83938"/>
<circle cx="438.582" cy="246.717" r="2.83938"/>
<circle cx="459.197" cy="246.885" r="2.83938"/>
<circle cx="479.813" cy="235.276" r="2.83938"/>
</g>
<path d="M88.1163,367.283v 0.00243221" fill="none" stroke="#ff0000"/>
<path d="M88.1163,372.962v -0.0358439" fill="none" stroke="#ff0000"/>
<path d="M87.1699,367.286h 1.89292" fill="none" stroke="#ff0000"/>
<path d="M87.1699,372.926h 1.89292" fill="none" stroke="#ff0000"/>
<path d="M108.732,352.06v 0.127093" fill="none" stroke="#ff0000"/>
<path d="M108.732,357.739v -0.150657" fill="none" stroke="#ff0000"/>
<path d="M107.785,352.187h 1.89292" fill="none" stroke="#ff0000"/>
<path d="M107.785,357.588h 1.89292" fill="none" stroke="#ff0000"/>
<path d="M129.348,383.69v 0.0280981" fill="none" stroke="#ff0000"/>
<path d="M129.348,389.369v -0.0706097" fill="none" stroke="#ff0000"/>
<path d="M128.401,383.718h 1.89292" fill="none" stroke="#ff0000"/>
<path d="M128.401,389.298h 1.89292" fill="none" stroke="#ff0000"/>
<path d="M149.963,351.679v 0.122594" fill="none" stroke="#ff0000"/>
<path d="M149.963,357.358v -0.146072" fill="none" stroke="#ff0000"/>
<path d="M149.017,351.801h 1.89292" fill="none" stroke="#ff0000"/>
<path d="M149.017,357.212h 1.89292" fill="none" stroke="#ff0000"/>
<path d="M170.579,360.163v -0.0382186" fill="none" stroke="#ff0000"/>
<path d="M170.579,365.842v 0.00768786" fill="none" stroke="#ff0000"/>
<path d="M169.632,360.125h 1.89292" fill="none" stroke="#ff0000"/>
<path d="M169.632,365.849h 1.89292" fill="none" stroke="#ff0000"/>
<path d="M191.194,343.821v -0.959002" fill="none" stroke="#ff0000"/>
<path d="M191.194,349.5v 0.919785" fill="none" stroke="#ff0000"/>
<path d="M190.248,342.862h 1.89292" fill="none" stroke="#ff0000"/>
<path d="M190.248,350.42h 1.89292" fill="none" stroke="#ff0000"/>
<path d="M211.81,369.165v -0.408741" fill="none" stroke="#ff0000"/>
<path d="M211.81,374.844v 0.36376" fill="none" stroke="#ff0000"/>
<path d="M210.863,368.756h 1.89292" fill="none" stroke="#ff0000"/>
<path d="M210.863,375.208h 1.89292" fill="none" stroke="#ff0000"/>
<path d="M232.426,363.248v -0.366383" fill="none" stroke="#ff0000"/>
<path d="M232.426,368.927v 0.326591" fill="none" stroke="#ff0000"/>
<path d="M231.479,362.882h 1.89292" fill="none" stroke="#ff0000"/>
<path d="M231.479,369.254h 1.89292" fill="none" stroke="#ff0000"/>
<path d="M253.041,367.481v -0.477514" fill="none" stroke="#ff0000"/>
<path d="M253.041,373.16v 0.431896" fill="none" stroke="#ff0000"/>
<path d="M252.095,367.003h 1.89292" fill="none" stroke="#ff0000"/>
<path d="M252.095,373.592h 1.89292" fill="none" stroke="#ff0000"/>
<path d="M273.657,335.128v -0.924886" fill="none" stroke="#ff0000"/>
<path d="M273.657,340.807v 0.892782" fill="none" stroke="#ff0000"/>
<path d="M272.71,334.203h 1.89292" fill="none" stroke="#ff0000"/>
<path d="M272.71,341.699h 1.89292" fill="none" stroke="#ff0000"/>
<path d="M294.272,347.461v -1.35933" fill="none" stroke="#ff0000"/>
<path d="M294.272,353.139v 1.30807" fill="none" stroke="#ff0000"/>
<path d="M293.326,346.101h 1.89292" fill="none" stroke="#ff0000"/>
<path d="M293.326,354.448h 1.89292" fill="none" stroke="#ff0000"/>
<path d="M314.888,358.97v -1.00438" fill="none" stroke="#ff0000"/>
<path d="M314.888,364.649v 0.951438" fill="none" stroke="#ff0000"/>
<path d="M313.942,357.966h 1.89292" fill="none" stroke="#ff0000"/>
<path d="M313.942,365.6h 1.89292" fill="none" stroke="#ff0000"/>
<path d="M335.504,364.096v -0.796561" fill="none" stroke="#ff0000"/>
<path d="M335.504,369.775v 0.744847" fill="none" stroke="#ff0000"/>
<path d="M334.557,363.299h 1.89292" fill="none" stroke="#ff0000"/>
<path d="M334.557,370.52h 1.89292" fill="none" stroke="#ff0000"/>
<path d="M356.119,366.241v -0.946159" fill="none" stroke="#ff0000"/>
<path d="M356.119,371.92v 0.888173" fill="none" stroke="#ff0000"/>
<path d="M355.173,365.295h 1.89292" fill="none" stroke="#ff0000"/>
<path d="M355.173,372.808h 1.89292" fill="none" stroke="#ff0000"/>
<path d="M376.735,344.536v -1.35378" fill="none" stroke="#ff0000"/>
<path d="M376.735,350.215v 1.30545" fill="none" stroke="#ff0000"/>
<path d="M375.788,343.182h 1.89292" fill="none" stroke="#ff0000"/>
<path d="M375.788,351.52h 1.89292" fill="none" stroke="#ff0000"/>
<path d="M397.35,328.211v -1.16676" fill="none" stroke="#ff0000"/>
<path d="M397.35,333.89v 1.13596" fill="none" stroke="#ff0000"/>
<path d="M396.404,327.044h 1.89292" fill="none" stroke="#ff0000"/>
<path d="M396.404,335.026h 1.89292" fill="none" stroke="#ff0000"/>
<path d="M417.966,341.729v -0.966999" fill="none" stroke="#ff0000"/>
<path d="M417.966,347.408v 0.929235" fill="none" stroke="#ff0000"/>
<path d="M417.02,340.762h 1.89292" fill="none" stroke="#ff0000"/>
<path d="M417.02,348.337h 1.89292" fill="none" stroke="#ff0000"/>
<path d="M438.582,343.494v -0.705591" fill="none" stroke="#ff0000"/>
<path d="M438.582,349.173v 0.67159" fill="none" stroke="#ff0000"/>
<path d="M437.635,342.788h 1.89292" fill="none" stroke="#ff0000"/>
<path d="M437.635,349.844h 1.89292" fill="none" stroke="#ff0000"/>
<path d="M459.197,341.899v -0.931236" fill="none" stroke="#ff0000"/>
<path d="M459.197,347.578v 0.894041" fill="none" stroke="#ff0000"/>
<path d="M458.251,340.968h 1.89292" fill="none" stroke="#ff0000"/>
<path d="M458.251,348.472h 1.89292" fill="none" stroke="#ff0000"/>
<path d="M479.813,324.856v -1.22027" fill="none" stroke="#ff0000"/>
<path d="M479.813,330.535v 1.19131" fill="none" stroke="#ff0000"/>
<path d="M478.866,323.636h 1.89292" fill="none" stroke="#ff0000"/>
<path d="M478.866,331.726h 1.89292" fill="none" stroke="#ff0000"/>
<g fill="#ff0000">
<circle cx="88.1163" cy="370.123" r="2.83938"/>
<circle cx="108.732" cy="354.899" r="2.83938"/>
<circle cx="129.348" cy="386.53" r="2.83938"/>
<circle cx="149.963" cy="354.518" r="2.83938"/>
<circle cx="170.579" cy="363.002" r="2.83938"/>
<circle cx="191.194" cy="346.66" r="2.83938"/>
<circle cx="211.81" cy="372.005" r="2.83938"/>
<circle cx="232.426" cy="366.088" r="2.83938"/>
<circle cx="253.041" cy="370.32" r="2.83938"/>
<circle cx="273.657" cy="337.967" r="2.83938"/>
<circle cx="294.272" cy="350.3" r="2.83938"/>
<circle cx="314.888" cy="361.809" r="2.83938"/>
<circle cx="335.504" cy="366.935" r="2.83938"/>
<circle cx="356.119" cy="369.08" r="2.83938"/>
<circle cx="376.735" cy="347.375" r="2.83938"/>
<circle cx="397.35" cy="331.05" r="2.83938"/>
<circle cx="417.966" cy="344.568" r="2.83938"/>
<circle cx="438.582" cy="346.333" r="2.83938"/>
<circle cx="459.197" cy="344.738" r="2.83938"/>
<circle cx="479.813" cy="327.696" r="2.83938"/>
</g>
<path d="M88.1163,396.168v -0.370465" fill="none" stroke="#00ff00"/>
<path d="M88.1163,401.847v 0.303644" fill="none" stroke="#00ff00"/>
<path d="M87.1699,395.798h 1.89292" fill="none" stroke="#00ff00"/>
<path d="M87.1699,402.151h 1.89292" fill="none" stroke="#00ff00"/>
<path d="M108.732,409.53v 0.247677" fill="none" stroke="#00ff00"/>
<path d="M108.732,415.208v -0.301788" fill="none" stroke="#00ff00"/>
<path d="M107.785,409.777h 1.89292" fill="none" stroke="#00ff00"/>
<path d="M107.785,414.907h 1.89292" fill="none" stroke="#00ff00"/>
<path d="M129.348,454.803v 0.771904" fill="none" stroke="#00ff00"/>
<path d="M129.348,460.482v -0.854896" fill="none" stroke="#00ff00"/>
<path d="M128.401,455.575h 1.89292" fill="none" stroke="#00ff00"/>
<path d="M128.401,459.627h 1.89292" fill="none" stroke="#00ff00"/>
<path d="M149.963,408.592v 0.2294" fill="none" stroke="#00ff00"/>
<path d="M149.963,414.271v -0.283449" fill="none" stroke="#00ff00"/>
<path d="M149.017,408.822h 1.89292" fill="none" stroke="#00ff00"/>
<path d="M149.017,413.988h 1.89292" fill="none" stroke="#00ff00"/>
<path d="M170.579,395.247v -0.33267" fill="none" stroke="#00ff00"/>
<path d="M170.579,400.926v 0.2683" fill="none" stroke="#00ff00"/>
<path d="M169.632,394.915h 1.89292" fill="none" stroke="#00ff00"/>
<path d="M169.632,401.194h 1.89292" fill="none" stroke="#00ff00"/>
<path d="M191.194,425.708v -0.310279" fill="none" stroke="#00ff00"/>
<path d="M191.194,431.387v 0.20669" fill="none" stroke="#00ff00"/>
<path d="M190.248,425.398h 1.89292" fill="none" stroke="#00ff00"/>
<path d="M190.248,431.594h 1.89292" fill="none" stroke="#00ff00"/>
<path d="M211.81,441.679v 0.2715" fill="none" stroke="#00ff00"/>
<path d="M211.81,447.358v -0.365475" fill="none" stroke="#00ff00"/>
<path d="M210.863,441.95h 1.89292" fill="none" stroke="#00ff00"/>
<path d="M210.863,446.992h 1.89292" fill="none" stroke="#00ff00"/>
<path d="M232.426,449.722v 0.534056" fill="none" stroke="#00ff00"/>
<path d="M232.426,455.4v -0.624779" fill="none" stroke="#00ff00"/>
<path d="M231.479,450.256h 1.89292" fill="none" stroke="#00ff00"/>
<path d="M231.479,454.776h 1.89292" fill="none" stroke="#00ff00"/>
<path d="M253.041,444.333v 0.28758" fill="none" stroke="#00ff00"/>
<path d="M253.041,450.012v -0.385686" fill="none" stroke="#00ff00"/>
<path d="M252.095,444.621h 1.89292" fill="none" stroke="#00ff00"/>
<path d="M252.095,449.626h 1.89292" fill="none" stroke="#00ff00"/>
<path d="M273.657,418.685v -0.371562" fill="none" stroke="#00ff00"/>
<path d="M273.657,424.364v 0.276084" fill="none" stroke="#00ff00"/>
<path d="M272.71,418.314h 1.89292" fill="none" stroke="#00ff00"/>
<path d="M272.71,424.64h 1.89292" fill="none" stroke="#00ff00"/>
<path d="M294.272,436.694v -0.342742" fill="none" stroke="#00ff00"/>
<path d="M294.272,442.372v 0.213709" fill="none" stroke="#00ff00"/>
<path d="M293.326,436.351h 1.89292" fill="none" stroke="#00ff00"/>
<path d="M293.326,442.586h 1.89292" fill="none" stroke="#00ff00"/>
<path d="M314.888,447.408v 0.0920249" fill="none" stroke="#00ff00"/>
<path d="M314.888,453.087v -0.212949" fill="none" stroke="#00ff00"/>
<path d="M313.942,447.5h 1.89292" fill="none" stroke="#00ff00"/>
<path d="M313.942,452.874h 1.89292" fill="none" stroke="#00ff00"/>
<path d="M335.504,450.226v 0.284908" fill="none" stroke="#00ff00"/>
<path d="M335.504,455.904v -0.396844" fill="none" stroke="#00ff00"/>
<path d="M334.557,450.51h 1.89292" fill="none" stroke="#00ff00"/>
<path d="M334.557,455.507h 1.89292" fill="none" stroke="#00ff00"/>
<path d="M356.119,450.027v 0.155694" fill="none" stroke="#00ff00"/>
<path d="M356.119,455.706v -0.278254" fill="none" stroke="#00ff00"/>
<path d="M355.173,450.183h 1.89292" fill="none" stroke="#00ff00"/>
<path d="M355.173,455.427h 1.89292" fill="none" stroke="#00ff00"/>
<path d="M376.735,437.617v -0.303447" fill="none" stroke="#00ff00"/>
<path d="M376.735,443.296v 0.175222" fill="none" stroke="#00ff00"/>
<path d="M375.788,437.314h 1.89292" fill="none" stroke="#00ff00"/>
<path d="M375.788,443.471h 1.89292" fill="none" stroke="#00ff00"/>
<path d="M397.35,418.499v -0.416657" fill="none" stroke="#00ff00"/>
<path d="M397.35,424.177v 0.318851" fill="none" stroke="#00ff00"/>
<path d="M396.404,418.082h 1.89292" fill="none" stroke="#00ff00"/>
<path d="M396.404,424.496h 1.89292" fill="none" stroke="#00ff00"/>
<path d="M417.966,427.078v -0.174189" fill="none" stroke="#00ff00"/>
<path d="M417.966,432.757v 0.0768263" fill="none" stroke="#00ff00"/>
<path d="M417.02,426.904h 1.89292" fill="none" stroke="#00ff00"/>
<path d="M417.02,432.833h 1.89292" fill="none" stroke="#00ff00"/>
<path d="M438.582,429.872v 0.0802802" fill="none" stroke="#00ff00"/>
<path d="M438.582,435.551v -0.166463" fill="none" stroke="#00ff00"/>
<path d="M437.635,429.952h 1.89292" fill="none" stroke="#00ff00"/>
<path d="M437.635,435.384h 1.89292" fill="none" stroke="#00ff00"/>
<path d="M459.197,424.251v -0.178953" fill="none" stroke="#00ff00"/>
<path d="M459.197,429.929v 0.085978" fill="none" stroke="#00ff00"/>
<path d="M458.251,424.072h 1.89292" fill="none" stroke="#00ff00"/>
<path d="M458.251,430.015h 1.89292" fill="none" stroke="#00ff00"/>
<path d="M479.813,411.928v -0.54206" fill="none" stroke="#00ff00"/>
<path d="M479.813,417.607v 0.44744" fill="none" stroke="#00ff00"/>
<path d="M478.866,411.386h 1.89292" fill="none" stroke="#00ff00"/>
<path d="M478.866,418.055h 1.89292" fill="none" stroke="#00ff00"/>
<g fill="#00ff00">
<circle cx="88.1163" cy="399.007" r="2.83938"/>
<circle cx="108.732" cy="412.369" r="2.83938"/>
<circle cx="129.348" cy="457.643" r="2.83938"/>
<circle cx="149.963" cy="411.432" r="2.83938"/>
<circle cx="170.579" cy="398.087" r="2.83938"/>
<circle cx="191.194" cy="428.547" r="2.83938"/>
<circle cx="211.81" cy="444.518" r="2.83938"/>
<circle cx="232.426" cy="452.561" r="2.83938"/>
<circle cx="253.041" cy="447.173" r="2.83938"/>
<circle cx="273.657" cy="421.525" r="2.83938"/>
<circle cx="294.272" cy="439.533" r="2.83938"/>
<circle cx="314.888" cy="450.247" r="2.83938"/>
<circle cx="335.504" cy="453.065" r="2.83938"/>
<circle cx="356.119" cy="452.866" r="2.83938"/>
<circle cx="376.735" cy="440.457" r="2.83938"/>
<circle cx="397.35" cy="421.338" r="2.83938"/>
<circle cx="417.966" cy="429.917" r="2.83938"/>
<circle cx="438.582" cy="432.711" r="2.83938"/>
<circle cx="459.197" cy="427.09" r="2.83938"/>
<circle cx="479.813" cy="414.768" r="2.83938"/>
</g>
<path d="M88.1163,433.434v 0.0688856" fill="none" stroke="#0000ff"/>
<path d="M88.1163,439.113v -0.161628" fill="none" stroke="#0000ff"/>
<path d="M87.1699,433.503h 1.89292" fill="none" stroke="#0000ff"/>
<path d="M87.1699,438.951h 1.89292" fill="none" stroke="#0000ff"/>
<path d="M108.732,446.913v 0.731631" fill="none" stroke="#0000ff"/>
<path d="M108.732,452.592v -0.803191" fill="none" stroke="#0000ff"/>
<path d="M107.785,447.645h 1.89292" fill="none" stroke="#0000ff"/>
<path d="M107.785,451.789h 1.89292" fill="none" stroke="#0000ff"/>
<path d="M129.348,480.259v 1.43695" fill="none" stroke="#0000ff"/>
<path d="M129.348,485.938v -1.53426" fill="none" stroke="#0000ff"/>
<path d="M128.401,481.696h 1.89292" fill="none" stroke="#0000ff"/>
<path d="M128.401,484.404h 1.89292" fill="none" stroke="#0000ff"/>
<path d="M149.963,445.481v 0.70049" fill="none" stroke="#0000ff"/>
<path d="M149.963,451.16v -0.771849" fill="none" stroke="#0000ff"/>
<path d="M149.017,446.182h 1.89292" fill="none" stroke="#0000ff"/>
<path d="M149.017,450.388h 1.89292" fill="none" stroke="#0000ff"/>
<path d="M170.579,435.265v 0.152095" fill="none" stroke="#0000ff"/>
<path d="M170.579,440.944v -0.242562" fill="none" stroke="#0000ff"/>
<path d="M169.632,435.417h 1.89292" fill="none" stroke="#0000ff"/>
<path d="M169.632,440.701h 1.89292" fill="none" stroke="#0000ff"/>
<path d="M191.194,461.484v 0.443241" fill="none" stroke="#0000ff"/>
<path d="M191.194,467.163v -0.575045" fill="none" stroke="#0000ff"/>
<path d="M190.248,461.927h 1.89292" fill="none" stroke="#0000ff"/>
<path d="M190.248,466.588h 1.89292" fill="none" stroke="#0000ff"/>
<path d="M211.81,474.324v 1.05963" fill="none" stroke="#0000ff"/>
<path d="M211.81,480.003v -1.1752" fill="none" stroke="#0000ff"/>
<path d="M210.863,475.384h 1.89292" fill="none" stroke="#0000ff"/>
<path d="M210.863,478.828h 1.89292" fill="none" stroke="#0000ff"/>
<path d="M232.426,476.666v 1.21961" fill="none" stroke="#0000ff"/>
<path d="M232.426,482.344v -1.32659" fill="none" stroke="#0000ff"/>
<path d="M231.479,477.885h 1.89292" fill="none" stroke="#0000ff"/>
<path d="M231.479,481.018h 1.89292" fill="none" stroke="#0000ff"/>
<path d="M253.041,474.908v 1.05619" fill="none" stroke="#0000ff"/>
<path d="M253.041,480.586v -1.17506" fill="none" stroke="#0000ff"/>
<path d="M252.095,475.964h 1.89292" fill="none" stroke="#0000ff"/>
<path d="M252.095,479.411h 1.89292" fill="none" stroke="#0000ff"/>
<path d="M273.657,459.081v 0.420096" fill="none" stroke="#0000ff"/>
<path d="M273.657,464.76v -0.545716" fill="none" stroke="#0000ff"/>
<path d="M272.71,459.501h 1.89292" fill="none" stroke="#0000ff"/>
<path d="M272.71,464.214h 1.89292" fill="none" stroke="#0000ff"/>
<path d="M294.272,470.275v 0.555989" fill="none" stroke="#0000ff"/>
<path d="M294.272,475.954v -0.714834" fill="none" stroke="#0000ff"/>
<path d="M293.326,470.831h 1.89292" fill="none" stroke="#0000ff"/>
<path d="M293.326,475.239h 1.89292" fill="none" stroke="#0000ff"/>
<path d="M314.888,475.016v 0.878258" fill="none" stroke="#0000ff"/>
<path d="M314.888,480.695v -1.0213" fill="none" stroke="#0000ff"/>
<path d="M313.942,475.894h 1.89292" fill="none" stroke="#0000ff"/>
<path d="M313.942,479.673h 1.89292" fill="none" stroke="#0000ff"/>
<path d="M335.504,479.329v 1.14104" fill="none" stroke="#0000ff"/>
<path d="M335.504,485.008v -1.27416" fill="none" stroke="#0000ff"/>
<path d="M334.557,480.47h 1.89292" fill="none" stroke="#0000ff"/>
<path d="M334.557,483.733h 1.89292" fill="none" stroke="#0000ff"/>
<path d="M356.119,478.243v 1.01231" fill="none" stroke="#0000ff"/>
<path d="M356.119,483.922v -1.15706" fill="none" stroke="#0000ff"/>
<path d="M355.173,479.255h 1.89292" fill="none" stroke="#0000ff"/>
<path d="M355.173,482.765h 1.89292" fill="none" stroke="#0000ff"/>
<path d="M376.735,472.267v 0.639684" fill="none" stroke="#0000ff"/>
<path d="M376.735,477.946v -0.798929" fill="none" stroke="#0000ff"/>
<path d="M375.788,472.907h 1.89292" fill="none" stroke="#0000ff"/>
<path d="M375.788,477.147h 1.89292" fill="none" stroke="#0000ff"/>
<path d="M397.35,453.375v 0.24798" fill="none" stroke="#0000ff"/>
<path d="M397.35,459.054v -0.371927" fill="none" stroke="#0000ff"/>
<path d="M396.404,453.623h 1.89292" fill="none" stroke="#0000ff"/>
<path d="M396.404,458.682h 1.89292" fill="none" stroke="#0000ff"/>
<path d="M417.966,462.185v 0.563319" fill="none" stroke="#0000ff"/>
<path d="M417.966,467.863v -0.685172" fill="none" stroke="#0000ff"/>
<path d="M417.02,462.748h 1.89292" fill="none" stroke="#0000ff"/>
<path d="M417.02,467.178h 1.89292" fill="none" stroke="#0000ff"/>
<path d="M438.582,459.496v 0.657719" fill="none" stroke="#0000ff"/>
<path d="M438.582,465.174v -0.761851" fill="none" stroke="#0000ff"/>
<path d="M437.635,460.153h 1.89292" fill="none" stroke="#0000ff"/>
<path d="M437.635,464.413h 1.89292" fill="none" stroke="#0000ff"/>
<path d="M459.197,460.78v 0.553831" fill="none" stroke="#0000ff"/>
<path d="M459.197,466.458v -0.671841" fill="none" stroke="#0000ff"/>
<path d="M458.251,461.334h 1.89292" fill="none" stroke="#0000ff"/>
<path d="M458.251,465.787h 1.89292" fill="none" stroke="#0000ff"/>
<path d="M479.813,452.755v 0.209152" fill="none" stroke="#0000ff"/>
<path d="M479.813,458.434v -0.334813" fill="none" stroke="#0000ff"/>
<path d="M478.866,452.964h 1.89292" fill="none" stroke="#0000ff"/>
<path d="M478.866,458.099h 1.89292" fill="none" stroke="#0000ff"/>
<g fill="#0000ff">
<circle cx="88.1163" cy="436.273" r="2.83938"/>
<circle cx="108.732" cy="449.753" r="2.83938"/>
<circle cx="129.348" cy="483.099" r="2.83938"/>
<circle cx="149.963" cy="448.321" r="2.83938"/>
<circle cx="170.579" cy="438.104" r="2.83938"/>
<circle cx="191.194" cy="464.323" r="2.83938"/>
<circle cx="211.81" cy="477.164" r="2.83938"/>
<circle cx="232.426" cy="479.505" r="2.83938"/>
<circle cx="253.041" cy="477.747" r="2.83938"/>
<circle cx="273.657" cy="461.92" r="2.83938"/>
<circle cx="294.272" cy="473.114" r="2.83938"/>
<circle cx="314.888" cy="477.855" r="2.83938"/>
<circle cx="335.504" cy="482.168" r="2.83938"/>
<circle cx="356.119" cy="481.082" r="2.83938"/>
<circle cx="376.735" cy="475.107" r="2.83938"/>
<circle cx="397.35" cy="456.215" r="2.83938"/>
<circle cx="417.966" cy="465.024" r="2.83938"/>
<circle cx="438.582" cy="462.335" r="2.83938"/>
<circle cx="459.197" cy="463.619" r="2.83938"/>
<circle cx="479.813" cy="455.594" r="2.83938"/>
</g>
<text xml:space="preserve" x="187.426" y="46.3765" fill="black" font-size="15.791" font-family="Helvetica"> Phase-2 Simulation)
</text>
<text xml:space="preserve" x="152.88" y="46.3765" fill="black" font-size="15.791" font-family="Helvetica" font-weight="bold">CMS
</text>
<text xml:space="preserve" x="57.7608" y="46.3765" fill="black" font-size="15.791" font-family="Helvetica">Private work (
</text>
<text xml:space="preserve" x="429.719" y="47.7962" fill="black" font-size="15.791" font-family="Helvetica">200 PU
</text>
<text xml:space="preserve" x="84.2617" y="121.147" fill="black" font-size="25.9849" font-family="Helvetica">MB1
</text>
<text xml:space="preserve" x="197.364" y="121.147" fill="black" font-size="25.9849" font-family="Helvetica">MB2
</text>
<text xml:space="preserve" x="310.939" y="121.147" fill="black" font-size="25.9849" font-family="Helvetica">MB3
</text>
<text xml:space="preserve" x="424.514" y="121.147" fill="black" font-size="25.9849" font-family="Helvetica">MB4
</text>
<path d="M180.887,500.438v -444.881" fill="none" stroke="black" stroke-width="3"/>
<path d="M283.965,500.438v -444.881" fill="none" stroke="black" stroke-width="3"/>
<path d="M387.043,500.438v -444.881" fill="none" stroke="black" stroke-width="3"/>
<rect x="113.886" y="166.671" width="79.3701" height="66.6686" fill="white"/>
<text xml:space="preserve" x="133.951" y="178.881" fill="black" font-size="14.7716" font-family="Helvetica"> Threshold - 6
</text>
<g fill="black">
<circle cx="123.807" cy="175.005" r="2.83938"/>
</g>
<text xml:space="preserve" x="133.951" y="195.444" fill="black" font-size="14.7716" font-family="Helvetica"> Threshold - 8
</text>
<g fill="#ff0000">
<circle cx="123.807" cy="191.672" r="2.83938"/>
</g>
<text xml:space="preserve" x="133.951" y="212.007" fill="black" font-size="14.7716" font-family="Helvetica"> Threshold - 12
</text>
<g fill="#00ff00">
<circle cx="123.807" cy="208.339" r="2.83938"/>
</g>
<text xml:space="preserve" x="133.951" y="228.57" fill="black" font-size="14.7716" font-family="Helvetica"> Threshold - 16
</text>
<g fill="#0000ff">
<circle cx="123.807" cy="225.007" r="2.83938"/>
</g></svg>
