<?xml version="1.0" standalone="no"?>
<svg width="567.429" height="556.072" viewBox="0 0 567.429 556.072" xmlns="http://www.w3.org/2000/svg" shape-rendering="crispEdges">
<title>
./plots/filter_genmuons/filter_genmuons.svg
</title>
<desc>
Creator: ROOT Version 6.32.08
CreationDate: Mon Jun  9 17:56:40 2025</desc>
<defs>
</defs>
<rect x="0.5" y="0" width="566.929" height="555.572" fill="white"/>
<rect x="57.1929" y="55.5572" width="453.543" height="444.457" fill="white"/>
<rect x="57.1929" y="55.5572" width="453.543" height="444.457" fill="none" stroke="black"/>
<path d="M57.1929,500.014h 453.543" fill="none" stroke="black"/>
<path d="M57.1929,486.681v 13.3337" fill="none" stroke="black"/>
<path d="M70.7924,493.348v 6.66686" fill="none" stroke="black"/>
<path d="M84.3919,493.348v 6.66686" fill="none" stroke="black"/>
<path d="M97.9914,493.348v 6.66686" fill="none" stroke="black"/>
<path d="M111.591,493.348v 6.66686" fill="none" stroke="black"/>
<path d="M125.19,486.681v 13.3337" fill="none" stroke="black"/>
<path d="M138.79,493.348v 6.66686" fill="none" stroke="black"/>
<path d="M152.389,493.348v 6.66686" fill="none" stroke="black"/>
<path d="M165.989,493.348v 6.66686" fill="none" stroke="black"/>
<path d="M179.588,493.348v 6.66686" fill="none" stroke="black"/>
<path d="M193.188,486.681v 13.3337" fill="none" stroke="black"/>
<path d="M206.787,493.348v 6.66686" fill="none" stroke="black"/>
<path d="M220.387,493.348v 6.66686" fill="none" stroke="black"/>
<path d="M233.986,493.348v 6.66686" fill="none" stroke="black"/>
<path d="M247.586,493.348v 6.66686" fill="none" stroke="black"/>
<path d="M261.185,486.681v 13.3337" fill="none" stroke="black"/>
<path d="M274.785,493.348v 6.66686" fill="none" stroke="black"/>
<path d="M288.384,493.348v 6.66686" fill="none" stroke="black"/>
<path d="M301.984,493.348v 6.66686" fill="none" stroke="black"/>
<path d="M315.583,493.348v 6.66686" fill="none" stroke="black"/>
<path d="M329.183,486.681v 13.3337" fill="none" stroke="black"/>
<path d="M342.782,493.348v 6.66686" fill="none" stroke="black"/>
<path d="M356.382,493.348v 6.66686" fill="none" stroke="black"/>
<path d="M369.981,493.348v 6.66686" fill="none" stroke="black"/>
<path d="M383.581,493.348v 6.66686" fill="none" stroke="black"/>
<path d="M397.18,486.681v 13.3337" fill="none" stroke="black"/>
<path d="M410.78,493.348v 6.66686" fill="none" stroke="black"/>
<path d="M424.379,493.348v 6.66686" fill="none" stroke="black"/>
<path d="M437.979,493.348v 6.66686" fill="none" stroke="black"/>
<path d="M451.578,493.348v 6.66686" fill="none" stroke="black"/>
<path d="M465.178,486.681v 13.3337" fill="none" stroke="black"/>
<path d="M465.178,486.681v 13.3337" fill="none" stroke="black"/>
<path d="M478.777,493.348v 6.66686" fill="none" stroke="black"/>
<path d="M492.377,493.348v 6.66686" fill="none" stroke="black"/>
<path d="M505.976,493.348v 6.66686" fill="none" stroke="black"/>
<text xml:space="preserve" x="53.0285" y="516.294" fill="black" font-size="15.791" font-family="Helvetica">0
</text>
<text xml:space="preserve" x="112.182" y="516.294" fill="black" font-size="15.791" font-family="Helvetica">500
</text>
<text xml:space="preserve" x="176.068" y="516.294" fill="black" font-size="15.791" font-family="Helvetica">1000
</text>
<text xml:space="preserve" x="244.213" y="516.294" fill="black" font-size="15.791" font-family="Helvetica">1500
</text>
<text xml:space="preserve" x="312.358" y="516.294" fill="black" font-size="15.791" font-family="Helvetica">2000
</text>
<text xml:space="preserve" x="380.03" y="516.294" fill="black" font-size="15.791" font-family="Helvetica">2500
</text>
<text xml:space="preserve" x="448.175" y="516.294" fill="black" font-size="15.791" font-family="Helvetica">3000
</text>
<text xml:space="preserve" x="336.02" y="541.375" fill="black" font-size="20.8879" font-family="Helvetica">GenMuon Pt [GeV]
</text>
<path d="M57.1929,500.014v -444.457" fill="none" stroke="black"/>
<path d="M70.7992,419.535h -13.6063" fill="none" stroke="black"/>
<path d="M63.9961,399.314h -6.80315" fill="none" stroke="black"/>
<path d="M63.9961,379.093h -6.80315" fill="none" stroke="black"/>
<path d="M63.9961,358.872h -6.80315" fill="none" stroke="black"/>
<path d="M70.7992,338.651h -13.6063" fill="none" stroke="black"/>
<path d="M63.9961,318.43h -6.80315" fill="none" stroke="black"/>
<path d="M63.9961,298.209h -6.80315" fill="none" stroke="black"/>
<path d="M63.9961,277.988h -6.80315" fill="none" stroke="black"/>
<path d="M70.7992,257.767h -13.6063" fill="none" stroke="black"/>
<path d="M63.9961,237.546h -6.80315" fill="none" stroke="black"/>
<path d="M63.9961,217.325h -6.80315" fill="none" stroke="black"/>
<path d="M63.9961,197.104h -6.80315" fill="none" stroke="black"/>
<path d="M70.7992,176.883h -13.6063" fill="none" stroke="black"/>
<path d="M63.9961,156.662h -6.80315" fill="none" stroke="black"/>
<path d="M63.9961,136.441h -6.80315" fill="none" stroke="black"/>
<path d="M63.9961,116.22h -6.80315" fill="none" stroke="black"/>
<path d="M70.7992,95.9991h -13.6063" fill="none" stroke="black"/>
<path d="M70.7992,419.535h -13.6063" fill="none" stroke="black"/>
<path d="M63.9961,439.756h -6.80315" fill="none" stroke="black"/>
<path d="M63.9961,459.977h -6.80315" fill="none" stroke="black"/>
<path d="M63.9961,480.198h -6.80315" fill="none" stroke="black"/>
<path d="M70.7992,95.9991h -13.6063" fill="none" stroke="black"/>
<path d="M63.9961,75.7782h -6.80315" fill="none" stroke="black"/>
<text xml:space="preserve" x="38.3584" y="424.014" fill="black" font-size="12.2231" font-family="Helvetica">0.2
</text>
<text xml:space="preserve" x="38.3584" y="343.092" fill="black" font-size="12.2231" font-family="Helvetica">0.4
</text>
<text xml:space="preserve" x="38.3584" y="262.169" fill="black" font-size="12.2231" font-family="Helvetica">0.6
</text>
<text xml:space="preserve" x="38.3584" y="181.247" fill="black" font-size="12.2231" font-family="Helvetica">0.8
</text>
<text xml:space="preserve" x="50.1891" y="100.798" fill="black" font-size="12.2231" font-family="Helvetica">1
</text>
<path d="M61.7284,400.416v 1.25229" fill="none" stroke="black"/>
<path d="M61.7284,406.094v -1.26964" fill="none" stroke="black"/>
<path d="M60.7819,401.668h 1.89292" fill="none" stroke="black"/>
<path d="M60.7819,404.825h 1.89292" fill="none" stroke="black"/>
<path d="M70.7992,367.952v 1.31542" fill="none" stroke="black"/>
<path d="M70.7992,373.631v -1.32475" fill="none" stroke="black"/>
<path d="M69.8528,369.267h 1.89292" fill="none" stroke="black"/>
<path d="M69.8528,372.306h 1.89292" fill="none" stroke="black"/>
<path d="M79.8701,359.714v 1.16606" fill="none" stroke="black"/>
<path d="M79.8701,365.393v -1.17572" fill="none" stroke="black"/>
<path d="M78.9236,360.88h 1.89292" fill="none" stroke="black"/>
<path d="M78.9236,364.217h 1.89292" fill="none" stroke="black"/>
<path d="M88.9409,346.882v 1.00105" fill="none" stroke="black"/>
<path d="M88.9409,352.561v -1.01002" fill="none" stroke="black"/>
<path d="M87.9945,347.883h 1.89292" fill="none" stroke="black"/>
<path d="M87.9945,351.551h 1.89292" fill="none" stroke="black"/>
<path d="M98.0118,339.394v 0.834608" fill="none" stroke="black"/>
<path d="M98.0118,345.073v -0.843561" fill="none" stroke="black"/>
<path d="M97.0654,340.228h 1.89292" fill="none" stroke="black"/>
<path d="M97.0654,344.229h 1.89292" fill="none" stroke="black"/>
<path d="M107.083,331.497v 0.642677" fill="none" stroke="black"/>
<path d="M107.083,337.176v -0.651355" fill="none" stroke="black"/>
<path d="M106.136,332.14h 1.89292" fill="none" stroke="black"/>
<path d="M106.136,336.525h 1.89292" fill="none" stroke="black"/>
<path d="M116.154,325.132v 0.437795" fill="none" stroke="black"/>
<path d="M116.154,330.811v -0.446247" fill="none" stroke="black"/>
<path d="M115.207,325.57h 1.89292" fill="none" stroke="black"/>
<path d="M115.207,330.365h 1.89292" fill="none" stroke="black"/>
<path d="M125.224,313.729v 0.269726" fill="none" stroke="black"/>
<path d="M125.224,319.408v -0.275617" fill="none" stroke="black"/>
<path d="M124.278,313.999h 1.89292" fill="none" stroke="black"/>
<path d="M124.278,319.132h 1.89292" fill="none" stroke="black"/>
<path d="M134.295,304.107v 0.067482" fill="none" stroke="black"/>
<path d="M134.295,309.785v -0.0707242" fill="none" stroke="black"/>
<path d="M133.349,304.174h 1.89292" fill="none" stroke="black"/>
<path d="M133.349,309.715h 1.89292" fill="none" stroke="black"/>
<path d="M143.366,303.115v -0.161122" fill="none" stroke="black"/>
<path d="M143.366,308.794v 0.157759" fill="none" stroke="black"/>
<path d="M142.42,302.954h 1.89292" fill="none" stroke="black"/>
<path d="M142.42,308.952h 1.89292" fill="none" stroke="black"/>
<path d="M152.437,293.493v -0.412736" fill="none" stroke="black"/>
<path d="M152.437,299.172v 0.413692" fill="none" stroke="black"/>
<path d="M151.491,293.08h 1.89292" fill="none" stroke="black"/>
<path d="M151.491,299.586h 1.89292" fill="none" stroke="black"/>
<path d="M161.508,285.718v -0.651006" fill="none" stroke="black"/>
<path d="M161.508,291.397v 0.656683" fill="none" stroke="black"/>
<path d="M160.561,285.067h 1.89292" fill="none" stroke="black"/>
<path d="M160.561,292.054h 1.89292" fill="none" stroke="black"/>
<path d="M170.579,283.963v -0.95803" fill="none" stroke="black"/>
<path d="M170.579,289.642v 0.965973" fill="none" stroke="black"/>
<path d="M169.632,283.005h 1.89292" fill="none" stroke="black"/>
<path d="M169.632,290.608h 1.89292" fill="none" stroke="black"/>
<path d="M179.65,273.861v -1.22922" fill="none" stroke="black"/>
<path d="M179.65,279.54v 1.24657" fill="none" stroke="black"/>
<path d="M178.703,272.632h 1.89292" fill="none" stroke="black"/>
<path d="M178.703,280.787h 1.89292" fill="none" stroke="black"/>
<path d="M188.72,272.038v -1.48714" fill="none" stroke="black"/>
<path d="M188.72,277.716v 1.50845" fill="none" stroke="black"/>
<path d="M187.774,270.551h 1.89292" fill="none" stroke="black"/>
<path d="M187.774,279.225h 1.89292" fill="none" stroke="black"/>
<path d="M197.791,264.245v -1.63773" fill="none" stroke="black"/>
<path d="M197.791,269.924v 1.66853" fill="none" stroke="black"/>
<path d="M196.845,262.608h 1.89292" fill="none" stroke="black"/>
<path d="M196.845,271.593h 1.89292" fill="none" stroke="black"/>
<path d="M206.862,266.544v -1.86722" fill="none" stroke="black"/>
<path d="M206.862,272.223v 1.89859" fill="none" stroke="black"/>
<path d="M205.916,264.677h 1.89292" fill="none" stroke="black"/>
<path d="M205.916,274.121h 1.89292" fill="none" stroke="black"/>
<path d="M215.933,267.47v -2.30733" fill="none" stroke="black"/>
<path d="M215.933,273.149v 2.34353" fill="none" stroke="black"/>
<path d="M214.987,265.162h 1.89292" fill="none" stroke="black"/>
<path d="M214.987,275.492h 1.89292" fill="none" stroke="black"/>
<path d="M225.004,268.635v -2.70337" fill="none" stroke="black"/>
<path d="M225.004,274.314v 2.74347" fill="none" stroke="black"/>
<path d="M224.057,265.931h 1.89292" fill="none" stroke="black"/>
<path d="M224.057,277.057h 1.89292" fill="none" stroke="black"/>
<path d="M234.075,274.028v -2.83617" fill="none" stroke="black"/>
<path d="M234.075,279.707v 2.86946" fill="none" stroke="black"/>
<path d="M233.128,271.192h 1.89292" fill="none" stroke="black"/>
<path d="M233.128,282.576h 1.89292" fill="none" stroke="black"/>
<path d="M243.146,264.297v -2.90146" fill="none" stroke="black"/>
<path d="M243.146,269.976v 2.9518" fill="none" stroke="black"/>
<path d="M242.199,261.396h 1.89292" fill="none" stroke="black"/>
<path d="M242.199,272.928h 1.89292" fill="none" stroke="black"/>
<path d="M252.217,267.455v -3.11463" fill="none" stroke="black"/>
<path d="M252.217,273.134v 3.16298" fill="none" stroke="black"/>
<path d="M251.27,264.341h 1.89292" fill="none" stroke="black"/>
<path d="M251.27,276.297h 1.89292" fill="none" stroke="black"/>
<path d="M261.287,269.778v -3.30281" fill="none" stroke="black"/>
<path d="M261.287,275.457v 3.34977" fill="none" stroke="black"/>
<path d="M260.341,266.475h 1.89292" fill="none" stroke="black"/>
<path d="M260.341,278.807h 1.89292" fill="none" stroke="black"/>
<path d="M270.358,274.751v -3.47927" fill="none" stroke="black"/>
<path d="M270.358,280.43v 3.51901" fill="none" stroke="black"/>
<path d="M269.412,271.272h 1.89292" fill="none" stroke="black"/>
<path d="M269.412,283.949h 1.89292" fill="none" stroke="black"/>
<path d="M279.429,277.092v -3.54381" fill="none" stroke="black"/>
<path d="M279.429,282.771v 3.57964" fill="none" stroke="black"/>
<path d="M278.483,273.548h 1.89292" fill="none" stroke="black"/>
<path d="M278.483,286.35h 1.89292" fill="none" stroke="black"/>
<path d="M288.5,279.578v -3.55585" fill="none" stroke="black"/>
<path d="M288.5,285.257v 3.58684" fill="none" stroke="black"/>
<path d="M287.554,276.022h 1.89292" fill="none" stroke="black"/>
<path d="M287.554,288.844h 1.89292" fill="none" stroke="black"/>
<path d="M297.571,272.146v -3.65442" fill="none" stroke="black"/>
<path d="M297.571,277.824v 3.70184" fill="none" stroke="black"/>
<path d="M296.624,268.491h 1.89292" fill="none" stroke="black"/>
<path d="M296.624,281.526h 1.89292" fill="none" stroke="black"/>
<path d="M306.642,261.082v -3.90831" fill="none" stroke="black"/>
<path d="M306.642,266.761v 3.98529" fill="none" stroke="black"/>
<path d="M305.695,257.174h 1.89292" fill="none" stroke="black"/>
<path d="M305.695,270.746h 1.89292" fill="none" stroke="black"/>
<path d="M315.713,281.807v -3.78014" fill="none" stroke="black"/>
<path d="M315.713,287.486v 3.80856" fill="none" stroke="black"/>
<path d="M314.766,278.027h 1.89292" fill="none" stroke="black"/>
<path d="M314.766,291.294h 1.89292" fill="none" stroke="black"/>
<path d="M324.783,261.633v -3.74874" fill="none" stroke="black"/>
<path d="M324.783,267.312v 3.82089" fill="none" stroke="black"/>
<path d="M323.837,257.884h 1.89292" fill="none" stroke="black"/>
<path d="M323.837,271.133h 1.89292" fill="none" stroke="black"/>
<path d="M333.854,267.128v -4.0429" fill="none" stroke="black"/>
<path d="M333.854,272.807v 4.10809" fill="none" stroke="black"/>
<path d="M332.908,263.085h 1.89292" fill="none" stroke="black"/>
<path d="M332.908,276.915h 1.89292" fill="none" stroke="black"/>
<path d="M342.925,269.86v -3.76171" fill="none" stroke="black"/>
<path d="M342.925,275.539v 3.8157" fill="none" stroke="black"/>
<path d="M341.979,266.098h 1.89292" fill="none" stroke="black"/>
<path d="M341.979,279.355h 1.89292" fill="none" stroke="black"/>
<path d="M351.996,254.844v -3.70764" fill="none" stroke="black"/>
<path d="M351.996,260.522v 3.79452" fill="none" stroke="black"/>
<path d="M351.05,251.136h 1.89292" fill="none" stroke="black"/>
<path d="M351.05,264.317h 1.89292" fill="none" stroke="black"/>
<path d="M361.067,237.952v -3.81268" fill="none" stroke="black"/>
<path d="M361.067,243.631v 3.94598" fill="none" stroke="black"/>
<path d="M360.12,234.139h 1.89292" fill="none" stroke="black"/>
<path d="M360.12,247.577h 1.89292" fill="none" stroke="black"/>
<path d="M370.138,238.403v -3.67344" fill="none" stroke="black"/>
<path d="M370.138,244.082v 3.80005" fill="none" stroke="black"/>
<path d="M369.191,234.73h 1.89292" fill="none" stroke="black"/>
<path d="M369.191,247.882h 1.89292" fill="none" stroke="black"/>
<path d="M379.209,224.924v -3.22252" fill="none" stroke="black"/>
<path d="M379.209,230.602v 3.36532" fill="none" stroke="black"/>
<path d="M378.262,221.701h 1.89292" fill="none" stroke="black"/>
<path d="M378.262,233.968h 1.89292" fill="none" stroke="black"/>
<path d="M388.28,202.919v -3.07933" fill="none" stroke="black"/>
<path d="M388.28,208.598v 3.27922" fill="none" stroke="black"/>
<path d="M387.333,199.839h 1.89292" fill="none" stroke="black"/>
<path d="M387.333,211.877h 1.89292" fill="none" stroke="black"/>
<path d="M397.35,204.853v -3.06315" fill="none" stroke="black"/>
<path d="M397.35,210.531v 3.25555" fill="none" stroke="black"/>
<path d="M396.404,201.79h 1.89292" fill="none" stroke="black"/>
<path d="M396.404,213.787h 1.89292" fill="none" stroke="black"/>
<path d="M406.421,199.109v -2.94018" fill="none" stroke="black"/>
<path d="M406.421,204.787v 3.14343" fill="none" stroke="black"/>
<path d="M405.475,196.168h 1.89292" fill="none" stroke="black"/>
<path d="M405.475,207.931h 1.89292" fill="none" stroke="black"/>
<path d="M415.492,196.771v -2.60033" fill="none" stroke="black"/>
<path d="M415.492,202.45v 2.78759" fill="none" stroke="black"/>
<path d="M414.546,194.171h 1.89292" fill="none" stroke="black"/>
<path d="M414.546,205.238h 1.89292" fill="none" stroke="black"/>
<path d="M424.563,178.06v -2.09044" fill="none" stroke="black"/>
<path d="M424.563,183.738v 2.30211" fill="none" stroke="black"/>
<path d="M423.617,175.969h 1.89292" fill="none" stroke="black"/>
<path d="M423.617,186.041h 1.89292" fill="none" stroke="black"/>
<path d="M433.634,188.96v -2.08036" fill="none" stroke="black"/>
<path d="M433.634,194.639v 2.25506" fill="none" stroke="black"/>
<path d="M432.687,186.88h 1.89292" fill="none" stroke="black"/>
<path d="M432.687,196.894h 1.89292" fill="none" stroke="black"/>
<path d="M442.705,172.611v -1.77928" fill="none" stroke="black"/>
<path d="M442.705,178.29v 1.98392" fill="none" stroke="black"/>
<path d="M441.758,170.832h 1.89292" fill="none" stroke="black"/>
<path d="M441.758,180.274h 1.89292" fill="none" stroke="black"/>
<path d="M451.776,174.931v -1.46542" fill="none" stroke="black"/>
<path d="M451.776,180.609v 1.63583" fill="none" stroke="black"/>
<path d="M450.829,173.465h 1.89292" fill="none" stroke="black"/>
<path d="M450.829,182.245h 1.89292" fill="none" stroke="black"/>
<path d="M460.846,167.112v -1.26765" fill="none" stroke="black"/>
<path d="M460.846,172.791v 1.44648" fill="none" stroke="black"/>
<path d="M459.9,165.845h 1.89292" fill="none" stroke="black"/>
<path d="M459.9,174.238h 1.89292" fill="none" stroke="black"/>
<path d="M469.917,173.843v -2.94077" fill="none" stroke="black"/>
<path d="M469.917,179.522v 3.25498" fill="none" stroke="black"/>
<path d="M468.971,170.902h 1.89292" fill="none" stroke="black"/>
<path d="M468.971,182.777h 1.89292" fill="none" stroke="black"/>
<path d="M478.988,175.514v -7.23517" fill="none" stroke="black"/>
<path d="M478.988,181.193v 8.16999" fill="none" stroke="black"/>
<path d="M478.042,168.279h 1.89292" fill="none" stroke="black"/>
<path d="M478.042,189.363h 1.89292" fill="none" stroke="black"/>
<path d="M488.059,140.049v -8.36481" fill="none" stroke="black"/>
<path d="M488.059,145.728v 10.9031" fill="none" stroke="black"/>
<path d="M487.113,131.684h 1.89292" fill="none" stroke="black"/>
<path d="M487.113,156.631h 1.89292" fill="none" stroke="black"/>
<path d="M497.13,159.187v -19.1783" fill="none" stroke="black"/>
<path d="M497.13,164.866v 25.7173" fill="none" stroke="black"/>
<path d="M496.183,140.009h 1.89292" fill="none" stroke="black"/>
<path d="M496.183,190.584h 1.89292" fill="none" stroke="black"/>
<path d="M506.201,163.155v -19.1107" fill="none" stroke="black"/>
<path d="M506.201,168.834v 25.0486" fill="none" stroke="black"/>
<path d="M505.254,144.045h 1.89292" fill="none" stroke="black"/>
<path d="M505.254,193.883h 1.89292" fill="none" stroke="black"/>
<g fill="black">
<circle cx="61.7284" cy="403.255" r="2.83938"/>
<circle cx="70.7992" cy="370.791" r="2.83938"/>
<circle cx="79.8701" cy="362.553" r="2.83938"/>
<circle cx="88.9409" cy="349.721" r="2.83938"/>
<circle cx="98.0118" cy="342.233" r="2.83938"/>
<circle cx="107.083" cy="334.337" r="2.83938"/>
<circle cx="116.154" cy="327.972" r="2.83938"/>
<circle cx="125.224" cy="316.568" r="2.83938"/>
<circle cx="134.295" cy="306.946" r="2.83938"/>
<circle cx="143.366" cy="305.955" r="2.83938"/>
<circle cx="152.437" cy="296.332" r="2.83938"/>
<circle cx="161.508" cy="288.558" r="2.83938"/>
<circle cx="170.579" cy="286.802" r="2.83938"/>
<circle cx="179.65" cy="276.701" r="2.83938"/>
<circle cx="188.72" cy="274.877" r="2.83938"/>
<circle cx="197.791" cy="267.085" r="2.83938"/>
<circle cx="206.862" cy="269.383" r="2.83938"/>
<circle cx="215.933" cy="270.309" r="2.83938"/>
<circle cx="225.004" cy="271.474" r="2.83938"/>
<circle cx="234.075" cy="276.867" r="2.83938"/>
<circle cx="243.146" cy="267.137" r="2.83938"/>
<circle cx="252.217" cy="270.295" r="2.83938"/>
<circle cx="261.287" cy="272.617" r="2.83938"/>
<circle cx="270.358" cy="277.591" r="2.83938"/>
<circle cx="279.429" cy="279.931" r="2.83938"/>
<circle cx="288.5" cy="282.417" r="2.83938"/>
<circle cx="297.571" cy="274.985" r="2.83938"/>
<circle cx="306.642" cy="263.921" r="2.83938"/>
<circle cx="315.713" cy="284.646" r="2.83938"/>
<circle cx="324.783" cy="264.472" r="2.83938"/>
<circle cx="333.854" cy="269.967" r="2.83938"/>
<circle cx="342.925" cy="272.699" r="2.83938"/>
<circle cx="351.996" cy="257.683" r="2.83938"/>
<circle cx="361.067" cy="240.791" r="2.83938"/>
<circle cx="370.138" cy="241.242" r="2.83938"/>
<circle cx="379.209" cy="227.763" r="2.83938"/>
<circle cx="388.28" cy="205.758" r="2.83938"/>
<circle cx="397.35" cy="207.692" r="2.83938"/>
<circle cx="406.421" cy="201.948" r="2.83938"/>
<circle cx="415.492" cy="199.611" r="2.83938"/>
<circle cx="424.563" cy="180.899" r="2.83938"/>
<circle cx="433.634" cy="191.8" r="2.83938"/>
<circle cx="442.705" cy="175.45" r="2.83938"/>
<circle cx="451.776" cy="177.77" r="2.83938"/>
<circle cx="460.846" cy="169.952" r="2.83938"/>
<circle cx="469.917" cy="176.683" r="2.83938"/>
<circle cx="478.988" cy="178.354" r="2.83938"/>
<circle cx="488.059" cy="142.888" r="2.83938"/>
<circle cx="497.13" cy="162.027" r="2.83938"/>
<circle cx="506.201" cy="165.995" r="2.83938"/>
</g>
<text xml:space="preserve" x="187.426" y="46.3765" fill="black" font-size="15.791" font-family="Helvetica"> Phase-2 Simulation)
</text>
<text xml:space="preserve" x="152.88" y="46.3765" fill="black" font-size="15.791" font-family="Helvetica" font-weight="bold">CMS
</text>
<text xml:space="preserve" x="57.7608" y="46.3765" fill="black" font-size="15.791" font-family="Helvetica">Private work (
</text>
<text xml:space="preserve" x="429.719" y="47.7962" fill="black" font-size="15.791" font-family="Helvetica">200 PU
</text>
<rect x="351.996" y="305.564" width="45.3543" height="44.4457" fill="white"/>
<text xml:space="preserve" x="397.54" y="341.672" fill="black" font-size="14.7716" font-family="Helvetica">GenMuon
</text>
<text xml:space="preserve" x="363.467" y="325.582" fill="black" font-size="14.7716" font-family="Helvetica">GenMuon showered
</text>
<path d="M363.467,328.421h 131.558" fill="none" stroke="black" stroke-width="2"/>
<g fill="black">
<circle cx="357.665" cy="327.787" r="2.83938"/>
</g></svg>
