<?xml version="1.0" standalone="no"?>
<svg width="567.429" height="460.952" viewBox="0 0 567.429 460.952" xmlns="http://www.w3.org/2000/svg" shape-rendering="crispEdges">
<title>
./plots/filter_genmuons_shower_tag_2/filter_genmuons_shower_tag_2.svg
</title>
<desc>
Creator: ROOT Version 6.34.08
CreationDate: Wed Jun 11 14:29:22 2025</desc>
<defs>
</defs>
<rect x="0.5" y="0" width="566.929" height="460.452" fill="white"/>
<rect x="57.1929" y="46.0452" width="453.543" height="368.362" fill="white"/>
<rect x="57.1929" y="46.0452" width="453.543" height="368.362" fill="none" stroke="black"/>
<path d="M57.1929,414.407h 453.543" fill="none" stroke="black"/>
<path d="M57.1929,403.356v 11.0509" fill="none" stroke="black"/>
<path d="M70.7924,408.882v 5.52543" fill="none" stroke="black"/>
<path d="M84.3919,408.882v 5.52543" fill="none" stroke="black"/>
<path d="M97.9914,408.882v 5.52543" fill="none" stroke="black"/>
<path d="M111.591,408.882v 5.52543" fill="none" stroke="black"/>
<path d="M125.19,403.356v 11.0509" fill="none" stroke="black"/>
<path d="M138.79,408.882v 5.52543" fill="none" stroke="black"/>
<path d="M152.389,408.882v 5.52543" fill="none" stroke="black"/>
<path d="M165.989,408.882v 5.52543" fill="none" stroke="black"/>
<path d="M179.588,408.882v 5.52543" fill="none" stroke="black"/>
<path d="M193.188,403.356v 11.0509" fill="none" stroke="black"/>
<path d="M206.787,408.882v 5.52543" fill="none" stroke="black"/>
<path d="M220.387,408.882v 5.52543" fill="none" stroke="black"/>
<path d="M233.986,408.882v 5.52543" fill="none" stroke="black"/>
<path d="M247.586,408.882v 5.52543" fill="none" stroke="black"/>
<path d="M261.185,403.356v 11.0509" fill="none" stroke="black"/>
<path d="M274.785,408.882v 5.52543" fill="none" stroke="black"/>
<path d="M288.384,408.882v 5.52543" fill="none" stroke="black"/>
<path d="M301.984,408.882v 5.52543" fill="none" stroke="black"/>
<path d="M315.583,408.882v 5.52543" fill="none" stroke="black"/>
<path d="M329.183,403.356v 11.0509" fill="none" stroke="black"/>
<path d="M342.782,408.882v 5.52543" fill="none" stroke="black"/>
<path d="M356.382,408.882v 5.52543" fill="none" stroke="black"/>
<path d="M369.981,408.882v 5.52543" fill="none" stroke="black"/>
<path d="M383.581,408.882v 5.52543" fill="none" stroke="black"/>
<path d="M397.18,403.356v 11.0509" fill="none" stroke="black"/>
<path d="M410.78,408.882v 5.52543" fill="none" stroke="black"/>
<path d="M424.379,408.882v 5.52543" fill="none" stroke="black"/>
<path d="M437.979,408.882v 5.52543" fill="none" stroke="black"/>
<path d="M451.578,408.882v 5.52543" fill="none" stroke="black"/>
<path d="M465.178,403.356v 11.0509" fill="none" stroke="black"/>
<path d="M465.178,403.356v 11.0509" fill="none" stroke="black"/>
<path d="M478.777,408.882v 5.52543" fill="none" stroke="black"/>
<path d="M492.377,408.882v 5.52543" fill="none" stroke="black"/>
<path d="M505.976,408.882v 5.52543" fill="none" stroke="black"/>
<text xml:space="preserve" x="53.975" y="427.8" fill="black" font-size="13.173" font-family="Helvetica">0
</text>
<text xml:space="preserve" x="114.548" y="427.8" fill="black" font-size="13.173" font-family="Helvetica">500
</text>
<text xml:space="preserve" x="178.908" y="427.8" fill="black" font-size="13.173" font-family="Helvetica">1000
</text>
<text xml:space="preserve" x="247.053" y="427.8" fill="black" font-size="13.173" font-family="Helvetica">1500
</text>
<text xml:space="preserve" x="315.198" y="427.8" fill="black" font-size="13.173" font-family="Helvetica">2000
</text>
<text xml:space="preserve" x="382.87" y="427.8" fill="black" font-size="13.173" font-family="Helvetica">2500
</text>
<text xml:space="preserve" x="451.015" y="427.8" fill="black" font-size="13.173" font-family="Helvetica">3000
</text>
<text xml:space="preserve" x="371.512" y="448.622" fill="black" font-size="17.3973" font-family="Helvetica">GenMuon Pt [GeV]
</text>
<path d="M57.1929,414.407v -368.362" fill="none" stroke="black"/>
<path d="M70.7992,347.707h -13.6063" fill="none" stroke="black"/>
<path d="M63.9961,330.948h -6.80315" fill="none" stroke="black"/>
<path d="M63.9961,314.189h -6.80315" fill="none" stroke="black"/>
<path d="M63.9961,297.43h -6.80315" fill="none" stroke="black"/>
<path d="M70.7992,280.671h -13.6063" fill="none" stroke="black"/>
<path d="M63.9961,263.912h -6.80315" fill="none" stroke="black"/>
<path d="M63.9961,247.153h -6.80315" fill="none" stroke="black"/>
<path d="M63.9961,230.394h -6.80315" fill="none" stroke="black"/>
<path d="M70.7992,213.635h -13.6063" fill="none" stroke="black"/>
<path d="M63.9961,196.876h -6.80315" fill="none" stroke="black"/>
<path d="M63.9961,180.117h -6.80315" fill="none" stroke="black"/>
<path d="M63.9961,163.358h -6.80315" fill="none" stroke="black"/>
<path d="M70.7992,146.599h -13.6063" fill="none" stroke="black"/>
<path d="M63.9961,129.84h -6.80315" fill="none" stroke="black"/>
<path d="M63.9961,113.081h -6.80315" fill="none" stroke="black"/>
<path d="M63.9961,96.3221h -6.80315" fill="none" stroke="black"/>
<path d="M70.7992,79.5632h -13.6063" fill="none" stroke="black"/>
<path d="M70.7992,347.707h -13.6063" fill="none" stroke="black"/>
<path d="M63.9961,364.466h -6.80315" fill="none" stroke="black"/>
<path d="M63.9961,381.224h -6.80315" fill="none" stroke="black"/>
<path d="M63.9961,397.983h -6.80315" fill="none" stroke="black"/>
<path d="M70.7992,79.5632h -13.6063" fill="none" stroke="black"/>
<path d="M63.9961,62.8042h -6.80315" fill="none" stroke="black"/>
<text xml:space="preserve" x="41.1978" y="351.61" fill="black" font-size="10.216" font-family="Helvetica">0.2
</text>
<text xml:space="preserve" x="41.1978" y="284.411" fill="black" font-size="10.216" font-family="Helvetica">0.4
</text>
<text xml:space="preserve" x="41.1978" y="217.212" fill="black" font-size="10.216" font-family="Helvetica">0.6
</text>
<text xml:space="preserve" x="41.1978" y="150.487" fill="black" font-size="10.216" font-family="Helvetica">0.8
</text>
<text xml:space="preserve" x="50.6623" y="83.2884" fill="black" font-size="10.216" font-family="Helvetica">1
</text>
<g transform="rotate(-90,36.4655,229.99)">
<text xml:space="preserve" x="36.4655" y="229.99" fill="black" font-size="17.3973" font-family="Helvetica">GenMuon showered
</text>
</g>
<g transform="rotate(-90,18.956,265.955)">
<text xml:space="preserve" x="18.956" y="265.955" fill="black" font-size="17.3973" font-family="Helvetica">GenMuon showered identified
</text>
</g>
<path d="M21.3221,265.955l 0.47323, -220.052" fill="none" stroke="black" stroke-width="2"/>
<path d="M125.224,313.3v -0.0945642" fill="none" stroke="black"/>
<path d="M125.224,318.979v 0.045498" fill="none" stroke="black"/>
<path d="M124.278,313.206h 1.89292" fill="none" stroke="black"/>
<path d="M124.278,319.025h 1.89292" fill="none" stroke="black"/>
<path d="M134.295,314.03v -0.232863" fill="none" stroke="black"/>
<path d="M134.295,319.709v 0.178366" fill="none" stroke="black"/>
<path d="M133.349,313.797h 1.89292" fill="none" stroke="black"/>
<path d="M133.349,319.887h 1.89292" fill="none" stroke="black"/>
<path d="M143.366,309.574v -0.520622" fill="none" stroke="black"/>
<path d="M143.366,315.253v 0.46122" fill="none" stroke="black"/>
<path d="M142.42,309.054h 1.89292" fill="none" stroke="black"/>
<path d="M142.42,315.714h 1.89292" fill="none" stroke="black"/>
<path d="M152.437,302.953v -0.772963" fill="none" stroke="black"/>
<path d="M152.437,308.632v 0.713304" fill="none" stroke="black"/>
<path d="M151.491,302.18h 1.89292" fill="none" stroke="black"/>
<path d="M151.491,309.345h 1.89292" fill="none" stroke="black"/>
<path d="M161.508,295.118v -1.03368" fill="none" stroke="black"/>
<path d="M161.508,300.797v 0.976206" fill="none" stroke="black"/>
<path d="M160.561,294.084h 1.89292" fill="none" stroke="black"/>
<path d="M160.561,301.773h 1.89292" fill="none" stroke="black"/>
<path d="M170.579,298.875v -1.33545" fill="none" stroke="black"/>
<path d="M170.579,304.554v 1.26295" fill="none" stroke="black"/>
<path d="M169.632,297.539h 1.89292" fill="none" stroke="black"/>
<path d="M169.632,305.817h 1.89292" fill="none" stroke="black"/>
<path d="M179.65,298.34v -1.56003" fill="none" stroke="black"/>
<path d="M179.65,304.019v 1.48065" fill="none" stroke="black"/>
<path d="M178.703,296.78h 1.89292" fill="none" stroke="black"/>
<path d="M178.703,305.499h 1.89292" fill="none" stroke="black"/>
<path d="M188.72,283.96v -1.93697" fill="none" stroke="black"/>
<path d="M188.72,289.638v 1.87157" fill="none" stroke="black"/>
<path d="M187.774,282.023h 1.89292" fill="none" stroke="black"/>
<path d="M187.774,291.51h 1.89292" fill="none" stroke="black"/>
<path d="M197.791,280.025v -2.07262" fill="none" stroke="black"/>
<path d="M197.791,285.703v 2.01096" fill="none" stroke="black"/>
<path d="M196.845,277.952h 1.89292" fill="none" stroke="black"/>
<path d="M196.845,287.714h 1.89292" fill="none" stroke="black"/>
<path d="M206.862,295.183v -2.2358" fill="none" stroke="black"/>
<path d="M206.862,300.862v 2.13809" fill="none" stroke="black"/>
<path d="M205.916,292.947h 1.89292" fill="none" stroke="black"/>
<path d="M205.916,303h 1.89292" fill="none" stroke="black"/>
<path d="M215.933,284.393v -2.81725" fill="none" stroke="black"/>
<path d="M215.933,290.072v 2.72508" fill="none" stroke="black"/>
<path d="M214.987,281.576h 1.89292" fill="none" stroke="black"/>
<path d="M214.987,292.797h 1.89292" fill="none" stroke="black"/>
<path d="M225.004,281.724v -3.29103" fill="none" stroke="black"/>
<path d="M225.004,287.402v 3.19101" fill="none" stroke="black"/>
<path d="M224.057,278.433h 1.89292" fill="none" stroke="black"/>
<path d="M224.057,290.594h 1.89292" fill="none" stroke="black"/>
<path d="M234.075,279.765v -3.50769" fill="none" stroke="black"/>
<path d="M234.075,285.444v 3.40669" fill="none" stroke="black"/>
<path d="M233.128,276.257h 1.89292" fill="none" stroke="black"/>
<path d="M233.128,288.85h 1.89292" fill="none" stroke="black"/>
<path d="M243.146,278.198v -3.49958" fill="none" stroke="black"/>
<path d="M243.146,283.876v 3.40359" fill="none" stroke="black"/>
<path d="M242.199,274.698h 1.89292" fill="none" stroke="black"/>
<path d="M242.199,287.28h 1.89292" fill="none" stroke="black"/>
<path d="M252.217,271.088v -3.80762" fill="none" stroke="black"/>
<path d="M252.217,276.767v 3.72539" fill="none" stroke="black"/>
<path d="M251.27,267.28h 1.89292" fill="none" stroke="black"/>
<path d="M251.27,280.492h 1.89292" fill="none" stroke="black"/>
<path d="M261.287,273.482v -4.03286" fill="none" stroke="black"/>
<path d="M261.287,279.161v 3.93692" fill="none" stroke="black"/>
<path d="M260.341,269.45h 1.89292" fill="none" stroke="black"/>
<path d="M260.341,283.098h 1.89292" fill="none" stroke="black"/>
<path d="M270.358,281.018v -4.24177" fill="none" stroke="black"/>
<path d="M270.358,286.697v 4.11201" fill="none" stroke="black"/>
<path d="M269.412,276.776h 1.89292" fill="none" stroke="black"/>
<path d="M269.412,290.809h 1.89292" fill="none" stroke="black"/>
<path d="M279.429,279.118v -4.35856" fill="none" stroke="black"/>
<path d="M279.429,284.797v 4.23203" fill="none" stroke="black"/>
<path d="M278.483,274.76h 1.89292" fill="none" stroke="black"/>
<path d="M278.483,289.029h 1.89292" fill="none" stroke="black"/>
<path d="M288.5,269.778v -4.45951" fill="none" stroke="black"/>
<path d="M288.5,275.456v 4.36581" fill="none" stroke="black"/>
<path d="M287.554,265.318h 1.89292" fill="none" stroke="black"/>
<path d="M287.554,279.822h 1.89292" fill="none" stroke="black"/>
<path d="M297.571,265.448v -4.49737" fill="none" stroke="black"/>
<path d="M297.571,271.127v 4.41918" fill="none" stroke="black"/>
<path d="M296.624,260.951h 1.89292" fill="none" stroke="black"/>
<path d="M296.624,275.546h 1.89292" fill="none" stroke="black"/>
<path d="M306.642,267.365v -4.66626" fill="none" stroke="black"/>
<path d="M306.642,273.044v 4.57694" fill="none" stroke="black"/>
<path d="M305.695,262.699h 1.89292" fill="none" stroke="black"/>
<path d="M305.695,277.62h 1.89292" fill="none" stroke="black"/>
<path d="M315.713,272.085v -4.74074" fill="none" stroke="black"/>
<path d="M315.713,277.764v 4.63039" fill="none" stroke="black"/>
<path d="M314.766,267.345h 1.89292" fill="none" stroke="black"/>
<path d="M314.766,282.395h 1.89292" fill="none" stroke="black"/>
<path d="M324.783,268.425v -4.48582" fill="none" stroke="black"/>
<path d="M324.783,274.104v 4.39662" fill="none" stroke="black"/>
<path d="M323.837,263.939h 1.89292" fill="none" stroke="black"/>
<path d="M323.837,278.5h 1.89292" fill="none" stroke="black"/>
<path d="M333.854,263.373v -4.89325" fill="none" stroke="black"/>
<path d="M333.854,269.051v 4.81527" fill="none" stroke="black"/>
<path d="M332.908,258.479h 1.89292" fill="none" stroke="black"/>
<path d="M332.908,273.867h 1.89292" fill="none" stroke="black"/>
<path d="M342.925,263.545v -4.6007" fill="none" stroke="black"/>
<path d="M342.925,269.224v 4.52772" fill="none" stroke="black"/>
<path d="M341.979,258.944h 1.89292" fill="none" stroke="black"/>
<path d="M341.979,273.751h 1.89292" fill="none" stroke="black"/>
<path d="M351.996,260.55v -4.41135" fill="none" stroke="black"/>
<path d="M351.996,266.229v 4.35288" fill="none" stroke="black"/>
<path d="M351.05,256.139h 1.89292" fill="none" stroke="black"/>
<path d="M351.05,270.582h 1.89292" fill="none" stroke="black"/>
<path d="M361.067,267.753v -4.42817" fill="none" stroke="black"/>
<path d="M361.067,273.431v 4.34285" fill="none" stroke="black"/>
<path d="M360.12,263.324h 1.89292" fill="none" stroke="black"/>
<path d="M360.12,277.774h 1.89292" fill="none" stroke="black"/>
<path d="M370.138,250.5v -4.30644" fill="none" stroke="black"/>
<path d="M370.138,256.178v 4.28485" fill="none" stroke="black"/>
<path d="M369.191,246.193h 1.89292" fill="none" stroke="black"/>
<path d="M369.191,260.463h 1.89292" fill="none" stroke="black"/>
<path d="M379.209,257.73v -3.79327" fill="none" stroke="black"/>
<path d="M379.209,263.409v 3.75275" fill="none" stroke="black"/>
<path d="M378.262,253.937h 1.89292" fill="none" stroke="black"/>
<path d="M378.262,267.162h 1.89292" fill="none" stroke="black"/>
<path d="M388.28,252.477v -3.7438" fill="none" stroke="black"/>
<path d="M388.28,258.156v 3.71955" fill="none" stroke="black"/>
<path d="M387.333,248.733h 1.89292" fill="none" stroke="black"/>
<path d="M387.333,261.875h 1.89292" fill="none" stroke="black"/>
<path d="M397.35,255.011v -3.70819" fill="none" stroke="black"/>
<path d="M397.35,260.689v 3.67673" fill="none" stroke="black"/>
<path d="M396.404,251.302h 1.89292" fill="none" stroke="black"/>
<path d="M396.404,264.366h 1.89292" fill="none" stroke="black"/>
<path d="M406.421,257.276v -3.61582" fill="none" stroke="black"/>
<path d="M406.421,262.955v 3.57871" fill="none" stroke="black"/>
<path d="M405.475,253.66h 1.89292" fill="none" stroke="black"/>
<path d="M405.475,266.534h 1.89292" fill="none" stroke="black"/>
<path d="M415.492,239.348v -3.24321" fill="none" stroke="black"/>
<path d="M415.492,245.027v 3.25589" fill="none" stroke="black"/>
<path d="M414.546,236.105h 1.89292" fill="none" stroke="black"/>
<path d="M414.546,248.282h 1.89292" fill="none" stroke="black"/>
<path d="M424.563,237.107v -2.8935" fill="none" stroke="black"/>
<path d="M424.563,242.786v 2.90991" fill="none" stroke="black"/>
<path d="M423.617,234.214h 1.89292" fill="none" stroke="black"/>
<path d="M423.617,245.696h 1.89292" fill="none" stroke="black"/>
<path d="M433.634,245.71v -2.74244" fill="none" stroke="black"/>
<path d="M433.634,251.389v 2.73944" fill="none" stroke="black"/>
<path d="M432.687,242.968h 1.89292" fill="none" stroke="black"/>
<path d="M432.687,254.128h 1.89292" fill="none" stroke="black"/>
<path d="M442.705,239.611v -2.62373" fill="none" stroke="black"/>
<path d="M442.705,245.29v 2.63345" fill="none" stroke="black"/>
<path d="M441.758,236.988h 1.89292" fill="none" stroke="black"/>
<path d="M441.758,247.924h 1.89292" fill="none" stroke="black"/>
<path d="M451.776,235.675v -2.20034" fill="none" stroke="black"/>
<path d="M451.776,241.354v 2.21562" fill="none" stroke="black"/>
<path d="M450.829,233.474h 1.89292" fill="none" stroke="black"/>
<path d="M450.829,243.569h 1.89292" fill="none" stroke="black"/>
<path d="M460.846,236.979v -2.10194" fill="none" stroke="black"/>
<path d="M460.846,242.658v 2.1144" fill="none" stroke="black"/>
<path d="M459.9,234.877h 1.89292" fill="none" stroke="black"/>
<path d="M459.9,244.772h 1.89292" fill="none" stroke="black"/>
<path d="M469.917,235.493v -3.98496" fill="none" stroke="black"/>
<path d="M469.917,241.172v 4.01332" fill="none" stroke="black"/>
<path d="M468.971,231.508h 1.89292" fill="none" stroke="black"/>
<path d="M468.971,245.185h 1.89292" fill="none" stroke="black"/>
<path d="M478.988,238.957v -9.18934" fill="none" stroke="black"/>
<path d="M478.988,244.635v 9.24141" fill="none" stroke="black"/>
<path d="M478.042,229.767h 1.89292" fill="none" stroke="black"/>
<path d="M478.042,253.877h 1.89292" fill="none" stroke="black"/>
<path d="M488.059,205.85v -12.8896" fill="none" stroke="black"/>
<path d="M488.059,211.529v 13.5751" fill="none" stroke="black"/>
<path d="M487.113,192.961h 1.89292" fill="none" stroke="black"/>
<path d="M487.113,225.104h 1.89292" fill="none" stroke="black"/>
<path d="M497.13,183v -23.5183" fill="none" stroke="black"/>
<path d="M497.13,188.679v 26.9536" fill="none" stroke="black"/>
<path d="M496.183,159.482h 1.89292" fill="none" stroke="black"/>
<path d="M496.183,215.633h 1.89292" fill="none" stroke="black"/>
<path d="M506.201,248.211v -26.3215" fill="none" stroke="black"/>
<path d="M506.201,253.89v 26.1158" fill="none" stroke="black"/>
<path d="M505.254,221.889h 1.89292" fill="none" stroke="black"/>
<path d="M505.254,280.005h 1.89292" fill="none" stroke="black"/>
<g fill="black">
<circle cx="61.7284" cy="375.068" r="2.83938"/>
<circle cx="70.7992" cy="367.64" r="2.83938"/>
<circle cx="79.8701" cy="353.222" r="2.83938"/>
<circle cx="88.9409" cy="344.415" r="2.83938"/>
<circle cx="98.0118" cy="334.958" r="2.83938"/>
<circle cx="107.083" cy="328.742" r="2.83938"/>
<circle cx="116.154" cy="325.185" r="2.83938"/>
<circle cx="125.224" cy="316.14" r="2.83938"/>
<circle cx="134.295" cy="316.87" r="2.83938"/>
<circle cx="143.366" cy="312.414" r="2.83938"/>
<circle cx="152.437" cy="305.792" r="2.83938"/>
<circle cx="161.508" cy="297.957" r="2.83938"/>
<circle cx="170.579" cy="301.714" r="2.83938"/>
<circle cx="179.65" cy="301.179" r="2.83938"/>
<circle cx="188.72" cy="286.799" r="2.83938"/>
<circle cx="197.791" cy="282.864" r="2.83938"/>
<circle cx="206.862" cy="298.023" r="2.83938"/>
<circle cx="215.933" cy="287.233" r="2.83938"/>
<circle cx="225.004" cy="284.563" r="2.83938"/>
<circle cx="234.075" cy="282.604" r="2.83938"/>
<circle cx="243.146" cy="281.037" r="2.83938"/>
<circle cx="252.217" cy="273.927" r="2.83938"/>
<circle cx="261.287" cy="276.322" r="2.83938"/>
<circle cx="270.358" cy="283.857" r="2.83938"/>
<circle cx="279.429" cy="281.958" r="2.83938"/>
<circle cx="288.5" cy="272.617" r="2.83938"/>
<circle cx="297.571" cy="268.288" r="2.83938"/>
<circle cx="306.642" cy="270.204" r="2.83938"/>
<circle cx="315.713" cy="274.925" r="2.83938"/>
<circle cx="324.783" cy="271.264" r="2.83938"/>
<circle cx="333.854" cy="266.212" r="2.83938"/>
<circle cx="342.925" cy="266.384" r="2.83938"/>
<circle cx="351.996" cy="263.39" r="2.83938"/>
<circle cx="361.067" cy="270.592" r="2.83938"/>
<circle cx="370.138" cy="253.339" r="2.83938"/>
<circle cx="379.209" cy="260.57" r="2.83938"/>
<circle cx="388.28" cy="255.316" r="2.83938"/>
<circle cx="397.35" cy="257.85" r="2.83938"/>
<circle cx="406.421" cy="260.116" r="2.83938"/>
<circle cx="415.492" cy="242.187" r="2.83938"/>
<circle cx="424.563" cy="239.947" r="2.83938"/>
<circle cx="433.634" cy="248.549" r="2.83938"/>
<circle cx="442.705" cy="242.451" r="2.83938"/>
<circle cx="451.776" cy="238.514" r="2.83938"/>
<circle cx="460.846" cy="239.818" r="2.83938"/>
<circle cx="469.917" cy="238.332" r="2.83938"/>
<circle cx="478.988" cy="241.796" r="2.83938"/>
<circle cx="488.059" cy="208.69" r="2.83938"/>
<circle cx="497.13" cy="185.84" r="2.83938"/>
<circle cx="506.201" cy="251.05" r="2.83938"/>
</g>
<path d="M61.7284,306.531v -2.40212" fill="none" stroke="#ff0000"/>
<path d="M61.7284,312.21v 2.26907" fill="none" stroke="#ff0000"/>
<path d="M60.7819,304.129h 1.89292" fill="none" stroke="#ff0000"/>
<path d="M60.7819,314.479h 1.89292" fill="none" stroke="#ff0000"/>
<path d="M70.7992,306.451v -0.829305" fill="none" stroke="#ff0000"/>
<path d="M70.7992,312.13v 0.763112" fill="none" stroke="#ff0000"/>
<path d="M69.8528,305.622h 1.89292" fill="none" stroke="#ff0000"/>
<path d="M69.8528,312.893h 1.89292" fill="none" stroke="#ff0000"/>
<path d="M79.8701,290.248v -0.868066" fill="none" stroke="#ff0000"/>
<path d="M79.8701,295.927v 0.821149" fill="none" stroke="#ff0000"/>
<path d="M78.9236,289.38h 1.89292" fill="none" stroke="#ff0000"/>
<path d="M78.9236,296.748h 1.89292" fill="none" stroke="#ff0000"/>
<path d="M88.9409,281.382v -0.879983" fill="none" stroke="#ff0000"/>
<path d="M88.9409,287.061v 0.842809" fill="none" stroke="#ff0000"/>
<path d="M87.9945,280.502h 1.89292" fill="none" stroke="#ff0000"/>
<path d="M87.9945,287.904h 1.89292" fill="none" stroke="#ff0000"/>
<path d="M98.0118,272.516v -0.996361" fill="none" stroke="#ff0000"/>
<path d="M98.0118,278.195v 0.966856" fill="none" stroke="#ff0000"/>
<path d="M97.0654,271.52h 1.89292" fill="none" stroke="#ff0000"/>
<path d="M97.0654,279.162h 1.89292" fill="none" stroke="#ff0000"/>
<path d="M107.083,265.427v -1.2087" fill="none" stroke="#ff0000"/>
<path d="M107.083,271.106v 1.1844" fill="none" stroke="#ff0000"/>
<path d="M106.136,264.218h 1.89292" fill="none" stroke="#ff0000"/>
<path d="M106.136,272.29h 1.89292" fill="none" stroke="#ff0000"/>
<path d="M116.154,265.047v -1.35872" fill="none" stroke="#ff0000"/>
<path d="M116.154,270.726v 1.33308" fill="none" stroke="#ff0000"/>
<path d="M115.207,263.688h 1.89292" fill="none" stroke="#ff0000"/>
<path d="M115.207,272.059h 1.89292" fill="none" stroke="#ff0000"/>
<path d="M125.224,255.228v -1.39389" fill="none" stroke="#ff0000"/>
<path d="M125.224,260.906v 1.38028" fill="none" stroke="#ff0000"/>
<path d="M124.278,253.834h 1.89292" fill="none" stroke="#ff0000"/>
<path d="M124.278,262.287h 1.89292" fill="none" stroke="#ff0000"/>
<path d="M134.295,256.766v -1.64546" fill="none" stroke="#ff0000"/>
<path d="M134.295,262.444v 1.62804" fill="none" stroke="#ff0000"/>
<path d="M133.349,255.12h 1.89292" fill="none" stroke="#ff0000"/>
<path d="M133.349,264.072h 1.89292" fill="none" stroke="#ff0000"/>
<path d="M143.366,257.602v -1.93352" fill="none" stroke="#ff0000"/>
<path d="M143.366,263.281v 1.9125" fill="none" stroke="#ff0000"/>
<path d="M142.42,255.668h 1.89292" fill="none" stroke="#ff0000"/>
<path d="M142.42,265.193h 1.89292" fill="none" stroke="#ff0000"/>
<path d="M152.437,248.096v -2.24361" fill="none" stroke="#ff0000"/>
<path d="M152.437,253.775v 2.23685" fill="none" stroke="#ff0000"/>
<path d="M151.491,245.852h 1.89292" fill="none" stroke="#ff0000"/>
<path d="M151.491,256.011h 1.89292" fill="none" stroke="#ff0000"/>
<path d="M161.508,243.562v -2.32671" fill="none" stroke="#ff0000"/>
<path d="M161.508,249.241v 2.3281" fill="none" stroke="#ff0000"/>
<path d="M160.561,241.235h 1.89292" fill="none" stroke="#ff0000"/>
<path d="M160.561,251.569h 1.89292" fill="none" stroke="#ff0000"/>
<path d="M170.579,244.857v -2.84951" fill="none" stroke="#ff0000"/>
<path d="M170.579,250.536v 2.8483" fill="none" stroke="#ff0000"/>
<path d="M169.632,242.007h 1.89292" fill="none" stroke="#ff0000"/>
<path d="M169.632,253.384h 1.89292" fill="none" stroke="#ff0000"/>
<path d="M179.65,255.871v -3.0318" fill="none" stroke="#ff0000"/>
<path d="M179.65,261.55v 3.00435" fill="none" stroke="#ff0000"/>
<path d="M178.703,252.84h 1.89292" fill="none" stroke="#ff0000"/>
<path d="M178.703,264.554h 1.89292" fill="none" stroke="#ff0000"/>
<path d="M188.72,238.358v -3.32779" fill="none" stroke="#ff0000"/>
<path d="M188.72,244.037v 3.34343" fill="none" stroke="#ff0000"/>
<path d="M187.774,235.031h 1.89292" fill="none" stroke="#ff0000"/>
<path d="M187.774,247.381h 1.89292" fill="none" stroke="#ff0000"/>
<path d="M197.791,233.113v -3.29132" fill="none" stroke="#ff0000"/>
<path d="M197.791,238.791v 3.32055" fill="none" stroke="#ff0000"/>
<path d="M196.845,229.821h 1.89292" fill="none" stroke="#ff0000"/>
<path d="M196.845,242.112h 1.89292" fill="none" stroke="#ff0000"/>
<path d="M206.862,254.032v -3.69939" fill="none" stroke="#ff0000"/>
<path d="M206.862,259.711v 3.67088" fill="none" stroke="#ff0000"/>
<path d="M205.916,250.333h 1.89292" fill="none" stroke="#ff0000"/>
<path d="M205.916,263.382h 1.89292" fill="none" stroke="#ff0000"/>
<path d="M215.933,240.87v -4.36847" fill="none" stroke="#ff0000"/>
<path d="M215.933,246.549v 4.38074" fill="none" stroke="#ff0000"/>
<path d="M214.987,236.501h 1.89292" fill="none" stroke="#ff0000"/>
<path d="M214.987,250.929h 1.89292" fill="none" stroke="#ff0000"/>
<path d="M225.004,241.418v -4.80997" fill="none" stroke="#ff0000"/>
<path d="M225.004,247.097v 4.82156" fill="none" stroke="#ff0000"/>
<path d="M224.057,236.608h 1.89292" fill="none" stroke="#ff0000"/>
<path d="M224.057,251.919h 1.89292" fill="none" stroke="#ff0000"/>
<path d="M234.075,239.84v -5.07816" fill="none" stroke="#ff0000"/>
<path d="M234.075,245.519v 5.09734" fill="none" stroke="#ff0000"/>
<path d="M233.128,234.762h 1.89292" fill="none" stroke="#ff0000"/>
<path d="M233.128,250.616h 1.89292" fill="none" stroke="#ff0000"/>
<path d="M243.146,235.135v -5.00933" fill="none" stroke="#ff0000"/>
<path d="M243.146,240.814v 5.0482" fill="none" stroke="#ff0000"/>
<path d="M242.199,230.126h 1.89292" fill="none" stroke="#ff0000"/>
<path d="M242.199,245.862h 1.89292" fill="none" stroke="#ff0000"/>
<path d="M252.217,233.706v -5.16419" fill="none" stroke="#ff0000"/>
<path d="M252.217,239.385v 5.21094" fill="none" stroke="#ff0000"/>
<path d="M251.27,228.542h 1.89292" fill="none" stroke="#ff0000"/>
<path d="M251.27,244.596h 1.89292" fill="none" stroke="#ff0000"/>
<path d="M261.287,228.02v -5.5239" fill="none" stroke="#ff0000"/>
<path d="M261.287,233.699v 5.60287" fill="none" stroke="#ff0000"/>
<path d="M260.341,222.496h 1.89292" fill="none" stroke="#ff0000"/>
<path d="M260.341,239.302h 1.89292" fill="none" stroke="#ff0000"/>
<path d="M270.358,244.313v -5.97059" fill="none" stroke="#ff0000"/>
<path d="M270.358,249.992v 5.97059" fill="none" stroke="#ff0000"/>
<path d="M269.412,238.343h 1.89292" fill="none" stroke="#ff0000"/>
<path d="M269.412,255.963h 1.89292" fill="none" stroke="#ff0000"/>
<path d="M279.429,237.917v -6.00577" fill="none" stroke="#ff0000"/>
<path d="M279.429,243.596v 6.03991" fill="none" stroke="#ff0000"/>
<path d="M278.483,231.911h 1.89292" fill="none" stroke="#ff0000"/>
<path d="M278.483,249.636h 1.89292" fill="none" stroke="#ff0000"/>
<path d="M288.5,233.085v -5.8654" fill="none" stroke="#ff0000"/>
<path d="M288.5,238.764v 5.92381" fill="none" stroke="#ff0000"/>
<path d="M287.554,227.22h 1.89292" fill="none" stroke="#ff0000"/>
<path d="M287.554,244.688h 1.89292" fill="none" stroke="#ff0000"/>
<path d="M297.571,233.581v -5.83474" fill="none" stroke="#ff0000"/>
<path d="M297.571,239.26v 5.89015" fill="none" stroke="#ff0000"/>
<path d="M296.624,227.746h 1.89292" fill="none" stroke="#ff0000"/>
<path d="M296.624,245.15h 1.89292" fill="none" stroke="#ff0000"/>
<path d="M306.642,229.159v -6.1588" fill="none" stroke="#ff0000"/>
<path d="M306.642,234.838v 6.24344" fill="none" stroke="#ff0000"/>
<path d="M305.695,223h 1.89292" fill="none" stroke="#ff0000"/>
<path d="M305.695,241.081h 1.89292" fill="none" stroke="#ff0000"/>
<path d="M315.713,244.773v -6.37981" fill="none" stroke="#ff0000"/>
<path d="M315.713,250.451v 6.37717" fill="none" stroke="#ff0000"/>
<path d="M314.766,238.393h 1.89292" fill="none" stroke="#ff0000"/>
<path d="M314.766,256.828h 1.89292" fill="none" stroke="#ff0000"/>
<path d="M324.783,231.358v -5.87724" fill="none" stroke="#ff0000"/>
<path d="M324.783,237.036v 5.94499" fill="none" stroke="#ff0000"/>
<path d="M323.837,225.48h 1.89292" fill="none" stroke="#ff0000"/>
<path d="M323.837,242.981h 1.89292" fill="none" stroke="#ff0000"/>
<path d="M333.854,223.716v -6.34502" fill="none" stroke="#ff0000"/>
<path d="M333.854,229.395v 6.466" fill="none" stroke="#ff0000"/>
<path d="M332.908,217.371h 1.89292" fill="none" stroke="#ff0000"/>
<path d="M332.908,235.861h 1.89292" fill="none" stroke="#ff0000"/>
<path d="M342.925,237.709v -5.85597" fill="none" stroke="#ff0000"/>
<path d="M342.925,243.388v 5.89007" fill="none" stroke="#ff0000"/>
<path d="M341.979,231.853h 1.89292" fill="none" stroke="#ff0000"/>
<path d="M341.979,249.278h 1.89292" fill="none" stroke="#ff0000"/>
<path d="M351.996,227.944v -5.54355" fill="none" stroke="#ff0000"/>
<path d="M351.996,233.623v 5.62326" fill="none" stroke="#ff0000"/>
<path d="M351.05,222.401h 1.89292" fill="none" stroke="#ff0000"/>
<path d="M351.05,239.246h 1.89292" fill="none" stroke="#ff0000"/>
<path d="M361.067,237.097v -5.72219" fill="none" stroke="#ff0000"/>
<path d="M361.067,242.775v 5.75836" fill="none" stroke="#ff0000"/>
<path d="M360.12,231.374h 1.89292" fill="none" stroke="#ff0000"/>
<path d="M360.12,248.534h 1.89292" fill="none" stroke="#ff0000"/>
<path d="M370.138,215.869v -5.37655" fill="none" stroke="#ff0000"/>
<path d="M370.138,221.548v 5.51317" fill="none" stroke="#ff0000"/>
<path d="M369.191,210.493h 1.89292" fill="none" stroke="#ff0000"/>
<path d="M369.191,227.061h 1.89292" fill="none" stroke="#ff0000"/>
<path d="M379.209,227.253v -4.9" fill="none" stroke="#ff0000"/>
<path d="M379.209,232.932v 4.97107" fill="none" stroke="#ff0000"/>
<path d="M378.262,222.353h 1.89292" fill="none" stroke="#ff0000"/>
<path d="M378.262,237.903h 1.89292" fill="none" stroke="#ff0000"/>
<path d="M388.28,222.618v -4.62337" fill="none" stroke="#ff0000"/>
<path d="M388.28,228.297v 4.70824" fill="none" stroke="#ff0000"/>
<path d="M387.333,217.995h 1.89292" fill="none" stroke="#ff0000"/>
<path d="M387.333,233.005h 1.89292" fill="none" stroke="#ff0000"/>
<path d="M397.35,223.615v -4.86607" fill="none" stroke="#ff0000"/>
<path d="M397.35,229.294v 4.95213" fill="none" stroke="#ff0000"/>
<path d="M396.404,218.749h 1.89292" fill="none" stroke="#ff0000"/>
<path d="M396.404,234.246h 1.89292" fill="none" stroke="#ff0000"/>
<path d="M406.421,229.417v -4.61839" fill="none" stroke="#ff0000"/>
<path d="M406.421,235.095v 4.67588" fill="none" stroke="#ff0000"/>
<path d="M405.475,224.798h 1.89292" fill="none" stroke="#ff0000"/>
<path d="M405.475,239.771h 1.89292" fill="none" stroke="#ff0000"/>
<path d="M415.492,213.817v -4.11467" fill="none" stroke="#ff0000"/>
<path d="M415.492,219.496v 4.22061" fill="none" stroke="#ff0000"/>
<path d="M414.546,209.702h 1.89292" fill="none" stroke="#ff0000"/>
<path d="M414.546,223.717h 1.89292" fill="none" stroke="#ff0000"/>
<path d="M424.563,206.519v -3.63517" fill="none" stroke="#ff0000"/>
<path d="M424.563,212.197v 3.75165" fill="none" stroke="#ff0000"/>
<path d="M423.617,202.884h 1.89292" fill="none" stroke="#ff0000"/>
<path d="M423.617,215.949h 1.89292" fill="none" stroke="#ff0000"/>
<path d="M433.634,212.529v -3.58648" fill="none" stroke="#ff0000"/>
<path d="M433.634,218.208v 3.68126" fill="none" stroke="#ff0000"/>
<path d="M432.687,208.943h 1.89292" fill="none" stroke="#ff0000"/>
<path d="M432.687,221.889h 1.89292" fill="none" stroke="#ff0000"/>
<path d="M442.705,206.589v -3.3628" fill="none" stroke="#ff0000"/>
<path d="M442.705,212.267v 3.46954" fill="none" stroke="#ff0000"/>
<path d="M441.758,203.226h 1.89292" fill="none" stroke="#ff0000"/>
<path d="M441.758,215.737h 1.89292" fill="none" stroke="#ff0000"/>
<path d="M451.776,205.963v -2.82212" fill="none" stroke="#ff0000"/>
<path d="M451.776,211.642v 2.91287" fill="none" stroke="#ff0000"/>
<path d="M450.829,203.141h 1.89292" fill="none" stroke="#ff0000"/>
<path d="M450.829,214.555h 1.89292" fill="none" stroke="#ff0000"/>
<path d="M460.846,209.185v -2.7152" fill="none" stroke="#ff0000"/>
<path d="M460.846,214.864v 2.79444" fill="none" stroke="#ff0000"/>
<path d="M459.9,206.47h 1.89292" fill="none" stroke="#ff0000"/>
<path d="M459.9,217.659h 1.89292" fill="none" stroke="#ff0000"/>
<path d="M469.917,208.451v -4.84615" fill="none" stroke="#ff0000"/>
<path d="M469.917,214.129v 5.00038" fill="none" stroke="#ff0000"/>
<path d="M468.971,203.604h 1.89292" fill="none" stroke="#ff0000"/>
<path d="M468.971,219.13h 1.89292" fill="none" stroke="#ff0000"/>
<path d="M478.988,207.071v -10.7408" fill="none" stroke="#ff0000"/>
<path d="M478.988,212.75v 11.2357" fill="none" stroke="#ff0000"/>
<path d="M478.042,196.33h 1.89292" fill="none" stroke="#ff0000"/>
<path d="M478.042,223.986h 1.89292" fill="none" stroke="#ff0000"/>
<path d="M488.059,181.679v -13.6916" fill="none" stroke="#ff0000"/>
<path d="M488.059,187.358v 15.0848" fill="none" stroke="#ff0000"/>
<path d="M487.113,167.987h 1.89292" fill="none" stroke="#ff0000"/>
<path d="M487.113,202.443h 1.89292" fill="none" stroke="#ff0000"/>
<path d="M497.13,141.597v -21.9499" fill="none" stroke="#ff0000"/>
<path d="M497.13,147.276v 29.8981" fill="none" stroke="#ff0000"/>
<path d="M496.183,119.647h 1.89292" fill="none" stroke="#ff0000"/>
<path d="M496.183,177.174h 1.89292" fill="none" stroke="#ff0000"/>
<path d="M506.201,220.372v -32.7276" fill="none" stroke="#ff0000"/>
<path d="M506.201,226.051v 34.7147" fill="none" stroke="#ff0000"/>
<path d="M505.254,187.644h 1.89292" fill="none" stroke="#ff0000"/>
<path d="M505.254,260.766h 1.89292" fill="none" stroke="#ff0000"/>
<g fill="#ff0000">
<circle cx="61.7284" cy="309.371" r="2.83938"/>
<circle cx="70.7992" cy="309.291" r="2.83938"/>
<circle cx="79.8701" cy="293.087" r="2.83938"/>
<circle cx="88.9409" cy="284.221" r="2.83938"/>
<circle cx="98.0118" cy="275.356" r="2.83938"/>
<circle cx="107.083" cy="268.266" r="2.83938"/>
<circle cx="116.154" cy="267.887" r="2.83938"/>
<circle cx="125.224" cy="258.067" r="2.83938"/>
<circle cx="134.295" cy="259.605" r="2.83938"/>
<circle cx="143.366" cy="260.441" r="2.83938"/>
<circle cx="152.437" cy="250.935" r="2.83938"/>
<circle cx="161.508" cy="246.401" r="2.83938"/>
<circle cx="170.579" cy="247.696" r="2.83938"/>
<circle cx="179.65" cy="258.711" r="2.83938"/>
<circle cx="188.72" cy="241.198" r="2.83938"/>
<circle cx="197.791" cy="235.952" r="2.83938"/>
<circle cx="206.862" cy="256.872" r="2.83938"/>
<circle cx="215.933" cy="243.709" r="2.83938"/>
<circle cx="225.004" cy="244.258" r="2.83938"/>
<circle cx="234.075" cy="242.679" r="2.83938"/>
<circle cx="243.146" cy="237.974" r="2.83938"/>
<circle cx="252.217" cy="236.546" r="2.83938"/>
<circle cx="261.287" cy="230.859" r="2.83938"/>
<circle cx="270.358" cy="247.153" r="2.83938"/>
<circle cx="279.429" cy="240.756" r="2.83938"/>
<circle cx="288.5" cy="235.925" r="2.83938"/>
<circle cx="297.571" cy="236.42" r="2.83938"/>
<circle cx="306.642" cy="231.998" r="2.83938"/>
<circle cx="315.713" cy="247.612" r="2.83938"/>
<circle cx="324.783" cy="234.197" r="2.83938"/>
<circle cx="333.854" cy="226.555" r="2.83938"/>
<circle cx="342.925" cy="240.548" r="2.83938"/>
<circle cx="351.996" cy="230.784" r="2.83938"/>
<circle cx="361.067" cy="239.936" r="2.83938"/>
<circle cx="370.138" cy="218.709" r="2.83938"/>
<circle cx="379.209" cy="230.093" r="2.83938"/>
<circle cx="388.28" cy="225.457" r="2.83938"/>
<circle cx="397.35" cy="226.454" r="2.83938"/>
<circle cx="406.421" cy="232.256" r="2.83938"/>
<circle cx="415.492" cy="216.657" r="2.83938"/>
<circle cx="424.563" cy="209.358" r="2.83938"/>
<circle cx="433.634" cy="215.369" r="2.83938"/>
<circle cx="442.705" cy="209.428" r="2.83938"/>
<circle cx="451.776" cy="208.803" r="2.83938"/>
<circle cx="460.846" cy="212.025" r="2.83938"/>
<circle cx="469.917" cy="211.29" r="2.83938"/>
<circle cx="478.988" cy="209.911" r="2.83938"/>
<circle cx="488.059" cy="184.518" r="2.83938"/>
<circle cx="497.13" cy="144.437" r="2.83938"/>
<circle cx="506.201" cy="223.211" r="2.83938"/>
</g>
<text xml:space="preserve" x="162.818" y="38.3316" fill="black" font-size="13.173" font-family="Helvetica"> Phase-2 Simulation)
</text>
<text xml:space="preserve" x="133.951" y="38.3316" fill="black" font-size="13.173" font-family="Helvetica" font-weight="bold">CMS
</text>
<text xml:space="preserve" x="57.7608" y="38.3316" fill="black" font-size="13.173" font-family="Helvetica">Private work (
</text>
<text xml:space="preserve" x="429.719" y="39.2781" fill="black" font-size="13.173" font-family="Helvetica">200 PU
</text>
<rect x="170.579" y="101.3" width="79.3701" height="46.0452" fill="white"/>
<text xml:space="preserve" x="190.265" y="117.834" fill="black" font-size="12.3281" font-family="Helvetica">Method 2
</text>
<g fill="black">
<circle cx="180.5" cy="112.811" r="2.83938"/>
</g>
<text xml:space="preserve" x="190.265" y="141.022" fill="black" font-size="12.3281" font-family="Helvetica">Method 3
</text>
<g fill="#ff0000">
<circle cx="180.5" cy="135.833" r="2.83938"/>
</g></svg>
