<?xml version="1.0" standalone="no"?>
<svg width="567.429" height="557.018" viewBox="0 0 567.429 557.018" xmlns="http://www.w3.org/2000/svg" shape-rendering="crispEdges">
<title>
./plots/eff_fwshower_3/eff_fwshower_3.svg
</title>
<desc>
Creator: ROOT Version 6.32.16
CreationDate: Fri Feb 20 07:37:16 2026</desc>
<defs>
</defs>
<rect x="0.5" y="0" width="566.929" height="556.518" fill="white"/>
<rect x="57.1929" y="55.6518" width="453.543" height="445.214" fill="white"/>
<rect x="57.1929" y="55.6518" width="453.543" height="445.214" fill="none" stroke="black"/>
<path d="M57.1929,500.866h 453.543" fill="none" stroke="black"/>
<text xml:space="preserve" x="83.3152" y="515.347" fill="black" font-size="10.7112" font-family="Helvetica">-2
</text>
<text xml:space="preserve" x="105.084" y="515.347" fill="black" font-size="10.7112" font-family="Helvetica">-1
</text>
<text xml:space="preserve" x="126.379" y="515.347" fill="black" font-size="10.7112" font-family="Helvetica">0
</text>
<text xml:space="preserve" x="144.835" y="515.347" fill="black" font-size="10.7112" font-family="Helvetica">+1
</text>
<text xml:space="preserve" x="164.237" y="515.347" fill="black" font-size="10.7112" font-family="Helvetica">+2
</text>
<text xml:space="preserve" x="186.479" y="515.347" fill="black" font-size="10.7112" font-family="Helvetica">-2
</text>
<text xml:space="preserve" x="208.248" y="515.347" fill="black" font-size="10.7112" font-family="Helvetica">-1
</text>
<text xml:space="preserve" x="229.543" y="515.347" fill="black" font-size="10.7112" font-family="Helvetica">0
</text>
<text xml:space="preserve" x="247.999" y="515.347" fill="black" font-size="10.7112" font-family="Helvetica">+1
</text>
<text xml:space="preserve" x="267.402" y="515.347" fill="black" font-size="10.7112" font-family="Helvetica">+2
</text>
<text xml:space="preserve" x="289.643" y="515.347" fill="black" font-size="10.7112" font-family="Helvetica">-2
</text>
<text xml:space="preserve" x="310.939" y="515.347" fill="black" font-size="10.7112" font-family="Helvetica">-1
</text>
<text xml:space="preserve" x="332.707" y="515.347" fill="black" font-size="10.7112" font-family="Helvetica">0
</text>
<text xml:space="preserve" x="350.69" y="515.347" fill="black" font-size="10.7112" font-family="Helvetica">+1
</text>
<text xml:space="preserve" x="370.566" y="515.347" fill="black" font-size="10.7112" font-family="Helvetica">+2
</text>
<text xml:space="preserve" x="392.807" y="515.347" fill="black" font-size="10.7112" font-family="Helvetica">-2
</text>
<text xml:space="preserve" x="414.103" y="515.347" fill="black" font-size="10.7112" font-family="Helvetica">-1
</text>
<text xml:space="preserve" x="435.871" y="515.347" fill="black" font-size="10.7112" font-family="Helvetica">0
</text>
<text xml:space="preserve" x="453.854" y="515.347" fill="black" font-size="10.7112" font-family="Helvetica">+1
</text>
<text xml:space="preserve" x="473.73" y="515.347" fill="black" font-size="10.7112" font-family="Helvetica">+2
</text>
<path d="M57.1929,487.51v 13.3564" fill="none" stroke="black"/>
<path d="M77.8085,487.51v 13.3564" fill="none" stroke="black"/>
<path d="M98.4241,487.51v 13.3564" fill="none" stroke="black"/>
<path d="M119.04,487.51v 13.3564" fill="none" stroke="black"/>
<path d="M139.655,487.51v 13.3564" fill="none" stroke="black"/>
<path d="M160.271,487.51v 13.3564" fill="none" stroke="black"/>
<path d="M180.887,487.51v 13.3564" fill="none" stroke="black"/>
<path d="M201.502,487.51v 13.3564" fill="none" stroke="black"/>
<path d="M222.118,487.51v 13.3564" fill="none" stroke="black"/>
<path d="M242.733,487.51v 13.3564" fill="none" stroke="black"/>
<path d="M263.349,487.51v 13.3564" fill="none" stroke="black"/>
<path d="M283.965,487.51v 13.3564" fill="none" stroke="black"/>
<path d="M304.58,487.51v 13.3564" fill="none" stroke="black"/>
<path d="M325.196,487.51v 13.3564" fill="none" stroke="black"/>
<path d="M345.811,487.51v 13.3564" fill="none" stroke="black"/>
<path d="M366.427,487.51v 13.3564" fill="none" stroke="black"/>
<path d="M387.043,487.51v 13.3564" fill="none" stroke="black"/>
<path d="M407.658,487.51v 13.3564" fill="none" stroke="black"/>
<path d="M428.274,487.51v 13.3564" fill="none" stroke="black"/>
<path d="M448.889,487.51v 13.3564" fill="none" stroke="black"/>
<path d="M469.505,487.51v 13.3564" fill="none" stroke="black"/>
<path d="M490.121,487.51v 13.3564" fill="none" stroke="black"/>
<path d="M510.736,487.51v 13.3564" fill="none" stroke="black"/>
<text xml:space="preserve" x="452.908" y="544.687" fill="black" font-size="20.9227" font-family="Helvetica">Wheel
</text>
<path d="M57.1929,500.866v -445.214" fill="none" stroke="black"/>
<path d="M70.7992,416.407h -13.6063" fill="none" stroke="black"/>
<path d="M63.9961,395.186h -6.80315" fill="none" stroke="black"/>
<path d="M63.9961,373.965h -6.80315" fill="none" stroke="black"/>
<path d="M63.9961,352.744h -6.80315" fill="none" stroke="black"/>
<path d="M70.7992,331.523h -13.6063" fill="none" stroke="black"/>
<path d="M63.9961,310.303h -6.80315" fill="none" stroke="black"/>
<path d="M63.9961,289.082h -6.80315" fill="none" stroke="black"/>
<path d="M63.9961,267.861h -6.80315" fill="none" stroke="black"/>
<path d="M70.7992,246.64h -13.6063" fill="none" stroke="black"/>
<path d="M63.9961,225.419h -6.80315" fill="none" stroke="black"/>
<path d="M63.9961,204.198h -6.80315" fill="none" stroke="black"/>
<path d="M63.9961,182.977h -6.80315" fill="none" stroke="black"/>
<path d="M70.7992,161.756h -13.6063" fill="none" stroke="black"/>
<path d="M63.9961,140.535h -6.80315" fill="none" stroke="black"/>
<path d="M63.9961,119.315h -6.80315" fill="none" stroke="black"/>
<path d="M63.9961,98.0936h -6.80315" fill="none" stroke="black"/>
<path d="M70.7992,76.8727h -13.6063" fill="none" stroke="black"/>
<path d="M70.7992,416.407h -13.6063" fill="none" stroke="black"/>
<path d="M63.9961,437.628h -6.80315" fill="none" stroke="black"/>
<path d="M63.9961,458.849h -6.80315" fill="none" stroke="black"/>
<path d="M63.9961,480.07h -6.80315" fill="none" stroke="black"/>
<path d="M70.7992,76.8727h -13.6063" fill="none" stroke="black"/>
<text xml:space="preserve" x="38.3584" y="420.701" fill="black" font-size="12.243" font-family="Helvetica">0.2
</text>
<text xml:space="preserve" x="38.3584" y="335.993" fill="black" font-size="12.243" font-family="Helvetica">0.4
</text>
<text xml:space="preserve" x="38.3584" y="250.812" fill="black" font-size="12.243" font-family="Helvetica">0.6
</text>
<text xml:space="preserve" x="38.3584" y="166.104" fill="black" font-size="12.243" font-family="Helvetica">0.8
</text>
<text xml:space="preserve" x="50.1891" y="81.3955" fill="black" font-size="12.243" font-family="Helvetica">1
</text>
<g transform="rotate(-90,31.7332,187.399)">
<text xml:space="preserve" x="31.7332" y="187.399" fill="black" font-size="14.7959" font-family="Helvetica">TP + FP + FN + TN
</text>
</g>
<g transform="rotate(-90,16.5898,151.433)">
<text xml:space="preserve" x="16.5898" y="151.433" fill="black" font-size="14.7959" font-family="Helvetica">TP + TN
</text>
</g>
<path d="M18.4827,187.399l 0.47323, -125.879" fill="none" stroke="black" stroke-width="2"/>
<path d="M5.70553,191.185h 26.0276" fill="none" stroke="black" stroke-width="2"/>
<path d="M5.70553,191.185v -3.78584" fill="none" stroke="black" stroke-width="2"/>
<path d="M31.7332,191.185v -3.78584" fill="none" stroke="black" stroke-width="2"/>
<path d="M5.70553,57.734h 26.0276" fill="none" stroke="black" stroke-width="2"/>
<path d="M5.70553,57.734v 3.78584" fill="none" stroke="black" stroke-width="2"/>
<path d="M31.7332,57.734v 3.78584" fill="none" stroke="black" stroke-width="2"/>
<g transform="rotate(-90,22.7418,448.622)">
<text xml:space="preserve" x="22.7418" y="448.622" fill="black" font-size="20.9227" font-family="Helvetica">Shower Trigger Efficiency 
</text>
</g>
<path d="M88.1163,255.025v 1.27701" fill="none" stroke="black"/>
<path d="M88.1163,260.703v -1.27357" fill="none" stroke="black"/>
<path d="M87.1699,256.302h 1.89292" fill="none" stroke="black"/>
<path d="M87.1699,259.43h 1.89292" fill="none" stroke="black"/>
<path d="M108.732,189.638v 1.56717" fill="none" stroke="black"/>
<path d="M108.732,195.317v -1.55842" fill="none" stroke="black"/>
<path d="M107.785,191.205h 1.89292" fill="none" stroke="black"/>
<path d="M107.785,193.758h 1.89292" fill="none" stroke="black"/>
<path d="M129.348,148.24v 1.77491" fill="none" stroke="black"/>
<path d="M129.348,153.919v -1.76284" fill="none" stroke="black"/>
<path d="M128.401,150.015h 1.89292" fill="none" stroke="black"/>
<path d="M128.401,152.156h 1.89292" fill="none" stroke="black"/>
<path d="M149.963,190.152v 1.56181" fill="none" stroke="black"/>
<path d="M149.963,195.831v -1.55306" fill="none" stroke="black"/>
<path d="M149.017,191.714h 1.89292" fill="none" stroke="black"/>
<path d="M149.017,194.278h 1.89292" fill="none" stroke="black"/>
<path d="M170.579,255.608v 1.26802" fill="none" stroke="black"/>
<path d="M170.579,261.287v -1.26461" fill="none" stroke="black"/>
<path d="M169.632,256.876h 1.89292" fill="none" stroke="black"/>
<path d="M169.632,260.022h 1.89292" fill="none" stroke="black"/>
<path d="M191.194,141.885v 1.41196" fill="none" stroke="black"/>
<path d="M191.194,147.564v -1.38754" fill="none" stroke="black"/>
<path d="M190.248,143.297h 1.89292" fill="none" stroke="black"/>
<path d="M190.248,146.176h 1.89292" fill="none" stroke="black"/>
<path d="M211.81,136.995v 1.67831" fill="none" stroke="black"/>
<path d="M211.81,142.674v -1.66055" fill="none" stroke="black"/>
<path d="M210.863,138.674h 1.89292" fill="none" stroke="black"/>
<path d="M210.863,141.013h 1.89292" fill="none" stroke="black"/>
<path d="M232.426,128.965v 1.8013" fill="none" stroke="black"/>
<path d="M232.426,134.644v -1.78451" fill="none" stroke="black"/>
<path d="M231.479,130.767h 1.89292" fill="none" stroke="black"/>
<path d="M231.479,132.86h 1.89292" fill="none" stroke="black"/>
<path d="M253.041,139.789v 1.64825" fill="none" stroke="black"/>
<path d="M253.041,145.468v -1.63056" fill="none" stroke="black"/>
<path d="M252.095,141.437h 1.89292" fill="none" stroke="black"/>
<path d="M252.095,143.837h 1.89292" fill="none" stroke="black"/>
<path d="M273.657,146.182v 1.3945" fill="none" stroke="black"/>
<path d="M273.657,151.861v -1.3714" fill="none" stroke="black"/>
<path d="M272.71,147.576h 1.89292" fill="none" stroke="black"/>
<path d="M272.71,150.489h 1.89292" fill="none" stroke="black"/>
<path d="M294.272,114.477v 1.62778" fill="none" stroke="black"/>
<path d="M294.272,120.156v -1.59497" fill="none" stroke="black"/>
<path d="M293.326,116.105h 1.89292" fill="none" stroke="black"/>
<path d="M293.326,118.561h 1.89292" fill="none" stroke="black"/>
<path d="M314.888,111.459v 1.81454" fill="none" stroke="black"/>
<path d="M314.888,117.137v -1.78894" fill="none" stroke="black"/>
<path d="M313.942,113.273h 1.89292" fill="none" stroke="black"/>
<path d="M313.942,115.348h 1.89292" fill="none" stroke="black"/>
<path d="M335.504,110.871v 1.86523" fill="none" stroke="black"/>
<path d="M335.504,116.55v -1.84169" fill="none" stroke="black"/>
<path d="M334.557,112.736h 1.89292" fill="none" stroke="black"/>
<path d="M334.557,114.708h 1.89292" fill="none" stroke="black"/>
<path d="M356.119,111.037v 1.80938" fill="none" stroke="black"/>
<path d="M356.119,116.716v -1.78319" fill="none" stroke="black"/>
<path d="M355.173,112.846h 1.89292" fill="none" stroke="black"/>
<path d="M355.173,114.933h 1.89292" fill="none" stroke="black"/>
<path d="M376.735,113.176v 1.64828" fill="none" stroke="black"/>
<path d="M376.735,118.855v -1.61537" fill="none" stroke="black"/>
<path d="M375.788,114.824h 1.89292" fill="none" stroke="black"/>
<path d="M375.788,117.24h 1.89292" fill="none" stroke="black"/>
<path d="M397.35,101.929v 1.8992" fill="none" stroke="black"/>
<path d="M397.35,107.608v -1.86934" fill="none" stroke="black"/>
<path d="M396.404,103.829h 1.89292" fill="none" stroke="black"/>
<path d="M396.404,105.739h 1.89292" fill="none" stroke="black"/>
<path d="M417.966,100.882v 1.9938" fill="none" stroke="black"/>
<path d="M417.966,106.56v -1.96865" fill="none" stroke="black"/>
<path d="M417.02,102.875h 1.89292" fill="none" stroke="black"/>
<path d="M417.02,104.592h 1.89292" fill="none" stroke="black"/>
<path d="M438.582,99.5538v 2.05717" fill="none" stroke="black"/>
<path d="M438.582,105.233v -2.03445" fill="none" stroke="black"/>
<path d="M437.635,101.611h 1.89292" fill="none" stroke="black"/>
<path d="M437.635,103.198h 1.89292" fill="none" stroke="black"/>
<path d="M459.197,100.047v 1.99672" fill="none" stroke="black"/>
<path d="M459.197,105.726v -1.97087" fill="none" stroke="black"/>
<path d="M458.251,102.044h 1.89292" fill="none" stroke="black"/>
<path d="M458.251,103.755h 1.89292" fill="none" stroke="black"/>
<path d="M479.813,100.42v 1.91481" fill="none" stroke="black"/>
<path d="M479.813,106.098v -1.88413" fill="none" stroke="black"/>
<path d="M478.866,102.335h 1.89292" fill="none" stroke="black"/>
<path d="M478.866,104.214h 1.89292" fill="none" stroke="black"/>
<g fill="black">
<circle cx="88.1163" cy="257.864" r="2.83938"/>
<circle cx="108.732" cy="192.477" r="2.83938"/>
<circle cx="129.348" cy="151.08" r="2.83938"/>
<circle cx="149.963" cy="192.991" r="2.83938"/>
<circle cx="170.579" cy="258.448" r="2.83938"/>
<circle cx="191.194" cy="144.724" r="2.83938"/>
<circle cx="211.81" cy="139.835" r="2.83938"/>
<circle cx="232.426" cy="131.805" r="2.83938"/>
<circle cx="253.041" cy="142.628" r="2.83938"/>
<circle cx="273.657" cy="149.021" r="2.83938"/>
<circle cx="294.272" cy="117.316" r="2.83938"/>
<circle cx="314.888" cy="114.298" r="2.83938"/>
<circle cx="335.504" cy="113.71" r="2.83938"/>
<circle cx="356.119" cy="113.876" r="2.83938"/>
<circle cx="376.735" cy="116.016" r="2.83938"/>
<circle cx="397.35" cy="104.769" r="2.83938"/>
<circle cx="417.966" cy="103.721" r="2.83938"/>
<circle cx="438.582" cy="102.393" r="2.83938"/>
<circle cx="459.197" cy="102.886" r="2.83938"/>
<circle cx="479.813" cy="103.259" r="2.83938"/>
</g>
<path d="M88.1163,249.281v 1.27813" fill="none" stroke="#ff0000"/>
<path d="M88.1163,254.96v -1.27402" fill="none" stroke="#ff0000"/>
<path d="M87.1699,250.559h 1.89292" fill="none" stroke="#ff0000"/>
<path d="M87.1699,253.686h 1.89292" fill="none" stroke="#ff0000"/>
<path d="M108.732,183.514v 1.58345" fill="none" stroke="#ff0000"/>
<path d="M108.732,189.193v -1.57405" fill="none" stroke="#ff0000"/>
<path d="M107.785,185.097h 1.89292" fill="none" stroke="#ff0000"/>
<path d="M107.785,187.619h 1.89292" fill="none" stroke="#ff0000"/>
<path d="M129.348,146.594v 1.78254" fill="none" stroke="#ff0000"/>
<path d="M129.348,152.273v -1.77029" fill="none" stroke="#ff0000"/>
<path d="M128.401,148.377h 1.89292" fill="none" stroke="#ff0000"/>
<path d="M128.401,150.502h 1.89292" fill="none" stroke="#ff0000"/>
<path d="M149.963,184.215v 1.57745" fill="none" stroke="#ff0000"/>
<path d="M149.963,189.893v -1.56807" fill="none" stroke="#ff0000"/>
<path d="M149.017,185.792h 1.89292" fill="none" stroke="#ff0000"/>
<path d="M149.017,188.325h 1.89292" fill="none" stroke="#ff0000"/>
<path d="M170.579,249.472v 1.26887" fill="none" stroke="#ff0000"/>
<path d="M170.579,255.15v -1.26474" fill="none" stroke="#ff0000"/>
<path d="M169.632,250.741h 1.89292" fill="none" stroke="#ff0000"/>
<path d="M169.632,253.886h 1.89292" fill="none" stroke="#ff0000"/>
<path d="M191.194,134.675v 1.47242" fill="none" stroke="#ff0000"/>
<path d="M191.194,140.353v -1.44659" fill="none" stroke="#ff0000"/>
<path d="M190.248,136.147h 1.89292" fill="none" stroke="#ff0000"/>
<path d="M190.248,138.907h 1.89292" fill="none" stroke="#ff0000"/>
<path d="M211.81,134.123v 1.69808" fill="none" stroke="#ff0000"/>
<path d="M211.81,139.802v -1.67989" fill="none" stroke="#ff0000"/>
<path d="M210.863,135.821h 1.89292" fill="none" stroke="#ff0000"/>
<path d="M210.863,138.122h 1.89292" fill="none" stroke="#ff0000"/>
<path d="M232.426,127.139v 1.81417" fill="none" stroke="#ff0000"/>
<path d="M232.426,132.818v -1.79712" fill="none" stroke="#ff0000"/>
<path d="M231.479,128.953h 1.89292" fill="none" stroke="#ff0000"/>
<path d="M231.479,131.021h 1.89292" fill="none" stroke="#ff0000"/>
<path d="M253.041,137.621v 1.66188" fill="none" stroke="#ff0000"/>
<path d="M253.041,143.3v -1.64383" fill="none" stroke="#ff0000"/>
<path d="M252.095,139.283h 1.89292" fill="none" stroke="#ff0000"/>
<path d="M252.095,141.656h 1.89292" fill="none" stroke="#ff0000"/>
<path d="M273.657,138.75v 1.45206" fill="none" stroke="#ff0000"/>
<path d="M273.657,144.428v -1.42755" fill="none" stroke="#ff0000"/>
<path d="M272.71,140.202h 1.89292" fill="none" stroke="#ff0000"/>
<path d="M272.71,143.001h 1.89292" fill="none" stroke="#ff0000"/>
<path d="M294.272,107.977v 1.71707" fill="none" stroke="#ff0000"/>
<path d="M294.272,113.656v -1.68276" fill="none" stroke="#ff0000"/>
<path d="M293.326,109.694h 1.89292" fill="none" stroke="#ff0000"/>
<path d="M293.326,111.973h 1.89292" fill="none" stroke="#ff0000"/>
<path d="M314.888,108.404v 1.85119" fill="none" stroke="#ff0000"/>
<path d="M314.888,114.083v -1.825" fill="none" stroke="#ff0000"/>
<path d="M313.942,110.255h 1.89292" fill="none" stroke="#ff0000"/>
<path d="M313.942,112.258h 1.89292" fill="none" stroke="#ff0000"/>
<path d="M335.504,109.409v 1.88152" fill="none" stroke="#ff0000"/>
<path d="M335.504,115.087v -1.85771" fill="none" stroke="#ff0000"/>
<path d="M334.557,111.29h 1.89292" fill="none" stroke="#ff0000"/>
<path d="M334.557,113.23h 1.89292" fill="none" stroke="#ff0000"/>
<path d="M356.119,107.618v 1.85184" fill="none" stroke="#ff0000"/>
<path d="M356.119,113.296v -1.825" fill="none" stroke="#ff0000"/>
<path d="M355.173,109.469h 1.89292" fill="none" stroke="#ff0000"/>
<path d="M355.173,111.471h 1.89292" fill="none" stroke="#ff0000"/>
<path d="M376.735,107.142v 1.7324" fill="none" stroke="#ff0000"/>
<path d="M376.735,112.82v -1.69808" fill="none" stroke="#ff0000"/>
<path d="M375.788,108.874h 1.89292" fill="none" stroke="#ff0000"/>
<path d="M375.788,111.122h 1.89292" fill="none" stroke="#ff0000"/>
<path d="M397.35,97.7383v 1.96652" fill="none" stroke="#ff0000"/>
<path d="M397.35,103.417v -1.93581" fill="none" stroke="#ff0000"/>
<path d="M396.404,99.7049h 1.89292" fill="none" stroke="#ff0000"/>
<path d="M396.404,101.481h 1.89292" fill="none" stroke="#ff0000"/>
<path d="M417.966,96.4533v 2.06176" fill="none" stroke="#ff0000"/>
<path d="M417.966,102.132v -2.03591" fill="none" stroke="#ff0000"/>
<path d="M417.02,98.515h 1.89292" fill="none" stroke="#ff0000"/>
<path d="M417.02,100.096h 1.89292" fill="none" stroke="#ff0000"/>
<path d="M438.582,96.0598v 2.10856" fill="none" stroke="#ff0000"/>
<path d="M438.582,101.739v -2.08532" fill="none" stroke="#ff0000"/>
<path d="M437.635,98.1684h 1.89292" fill="none" stroke="#ff0000"/>
<path d="M437.635,99.6533h 1.89292" fill="none" stroke="#ff0000"/>
<path d="M459.197,96.3237v 2.05461" fill="none" stroke="#ff0000"/>
<path d="M459.197,102.002v -2.02812" fill="none" stroke="#ff0000"/>
<path d="M458.251,98.3783h 1.89292" fill="none" stroke="#ff0000"/>
<path d="M458.251,99.9743h 1.89292" fill="none" stroke="#ff0000"/>
<path d="M479.813,95.6549v 1.99601" fill="none" stroke="#ff0000"/>
<path d="M479.813,101.334v -1.96435" fill="none" stroke="#ff0000"/>
<path d="M478.866,97.6509h 1.89292" fill="none" stroke="#ff0000"/>
<path d="M478.866,99.3693h 1.89292" fill="none" stroke="#ff0000"/>
<g fill="#ff0000">
<circle cx="88.1163" cy="252.12" r="2.83938"/>
<circle cx="108.732" cy="186.353" r="2.83938"/>
<circle cx="129.348" cy="149.433" r="2.83938"/>
<circle cx="149.963" cy="187.054" r="2.83938"/>
<circle cx="170.579" cy="252.311" r="2.83938"/>
<circle cx="191.194" cy="137.514" r="2.83938"/>
<circle cx="211.81" cy="136.962" r="2.83938"/>
<circle cx="232.426" cy="129.978" r="2.83938"/>
<circle cx="253.041" cy="140.46" r="2.83938"/>
<circle cx="273.657" cy="141.589" r="2.83938"/>
<circle cx="294.272" cy="110.817" r="2.83938"/>
<circle cx="314.888" cy="111.243" r="2.83938"/>
<circle cx="335.504" cy="112.248" r="2.83938"/>
<circle cx="356.119" cy="110.457" r="2.83938"/>
<circle cx="376.735" cy="109.981" r="2.83938"/>
<circle cx="397.35" cy="100.578" r="2.83938"/>
<circle cx="417.966" cy="99.2926" r="2.83938"/>
<circle cx="438.582" cy="98.8992" r="2.83938"/>
<circle cx="459.197" cy="99.1631" r="2.83938"/>
<circle cx="479.813" cy="98.4943" r="2.83938"/>
</g>
<path d="M88.1163,193.884v 1.26406" fill="none" stroke="#00ff00"/>
<path d="M88.1163,199.563v -1.25152" fill="none" stroke="#00ff00"/>
<path d="M87.1699,195.148h 1.89292" fill="none" stroke="#00ff00"/>
<path d="M87.1699,198.311h 1.89292" fill="none" stroke="#00ff00"/>
<path d="M108.732,152.809v 1.66536" fill="none" stroke="#00ff00"/>
<path d="M108.732,158.487v -1.65182" fill="none" stroke="#00ff00"/>
<path d="M107.785,154.474h 1.89292" fill="none" stroke="#00ff00"/>
<path d="M107.785,156.836h 1.89292" fill="none" stroke="#00ff00"/>
<path d="M129.348,123.675v 1.91323" fill="none" stroke="#00ff00"/>
<path d="M129.348,129.354v -1.89815" fill="none" stroke="#00ff00"/>
<path d="M128.401,125.588h 1.89292" fill="none" stroke="#00ff00"/>
<path d="M128.401,127.456h 1.89292" fill="none" stroke="#00ff00"/>
<path d="M149.963,152.201v 1.66428" fill="none" stroke="#00ff00"/>
<path d="M149.963,157.88v -1.65057" fill="none" stroke="#00ff00"/>
<path d="M149.017,153.866h 1.89292" fill="none" stroke="#00ff00"/>
<path d="M149.017,156.23h 1.89292" fill="none" stroke="#00ff00"/>
<path d="M170.579,192.278v 1.25929" fill="none" stroke="#00ff00"/>
<path d="M170.579,197.957v -1.24634" fill="none" stroke="#00ff00"/>
<path d="M169.632,193.537h 1.89292" fill="none" stroke="#00ff00"/>
<path d="M169.632,196.711h 1.89292" fill="none" stroke="#00ff00"/>
<path d="M191.194,121.087v 1.58699" fill="none" stroke="#00ff00"/>
<path d="M191.194,126.766v -1.55757" fill="none" stroke="#00ff00"/>
<path d="M190.248,122.674h 1.89292" fill="none" stroke="#00ff00"/>
<path d="M190.248,125.209h 1.89292" fill="none" stroke="#00ff00"/>
<path d="M211.81,120.466v 1.7998" fill="none" stroke="#00ff00"/>
<path d="M211.81,126.145v -1.77923" fill="none" stroke="#00ff00"/>
<path d="M210.863,122.266h 1.89292" fill="none" stroke="#00ff00"/>
<path d="M210.863,124.365h 1.89292" fill="none" stroke="#00ff00"/>
<path d="M232.426,114.354v 1.91853" fill="none" stroke="#00ff00"/>
<path d="M232.426,120.033v -1.89956" fill="none" stroke="#00ff00"/>
<path d="M231.479,116.272h 1.89292" fill="none" stroke="#00ff00"/>
<path d="M231.479,118.133h 1.89292" fill="none" stroke="#00ff00"/>
<path d="M253.041,121.082v 1.78296" fill="none" stroke="#00ff00"/>
<path d="M253.041,126.761v -1.76205" fill="none" stroke="#00ff00"/>
<path d="M252.095,122.865h 1.89292" fill="none" stroke="#00ff00"/>
<path d="M252.095,124.998h 1.89292" fill="none" stroke="#00ff00"/>
<path d="M273.657,124.704v 1.5603" fill="none" stroke="#00ff00"/>
<path d="M273.657,130.383v -1.53218" fill="none" stroke="#00ff00"/>
<path d="M272.71,126.264h 1.89292" fill="none" stroke="#00ff00"/>
<path d="M272.71,128.851h 1.89292" fill="none" stroke="#00ff00"/>
<path d="M294.272,107.977v 1.71707" fill="none" stroke="#00ff00"/>
<path d="M294.272,113.656v -1.68276" fill="none" stroke="#00ff00"/>
<path d="M293.326,109.694h 1.89292" fill="none" stroke="#00ff00"/>
<path d="M293.326,111.973h 1.89292" fill="none" stroke="#00ff00"/>
<path d="M314.888,108.404v 1.85119" fill="none" stroke="#00ff00"/>
<path d="M314.888,114.083v -1.825" fill="none" stroke="#00ff00"/>
<path d="M313.942,110.255h 1.89292" fill="none" stroke="#00ff00"/>
<path d="M313.942,112.258h 1.89292" fill="none" stroke="#00ff00"/>
<path d="M335.504,109.409v 1.88152" fill="none" stroke="#00ff00"/>
<path d="M335.504,115.087v -1.85771" fill="none" stroke="#00ff00"/>
<path d="M334.557,111.29h 1.89292" fill="none" stroke="#00ff00"/>
<path d="M334.557,113.23h 1.89292" fill="none" stroke="#00ff00"/>
<path d="M356.119,107.618v 1.85184" fill="none" stroke="#00ff00"/>
<path d="M356.119,113.296v -1.825" fill="none" stroke="#00ff00"/>
<path d="M355.173,109.469h 1.89292" fill="none" stroke="#00ff00"/>
<path d="M355.173,111.471h 1.89292" fill="none" stroke="#00ff00"/>
<path d="M376.735,107.142v 1.7324" fill="none" stroke="#00ff00"/>
<path d="M376.735,112.82v -1.69808" fill="none" stroke="#00ff00"/>
<path d="M375.788,108.874h 1.89292" fill="none" stroke="#00ff00"/>
<path d="M375.788,111.122h 1.89292" fill="none" stroke="#00ff00"/>
<path d="M397.35,97.7383v 1.96652" fill="none" stroke="#00ff00"/>
<path d="M397.35,103.417v -1.93581" fill="none" stroke="#00ff00"/>
<path d="M396.404,99.7049h 1.89292" fill="none" stroke="#00ff00"/>
<path d="M396.404,101.481h 1.89292" fill="none" stroke="#00ff00"/>
<path d="M417.966,96.4533v 2.06176" fill="none" stroke="#00ff00"/>
<path d="M417.966,102.132v -2.03591" fill="none" stroke="#00ff00"/>
<path d="M417.02,98.515h 1.89292" fill="none" stroke="#00ff00"/>
<path d="M417.02,100.096h 1.89292" fill="none" stroke="#00ff00"/>
<path d="M438.582,96.0598v 2.10856" fill="none" stroke="#00ff00"/>
<path d="M438.582,101.739v -2.08532" fill="none" stroke="#00ff00"/>
<path d="M437.635,98.1684h 1.89292" fill="none" stroke="#00ff00"/>
<path d="M437.635,99.6533h 1.89292" fill="none" stroke="#00ff00"/>
<path d="M459.197,96.3237v 2.05461" fill="none" stroke="#00ff00"/>
<path d="M459.197,102.002v -2.02812" fill="none" stroke="#00ff00"/>
<path d="M458.251,98.3783h 1.89292" fill="none" stroke="#00ff00"/>
<path d="M458.251,99.9743h 1.89292" fill="none" stroke="#00ff00"/>
<path d="M479.813,95.6549v 1.99601" fill="none" stroke="#00ff00"/>
<path d="M479.813,101.334v -1.96435" fill="none" stroke="#00ff00"/>
<path d="M478.866,97.6509h 1.89292" fill="none" stroke="#00ff00"/>
<path d="M478.866,99.3693h 1.89292" fill="none" stroke="#00ff00"/>
<g fill="#00ff00">
<circle cx="88.1163" cy="196.723" r="2.83938"/>
<circle cx="108.732" cy="155.648" r="2.83938"/>
<circle cx="129.348" cy="126.514" r="2.83938"/>
<circle cx="149.963" cy="155.041" r="2.83938"/>
<circle cx="170.579" cy="195.118" r="2.83938"/>
<circle cx="191.194" cy="123.927" r="2.83938"/>
<circle cx="211.81" cy="123.305" r="2.83938"/>
<circle cx="232.426" cy="117.193" r="2.83938"/>
<circle cx="253.041" cy="123.921" r="2.83938"/>
<circle cx="273.657" cy="127.544" r="2.83938"/>
<circle cx="294.272" cy="110.817" r="2.83938"/>
<circle cx="314.888" cy="111.243" r="2.83938"/>
<circle cx="335.504" cy="112.248" r="2.83938"/>
<circle cx="356.119" cy="110.457" r="2.83938"/>
<circle cx="376.735" cy="109.981" r="2.83938"/>
<circle cx="397.35" cy="100.578" r="2.83938"/>
<circle cx="417.966" cy="99.2926" r="2.83938"/>
<circle cx="438.582" cy="98.8992" r="2.83938"/>
<circle cx="459.197" cy="99.1631" r="2.83938"/>
<circle cx="479.813" cy="98.4943" r="2.83938"/>
</g>
<path d="M88.1163,146.578v 1.41451" fill="none" stroke="#0000ff"/>
<path d="M88.1163,152.257v -1.39221" fill="none" stroke="#0000ff"/>
<path d="M87.1699,147.993h 1.89292" fill="none" stroke="#0000ff"/>
<path d="M87.1699,150.865h 1.89292" fill="none" stroke="#0000ff"/>
<path d="M108.732,127.247v 1.79933" fill="none" stroke="#0000ff"/>
<path d="M108.732,132.926v -1.78182" fill="none" stroke="#0000ff"/>
<path d="M107.785,129.047h 1.89292" fill="none" stroke="#0000ff"/>
<path d="M107.785,131.144h 1.89292" fill="none" stroke="#0000ff"/>
<path d="M129.348,110.376v 2.02045" fill="none" stroke="#0000ff"/>
<path d="M129.348,116.055v -2.00358" fill="none" stroke="#0000ff"/>
<path d="M128.401,112.397h 1.89292" fill="none" stroke="#0000ff"/>
<path d="M128.401,114.052h 1.89292" fill="none" stroke="#0000ff"/>
<path d="M149.963,126.836v 1.80024" fill="none" stroke="#0000ff"/>
<path d="M149.963,132.515v -1.7826" fill="none" stroke="#0000ff"/>
<path d="M149.017,128.636h 1.89292" fill="none" stroke="#0000ff"/>
<path d="M149.017,130.732h 1.89292" fill="none" stroke="#0000ff"/>
<path d="M170.579,146.102v 1.40727" fill="none" stroke="#0000ff"/>
<path d="M170.579,151.781v -1.38455" fill="none" stroke="#0000ff"/>
<path d="M169.632,147.509h 1.89292" fill="none" stroke="#0000ff"/>
<path d="M169.632,150.396h 1.89292" fill="none" stroke="#0000ff"/>
<path d="M191.194,112.233v 1.68094" fill="none" stroke="#0000ff"/>
<path d="M191.194,117.912v -1.64894" fill="none" stroke="#0000ff"/>
<path d="M190.248,113.914h 1.89292" fill="none" stroke="#0000ff"/>
<path d="M190.248,116.263h 1.89292" fill="none" stroke="#0000ff"/>
<path d="M211.81,110.782v 1.89004" fill="none" stroke="#0000ff"/>
<path d="M211.81,116.461v -1.86763" fill="none" stroke="#0000ff"/>
<path d="M210.863,112.672h 1.89292" fill="none" stroke="#0000ff"/>
<path d="M210.863,114.593h 1.89292" fill="none" stroke="#0000ff"/>
<path d="M232.426,106.122v 2.00114" fill="none" stroke="#0000ff"/>
<path d="M232.426,111.801v -1.98083" fill="none" stroke="#0000ff"/>
<path d="M231.479,108.123h 1.89292" fill="none" stroke="#0000ff"/>
<path d="M231.479,109.82h 1.89292" fill="none" stroke="#0000ff"/>
<path d="M253.041,110.255v 1.88587" fill="none" stroke="#0000ff"/>
<path d="M253.041,115.934v -1.8629" fill="none" stroke="#0000ff"/>
<path d="M252.095,112.141h 1.89292" fill="none" stroke="#0000ff"/>
<path d="M252.095,114.071h 1.89292" fill="none" stroke="#0000ff"/>
<path d="M273.657,114.942v 1.65869" fill="none" stroke="#0000ff"/>
<path d="M273.657,120.62v -1.62794" fill="none" stroke="#0000ff"/>
<path d="M272.71,116.6h 1.89292" fill="none" stroke="#0000ff"/>
<path d="M272.71,118.992h 1.89292" fill="none" stroke="#0000ff"/>
<path d="M294.272,103.897v 1.77617" fill="none" stroke="#0000ff"/>
<path d="M294.272,109.576v -1.74069" fill="none" stroke="#0000ff"/>
<path d="M293.326,105.674h 1.89292" fill="none" stroke="#0000ff"/>
<path d="M293.326,107.835h 1.89292" fill="none" stroke="#0000ff"/>
<path d="M314.888,101.569v 1.9425" fill="none" stroke="#0000ff"/>
<path d="M314.888,107.247v -1.91495" fill="none" stroke="#0000ff"/>
<path d="M313.942,103.511h 1.89292" fill="none" stroke="#0000ff"/>
<path d="M313.942,105.332h 1.89292" fill="none" stroke="#0000ff"/>
<path d="M335.504,102.398v 1.97031" fill="none" stroke="#0000ff"/>
<path d="M335.504,108.077v -1.94528" fill="none" stroke="#0000ff"/>
<path d="M334.557,104.368h 1.89292" fill="none" stroke="#0000ff"/>
<path d="M334.557,106.131h 1.89292" fill="none" stroke="#0000ff"/>
<path d="M356.119,100.774v 1.94609" fill="none" stroke="#0000ff"/>
<path d="M356.119,106.452v -1.91788" fill="none" stroke="#0000ff"/>
<path d="M355.173,102.72h 1.89292" fill="none" stroke="#0000ff"/>
<path d="M355.173,104.534h 1.89292" fill="none" stroke="#0000ff"/>
<path d="M376.735,103.932v 1.77859" fill="none" stroke="#0000ff"/>
<path d="M376.735,109.61v -1.74332" fill="none" stroke="#0000ff"/>
<path d="M375.788,105.71h 1.89292" fill="none" stroke="#0000ff"/>
<path d="M375.788,107.867h 1.89292" fill="none" stroke="#0000ff"/>
<path d="M397.35,96.6327v 1.98446" fill="none" stroke="#0000ff"/>
<path d="M397.35,102.311v -1.95344" fill="none" stroke="#0000ff"/>
<path d="M396.404,98.6171h 1.89292" fill="none" stroke="#0000ff"/>
<path d="M396.404,100.358h 1.89292" fill="none" stroke="#0000ff"/>
<path d="M417.966,95.4732v 2.07732" fill="none" stroke="#0000ff"/>
<path d="M417.966,101.152v -2.05128" fill="none" stroke="#0000ff"/>
<path d="M417.02,97.5505h 1.89292" fill="none" stroke="#0000ff"/>
<path d="M417.02,99.1007h 1.89292" fill="none" stroke="#0000ff"/>
<path d="M438.582,97.1653v 2.09087" fill="none" stroke="#0000ff"/>
<path d="M438.582,102.844v -2.06774" fill="none" stroke="#0000ff"/>
<path d="M437.635,99.2562h 1.89292" fill="none" stroke="#0000ff"/>
<path d="M437.635,100.776h 1.89292" fill="none" stroke="#0000ff"/>
<path d="M459.197,95.8349v 2.0622" fill="none" stroke="#0000ff"/>
<path d="M459.197,101.514v -2.03559" fill="none" stroke="#0000ff"/>
<path d="M458.251,97.8971h 1.89292" fill="none" stroke="#0000ff"/>
<path d="M458.251,99.4781h 1.89292" fill="none" stroke="#0000ff"/>
<path d="M479.813,96.3948v 1.9815" fill="none" stroke="#0000ff"/>
<path d="M479.813,102.074v -1.94991" fill="none" stroke="#0000ff"/>
<path d="M478.866,98.3763h 1.89292" fill="none" stroke="#0000ff"/>
<path d="M478.866,100.124h 1.89292" fill="none" stroke="#0000ff"/>
<g fill="#0000ff">
<circle cx="88.1163" cy="149.418" r="2.83938"/>
<circle cx="108.732" cy="130.087" r="2.83938"/>
<circle cx="129.348" cy="113.216" r="2.83938"/>
<circle cx="149.963" cy="129.675" r="2.83938"/>
<circle cx="170.579" cy="148.941" r="2.83938"/>
<circle cx="191.194" cy="115.072" r="2.83938"/>
<circle cx="211.81" cy="113.622" r="2.83938"/>
<circle cx="232.426" cy="108.961" r="2.83938"/>
<circle cx="253.041" cy="113.095" r="2.83938"/>
<circle cx="273.657" cy="117.781" r="2.83938"/>
<circle cx="294.272" cy="106.737" r="2.83938"/>
<circle cx="314.888" cy="104.408" r="2.83938"/>
<circle cx="335.504" cy="105.237" r="2.83938"/>
<circle cx="356.119" cy="103.613" r="2.83938"/>
<circle cx="376.735" cy="106.771" r="2.83938"/>
<circle cx="397.35" cy="99.472" r="2.83938"/>
<circle cx="417.966" cy="98.3126" r="2.83938"/>
<circle cx="438.582" cy="100.005" r="2.83938"/>
<circle cx="459.197" cy="98.6743" r="2.83938"/>
<circle cx="479.813" cy="99.2342" r="2.83938"/>
</g>
<text xml:space="preserve" x="187.426" y="46.3765" fill="black" font-size="15.817" font-family="Helvetica"> Phase-2 Simulation)
</text>
<text xml:space="preserve" x="152.88" y="46.3765" fill="black" font-size="15.817" font-family="Helvetica" font-weight="bold">CMS
</text>
<text xml:space="preserve" x="57.7608" y="46.3765" fill="black" font-size="15.817" font-family="Helvetica">Private work (
</text>
<text xml:space="preserve" x="429.719" y="47.7962" fill="black" font-size="15.817" font-family="Helvetica">200 PU
</text>
<text xml:space="preserve" x="84.2617" y="399.406" fill="black" font-size="26.0284" font-family="Helvetica">MB1
</text>
<text xml:space="preserve" x="197.364" y="399.406" fill="black" font-size="26.0284" font-family="Helvetica">MB2
</text>
<text xml:space="preserve" x="310.939" y="399.406" fill="black" font-size="26.0284" font-family="Helvetica">MB3
</text>
<text xml:space="preserve" x="424.514" y="399.406" fill="black" font-size="26.0284" font-family="Helvetica">MB4
</text>
<path d="M180.887,501.291v -445.639" fill="none" stroke="black" stroke-width="3"/>
<path d="M283.965,501.291v -445.639" fill="none" stroke="black" stroke-width="3"/>
<path d="M387.043,501.291v -445.639" fill="none" stroke="black" stroke-width="3"/>
<rect x="170.579" y="166.955" width="79.3701" height="66.7822" fill="white"/>
<text xml:space="preserve" x="190.265" y="178.881" fill="black" font-size="14.7959" font-family="Helvetica"> Nothing 
</text>
<g fill="black">
<circle cx="180.5" cy="175.303" r="2.83938"/>
</g>
<text xml:space="preserve" x="190.265" y="195.917" fill="black" font-size="14.7959" font-family="Helvetica"> SimHits filter 
</text>
<g fill="#ff0000">
<circle cx="180.5" cy="191.999" r="2.83938"/>
</g>
<text xml:space="preserve" x="190.265" y="212.48" fill="black" font-size="14.7959" font-family="Helvetica"> SimHits filter + diff. thresholds 
</text>
<g fill="#00ff00">
<circle cx="180.5" cy="208.694" r="2.83938"/>
</g>
<text xml:space="preserve" x="190.265" y="229.043" fill="black" font-size="14.7959" font-family="Helvetica"> SimHits filter + diff. thresholds + NN filter 
</text>
<g fill="#0000ff">
<circle cx="180.5" cy="225.39" r="2.83938"/>
</g></svg>
