<?xml version="1.0" encoding="utf-8" standalone="no"?>
<!DOCTYPE svg PUBLIC "-//W3C//DTD SVG 1.1//EN"
  "http://www.w3.org/Graphics/SVG/1.1/DTD/svg11.dtd">
<svg xmlns:xlink="http://www.w3.org/1999/xlink" width="720pt" height="720pt" viewBox="0 0 720 720" xmlns="http://www.w3.org/2000/svg" version="1.1">
 <metadata>
  <rdf:RDF xmlns:dc="http://purl.org/dc/elements/1.1/" xmlns:cc="http://creativecommons.org/ns#" xmlns:rdf="http://www.w3.org/1999/02/22-rdf-syntax-ns#">
   <cc:Work>
    <dc:type rdf:resource="http://purl.org/dc/dcmitype/StillImage"/>
    <dc:date>2025-06-05T17:06:55.176784</dc:date>
    <dc:format>image/svg+xml</dc:format>
    <dc:creator>
     <cc:Agent>
      <dc:title>Matplotlib v3.9.4, https://matplotlib.org/</dc:title>
     </cc:Agent>
    </dc:creator>
   </cc:Work>
  </rdf:RDF>
 </metadata>
 <defs>
  <style type="text/css">*{stroke-linejoin: round; stroke-linecap: butt}</style>
 </defs>
 <g id="figure_1">
  <g id="patch_1">
   <path d="M 0 720 
L 720 720 
L 720 0 
L 0 0 
z
" style="fill: #ffffff"/>
  </g>
  <g id="axes_1">
   <g id="patch_2">
    <path d="M 478.935 368.04 
C 478.935 337.501045 472.211259 307.333309 459.242522 279.684807 
C 446.273786 252.036305 427.37534 227.579205 403.892799 208.054911 
C 380.410259 188.530617 352.914511 174.413788 323.36332 166.709575 
C 293.812129 159.005363 262.923919 157.901066 232.898004 163.475312 
C 202.87209 169.049559 174.438435 181.166833 149.621587 198.964356 
C 124.804739 216.761878 104.208022 239.806971 89.297973 266.458766 
C 74.387925 293.110562 65.527025 322.721126 63.34619 353.182113 
C 61.165356 383.6431 65.717607 414.213969 76.678811 442.718 
L 134.937667 420.3146 
C 127.264825 400.361778 124.078249 378.96217 125.604833 357.639479 
C 127.131417 336.316788 133.334047 315.589394 143.771081 296.933136 
C 154.208115 278.276879 168.625817 262.145315 185.997611 249.687049 
C 203.369405 237.228783 223.272963 228.746691 244.291103 224.844719 
C 265.309243 220.942746 286.93099 221.715754 307.616824 227.108703 
C 328.302658 232.501651 347.549681 242.383432 363.987459 256.050438 
C 380.425238 269.717443 393.65415 286.837414 402.732266 306.191365 
C 411.810381 325.545316 416.517 346.662732 416.517 368.04 
z
" style="fill: #3182bd; stroke: #ffffff; stroke-linejoin: miter"/>
   </g>
   <g id="patch_3">
    <path d="M 76.67882 442.718013 
C 94.115976 488.062399 126.89596 525.898051 169.293806 549.617045 
C 211.691658 573.336038 261.086658 581.472237 308.852071 572.604669 
C 356.617484 563.737102 399.80072 538.41397 430.860092 501.057791 
C 461.919465 463.701611 478.935 416.621527 478.935 368.039964 
L 416.517 368.039975 
C 416.517 402.047069 404.606126 435.003128 382.864565 461.152453 
C 361.123004 487.301779 330.894739 505.027971 297.45895 511.235268 
C 264.02316 517.442566 229.446661 511.747227 199.768164 495.143931 
C 170.089672 478.540636 147.143683 452.055679 134.937674 420.314609 
z
" style="fill: #e6550d; stroke: #ffffff; stroke-linejoin: miter"/>
   </g>
   <g id="patch_4">
    <path d="M 416.517 368.04 
C 416.517 337.875645 407.145854 308.443566 389.705333 283.832256 
C 372.264813 259.220946 347.601698 240.625345 319.142011 230.628618 
C 290.682324 220.631892 259.807852 219.719406 230.807455 228.017916 
C 201.807057 236.316427 176.088774 253.423021 157.225204 276.961374 
L 205.93226 315.995071 
C 216.711442 302.544583 231.407604 292.769387 247.97926 288.027381 
C 264.550915 283.285375 282.193471 283.806795 298.456149 289.51921 
C 314.718827 295.231626 328.812036 305.857684 338.778047 319.921289 
C 348.744059 333.984895 354.099 350.803226 354.099 368.04 
z
" style="fill: #6baed6; stroke: #ffffff; stroke-linejoin: miter"/>
   </g>
   <g id="patch_5">
    <path d="M 157.225206 276.961369 
C 141.30806 296.823112 130.87219 320.514742 126.961939 345.665375 
C 123.051688 370.816008 125.802001 396.557735 134.937631 420.314514 
L 193.196503 397.911151 
C 187.976143 384.335849 186.404536 369.62629 188.638965 355.2545 
C 190.873395 340.88271 196.836749 327.344635 205.93226 315.995068 
z
" style="fill: #5254a3; stroke: #ffffff; stroke-linejoin: miter"/>
   </g>
   <g id="patch_6">
    <path d="M 134.937631 420.314514 
C 139.669333 432.61909 146.049876 444.224465 153.904199 454.812251 
C 161.758522 465.400037 171.014149 474.872548 181.417205 482.969955 
L 219.75626 433.71426 
C 213.811657 429.08717 208.522727 423.674307 204.034542 417.624143 
C 199.546358 411.57398 195.900333 404.942337 193.196503 397.911151 
z
" style="fill: #fd8d3c; stroke: #ffffff; stroke-linejoin: miter"/>
   </g>
   <g id="patch_7">
    <path d="M 181.417205 482.969955 
C 202.933886 499.717849 228.72741 510.091511 255.848347 512.904735 
C 282.969282 515.717958 310.342914 510.859236 334.838985 498.884184 
C 359.33506 486.909131 379.982927 468.29224 394.421448 445.162423 
C 408.859968 422.032606 416.517 395.306426 416.517 368.039975 
L 354.099 368.039985 
C 354.099 383.620815 349.723553 398.892918 341.47297 412.109956 
C 333.222387 425.326994 321.423606 435.965218 307.425848 442.808105 
C 293.428094 449.650992 277.786018 452.427405 262.288341 450.819848 
C 246.790663 449.212292 232.051506 443.284485 219.75626 433.71426 
z
" style="fill: #8ca252; stroke: #ffffff; stroke-linejoin: miter"/>
   </g>
   <g id="patch_8">
    <path d="M 354.099 368.04 
C 354.099 353.770817 350.429213 339.738569 343.4435 327.296326 
C 336.457788 314.854083 326.388141 304.415044 314.205533 296.985802 
C 302.022925 289.556559 288.131932 285.383832 273.872004 284.869981 
C 259.612077 284.356129 245.456776 287.518216 232.771039 294.051336 
L 261.34901 349.542834 
C 264.520444 347.909554 268.059269 347.119032 271.624251 347.247495 
C 275.189233 347.375958 278.661981 348.41914 281.707633 350.27645 
C 284.753285 352.133761 287.270697 354.743521 289.017125 357.854082 
C 290.763553 360.964642 291.681 364.472704 291.681 368.04 
z
" style="fill: #9ecae1; stroke: #ffffff; stroke-linejoin: miter"/>
   </g>
   <g id="patch_9">
    <path d="M 232.771047 294.051334 
C 227.591651 296.718709 222.706619 299.922586 218.196369 303.610224 
C 213.68612 307.297863 209.575537 311.44891 205.93226 315.995068 
L 254.639315 355.028767 
C 255.550134 353.892227 256.57778 352.854466 257.705342 351.932556 
C 258.832905 351.010647 260.054163 350.209677 261.349012 349.542834 
z
" style="fill: #c6dbef; stroke: #ffffff; stroke-linejoin: miter"/>
   </g>
   <g id="patch_10">
    <path d="M 205.93226 315.995068 
C 205.93226 315.995068 205.93226 315.995068 205.93226 315.995068 
L 254.639315 355.028767 
C 254.639315 355.028767 254.639315 355.028767 254.639315 355.028767 
z
" style="fill: #6b6ecf; stroke: #ffffff; stroke-linejoin: miter"/>
   </g>
   <g id="patch_11">
    <path d="M 205.93226 315.995068 
C 196.836749 327.344635 190.873395 340.88271 188.638965 355.2545 
C 186.404536 369.62629 187.976143 384.335849 193.196503 397.911151 
L 251.455376 375.507788 
C 250.150286 372.113962 249.757384 368.436573 250.315991 364.843625 
C 250.874599 361.250677 252.365437 357.866159 254.639315 355.028767 
z
" style="fill: #9c9ede; stroke: #ffffff; stroke-linejoin: miter"/>
   </g>
   <g id="patch_12">
    <path d="M 193.196503 397.911151 
C 194.898235 402.336426 196.975019 406.608195 199.404169 410.679823 
C 201.833319 414.751452 204.605976 418.608061 207.691852 422.207551 
L 255.079213 381.581888 
C 254.307744 380.682015 253.61458 379.717863 253.007292 378.699956 
C 252.400005 377.682049 251.880809 376.614106 251.455376 375.507788 
z
" style="fill: #fdae6b; stroke: #ffffff; stroke-linejoin: miter"/>
   </g>
   <g id="patch_13">
    <path d="M 207.691852 422.207551 
C 209.503802 424.321077 211.420663 426.342367 213.435196 428.263776 
C 215.44973 430.185185 217.559402 432.004299 219.75626 433.71426 
L 258.095315 384.458565 
C 257.5461 384.031075 257.018683 383.576296 256.515049 383.095944 
C 256.011416 382.615592 255.532201 382.110269 255.079213 381.581888 
z
" style="fill: #fdd0a2; stroke: #ffffff; stroke-linejoin: miter"/>
   </g>
   <g id="patch_14">
    <path d="M 219.75626 433.71426 
C 219.75626 433.71426 219.75626 433.71426 219.75626 433.71426 
L 258.095315 384.458565 
C 258.095315 384.458565 258.095315 384.458565 258.095315 384.458565 
z
" style="fill: #b5cf6b; stroke: #ffffff; stroke-linejoin: miter"/>
   </g>
   <g id="patch_15">
    <path d="M 219.75626 433.71426 
C 232.051506 443.284485 246.790663 449.212292 262.288341 450.819848 
C 277.786018 452.427405 293.428094 449.650992 307.425848 442.808105 
C 321.423606 435.965218 333.222387 425.326994 341.47297 412.109956 
C 349.723553 398.892918 354.099 383.620815 354.099 368.039985 
L 291.681 368.039996 
C 291.681 371.935204 290.587138 375.753229 288.524493 379.057489 
C 286.461847 382.361749 283.512151 385.021304 280.012712 386.732026 
C 276.513273 388.442748 272.602755 389.136851 268.728335 388.734962 
C 264.853916 388.333073 261.169127 386.851121 258.095315 384.458565 
z
" style="fill: #cedb9c; stroke: #ffffff; stroke-linejoin: miter"/>
   </g>
   <g id="matplotlib.axis_1"/>
   <g id="matplotlib.axis_2"/>
   <g id="text_1">
    <!-- True Positive -->
    <g transform="translate(155.975296 145.77822) scale(0.1 -0.1)">
     <defs>
      <path id="DejaVuSans-Bold-54" d="M 31 4666 
L 4331 4666 
L 4331 3756 
L 2784 3756 
L 2784 0 
L 1581 0 
L 1581 3756 
L 31 3756 
L 31 4666 
z
" transform="scale(0.015625)"/>
      <path id="DejaVuSans-Bold-72" d="M 3138 2547 
Q 2991 2616 2845 2648 
Q 2700 2681 2553 2681 
Q 2122 2681 1889 2404 
Q 1656 2128 1656 1613 
L 1656 0 
L 538 0 
L 538 3500 
L 1656 3500 
L 1656 2925 
Q 1872 3269 2151 3426 
Q 2431 3584 2822 3584 
Q 2878 3584 2943 3579 
Q 3009 3575 3134 3559 
L 3138 2547 
z
" transform="scale(0.015625)"/>
      <path id="DejaVuSans-Bold-75" d="M 500 1363 
L 500 3500 
L 1625 3500 
L 1625 3150 
Q 1625 2866 1622 2436 
Q 1619 2006 1619 1863 
Q 1619 1441 1641 1255 
Q 1663 1069 1716 984 
Q 1784 875 1895 815 
Q 2006 756 2150 756 
Q 2500 756 2700 1025 
Q 2900 1294 2900 1772 
L 2900 3500 
L 4019 3500 
L 4019 0 
L 2900 0 
L 2900 506 
Q 2647 200 2364 54 
Q 2081 -91 1741 -91 
Q 1134 -91 817 281 
Q 500 653 500 1363 
z
" transform="scale(0.015625)"/>
      <path id="DejaVuSans-Bold-65" d="M 4031 1759 
L 4031 1441 
L 1416 1441 
Q 1456 1047 1700 850 
Q 1944 653 2381 653 
Q 2734 653 3104 758 
Q 3475 863 3866 1075 
L 3866 213 
Q 3469 63 3072 -14 
Q 2675 -91 2278 -91 
Q 1328 -91 801 392 
Q 275 875 275 1747 
Q 275 2603 792 3093 
Q 1309 3584 2216 3584 
Q 3041 3584 3536 3087 
Q 4031 2591 4031 1759 
z
M 2881 2131 
Q 2881 2450 2695 2645 
Q 2509 2841 2209 2841 
Q 1884 2841 1681 2658 
Q 1478 2475 1428 2131 
L 2881 2131 
z
" transform="scale(0.015625)"/>
      <path id="DejaVuSans-Bold-20" transform="scale(0.015625)"/>
      <path id="DejaVuSans-Bold-50" d="M 588 4666 
L 2584 4666 
Q 3475 4666 3951 4270 
Q 4428 3875 4428 3144 
Q 4428 2409 3951 2014 
Q 3475 1619 2584 1619 
L 1791 1619 
L 1791 0 
L 588 0 
L 588 4666 
z
M 1791 3794 
L 1791 2491 
L 2456 2491 
Q 2806 2491 2997 2661 
Q 3188 2831 3188 3144 
Q 3188 3456 2997 3625 
Q 2806 3794 2456 3794 
L 1791 3794 
z
" transform="scale(0.015625)"/>
      <path id="DejaVuSans-Bold-6f" d="M 2203 2784 
Q 1831 2784 1636 2517 
Q 1441 2250 1441 1747 
Q 1441 1244 1636 976 
Q 1831 709 2203 709 
Q 2569 709 2762 976 
Q 2956 1244 2956 1747 
Q 2956 2250 2762 2517 
Q 2569 2784 2203 2784 
z
M 2203 3584 
Q 3106 3584 3614 3096 
Q 4122 2609 4122 1747 
Q 4122 884 3614 396 
Q 3106 -91 2203 -91 
Q 1297 -91 786 396 
Q 275 884 275 1747 
Q 275 2609 786 3096 
Q 1297 3584 2203 3584 
z
" transform="scale(0.015625)"/>
      <path id="DejaVuSans-Bold-73" d="M 3272 3391 
L 3272 2541 
Q 2913 2691 2578 2766 
Q 2244 2841 1947 2841 
Q 1628 2841 1473 2761 
Q 1319 2681 1319 2516 
Q 1319 2381 1436 2309 
Q 1553 2238 1856 2203 
L 2053 2175 
Q 2913 2066 3209 1816 
Q 3506 1566 3506 1031 
Q 3506 472 3093 190 
Q 2681 -91 1863 -91 
Q 1516 -91 1145 -36 
Q 775 19 384 128 
L 384 978 
Q 719 816 1070 734 
Q 1422 653 1784 653 
Q 2113 653 2278 743 
Q 2444 834 2444 1013 
Q 2444 1163 2330 1236 
Q 2216 1309 1875 1350 
L 1678 1375 
Q 931 1469 631 1722 
Q 331 1975 331 2491 
Q 331 3047 712 3315 
Q 1094 3584 1881 3584 
Q 2191 3584 2531 3537 
Q 2872 3491 3272 3391 
z
" transform="scale(0.015625)"/>
      <path id="DejaVuSans-Bold-69" d="M 538 3500 
L 1656 3500 
L 1656 0 
L 538 0 
L 538 3500 
z
M 538 4863 
L 1656 4863 
L 1656 3950 
L 538 3950 
L 538 4863 
z
" transform="scale(0.015625)"/>
      <path id="DejaVuSans-Bold-74" d="M 1759 4494 
L 1759 3500 
L 2913 3500 
L 2913 2700 
L 1759 2700 
L 1759 1216 
Q 1759 972 1856 886 
Q 1953 800 2241 800 
L 2816 800 
L 2816 0 
L 1856 0 
Q 1194 0 917 276 
Q 641 553 641 1216 
L 641 2700 
L 84 2700 
L 84 3500 
L 641 3500 
L 641 4494 
L 1759 4494 
z
" transform="scale(0.015625)"/>
      <path id="DejaVuSans-Bold-76" d="M 97 3500 
L 1216 3500 
L 2088 1081 
L 2956 3500 
L 4078 3500 
L 2700 0 
L 1472 0 
L 97 3500 
z
" transform="scale(0.015625)"/>
     </defs>
     <use xlink:href="#DejaVuSans-Bold-54"/>
     <use xlink:href="#DejaVuSans-Bold-72" x="57.212891"/>
     <use xlink:href="#DejaVuSans-Bold-75" x="106.529297"/>
     <use xlink:href="#DejaVuSans-Bold-65" x="177.720703"/>
     <use xlink:href="#DejaVuSans-Bold-20" x="245.542969"/>
     <use xlink:href="#DejaVuSans-Bold-50" x="280.357422"/>
     <use xlink:href="#DejaVuSans-Bold-6f" x="353.648438"/>
     <use xlink:href="#DejaVuSans-Bold-73" x="422.349609"/>
     <use xlink:href="#DejaVuSans-Bold-69" x="481.871094"/>
     <use xlink:href="#DejaVuSans-Bold-74" x="516.148438"/>
     <use xlink:href="#DejaVuSans-Bold-69" x="563.951172"/>
     <use xlink:href="#DejaVuSans-Bold-76" x="598.228516"/>
     <use xlink:href="#DejaVuSans-Bold-65" x="663.414062"/>
    </g>
   </g>
   <g id="text_2">
    <!-- 55.8% -->
    <g style="fill: #ffffff" transform="translate(221.248453 196.919392) scale(0.1 -0.1)">
     <defs>
      <path id="DejaVuSans-Bold-35" d="M 678 4666 
L 3669 4666 
L 3669 3781 
L 1638 3781 
L 1638 3059 
Q 1775 3097 1914 3117 
Q 2053 3138 2203 3138 
Q 3056 3138 3531 2711 
Q 4006 2284 4006 1522 
Q 4006 766 3489 337 
Q 2972 -91 2053 -91 
Q 1656 -91 1267 -14 
Q 878 63 494 219 
L 494 1166 
Q 875 947 1217 837 
Q 1559 728 1863 728 
Q 2300 728 2551 942 
Q 2803 1156 2803 1522 
Q 2803 1891 2551 2103 
Q 2300 2316 1863 2316 
Q 1603 2316 1309 2248 
Q 1016 2181 678 2041 
L 678 4666 
z
" transform="scale(0.015625)"/>
      <path id="DejaVuSans-Bold-2e" d="M 653 1209 
L 1778 1209 
L 1778 0 
L 653 0 
L 653 1209 
z
" transform="scale(0.015625)"/>
      <path id="DejaVuSans-Bold-38" d="M 2228 2088 
Q 1891 2088 1709 1903 
Q 1528 1719 1528 1375 
Q 1528 1031 1709 848 
Q 1891 666 2228 666 
Q 2563 666 2741 848 
Q 2919 1031 2919 1375 
Q 2919 1722 2741 1905 
Q 2563 2088 2228 2088 
z
M 1350 2484 
Q 925 2613 709 2878 
Q 494 3144 494 3541 
Q 494 4131 934 4440 
Q 1375 4750 2228 4750 
Q 3075 4750 3515 4442 
Q 3956 4134 3956 3541 
Q 3956 3144 3739 2878 
Q 3522 2613 3097 2484 
Q 3572 2353 3814 2058 
Q 4056 1763 4056 1313 
Q 4056 619 3595 264 
Q 3134 -91 2228 -91 
Q 1319 -91 855 264 
Q 391 619 391 1313 
Q 391 1763 633 2058 
Q 875 2353 1350 2484 
z
M 1631 3419 
Q 1631 3141 1786 2991 
Q 1941 2841 2228 2841 
Q 2509 2841 2662 2991 
Q 2816 3141 2816 3419 
Q 2816 3697 2662 3845 
Q 2509 3994 2228 3994 
Q 1941 3994 1786 3844 
Q 1631 3694 1631 3419 
z
" transform="scale(0.015625)"/>
      <path id="DejaVuSans-Bold-25" d="M 4959 1925 
Q 4738 1925 4616 1733 
Q 4494 1541 4494 1184 
Q 4494 825 4614 633 
Q 4734 441 4959 441 
Q 5184 441 5303 633 
Q 5422 825 5422 1184 
Q 5422 1541 5301 1733 
Q 5181 1925 4959 1925 
z
M 4959 2450 
Q 5541 2450 5875 2112 
Q 6209 1775 6209 1184 
Q 6209 594 5875 251 
Q 5541 -91 4959 -91 
Q 4378 -91 4042 251 
Q 3706 594 3706 1184 
Q 3706 1772 4042 2111 
Q 4378 2450 4959 2450 
z
M 2094 -91 
L 1403 -91 
L 4319 4750 
L 5013 4750 
L 2094 -91 
z
M 1453 4750 
Q 2034 4750 2367 4411 
Q 2700 4072 2700 3481 
Q 2700 2891 2367 2550 
Q 2034 2209 1453 2209 
Q 872 2209 539 2550 
Q 206 2891 206 3481 
Q 206 4072 539 4411 
Q 872 4750 1453 4750 
z
M 1453 4225 
Q 1228 4225 1106 4031 
Q 984 3838 984 3481 
Q 984 3122 1106 2926 
Q 1228 2731 1453 2731 
Q 1678 2731 1798 2926 
Q 1919 3122 1919 3481 
Q 1919 3838 1797 4031 
Q 1675 4225 1453 4225 
z
" transform="scale(0.015625)"/>
     </defs>
     <use xlink:href="#DejaVuSans-Bold-35"/>
     <use xlink:href="#DejaVuSans-Bold-35" x="69.580078"/>
     <use xlink:href="#DejaVuSans-Bold-2e" x="139.160156"/>
     <use xlink:href="#DejaVuSans-Bold-38" x="177.148438"/>
     <use xlink:href="#DejaVuSans-Bold-25" x="246.728516"/>
    </g>
   </g>
   <g id="text_3">
    <!-- False Positive -->
    <g transform="translate(312.64967 595.820536) scale(0.1 -0.1)">
     <defs>
      <path id="DejaVuSans-Bold-46" d="M 588 4666 
L 3834 4666 
L 3834 3756 
L 1791 3756 
L 1791 2888 
L 3713 2888 
L 3713 1978 
L 1791 1978 
L 1791 0 
L 588 0 
L 588 4666 
z
" transform="scale(0.015625)"/>
      <path id="DejaVuSans-Bold-61" d="M 2106 1575 
Q 1756 1575 1579 1456 
Q 1403 1338 1403 1106 
Q 1403 894 1545 773 
Q 1688 653 1941 653 
Q 2256 653 2472 879 
Q 2688 1106 2688 1447 
L 2688 1575 
L 2106 1575 
z
M 3816 1997 
L 3816 0 
L 2688 0 
L 2688 519 
Q 2463 200 2181 54 
Q 1900 -91 1497 -91 
Q 953 -91 614 226 
Q 275 544 275 1050 
Q 275 1666 698 1953 
Q 1122 2241 2028 2241 
L 2688 2241 
L 2688 2328 
Q 2688 2594 2478 2717 
Q 2269 2841 1825 2841 
Q 1466 2841 1156 2769 
Q 847 2697 581 2553 
L 581 3406 
Q 941 3494 1303 3539 
Q 1666 3584 2028 3584 
Q 2975 3584 3395 3211 
Q 3816 2838 3816 1997 
z
" transform="scale(0.015625)"/>
      <path id="DejaVuSans-Bold-6c" d="M 538 4863 
L 1656 4863 
L 1656 0 
L 538 0 
L 538 4863 
z
" transform="scale(0.015625)"/>
     </defs>
     <use xlink:href="#DejaVuSans-Bold-46"/>
     <use xlink:href="#DejaVuSans-Bold-61" x="62.435547"/>
     <use xlink:href="#DejaVuSans-Bold-6c" x="129.916016"/>
     <use xlink:href="#DejaVuSans-Bold-73" x="164.193359"/>
     <use xlink:href="#DejaVuSans-Bold-65" x="223.714844"/>
     <use xlink:href="#DejaVuSans-Bold-20" x="291.537109"/>
     <use xlink:href="#DejaVuSans-Bold-50" x="326.351562"/>
     <use xlink:href="#DejaVuSans-Bold-6f" x="399.642578"/>
     <use xlink:href="#DejaVuSans-Bold-73" x="468.34375"/>
     <use xlink:href="#DejaVuSans-Bold-69" x="527.865234"/>
     <use xlink:href="#DejaVuSans-Bold-74" x="562.142578"/>
     <use xlink:href="#DejaVuSans-Bold-69" x="609.945312"/>
     <use xlink:href="#DejaVuSans-Bold-76" x="644.222656"/>
     <use xlink:href="#DejaVuSans-Bold-65" x="709.408203"/>
    </g>
   </g>
   <g id="text_4">
    <!-- 44.2% -->
    <g style="fill: #ffffff" transform="translate(285.809333 544.679363) scale(0.1 -0.1)">
     <defs>
      <path id="DejaVuSans-Bold-34" d="M 2356 3675 
L 1038 1722 
L 2356 1722 
L 2356 3675 
z
M 2156 4666 
L 3494 4666 
L 3494 1722 
L 4159 1722 
L 4159 850 
L 3494 850 
L 3494 0 
L 2356 0 
L 2356 850 
L 288 850 
L 288 1881 
L 2156 4666 
z
" transform="scale(0.015625)"/>
      <path id="DejaVuSans-Bold-32" d="M 1844 884 
L 3897 884 
L 3897 0 
L 506 0 
L 506 884 
L 2209 2388 
Q 2438 2594 2547 2791 
Q 2656 2988 2656 3200 
Q 2656 3528 2436 3728 
Q 2216 3928 1850 3928 
Q 1569 3928 1234 3808 
Q 900 3688 519 3450 
L 519 4475 
Q 925 4609 1322 4679 
Q 1719 4750 2100 4750 
Q 2938 4750 3402 4381 
Q 3866 4013 3866 3353 
Q 3866 2972 3669 2642 
Q 3472 2313 2841 1759 
L 1844 884 
z
" transform="scale(0.015625)"/>
     </defs>
     <use xlink:href="#DejaVuSans-Bold-34"/>
     <use xlink:href="#DejaVuSans-Bold-34" x="69.580078"/>
     <use xlink:href="#DejaVuSans-Bold-2e" x="139.160156"/>
     <use xlink:href="#DejaVuSans-Bold-32" x="177.148438"/>
     <use xlink:href="#DejaVuSans-Bold-25" x="246.728516"/>
    </g>
   </g>
   <g id="text_5">
    <!-- 39.2% -->
    <g transform="translate(289.729166 267.740839) scale(0.1 -0.1)">
     <defs>
      <path id="DejaVuSans-Bold-33" d="M 2981 2516 
Q 3453 2394 3698 2092 
Q 3944 1791 3944 1325 
Q 3944 631 3412 270 
Q 2881 -91 1863 -91 
Q 1503 -91 1142 -33 
Q 781 25 428 141 
L 428 1069 
Q 766 900 1098 814 
Q 1431 728 1753 728 
Q 2231 728 2486 893 
Q 2741 1059 2741 1369 
Q 2741 1688 2480 1852 
Q 2219 2016 1709 2016 
L 1228 2016 
L 1228 2791 
L 1734 2791 
Q 2188 2791 2409 2933 
Q 2631 3075 2631 3366 
Q 2631 3634 2415 3781 
Q 2200 3928 1806 3928 
Q 1516 3928 1219 3862 
Q 922 3797 628 3669 
L 628 4550 
Q 984 4650 1334 4700 
Q 1684 4750 2022 4750 
Q 2931 4750 3382 4451 
Q 3834 4153 3834 3553 
Q 3834 3144 3618 2883 
Q 3403 2622 2981 2516 
z
" transform="scale(0.015625)"/>
      <path id="DejaVuSans-Bold-39" d="M 641 103 
L 641 966 
Q 928 831 1190 764 
Q 1453 697 1709 697 
Q 2247 697 2547 995 
Q 2847 1294 2900 1881 
Q 2688 1725 2447 1647 
Q 2206 1569 1925 1569 
Q 1209 1569 770 1986 
Q 331 2403 331 3084 
Q 331 3838 820 4291 
Q 1309 4744 2131 4744 
Q 3044 4744 3544 4128 
Q 4044 3513 4044 2388 
Q 4044 1231 3459 570 
Q 2875 -91 1856 -91 
Q 1528 -91 1228 -42 
Q 928 6 641 103 
z
M 2125 2350 
Q 2441 2350 2600 2554 
Q 2759 2759 2759 3169 
Q 2759 3575 2600 3781 
Q 2441 3988 2125 3988 
Q 1809 3988 1650 3781 
Q 1491 3575 1491 3169 
Q 1491 2759 1650 2554 
Q 1809 2350 2125 2350 
z
" transform="scale(0.015625)"/>
     </defs>
     <use xlink:href="#DejaVuSans-Bold-33"/>
     <use xlink:href="#DejaVuSans-Bold-39" x="69.580078"/>
     <use xlink:href="#DejaVuSans-Bold-2e" x="139.160156"/>
     <use xlink:href="#DejaVuSans-Bold-32" x="177.148438"/>
     <use xlink:href="#DejaVuSans-Bold-25" x="246.728516"/>
    </g>
   </g>
   <g id="text_6">
    <!-- 16.6% -->
    <g transform="translate(145.594109 354.018432) scale(0.1 -0.1)">
     <defs>
      <path id="DejaVuSans-Bold-31" d="M 750 831 
L 1813 831 
L 1813 3847 
L 722 3622 
L 722 4441 
L 1806 4666 
L 2950 4666 
L 2950 831 
L 4013 831 
L 4013 0 
L 750 0 
L 750 831 
z
" transform="scale(0.015625)"/>
      <path id="DejaVuSans-Bold-36" d="M 2316 2303 
Q 2000 2303 1842 2098 
Q 1684 1894 1684 1484 
Q 1684 1075 1842 870 
Q 2000 666 2316 666 
Q 2634 666 2792 870 
Q 2950 1075 2950 1484 
Q 2950 1894 2792 2098 
Q 2634 2303 2316 2303 
z
M 3803 4544 
L 3803 3681 
Q 3506 3822 3243 3889 
Q 2981 3956 2731 3956 
Q 2194 3956 1894 3657 
Q 1594 3359 1544 2772 
Q 1750 2925 1990 3001 
Q 2231 3078 2516 3078 
Q 3231 3078 3670 2659 
Q 4109 2241 4109 1563 
Q 4109 813 3618 361 
Q 3128 -91 2303 -91 
Q 1394 -91 895 523 
Q 397 1138 397 2266 
Q 397 3422 980 4083 
Q 1563 4744 2578 4744 
Q 2900 4744 3203 4694 
Q 3506 4644 3803 4544 
z
" transform="scale(0.015625)"/>
     </defs>
     <use xlink:href="#DejaVuSans-Bold-31"/>
     <use xlink:href="#DejaVuSans-Bold-36" x="69.580078"/>
     <use xlink:href="#DejaVuSans-Bold-2e" x="139.160156"/>
     <use xlink:href="#DejaVuSans-Bold-36" x="177.148438"/>
     <use xlink:href="#DejaVuSans-Bold-25" x="246.728516"/>
    </g>
   </g>
   <g id="text_7">
    <!-- 8.6% -->
    <g transform="translate(169.279711 435.878564) scale(0.1 -0.1)">
     <use xlink:href="#DejaVuSans-Bold-38"/>
     <use xlink:href="#DejaVuSans-Bold-2e" x="69.580078"/>
     <use xlink:href="#DejaVuSans-Bold-36" x="107.568359"/>
     <use xlink:href="#DejaVuSans-Bold-25" x="177.148438"/>
    </g>
   </g>
   <g id="text_8">
    <!-- 35.5% -->
    <g transform="translate(301.501895 468.932514) scale(0.1 -0.1)">
     <use xlink:href="#DejaVuSans-Bold-33"/>
     <use xlink:href="#DejaVuSans-Bold-35" x="69.580078"/>
     <use xlink:href="#DejaVuSans-Bold-2e" x="139.160156"/>
     <use xlink:href="#DejaVuSans-Bold-35" x="177.148438"/>
     <use xlink:href="#DejaVuSans-Bold-25" x="246.728516"/>
    </g>
   </g>
   <g id="text_9">
    <!-- 32.6% -->
    <g transform="translate(275.19417 335.272274) scale(0.1 -0.1)">
     <use xlink:href="#DejaVuSans-Bold-33"/>
     <use xlink:href="#DejaVuSans-Bold-32" x="69.580078"/>
     <use xlink:href="#DejaVuSans-Bold-2e" x="139.160156"/>
     <use xlink:href="#DejaVuSans-Bold-36" x="177.148438"/>
     <use xlink:href="#DejaVuSans-Bold-25" x="246.728516"/>
    </g>
   </g>
   <g id="text_10">
    <!-- 6.7% -->
    <g transform="translate(230.668498 338.584486) scale(0.1 -0.1)">
     <defs>
      <path id="DejaVuSans-Bold-37" d="M 428 4666 
L 3944 4666 
L 3944 3988 
L 2125 0 
L 953 0 
L 2675 3781 
L 428 3781 
L 428 4666 
z
" transform="scale(0.015625)"/>
     </defs>
     <use xlink:href="#DejaVuSans-Bold-36"/>
     <use xlink:href="#DejaVuSans-Bold-2e" x="69.580078"/>
     <use xlink:href="#DejaVuSans-Bold-37" x="107.568359"/>
     <use xlink:href="#DejaVuSans-Bold-25" x="177.148438"/>
    </g>
   </g>
   <g id="text_11">
    <!-- 16.6% -->
    <g transform="translate(212.410888 364.406635) scale(0.1 -0.1)">
     <use xlink:href="#DejaVuSans-Bold-31"/>
     <use xlink:href="#DejaVuSans-Bold-36" x="69.580078"/>
     <use xlink:href="#DejaVuSans-Bold-2e" x="139.160156"/>
     <use xlink:href="#DejaVuSans-Bold-36" x="177.148438"/>
     <use xlink:href="#DejaVuSans-Bold-25" x="246.728516"/>
    </g>
   </g>
   <g id="text_12">
    <!-- 5.4% -->
    <g transform="translate(221.272408 392.119304) scale(0.1 -0.1)">
     <use xlink:href="#DejaVuSans-Bold-35"/>
     <use xlink:href="#DejaVuSans-Bold-2e" x="69.580078"/>
     <use xlink:href="#DejaVuSans-Bold-34" x="107.568359"/>
     <use xlink:href="#DejaVuSans-Bold-25" x="177.148438"/>
    </g>
   </g>
   <g id="text_13">
    <!-- 3.2% -->
    <g transform="translate(228.287919 400.911271) scale(0.1 -0.1)">
     <use xlink:href="#DejaVuSans-Bold-33"/>
     <use xlink:href="#DejaVuSans-Bold-2e" x="69.580078"/>
     <use xlink:href="#DejaVuSans-Bold-32" x="107.568359"/>
     <use xlink:href="#DejaVuSans-Bold-25" x="177.148438"/>
    </g>
   </g>
   <g id="text_14">
    <!-- 35.5% -->
    <g transform="translate(271.80433 408.183428) scale(0.1 -0.1)">
     <use xlink:href="#DejaVuSans-Bold-33"/>
     <use xlink:href="#DejaVuSans-Bold-35" x="69.580078"/>
     <use xlink:href="#DejaVuSans-Bold-2e" x="139.160156"/>
     <use xlink:href="#DejaVuSans-Bold-35" x="177.148438"/>
     <use xlink:href="#DejaVuSans-Bold-25" x="246.728516"/>
    </g>
   </g>
   <g id="text_15">
    <!-- Showers Classification -->
    <g transform="translate(203.795 101.965) scale(0.12 -0.12)">
     <defs>
      <path id="DejaVuSans-53" d="M 3425 4513 
L 3425 3897 
Q 3066 4069 2747 4153 
Q 2428 4238 2131 4238 
Q 1616 4238 1336 4038 
Q 1056 3838 1056 3469 
Q 1056 3159 1242 3001 
Q 1428 2844 1947 2747 
L 2328 2669 
Q 3034 2534 3370 2195 
Q 3706 1856 3706 1288 
Q 3706 609 3251 259 
Q 2797 -91 1919 -91 
Q 1588 -91 1214 -16 
Q 841 59 441 206 
L 441 856 
Q 825 641 1194 531 
Q 1563 422 1919 422 
Q 2459 422 2753 634 
Q 3047 847 3047 1241 
Q 3047 1584 2836 1778 
Q 2625 1972 2144 2069 
L 1759 2144 
Q 1053 2284 737 2584 
Q 422 2884 422 3419 
Q 422 4038 858 4394 
Q 1294 4750 2059 4750 
Q 2388 4750 2728 4690 
Q 3069 4631 3425 4513 
z
" transform="scale(0.015625)"/>
      <path id="DejaVuSans-68" d="M 3513 2113 
L 3513 0 
L 2938 0 
L 2938 2094 
Q 2938 2591 2744 2837 
Q 2550 3084 2163 3084 
Q 1697 3084 1428 2787 
Q 1159 2491 1159 1978 
L 1159 0 
L 581 0 
L 581 4863 
L 1159 4863 
L 1159 2956 
Q 1366 3272 1645 3428 
Q 1925 3584 2291 3584 
Q 2894 3584 3203 3211 
Q 3513 2838 3513 2113 
z
" transform="scale(0.015625)"/>
      <path id="DejaVuSans-6f" d="M 1959 3097 
Q 1497 3097 1228 2736 
Q 959 2375 959 1747 
Q 959 1119 1226 758 
Q 1494 397 1959 397 
Q 2419 397 2687 759 
Q 2956 1122 2956 1747 
Q 2956 2369 2687 2733 
Q 2419 3097 1959 3097 
z
M 1959 3584 
Q 2709 3584 3137 3096 
Q 3566 2609 3566 1747 
Q 3566 888 3137 398 
Q 2709 -91 1959 -91 
Q 1206 -91 779 398 
Q 353 888 353 1747 
Q 353 2609 779 3096 
Q 1206 3584 1959 3584 
z
" transform="scale(0.015625)"/>
      <path id="DejaVuSans-77" d="M 269 3500 
L 844 3500 
L 1563 769 
L 2278 3500 
L 2956 3500 
L 3675 769 
L 4391 3500 
L 4966 3500 
L 4050 0 
L 3372 0 
L 2619 2869 
L 1863 0 
L 1184 0 
L 269 3500 
z
" transform="scale(0.015625)"/>
      <path id="DejaVuSans-65" d="M 3597 1894 
L 3597 1613 
L 953 1613 
Q 991 1019 1311 708 
Q 1631 397 2203 397 
Q 2534 397 2845 478 
Q 3156 559 3463 722 
L 3463 178 
Q 3153 47 2828 -22 
Q 2503 -91 2169 -91 
Q 1331 -91 842 396 
Q 353 884 353 1716 
Q 353 2575 817 3079 
Q 1281 3584 2069 3584 
Q 2775 3584 3186 3129 
Q 3597 2675 3597 1894 
z
M 3022 2063 
Q 3016 2534 2758 2815 
Q 2500 3097 2075 3097 
Q 1594 3097 1305 2825 
Q 1016 2553 972 2059 
L 3022 2063 
z
" transform="scale(0.015625)"/>
      <path id="DejaVuSans-72" d="M 2631 2963 
Q 2534 3019 2420 3045 
Q 2306 3072 2169 3072 
Q 1681 3072 1420 2755 
Q 1159 2438 1159 1844 
L 1159 0 
L 581 0 
L 581 3500 
L 1159 3500 
L 1159 2956 
Q 1341 3275 1631 3429 
Q 1922 3584 2338 3584 
Q 2397 3584 2469 3576 
Q 2541 3569 2628 3553 
L 2631 2963 
z
" transform="scale(0.015625)"/>
      <path id="DejaVuSans-73" d="M 2834 3397 
L 2834 2853 
Q 2591 2978 2328 3040 
Q 2066 3103 1784 3103 
Q 1356 3103 1142 2972 
Q 928 2841 928 2578 
Q 928 2378 1081 2264 
Q 1234 2150 1697 2047 
L 1894 2003 
Q 2506 1872 2764 1633 
Q 3022 1394 3022 966 
Q 3022 478 2636 193 
Q 2250 -91 1575 -91 
Q 1294 -91 989 -36 
Q 684 19 347 128 
L 347 722 
Q 666 556 975 473 
Q 1284 391 1588 391 
Q 1994 391 2212 530 
Q 2431 669 2431 922 
Q 2431 1156 2273 1281 
Q 2116 1406 1581 1522 
L 1381 1569 
Q 847 1681 609 1914 
Q 372 2147 372 2553 
Q 372 3047 722 3315 
Q 1072 3584 1716 3584 
Q 2034 3584 2315 3537 
Q 2597 3491 2834 3397 
z
" transform="scale(0.015625)"/>
      <path id="DejaVuSans-20" transform="scale(0.015625)"/>
      <path id="DejaVuSans-43" d="M 4122 4306 
L 4122 3641 
Q 3803 3938 3442 4084 
Q 3081 4231 2675 4231 
Q 1875 4231 1450 3742 
Q 1025 3253 1025 2328 
Q 1025 1406 1450 917 
Q 1875 428 2675 428 
Q 3081 428 3442 575 
Q 3803 722 4122 1019 
L 4122 359 
Q 3791 134 3420 21 
Q 3050 -91 2638 -91 
Q 1578 -91 968 557 
Q 359 1206 359 2328 
Q 359 3453 968 4101 
Q 1578 4750 2638 4750 
Q 3056 4750 3426 4639 
Q 3797 4528 4122 4306 
z
" transform="scale(0.015625)"/>
      <path id="DejaVuSans-6c" d="M 603 4863 
L 1178 4863 
L 1178 0 
L 603 0 
L 603 4863 
z
" transform="scale(0.015625)"/>
      <path id="DejaVuSans-61" d="M 2194 1759 
Q 1497 1759 1228 1600 
Q 959 1441 959 1056 
Q 959 750 1161 570 
Q 1363 391 1709 391 
Q 2188 391 2477 730 
Q 2766 1069 2766 1631 
L 2766 1759 
L 2194 1759 
z
M 3341 1997 
L 3341 0 
L 2766 0 
L 2766 531 
Q 2569 213 2275 61 
Q 1981 -91 1556 -91 
Q 1019 -91 701 211 
Q 384 513 384 1019 
Q 384 1609 779 1909 
Q 1175 2209 1959 2209 
L 2766 2209 
L 2766 2266 
Q 2766 2663 2505 2880 
Q 2244 3097 1772 3097 
Q 1472 3097 1187 3025 
Q 903 2953 641 2809 
L 641 3341 
Q 956 3463 1253 3523 
Q 1550 3584 1831 3584 
Q 2591 3584 2966 3190 
Q 3341 2797 3341 1997 
z
" transform="scale(0.015625)"/>
      <path id="DejaVuSans-69" d="M 603 3500 
L 1178 3500 
L 1178 0 
L 603 0 
L 603 3500 
z
M 603 4863 
L 1178 4863 
L 1178 4134 
L 603 4134 
L 603 4863 
z
" transform="scale(0.015625)"/>
      <path id="DejaVuSans-66" d="M 2375 4863 
L 2375 4384 
L 1825 4384 
Q 1516 4384 1395 4259 
Q 1275 4134 1275 3809 
L 1275 3500 
L 2222 3500 
L 2222 3053 
L 1275 3053 
L 1275 0 
L 697 0 
L 697 3053 
L 147 3053 
L 147 3500 
L 697 3500 
L 697 3744 
Q 697 4328 969 4595 
Q 1241 4863 1831 4863 
L 2375 4863 
z
" transform="scale(0.015625)"/>
      <path id="DejaVuSans-63" d="M 3122 3366 
L 3122 2828 
Q 2878 2963 2633 3030 
Q 2388 3097 2138 3097 
Q 1578 3097 1268 2742 
Q 959 2388 959 1747 
Q 959 1106 1268 751 
Q 1578 397 2138 397 
Q 2388 397 2633 464 
Q 2878 531 3122 666 
L 3122 134 
Q 2881 22 2623 -34 
Q 2366 -91 2075 -91 
Q 1284 -91 818 406 
Q 353 903 353 1747 
Q 353 2603 823 3093 
Q 1294 3584 2113 3584 
Q 2378 3584 2631 3529 
Q 2884 3475 3122 3366 
z
" transform="scale(0.015625)"/>
      <path id="DejaVuSans-74" d="M 1172 4494 
L 1172 3500 
L 2356 3500 
L 2356 3053 
L 1172 3053 
L 1172 1153 
Q 1172 725 1289 603 
Q 1406 481 1766 481 
L 2356 481 
L 2356 0 
L 1766 0 
Q 1100 0 847 248 
Q 594 497 594 1153 
L 594 3053 
L 172 3053 
L 172 3500 
L 594 3500 
L 594 4494 
L 1172 4494 
z
" transform="scale(0.015625)"/>
      <path id="DejaVuSans-6e" d="M 3513 2113 
L 3513 0 
L 2938 0 
L 2938 2094 
Q 2938 2591 2744 2837 
Q 2550 3084 2163 3084 
Q 1697 3084 1428 2787 
Q 1159 2491 1159 1978 
L 1159 0 
L 581 0 
L 581 3500 
L 1159 3500 
L 1159 2956 
Q 1366 3272 1645 3428 
Q 1925 3584 2291 3584 
Q 2894 3584 3203 3211 
Q 3513 2838 3513 2113 
z
" transform="scale(0.015625)"/>
     </defs>
     <use xlink:href="#DejaVuSans-53"/>
     <use xlink:href="#DejaVuSans-68" x="63.476562"/>
     <use xlink:href="#DejaVuSans-6f" x="126.855469"/>
     <use xlink:href="#DejaVuSans-77" x="188.037109"/>
     <use xlink:href="#DejaVuSans-65" x="269.824219"/>
     <use xlink:href="#DejaVuSans-72" x="331.347656"/>
     <use xlink:href="#DejaVuSans-73" x="372.460938"/>
     <use xlink:href="#DejaVuSans-20" x="424.560547"/>
     <use xlink:href="#DejaVuSans-43" x="456.347656"/>
     <use xlink:href="#DejaVuSans-6c" x="526.171875"/>
     <use xlink:href="#DejaVuSans-61" x="553.955078"/>
     <use xlink:href="#DejaVuSans-73" x="615.234375"/>
     <use xlink:href="#DejaVuSans-73" x="667.333984"/>
     <use xlink:href="#DejaVuSans-69" x="719.433594"/>
     <use xlink:href="#DejaVuSans-66" x="747.216797"/>
     <use xlink:href="#DejaVuSans-69" x="782.421875"/>
     <use xlink:href="#DejaVuSans-63" x="810.205078"/>
     <use xlink:href="#DejaVuSans-61" x="865.185547"/>
     <use xlink:href="#DejaVuSans-74" x="926.464844"/>
     <use xlink:href="#DejaVuSans-69" x="965.673828"/>
     <use xlink:href="#DejaVuSans-6f" x="993.457031"/>
     <use xlink:href="#DejaVuSans-6e" x="1054.638672"/>
    </g>
   </g>
   <g id="legend_1">
    <g id="patch_16">
     <path d="M 537.95 472.286875 
L 708.967188 472.286875 
Q 710.967188 472.286875 710.967188 470.286875 
L 710.967188 265.793125 
Q 710.967188 263.793125 708.967188 263.793125 
L 537.95 263.793125 
Q 535.95 263.793125 535.95 265.793125 
L 535.95 470.286875 
Q 535.95 472.286875 537.95 472.286875 
z
" style="fill: #ffffff; opacity: 0.8; stroke: #cccccc; stroke-linejoin: miter"/>
    </g>
    <g id="patch_17">
     <path d="M 539.95 275.391562 
L 559.95 275.391562 
L 559.95 268.391562 
L 539.95 268.391562 
z
" style="fill: #3182bd; stroke: #ffffff; stroke-linejoin: miter"/>
    </g>
    <g id="text_16">
     <!-- True Positive -->
     <g transform="translate(567.95 275.391562) scale(0.1 -0.1)">
      <defs>
       <path id="DejaVuSans-54" d="M -19 4666 
L 3928 4666 
L 3928 4134 
L 2272 4134 
L 2272 0 
L 1638 0 
L 1638 4134 
L -19 4134 
L -19 4666 
z
" transform="scale(0.015625)"/>
       <path id="DejaVuSans-75" d="M 544 1381 
L 544 3500 
L 1119 3500 
L 1119 1403 
Q 1119 906 1312 657 
Q 1506 409 1894 409 
Q 2359 409 2629 706 
Q 2900 1003 2900 1516 
L 2900 3500 
L 3475 3500 
L 3475 0 
L 2900 0 
L 2900 538 
Q 2691 219 2414 64 
Q 2138 -91 1772 -91 
Q 1169 -91 856 284 
Q 544 659 544 1381 
z
M 1991 3584 
L 1991 3584 
z
" transform="scale(0.015625)"/>
       <path id="DejaVuSans-50" d="M 1259 4147 
L 1259 2394 
L 2053 2394 
Q 2494 2394 2734 2622 
Q 2975 2850 2975 3272 
Q 2975 3691 2734 3919 
Q 2494 4147 2053 4147 
L 1259 4147 
z
M 628 4666 
L 2053 4666 
Q 2838 4666 3239 4311 
Q 3641 3956 3641 3272 
Q 3641 2581 3239 2228 
Q 2838 1875 2053 1875 
L 1259 1875 
L 1259 0 
L 628 0 
L 628 4666 
z
" transform="scale(0.015625)"/>
       <path id="DejaVuSans-76" d="M 191 3500 
L 800 3500 
L 1894 563 
L 2988 3500 
L 3597 3500 
L 2284 0 
L 1503 0 
L 191 3500 
z
" transform="scale(0.015625)"/>
      </defs>
      <use xlink:href="#DejaVuSans-54"/>
      <use xlink:href="#DejaVuSans-72" x="46.333984"/>
      <use xlink:href="#DejaVuSans-75" x="87.447266"/>
      <use xlink:href="#DejaVuSans-65" x="150.826172"/>
      <use xlink:href="#DejaVuSans-20" x="212.349609"/>
      <use xlink:href="#DejaVuSans-50" x="244.136719"/>
      <use xlink:href="#DejaVuSans-6f" x="300.814453"/>
      <use xlink:href="#DejaVuSans-73" x="361.996094"/>
      <use xlink:href="#DejaVuSans-69" x="414.095703"/>
      <use xlink:href="#DejaVuSans-74" x="441.878906"/>
      <use xlink:href="#DejaVuSans-69" x="481.087891"/>
      <use xlink:href="#DejaVuSans-76" x="508.871094"/>
      <use xlink:href="#DejaVuSans-65" x="568.050781"/>
     </g>
    </g>
    <g id="patch_18">
     <path d="M 539.95 290.069687 
L 559.95 290.069687 
L 559.95 283.069687 
L 539.95 283.069687 
z
" style="fill: #e6550d; stroke: #ffffff; stroke-linejoin: miter"/>
    </g>
    <g id="text_17">
     <!-- False Positive -->
     <g transform="translate(567.95 290.069687) scale(0.1 -0.1)">
      <defs>
       <path id="DejaVuSans-46" d="M 628 4666 
L 3309 4666 
L 3309 4134 
L 1259 4134 
L 1259 2759 
L 3109 2759 
L 3109 2228 
L 1259 2228 
L 1259 0 
L 628 0 
L 628 4666 
z
" transform="scale(0.015625)"/>
      </defs>
      <use xlink:href="#DejaVuSans-46"/>
      <use xlink:href="#DejaVuSans-61" x="48.394531"/>
      <use xlink:href="#DejaVuSans-6c" x="109.673828"/>
      <use xlink:href="#DejaVuSans-73" x="137.457031"/>
      <use xlink:href="#DejaVuSans-65" x="189.556641"/>
      <use xlink:href="#DejaVuSans-20" x="251.080078"/>
      <use xlink:href="#DejaVuSans-50" x="282.867188"/>
      <use xlink:href="#DejaVuSans-6f" x="339.544922"/>
      <use xlink:href="#DejaVuSans-73" x="400.726562"/>
      <use xlink:href="#DejaVuSans-69" x="452.826172"/>
      <use xlink:href="#DejaVuSans-74" x="480.609375"/>
      <use xlink:href="#DejaVuSans-69" x="519.818359"/>
      <use xlink:href="#DejaVuSans-76" x="547.601562"/>
      <use xlink:href="#DejaVuSans-65" x="606.78125"/>
     </g>
    </g>
    <g id="patch_19">
     <path d="M 539.95 304.747813 
L 559.95 304.747813 
L 559.95 297.747813 
L 539.95 297.747813 
z
" style="fill: #6baed6; stroke: #ffffff; stroke-linejoin: miter"/>
    </g>
    <g id="text_18">
     <!-- TP Matched AMTP -->
     <g transform="translate(567.95 304.747813) scale(0.1 -0.1)">
      <defs>
       <path id="DejaVuSans-4d" d="M 628 4666 
L 1569 4666 
L 2759 1491 
L 3956 4666 
L 4897 4666 
L 4897 0 
L 4281 0 
L 4281 4097 
L 3078 897 
L 2444 897 
L 1241 4097 
L 1241 0 
L 628 0 
L 628 4666 
z
" transform="scale(0.015625)"/>
       <path id="DejaVuSans-64" d="M 2906 2969 
L 2906 4863 
L 3481 4863 
L 3481 0 
L 2906 0 
L 2906 525 
Q 2725 213 2448 61 
Q 2172 -91 1784 -91 
Q 1150 -91 751 415 
Q 353 922 353 1747 
Q 353 2572 751 3078 
Q 1150 3584 1784 3584 
Q 2172 3584 2448 3432 
Q 2725 3281 2906 2969 
z
M 947 1747 
Q 947 1113 1208 752 
Q 1469 391 1925 391 
Q 2381 391 2643 752 
Q 2906 1113 2906 1747 
Q 2906 2381 2643 2742 
Q 2381 3103 1925 3103 
Q 1469 3103 1208 2742 
Q 947 2381 947 1747 
z
" transform="scale(0.015625)"/>
       <path id="DejaVuSans-41" d="M 2188 4044 
L 1331 1722 
L 3047 1722 
L 2188 4044 
z
M 1831 4666 
L 2547 4666 
L 4325 0 
L 3669 0 
L 3244 1197 
L 1141 1197 
L 716 0 
L 50 0 
L 1831 4666 
z
" transform="scale(0.015625)"/>
      </defs>
      <use xlink:href="#DejaVuSans-54"/>
      <use xlink:href="#DejaVuSans-50" x="61.083984"/>
      <use xlink:href="#DejaVuSans-20" x="121.386719"/>
      <use xlink:href="#DejaVuSans-4d" x="153.173828"/>
      <use xlink:href="#DejaVuSans-61" x="239.453125"/>
      <use xlink:href="#DejaVuSans-74" x="300.732422"/>
      <use xlink:href="#DejaVuSans-63" x="339.941406"/>
      <use xlink:href="#DejaVuSans-68" x="394.921875"/>
      <use xlink:href="#DejaVuSans-65" x="458.300781"/>
      <use xlink:href="#DejaVuSans-64" x="519.824219"/>
      <use xlink:href="#DejaVuSans-20" x="583.300781"/>
      <use xlink:href="#DejaVuSans-41" x="615.087891"/>
      <use xlink:href="#DejaVuSans-4d" x="683.496094"/>
      <use xlink:href="#DejaVuSans-54" x="769.775391"/>
      <use xlink:href="#DejaVuSans-50" x="830.859375"/>
     </g>
    </g>
    <g id="patch_20">
     <path d="M 539.95 319.425937 
L 559.95 319.425937 
L 559.95 312.425937 
L 539.95 312.425937 
z
" style="fill: #5254a3; stroke: #ffffff; stroke-linejoin: miter"/>
    </g>
    <g id="text_19">
     <!-- TP Not Matched AMTP -->
     <g transform="translate(567.95 319.425937) scale(0.1 -0.1)">
      <defs>
       <path id="DejaVuSans-4e" d="M 628 4666 
L 1478 4666 
L 3547 763 
L 3547 4666 
L 4159 4666 
L 4159 0 
L 3309 0 
L 1241 3903 
L 1241 0 
L 628 0 
L 628 4666 
z
" transform="scale(0.015625)"/>
      </defs>
      <use xlink:href="#DejaVuSans-54"/>
      <use xlink:href="#DejaVuSans-50" x="61.083984"/>
      <use xlink:href="#DejaVuSans-20" x="121.386719"/>
      <use xlink:href="#DejaVuSans-4e" x="153.173828"/>
      <use xlink:href="#DejaVuSans-6f" x="227.978516"/>
      <use xlink:href="#DejaVuSans-74" x="289.160156"/>
      <use xlink:href="#DejaVuSans-20" x="328.369141"/>
      <use xlink:href="#DejaVuSans-4d" x="360.15625"/>
      <use xlink:href="#DejaVuSans-61" x="446.435547"/>
      <use xlink:href="#DejaVuSans-74" x="507.714844"/>
      <use xlink:href="#DejaVuSans-63" x="546.923828"/>
      <use xlink:href="#DejaVuSans-68" x="601.904297"/>
      <use xlink:href="#DejaVuSans-65" x="665.283203"/>
      <use xlink:href="#DejaVuSans-64" x="726.806641"/>
      <use xlink:href="#DejaVuSans-20" x="790.283203"/>
      <use xlink:href="#DejaVuSans-41" x="822.070312"/>
      <use xlink:href="#DejaVuSans-4d" x="890.478516"/>
      <use xlink:href="#DejaVuSans-54" x="976.757812"/>
      <use xlink:href="#DejaVuSans-50" x="1037.841797"/>
     </g>
    </g>
    <g id="patch_21">
     <path d="M 539.95 334.104062 
L 559.95 334.104062 
L 559.95 327.104062 
L 539.95 327.104062 
z
" style="fill: #fd8d3c; stroke: #ffffff; stroke-linejoin: miter"/>
    </g>
    <g id="text_20">
     <!-- FP Matched AMTP -->
     <g transform="translate(567.95 334.104062) scale(0.1 -0.1)">
      <use xlink:href="#DejaVuSans-46"/>
      <use xlink:href="#DejaVuSans-50" x="57.519531"/>
      <use xlink:href="#DejaVuSans-20" x="117.822266"/>
      <use xlink:href="#DejaVuSans-4d" x="149.609375"/>
      <use xlink:href="#DejaVuSans-61" x="235.888672"/>
      <use xlink:href="#DejaVuSans-74" x="297.167969"/>
      <use xlink:href="#DejaVuSans-63" x="336.376953"/>
      <use xlink:href="#DejaVuSans-68" x="391.357422"/>
      <use xlink:href="#DejaVuSans-65" x="454.736328"/>
      <use xlink:href="#DejaVuSans-64" x="516.259766"/>
      <use xlink:href="#DejaVuSans-20" x="579.736328"/>
      <use xlink:href="#DejaVuSans-41" x="611.523438"/>
      <use xlink:href="#DejaVuSans-4d" x="679.931641"/>
      <use xlink:href="#DejaVuSans-54" x="766.210938"/>
      <use xlink:href="#DejaVuSans-50" x="827.294922"/>
     </g>
    </g>
    <g id="patch_22">
     <path d="M 539.95 348.782187 
L 559.95 348.782187 
L 559.95 341.782187 
L 539.95 341.782187 
z
" style="fill: #8ca252; stroke: #ffffff; stroke-linejoin: miter"/>
    </g>
    <g id="text_21">
     <!-- FP Not Matched AMTP -->
     <g transform="translate(567.95 348.782187) scale(0.1 -0.1)">
      <use xlink:href="#DejaVuSans-46"/>
      <use xlink:href="#DejaVuSans-50" x="57.519531"/>
      <use xlink:href="#DejaVuSans-20" x="117.822266"/>
      <use xlink:href="#DejaVuSans-4e" x="149.609375"/>
      <use xlink:href="#DejaVuSans-6f" x="224.414062"/>
      <use xlink:href="#DejaVuSans-74" x="285.595703"/>
      <use xlink:href="#DejaVuSans-20" x="324.804688"/>
      <use xlink:href="#DejaVuSans-4d" x="356.591797"/>
      <use xlink:href="#DejaVuSans-61" x="442.871094"/>
      <use xlink:href="#DejaVuSans-74" x="504.150391"/>
      <use xlink:href="#DejaVuSans-63" x="543.359375"/>
      <use xlink:href="#DejaVuSans-68" x="598.339844"/>
      <use xlink:href="#DejaVuSans-65" x="661.71875"/>
      <use xlink:href="#DejaVuSans-64" x="723.242188"/>
      <use xlink:href="#DejaVuSans-20" x="786.71875"/>
      <use xlink:href="#DejaVuSans-41" x="818.505859"/>
      <use xlink:href="#DejaVuSans-4d" x="886.914062"/>
      <use xlink:href="#DejaVuSans-54" x="973.193359"/>
      <use xlink:href="#DejaVuSans-50" x="1034.277344"/>
     </g>
    </g>
    <g id="patch_23">
     <path d="M 539.95 363.460312 
L 559.95 363.460312 
L 559.95 356.460312 
L 539.95 356.460312 
z
" style="fill: #9ecae1; stroke: #ffffff; stroke-linejoin: miter"/>
    </g>
    <g id="text_22">
     <!-- TP Matched High Pt -->
     <g transform="translate(567.95 363.460312) scale(0.1 -0.1)">
      <defs>
       <path id="DejaVuSans-48" d="M 628 4666 
L 1259 4666 
L 1259 2753 
L 3553 2753 
L 3553 4666 
L 4184 4666 
L 4184 0 
L 3553 0 
L 3553 2222 
L 1259 2222 
L 1259 0 
L 628 0 
L 628 4666 
z
" transform="scale(0.015625)"/>
       <path id="DejaVuSans-67" d="M 2906 1791 
Q 2906 2416 2648 2759 
Q 2391 3103 1925 3103 
Q 1463 3103 1205 2759 
Q 947 2416 947 1791 
Q 947 1169 1205 825 
Q 1463 481 1925 481 
Q 2391 481 2648 825 
Q 2906 1169 2906 1791 
z
M 3481 434 
Q 3481 -459 3084 -895 
Q 2688 -1331 1869 -1331 
Q 1566 -1331 1297 -1286 
Q 1028 -1241 775 -1147 
L 775 -588 
Q 1028 -725 1275 -790 
Q 1522 -856 1778 -856 
Q 2344 -856 2625 -561 
Q 2906 -266 2906 331 
L 2906 616 
Q 2728 306 2450 153 
Q 2172 0 1784 0 
Q 1141 0 747 490 
Q 353 981 353 1791 
Q 353 2603 747 3093 
Q 1141 3584 1784 3584 
Q 2172 3584 2450 3431 
Q 2728 3278 2906 2969 
L 2906 3500 
L 3481 3500 
L 3481 434 
z
" transform="scale(0.015625)"/>
      </defs>
      <use xlink:href="#DejaVuSans-54"/>
      <use xlink:href="#DejaVuSans-50" x="61.083984"/>
      <use xlink:href="#DejaVuSans-20" x="121.386719"/>
      <use xlink:href="#DejaVuSans-4d" x="153.173828"/>
      <use xlink:href="#DejaVuSans-61" x="239.453125"/>
      <use xlink:href="#DejaVuSans-74" x="300.732422"/>
      <use xlink:href="#DejaVuSans-63" x="339.941406"/>
      <use xlink:href="#DejaVuSans-68" x="394.921875"/>
      <use xlink:href="#DejaVuSans-65" x="458.300781"/>
      <use xlink:href="#DejaVuSans-64" x="519.824219"/>
      <use xlink:href="#DejaVuSans-20" x="583.300781"/>
      <use xlink:href="#DejaVuSans-48" x="615.087891"/>
      <use xlink:href="#DejaVuSans-69" x="690.283203"/>
      <use xlink:href="#DejaVuSans-67" x="718.066406"/>
      <use xlink:href="#DejaVuSans-68" x="781.542969"/>
      <use xlink:href="#DejaVuSans-20" x="844.921875"/>
      <use xlink:href="#DejaVuSans-50" x="876.708984"/>
      <use xlink:href="#DejaVuSans-74" x="937.011719"/>
     </g>
    </g>
    <g id="patch_24">
     <path d="M 539.95 378.138437 
L 559.95 378.138437 
L 559.95 371.138437 
L 539.95 371.138437 
z
" style="fill: #c6dbef; stroke: #ffffff; stroke-linejoin: miter"/>
    </g>
    <g id="text_23">
     <!-- TP Matched Not High Pt -->
     <g transform="translate(567.95 378.138437) scale(0.1 -0.1)">
      <use xlink:href="#DejaVuSans-54"/>
      <use xlink:href="#DejaVuSans-50" x="61.083984"/>
      <use xlink:href="#DejaVuSans-20" x="121.386719"/>
      <use xlink:href="#DejaVuSans-4d" x="153.173828"/>
      <use xlink:href="#DejaVuSans-61" x="239.453125"/>
      <use xlink:href="#DejaVuSans-74" x="300.732422"/>
      <use xlink:href="#DejaVuSans-63" x="339.941406"/>
      <use xlink:href="#DejaVuSans-68" x="394.921875"/>
      <use xlink:href="#DejaVuSans-65" x="458.300781"/>
      <use xlink:href="#DejaVuSans-64" x="519.824219"/>
      <use xlink:href="#DejaVuSans-20" x="583.300781"/>
      <use xlink:href="#DejaVuSans-4e" x="615.087891"/>
      <use xlink:href="#DejaVuSans-6f" x="689.892578"/>
      <use xlink:href="#DejaVuSans-74" x="751.074219"/>
      <use xlink:href="#DejaVuSans-20" x="790.283203"/>
      <use xlink:href="#DejaVuSans-48" x="822.070312"/>
      <use xlink:href="#DejaVuSans-69" x="897.265625"/>
      <use xlink:href="#DejaVuSans-67" x="925.048828"/>
      <use xlink:href="#DejaVuSans-68" x="988.525391"/>
      <use xlink:href="#DejaVuSans-20" x="1051.904297"/>
      <use xlink:href="#DejaVuSans-50" x="1083.691406"/>
      <use xlink:href="#DejaVuSans-74" x="1143.994141"/>
     </g>
    </g>
    <g id="patch_25">
     <path d="M 539.95 392.816562 
L 559.95 392.816562 
L 559.95 385.816562 
L 539.95 385.816562 
z
" style="fill: #6b6ecf; stroke: #ffffff; stroke-linejoin: miter"/>
    </g>
    <g id="text_24">
     <!-- TP Not Matched High Pt -->
     <g transform="translate(567.95 392.816562) scale(0.1 -0.1)">
      <use xlink:href="#DejaVuSans-54"/>
      <use xlink:href="#DejaVuSans-50" x="61.083984"/>
      <use xlink:href="#DejaVuSans-20" x="121.386719"/>
      <use xlink:href="#DejaVuSans-4e" x="153.173828"/>
      <use xlink:href="#DejaVuSans-6f" x="227.978516"/>
      <use xlink:href="#DejaVuSans-74" x="289.160156"/>
      <use xlink:href="#DejaVuSans-20" x="328.369141"/>
      <use xlink:href="#DejaVuSans-4d" x="360.15625"/>
      <use xlink:href="#DejaVuSans-61" x="446.435547"/>
      <use xlink:href="#DejaVuSans-74" x="507.714844"/>
      <use xlink:href="#DejaVuSans-63" x="546.923828"/>
      <use xlink:href="#DejaVuSans-68" x="601.904297"/>
      <use xlink:href="#DejaVuSans-65" x="665.283203"/>
      <use xlink:href="#DejaVuSans-64" x="726.806641"/>
      <use xlink:href="#DejaVuSans-20" x="790.283203"/>
      <use xlink:href="#DejaVuSans-48" x="822.070312"/>
      <use xlink:href="#DejaVuSans-69" x="897.265625"/>
      <use xlink:href="#DejaVuSans-67" x="925.048828"/>
      <use xlink:href="#DejaVuSans-68" x="988.525391"/>
      <use xlink:href="#DejaVuSans-20" x="1051.904297"/>
      <use xlink:href="#DejaVuSans-50" x="1083.691406"/>
      <use xlink:href="#DejaVuSans-74" x="1143.994141"/>
     </g>
    </g>
    <g id="patch_26">
     <path d="M 539.95 407.494687 
L 559.95 407.494687 
L 559.95 400.494687 
L 539.95 400.494687 
z
" style="fill: #9c9ede; stroke: #ffffff; stroke-linejoin: miter"/>
    </g>
    <g id="text_25">
     <!-- TP Not Matched Not High Pt -->
     <g transform="translate(567.95 407.494687) scale(0.1 -0.1)">
      <use xlink:href="#DejaVuSans-54"/>
      <use xlink:href="#DejaVuSans-50" x="61.083984"/>
      <use xlink:href="#DejaVuSans-20" x="121.386719"/>
      <use xlink:href="#DejaVuSans-4e" x="153.173828"/>
      <use xlink:href="#DejaVuSans-6f" x="227.978516"/>
      <use xlink:href="#DejaVuSans-74" x="289.160156"/>
      <use xlink:href="#DejaVuSans-20" x="328.369141"/>
      <use xlink:href="#DejaVuSans-4d" x="360.15625"/>
      <use xlink:href="#DejaVuSans-61" x="446.435547"/>
      <use xlink:href="#DejaVuSans-74" x="507.714844"/>
      <use xlink:href="#DejaVuSans-63" x="546.923828"/>
      <use xlink:href="#DejaVuSans-68" x="601.904297"/>
      <use xlink:href="#DejaVuSans-65" x="665.283203"/>
      <use xlink:href="#DejaVuSans-64" x="726.806641"/>
      <use xlink:href="#DejaVuSans-20" x="790.283203"/>
      <use xlink:href="#DejaVuSans-4e" x="822.070312"/>
      <use xlink:href="#DejaVuSans-6f" x="896.875"/>
      <use xlink:href="#DejaVuSans-74" x="958.056641"/>
      <use xlink:href="#DejaVuSans-20" x="997.265625"/>
      <use xlink:href="#DejaVuSans-48" x="1029.052734"/>
      <use xlink:href="#DejaVuSans-69" x="1104.248047"/>
      <use xlink:href="#DejaVuSans-67" x="1132.03125"/>
      <use xlink:href="#DejaVuSans-68" x="1195.507812"/>
      <use xlink:href="#DejaVuSans-20" x="1258.886719"/>
      <use xlink:href="#DejaVuSans-50" x="1290.673828"/>
      <use xlink:href="#DejaVuSans-74" x="1350.976562"/>
     </g>
    </g>
    <g id="patch_27">
     <path d="M 539.95 422.172812 
L 559.95 422.172812 
L 559.95 415.172812 
L 539.95 415.172812 
z
" style="fill: #fdae6b; stroke: #ffffff; stroke-linejoin: miter"/>
    </g>
    <g id="text_26">
     <!-- FP Matched High Pt -->
     <g transform="translate(567.95 422.172812) scale(0.1 -0.1)">
      <use xlink:href="#DejaVuSans-46"/>
      <use xlink:href="#DejaVuSans-50" x="57.519531"/>
      <use xlink:href="#DejaVuSans-20" x="117.822266"/>
      <use xlink:href="#DejaVuSans-4d" x="149.609375"/>
      <use xlink:href="#DejaVuSans-61" x="235.888672"/>
      <use xlink:href="#DejaVuSans-74" x="297.167969"/>
      <use xlink:href="#DejaVuSans-63" x="336.376953"/>
      <use xlink:href="#DejaVuSans-68" x="391.357422"/>
      <use xlink:href="#DejaVuSans-65" x="454.736328"/>
      <use xlink:href="#DejaVuSans-64" x="516.259766"/>
      <use xlink:href="#DejaVuSans-20" x="579.736328"/>
      <use xlink:href="#DejaVuSans-48" x="611.523438"/>
      <use xlink:href="#DejaVuSans-69" x="686.71875"/>
      <use xlink:href="#DejaVuSans-67" x="714.501953"/>
      <use xlink:href="#DejaVuSans-68" x="777.978516"/>
      <use xlink:href="#DejaVuSans-20" x="841.357422"/>
      <use xlink:href="#DejaVuSans-50" x="873.144531"/>
      <use xlink:href="#DejaVuSans-74" x="933.447266"/>
     </g>
    </g>
    <g id="patch_28">
     <path d="M 539.95 436.850937 
L 559.95 436.850937 
L 559.95 429.850937 
L 539.95 429.850937 
z
" style="fill: #fdd0a2; stroke: #ffffff; stroke-linejoin: miter"/>
    </g>
    <g id="text_27">
     <!-- FP Matched Not High Pt -->
     <g transform="translate(567.95 436.850937) scale(0.1 -0.1)">
      <use xlink:href="#DejaVuSans-46"/>
      <use xlink:href="#DejaVuSans-50" x="57.519531"/>
      <use xlink:href="#DejaVuSans-20" x="117.822266"/>
      <use xlink:href="#DejaVuSans-4d" x="149.609375"/>
      <use xlink:href="#DejaVuSans-61" x="235.888672"/>
      <use xlink:href="#DejaVuSans-74" x="297.167969"/>
      <use xlink:href="#DejaVuSans-63" x="336.376953"/>
      <use xlink:href="#DejaVuSans-68" x="391.357422"/>
      <use xlink:href="#DejaVuSans-65" x="454.736328"/>
      <use xlink:href="#DejaVuSans-64" x="516.259766"/>
      <use xlink:href="#DejaVuSans-20" x="579.736328"/>
      <use xlink:href="#DejaVuSans-4e" x="611.523438"/>
      <use xlink:href="#DejaVuSans-6f" x="686.328125"/>
      <use xlink:href="#DejaVuSans-74" x="747.509766"/>
      <use xlink:href="#DejaVuSans-20" x="786.71875"/>
      <use xlink:href="#DejaVuSans-48" x="818.505859"/>
      <use xlink:href="#DejaVuSans-69" x="893.701172"/>
      <use xlink:href="#DejaVuSans-67" x="921.484375"/>
      <use xlink:href="#DejaVuSans-68" x="984.960938"/>
      <use xlink:href="#DejaVuSans-20" x="1048.339844"/>
      <use xlink:href="#DejaVuSans-50" x="1080.126953"/>
      <use xlink:href="#DejaVuSans-74" x="1140.429688"/>
     </g>
    </g>
    <g id="patch_29">
     <path d="M 539.95 451.529062 
L 559.95 451.529062 
L 559.95 444.529062 
L 539.95 444.529062 
z
" style="fill: #b5cf6b; stroke: #ffffff; stroke-linejoin: miter"/>
    </g>
    <g id="text_28">
     <!-- FP Not Matched High Pt -->
     <g transform="translate(567.95 451.529062) scale(0.1 -0.1)">
      <use xlink:href="#DejaVuSans-46"/>
      <use xlink:href="#DejaVuSans-50" x="57.519531"/>
      <use xlink:href="#DejaVuSans-20" x="117.822266"/>
      <use xlink:href="#DejaVuSans-4e" x="149.609375"/>
      <use xlink:href="#DejaVuSans-6f" x="224.414062"/>
      <use xlink:href="#DejaVuSans-74" x="285.595703"/>
      <use xlink:href="#DejaVuSans-20" x="324.804688"/>
      <use xlink:href="#DejaVuSans-4d" x="356.591797"/>
      <use xlink:href="#DejaVuSans-61" x="442.871094"/>
      <use xlink:href="#DejaVuSans-74" x="504.150391"/>
      <use xlink:href="#DejaVuSans-63" x="543.359375"/>
      <use xlink:href="#DejaVuSans-68" x="598.339844"/>
      <use xlink:href="#DejaVuSans-65" x="661.71875"/>
      <use xlink:href="#DejaVuSans-64" x="723.242188"/>
      <use xlink:href="#DejaVuSans-20" x="786.71875"/>
      <use xlink:href="#DejaVuSans-48" x="818.505859"/>
      <use xlink:href="#DejaVuSans-69" x="893.701172"/>
      <use xlink:href="#DejaVuSans-67" x="921.484375"/>
      <use xlink:href="#DejaVuSans-68" x="984.960938"/>
      <use xlink:href="#DejaVuSans-20" x="1048.339844"/>
      <use xlink:href="#DejaVuSans-50" x="1080.126953"/>
      <use xlink:href="#DejaVuSans-74" x="1140.429688"/>
     </g>
    </g>
    <g id="patch_30">
     <path d="M 539.95 466.207187 
L 559.95 466.207187 
L 559.95 459.207187 
L 539.95 459.207187 
z
" style="fill: #cedb9c; stroke: #ffffff; stroke-linejoin: miter"/>
    </g>
    <g id="text_29">
     <!-- FP Not Matched Not High Pt -->
     <g transform="translate(567.95 466.207187) scale(0.1 -0.1)">
      <use xlink:href="#DejaVuSans-46"/>
      <use xlink:href="#DejaVuSans-50" x="57.519531"/>
      <use xlink:href="#DejaVuSans-20" x="117.822266"/>
      <use xlink:href="#DejaVuSans-4e" x="149.609375"/>
      <use xlink:href="#DejaVuSans-6f" x="224.414062"/>
      <use xlink:href="#DejaVuSans-74" x="285.595703"/>
      <use xlink:href="#DejaVuSans-20" x="324.804688"/>
      <use xlink:href="#DejaVuSans-4d" x="356.591797"/>
      <use xlink:href="#DejaVuSans-61" x="442.871094"/>
      <use xlink:href="#DejaVuSans-74" x="504.150391"/>
      <use xlink:href="#DejaVuSans-63" x="543.359375"/>
      <use xlink:href="#DejaVuSans-68" x="598.339844"/>
      <use xlink:href="#DejaVuSans-65" x="661.71875"/>
      <use xlink:href="#DejaVuSans-64" x="723.242188"/>
      <use xlink:href="#DejaVuSans-20" x="786.71875"/>
      <use xlink:href="#DejaVuSans-4e" x="818.505859"/>
      <use xlink:href="#DejaVuSans-6f" x="893.310547"/>
      <use xlink:href="#DejaVuSans-74" x="954.492188"/>
      <use xlink:href="#DejaVuSans-20" x="993.701172"/>
      <use xlink:href="#DejaVuSans-48" x="1025.488281"/>
      <use xlink:href="#DejaVuSans-69" x="1100.683594"/>
      <use xlink:href="#DejaVuSans-67" x="1128.466797"/>
      <use xlink:href="#DejaVuSans-68" x="1191.943359"/>
      <use xlink:href="#DejaVuSans-20" x="1255.322266"/>
      <use xlink:href="#DejaVuSans-50" x="1287.109375"/>
      <use xlink:href="#DejaVuSans-74" x="1347.412109"/>
     </g>
    </g>
   </g>
  </g>
 </g>
</svg>
