<?xml version="1.0" standalone="no"?>
<svg width="567.429" height="557.018" viewBox="0 0 567.429 557.018" xmlns="http://www.w3.org/2000/svg" shape-rendering="crispEdges">
<title>
./results/plots/pt_trend_bigsample_130126/pt_trend_bigsample_130126.svg
</title>
<desc>
Creator: ROOT Version 6.32.16
CreationDate: Wed Jan 14 09:44:33 2026</desc>
<defs>
</defs>
<rect x="0.5" y="0" width="566.929" height="556.518" fill="white"/>
<rect x="57.1929" y="55.6518" width="453.543" height="445.214" fill="white"/>
<rect x="57.1929" y="55.6518" width="453.543" height="445.214" fill="none" stroke="black"/>
<path d="M57.1929,500.866h 453.543" fill="none" stroke="black"/>
<path d="M57.1929,487.51v 13.3564" fill="none" stroke="black"/>
<path d="M68.5315,494.188v 6.67822" fill="none" stroke="black"/>
<path d="M79.8701,494.188v 6.67822" fill="none" stroke="black"/>
<path d="M91.2087,494.188v 6.67822" fill="none" stroke="black"/>
<path d="M102.547,487.51v 13.3564" fill="none" stroke="black"/>
<path d="M113.886,494.188v 6.67822" fill="none" stroke="black"/>
<path d="M125.224,494.188v 6.67822" fill="none" stroke="black"/>
<path d="M136.563,494.188v 6.67822" fill="none" stroke="black"/>
<path d="M147.902,487.51v 13.3564" fill="none" stroke="black"/>
<path d="M159.24,494.188v 6.67822" fill="none" stroke="black"/>
<path d="M170.579,494.188v 6.67822" fill="none" stroke="black"/>
<path d="M181.917,494.188v 6.67822" fill="none" stroke="black"/>
<path d="M193.256,487.51v 13.3564" fill="none" stroke="black"/>
<path d="M204.594,494.188v 6.67822" fill="none" stroke="black"/>
<path d="M215.933,494.188v 6.67822" fill="none" stroke="black"/>
<path d="M227.272,494.188v 6.67822" fill="none" stroke="black"/>
<path d="M238.61,487.51v 13.3564" fill="none" stroke="black"/>
<path d="M249.949,494.188v 6.67822" fill="none" stroke="black"/>
<path d="M261.287,494.188v 6.67822" fill="none" stroke="black"/>
<path d="M272.626,494.188v 6.67822" fill="none" stroke="black"/>
<path d="M283.965,487.51v 13.3564" fill="none" stroke="black"/>
<path d="M295.303,494.188v 6.67822" fill="none" stroke="black"/>
<path d="M306.642,494.188v 6.67822" fill="none" stroke="black"/>
<path d="M317.98,494.188v 6.67822" fill="none" stroke="black"/>
<path d="M329.319,487.51v 13.3564" fill="none" stroke="black"/>
<path d="M340.657,494.188v 6.67822" fill="none" stroke="black"/>
<path d="M351.996,494.188v 6.67822" fill="none" stroke="black"/>
<path d="M363.335,494.188v 6.67822" fill="none" stroke="black"/>
<path d="M374.673,487.51v 13.3564" fill="none" stroke="black"/>
<path d="M386.012,494.188v 6.67822" fill="none" stroke="black"/>
<path d="M397.35,494.188v 6.67822" fill="none" stroke="black"/>
<path d="M408.689,494.188v 6.67822" fill="none" stroke="black"/>
<path d="M420.028,487.51v 13.3564" fill="none" stroke="black"/>
<path d="M431.366,494.188v 6.67822" fill="none" stroke="black"/>
<path d="M442.705,494.188v 6.67822" fill="none" stroke="black"/>
<path d="M454.043,494.188v 6.67822" fill="none" stroke="black"/>
<path d="M465.382,487.51v 13.3564" fill="none" stroke="black"/>
<path d="M476.72,494.188v 6.67822" fill="none" stroke="black"/>
<path d="M488.059,494.188v 6.67822" fill="none" stroke="black"/>
<path d="M499.398,494.188v 6.67822" fill="none" stroke="black"/>
<path d="M510.736,487.51v 13.3564" fill="none" stroke="black"/>
<text xml:space="preserve" x="53.0285" y="517.24" fill="black" font-size="15.817" font-family="Helvetica">0
</text>
<text xml:space="preserve" x="89.9404" y="517.24" fill="black" font-size="15.817" font-family="Helvetica">200
</text>
<text xml:space="preserve" x="134.897" y="517.24" fill="black" font-size="15.817" font-family="Helvetica">400
</text>
<text xml:space="preserve" x="180.327" y="517.24" fill="black" font-size="15.817" font-family="Helvetica">600
</text>
<text xml:space="preserve" x="225.757" y="517.24" fill="black" font-size="15.817" font-family="Helvetica">800
</text>
<text xml:space="preserve" x="266.928" y="517.24" fill="black" font-size="15.817" font-family="Helvetica">1000
</text>
<text xml:space="preserve" x="312.358" y="517.24" fill="black" font-size="15.817" font-family="Helvetica">1200
</text>
<text xml:space="preserve" x="357.788" y="517.24" fill="black" font-size="15.817" font-family="Helvetica">1400
</text>
<text xml:space="preserve" x="403.218" y="517.24" fill="black" font-size="15.817" font-family="Helvetica">1600
</text>
<text xml:space="preserve" x="448.175" y="517.24" fill="black" font-size="15.817" font-family="Helvetica">1800
</text>
<text xml:space="preserve" x="493.605" y="517.24" fill="black" font-size="15.817" font-family="Helvetica">2000
</text>
<text xml:space="preserve" x="452.908" y="539.009" fill="black" font-size="20.9227" font-family="Helvetica"> [GeV]
</text>
<text xml:space="preserve" x="444.389" y="550.366" fill="black" font-size="14.1151" font-family="Helvetica">T
</text>
<text xml:space="preserve" x="433.032" y="539.009" fill="black" font-size="20.9227" font-family="Helvetica">p
</text>
<path d="M57.1929,500.866v -445.214" fill="none" stroke="black"/>
<path d="M70.7992,420.25h -13.6063" fill="none" stroke="black"/>
<path d="M63.9961,399.994h -6.80315" fill="none" stroke="black"/>
<path d="M63.9961,379.739h -6.80315" fill="none" stroke="black"/>
<path d="M63.9961,359.483h -6.80315" fill="none" stroke="black"/>
<path d="M70.7992,339.228h -13.6063" fill="none" stroke="black"/>
<path d="M63.9961,318.972h -6.80315" fill="none" stroke="black"/>
<path d="M63.9961,298.717h -6.80315" fill="none" stroke="black"/>
<path d="M63.9961,278.462h -6.80315" fill="none" stroke="black"/>
<path d="M70.7992,258.206h -13.6063" fill="none" stroke="black"/>
<path d="M63.9961,237.951h -6.80315" fill="none" stroke="black"/>
<path d="M63.9961,217.695h -6.80315" fill="none" stroke="black"/>
<path d="M63.9961,197.44h -6.80315" fill="none" stroke="black"/>
<path d="M70.7992,177.184h -13.6063" fill="none" stroke="black"/>
<path d="M63.9961,156.929h -6.80315" fill="none" stroke="black"/>
<path d="M63.9961,136.674h -6.80315" fill="none" stroke="black"/>
<path d="M63.9961,116.418h -6.80315" fill="none" stroke="black"/>
<path d="M70.7992,96.1627h -13.6063" fill="none" stroke="black"/>
<path d="M70.7992,420.25h -13.6063" fill="none" stroke="black"/>
<path d="M63.9961,440.505h -6.80315" fill="none" stroke="black"/>
<path d="M63.9961,460.76h -6.80315" fill="none" stroke="black"/>
<path d="M63.9961,481.016h -6.80315" fill="none" stroke="black"/>
<path d="M70.7992,96.1627h -13.6063" fill="none" stroke="black"/>
<path d="M63.9961,75.9072h -6.80315" fill="none" stroke="black"/>
<text xml:space="preserve" x="38.3584" y="424.487" fill="black" font-size="12.243" font-family="Helvetica">0.2
</text>
<text xml:space="preserve" x="38.3584" y="343.565" fill="black" font-size="12.243" font-family="Helvetica">0.4
</text>
<text xml:space="preserve" x="38.3584" y="262.642" fill="black" font-size="12.243" font-family="Helvetica">0.6
</text>
<text xml:space="preserve" x="38.3584" y="181.247" fill="black" font-size="12.243" font-family="Helvetica">0.8
</text>
<text xml:space="preserve" x="50.1891" y="100.798" fill="black" font-size="12.243" font-family="Helvetica">1
</text>
<g transform="rotate(-90,24.1615,226.677)">
<text xml:space="preserve" x="24.1615" y="226.677" fill="black" font-size="20.9227" font-family="Helvetica">Shower probability
</text>
</g>
<path d="M58.3268,489.801v 1.64535" fill="none" stroke="black"/>
<path d="M58.3268,495.48v -1.78043" fill="none" stroke="black"/>
<path d="M57.3803,491.447h 1.89292" fill="none" stroke="black"/>
<path d="M57.3803,493.7h 1.89292" fill="none" stroke="black"/>
<path d="M60.5945,483.637v 1.37835" fill="none" stroke="black"/>
<path d="M60.5945,489.316v -1.50001" fill="none" stroke="black"/>
<path d="M59.648,485.015h 1.89292" fill="none" stroke="black"/>
<path d="M59.648,487.816h 1.89292" fill="none" stroke="black"/>
<path d="M62.8622,480.006v 1.208" fill="none" stroke="black"/>
<path d="M62.8622,485.685v -1.33013" fill="none" stroke="black"/>
<path d="M61.9157,481.214h 1.89292" fill="none" stroke="black"/>
<path d="M61.9157,484.355h 1.89292" fill="none" stroke="black"/>
<path d="M65.1299,481.324v 1.2676" fill="none" stroke="black"/>
<path d="M65.1299,487.002v -1.38964" fill="none" stroke="black"/>
<path d="M64.1835,482.591h 1.89292" fill="none" stroke="black"/>
<path d="M64.1835,485.613h 1.89292" fill="none" stroke="black"/>
<path d="M67.3976,476.704v 1.07221" fill="none" stroke="black"/>
<path d="M67.3976,482.383v -1.19371" fill="none" stroke="black"/>
<path d="M66.4512,477.776h 1.89292" fill="none" stroke="black"/>
<path d="M66.4512,481.189h 1.89292" fill="none" stroke="black"/>
<path d="M69.6654,473.356v 0.966841" fill="none" stroke="black"/>
<path d="M69.6654,479.035v -1.0849" fill="none" stroke="black"/>
<path d="M68.7189,474.323h 1.89292" fill="none" stroke="black"/>
<path d="M68.7189,477.95h 1.89292" fill="none" stroke="black"/>
<path d="M71.9331,472.733v 0.972955" fill="none" stroke="black"/>
<path d="M71.9331,478.412v -1.08748" fill="none" stroke="black"/>
<path d="M70.9866,473.706h 1.89292" fill="none" stroke="black"/>
<path d="M70.9866,477.324h 1.89292" fill="none" stroke="black"/>
<path d="M74.2008,473.189v 0.92271" fill="none" stroke="black"/>
<path d="M74.2008,478.867v -1.04532" fill="none" stroke="black"/>
<path d="M73.2543,474.111h 1.89292" fill="none" stroke="black"/>
<path d="M73.2543,477.822h 1.89292" fill="none" stroke="black"/>
<path d="M76.4685,472.207v 0.915854" fill="none" stroke="black"/>
<path d="M76.4685,477.885v -1.03476" fill="none" stroke="black"/>
<path d="M75.522,473.123h 1.89292" fill="none" stroke="black"/>
<path d="M75.522,476.851h 1.89292" fill="none" stroke="black"/>
<path d="M78.7362,468.198v 0.81188" fill="none" stroke="black"/>
<path d="M78.7362,473.877v -0.926012" fill="none" stroke="black"/>
<path d="M77.7898,469.01h 1.89292" fill="none" stroke="black"/>
<path d="M77.7898,472.951h 1.89292" fill="none" stroke="black"/>
<path d="M81.0039,467.066v 0.81202" fill="none" stroke="black"/>
<path d="M81.0039,472.745v -0.921975" fill="none" stroke="black"/>
<path d="M80.0575,467.878h 1.89292" fill="none" stroke="black"/>
<path d="M80.0575,471.823h 1.89292" fill="none" stroke="black"/>
<path d="M83.2717,467.799v 0.800172" fill="none" stroke="black"/>
<path d="M83.2717,473.478v -0.914053" fill="none" stroke="black"/>
<path d="M82.3252,468.599h 1.89292" fill="none" stroke="black"/>
<path d="M82.3252,472.564h 1.89292" fill="none" stroke="black"/>
<path d="M85.5394,466.392v 0.761551" fill="none" stroke="black"/>
<path d="M85.5394,472.07v -0.874352" fill="none" stroke="black"/>
<path d="M84.5929,467.153h 1.89292" fill="none" stroke="black"/>
<path d="M84.5929,471.196h 1.89292" fill="none" stroke="black"/>
<path d="M87.8071,465.108v 0.748499" fill="none" stroke="black"/>
<path d="M87.8071,470.786v -0.858175" fill="none" stroke="black"/>
<path d="M86.8606,465.856h 1.89292" fill="none" stroke="black"/>
<path d="M86.8606,469.928h 1.89292" fill="none" stroke="black"/>
<path d="M90.0748,458.401v 0.523454" fill="none" stroke="black"/>
<path d="M90.0748,464.08v -0.633755" fill="none" stroke="black"/>
<path d="M89.1283,458.925h 1.89292" fill="none" stroke="black"/>
<path d="M89.1283,463.447h 1.89292" fill="none" stroke="black"/>
<path d="M92.3425,460.505v 0.61891" fill="none" stroke="black"/>
<path d="M92.3425,466.184v -0.726579" fill="none" stroke="black"/>
<path d="M91.3961,461.124h 1.89292" fill="none" stroke="black"/>
<path d="M91.3961,465.457h 1.89292" fill="none" stroke="black"/>
<path d="M94.6102,459.215v 0.579739" fill="none" stroke="black"/>
<path d="M94.6102,464.894v -0.687245" fill="none" stroke="black"/>
<path d="M93.6638,459.795h 1.89292" fill="none" stroke="black"/>
<path d="M93.6638,464.207h 1.89292" fill="none" stroke="black"/>
<path d="M96.878,461.987v 0.697279" fill="none" stroke="black"/>
<path d="M96.878,467.666v -0.802028" fill="none" stroke="black"/>
<path d="M95.9315,462.684h 1.89292" fill="none" stroke="black"/>
<path d="M95.9315,466.864h 1.89292" fill="none" stroke="black"/>
<path d="M99.1457,459.697v 0.598133" fill="none" stroke="black"/>
<path d="M99.1457,465.376v -0.705348" fill="none" stroke="black"/>
<path d="M98.1992,460.295h 1.89292" fill="none" stroke="black"/>
<path d="M98.1992,464.67h 1.89292" fill="none" stroke="black"/>
<path d="M101.413,457.403v 0.536915" fill="none" stroke="black"/>
<path d="M101.413,463.082v -0.643165" fill="none" stroke="black"/>
<path d="M100.467,457.94h 1.89292" fill="none" stroke="black"/>
<path d="M100.467,462.439h 1.89292" fill="none" stroke="black"/>
<path d="M103.681,453.903v 0.472101" fill="none" stroke="black"/>
<path d="M103.681,459.582v -0.574746" fill="none" stroke="black"/>
<path d="M102.735,454.375h 1.89292" fill="none" stroke="black"/>
<path d="M102.735,459.007h 1.89292" fill="none" stroke="black"/>
<path d="M105.949,455.31v 0.465865" fill="none" stroke="black"/>
<path d="M105.949,460.989v -0.57268" fill="none" stroke="black"/>
<path d="M105.002,455.776h 1.89292" fill="none" stroke="black"/>
<path d="M105.002,460.416h 1.89292" fill="none" stroke="black"/>
<path d="M108.217,453.097v 0.413718" fill="none" stroke="black"/>
<path d="M108.217,458.776v -0.519228" fill="none" stroke="black"/>
<path d="M107.27,453.511h 1.89292" fill="none" stroke="black"/>
<path d="M107.27,458.256h 1.89292" fill="none" stroke="black"/>
<path d="M110.484,451.097v 0.377397" fill="none" stroke="black"/>
<path d="M110.484,456.776v -0.480963" fill="none" stroke="black"/>
<path d="M109.538,451.474h 1.89292" fill="none" stroke="black"/>
<path d="M109.538,456.295h 1.89292" fill="none" stroke="black"/>
<path d="M112.752,455.722v 0.51314" fill="none" stroke="black"/>
<path d="M112.752,461.4v -0.616953" fill="none" stroke="black"/>
<path d="M111.806,456.235h 1.89292" fill="none" stroke="black"/>
<path d="M111.806,460.783h 1.89292" fill="none" stroke="black"/>
<path d="M115.02,456.191v 0.529844" fill="none" stroke="black"/>
<path d="M115.02,461.87v -0.633446" fill="none" stroke="black"/>
<path d="M114.073,456.721h 1.89292" fill="none" stroke="black"/>
<path d="M114.073,461.236h 1.89292" fill="none" stroke="black"/>
<path d="M117.287,450.45v 0.374671" fill="none" stroke="black"/>
<path d="M117.287,456.129v -0.476914" fill="none" stroke="black"/>
<path d="M116.341,450.825h 1.89292" fill="none" stroke="black"/>
<path d="M116.341,455.652h 1.89292" fill="none" stroke="black"/>
<path d="M119.555,447.364v 0.342815" fill="none" stroke="black"/>
<path d="M119.555,453.042v -0.440586" fill="none" stroke="black"/>
<path d="M118.609,447.706h 1.89292" fill="none" stroke="black"/>
<path d="M118.609,452.602h 1.89292" fill="none" stroke="black"/>
<path d="M121.823,448.903v 0.360315" fill="none" stroke="black"/>
<path d="M121.823,454.582v -0.460131" fill="none" stroke="black"/>
<path d="M120.876,449.263h 1.89292" fill="none" stroke="black"/>
<path d="M120.876,454.122h 1.89292" fill="none" stroke="black"/>
<path d="M124.091,450.266v 0.390176" fill="none" stroke="black"/>
<path d="M124.091,455.945v -0.490751" fill="none" stroke="black"/>
<path d="M123.144,450.656h 1.89292" fill="none" stroke="black"/>
<path d="M123.144,455.454h 1.89292" fill="none" stroke="black"/>
<path d="M126.358,447.809v 0.343379" fill="none" stroke="black"/>
<path d="M126.358,453.488v -0.442076" fill="none" stroke="black"/>
<path d="M125.412,448.153h 1.89292" fill="none" stroke="black"/>
<path d="M125.412,453.046h 1.89292" fill="none" stroke="black"/>
<path d="M128.626,441.038v 0.207009" fill="none" stroke="black"/>
<path d="M128.626,446.717v -0.301786" fill="none" stroke="black"/>
<path d="M127.68,441.245h 1.89292" fill="none" stroke="black"/>
<path d="M127.68,446.415h 1.89292" fill="none" stroke="black"/>
<path d="M130.894,445.542v 0.322387" fill="none" stroke="black"/>
<path d="M130.894,451.221v -0.417852" fill="none" stroke="black"/>
<path d="M129.947,445.865h 1.89292" fill="none" stroke="black"/>
<path d="M129.947,450.803h 1.89292" fill="none" stroke="black"/>
<path d="M133.161,444.708v 0.243564" fill="none" stroke="black"/>
<path d="M133.161,450.387v -0.343117" fill="none" stroke="black"/>
<path d="M132.215,444.951h 1.89292" fill="none" stroke="black"/>
<path d="M132.215,450.044h 1.89292" fill="none" stroke="black"/>
<path d="M135.429,445.983v 0.283908" fill="none" stroke="black"/>
<path d="M135.429,451.662v -0.38316" fill="none" stroke="black"/>
<path d="M134.483,446.267h 1.89292" fill="none" stroke="black"/>
<path d="M134.483,451.279h 1.89292" fill="none" stroke="black"/>
<path d="M137.697,442.408v 0.227548" fill="none" stroke="black"/>
<path d="M137.697,448.086v -0.323553" fill="none" stroke="black"/>
<path d="M136.75,442.635h 1.89292" fill="none" stroke="black"/>
<path d="M136.75,447.763h 1.89292" fill="none" stroke="black"/>
<path d="M139.965,440.578v 0.187728" fill="none" stroke="black"/>
<path d="M139.965,446.257v -0.282964" fill="none" stroke="black"/>
<path d="M139.018,440.766h 1.89292" fill="none" stroke="black"/>
<path d="M139.018,445.974h 1.89292" fill="none" stroke="black"/>
<path d="M142.232,443.609v 0.282034" fill="none" stroke="black"/>
<path d="M142.232,449.288v -0.376526" fill="none" stroke="black"/>
<path d="M141.286,443.891h 1.89292" fill="none" stroke="black"/>
<path d="M141.286,448.911h 1.89292" fill="none" stroke="black"/>
<path d="M144.5,437.865v 0.158289" fill="none" stroke="black"/>
<path d="M144.5,443.543v -0.250468" fill="none" stroke="black"/>
<path d="M143.554,438.023h 1.89292" fill="none" stroke="black"/>
<path d="M143.554,443.293h 1.89292" fill="none" stroke="black"/>
<path d="M146.768,441.976v 0.189902" fill="none" stroke="black"/>
<path d="M146.768,447.655v -0.287735" fill="none" stroke="black"/>
<path d="M145.821,442.166h 1.89292" fill="none" stroke="black"/>
<path d="M145.821,447.367h 1.89292" fill="none" stroke="black"/>
<path d="M149.035,438.983v 0.161677" fill="none" stroke="black"/>
<path d="M149.035,444.662v -0.255684" fill="none" stroke="black"/>
<path d="M148.089,439.145h 1.89292" fill="none" stroke="black"/>
<path d="M148.089,444.406h 1.89292" fill="none" stroke="black"/>
<path d="M151.303,435.582v 0.085045" fill="none" stroke="black"/>
<path d="M151.303,441.26v -0.177972" fill="none" stroke="black"/>
<path d="M150.357,435.667h 1.89292" fill="none" stroke="black"/>
<path d="M150.357,441.082h 1.89292" fill="none" stroke="black"/>
<path d="M153.571,443.155v 0.246965" fill="none" stroke="black"/>
<path d="M153.571,448.834v -0.34307" fill="none" stroke="black"/>
<path d="M152.624,443.402h 1.89292" fill="none" stroke="black"/>
<path d="M152.624,448.49h 1.89292" fill="none" stroke="black"/>
<path d="M155.839,437.32v 0.151196" fill="none" stroke="black"/>
<path d="M155.839,442.999v -0.242865" fill="none" stroke="black"/>
<path d="M154.892,437.471h 1.89292" fill="none" stroke="black"/>
<path d="M154.892,442.756h 1.89292" fill="none" stroke="black"/>
<path d="M158.106,433.759v 0.078468" fill="none" stroke="black"/>
<path d="M158.106,439.438v -0.168646" fill="none" stroke="black"/>
<path d="M157.16,433.838h 1.89292" fill="none" stroke="black"/>
<path d="M157.16,439.27h 1.89292" fill="none" stroke="black"/>
<path d="M160.374,431.463v 0.0139199" fill="none" stroke="black"/>
<path d="M160.374,437.142v -0.104289" fill="none" stroke="black"/>
<path d="M159.428,431.477h 1.89292" fill="none" stroke="black"/>
<path d="M159.428,437.038h 1.89292" fill="none" stroke="black"/>
<path d="M162.642,431.717v 0.0349987" fill="none" stroke="black"/>
<path d="M162.642,437.396v -0.12448" fill="none" stroke="black"/>
<path d="M161.695,431.752h 1.89292" fill="none" stroke="black"/>
<path d="M161.695,437.272h 1.89292" fill="none" stroke="black"/>
<path d="M164.909,436.414v 0.132763" fill="none" stroke="black"/>
<path d="M164.909,442.093v -0.224037" fill="none" stroke="black"/>
<path d="M163.963,436.547h 1.89292" fill="none" stroke="black"/>
<path d="M163.963,441.868h 1.89292" fill="none" stroke="black"/>
<path d="M167.177,428.424v -0.0113562" fill="none" stroke="black"/>
<path d="M167.177,434.103v -0.0756335" fill="none" stroke="black"/>
<path d="M166.231,428.413h 1.89292" fill="none" stroke="black"/>
<path d="M166.231,434.028h 1.89292" fill="none" stroke="black"/>
<path d="M169.445,434.173v 0.111371" fill="none" stroke="black"/>
<path d="M169.445,439.852v -0.200162" fill="none" stroke="black"/>
<path d="M168.498,434.285h 1.89292" fill="none" stroke="black"/>
<path d="M168.498,439.652h 1.89292" fill="none" stroke="black"/>
<path d="M171.713,434.033v 0.0658424" fill="none" stroke="black"/>
<path d="M171.713,439.712v -0.157297" fill="none" stroke="black"/>
<path d="M170.766,434.099h 1.89292" fill="none" stroke="black"/>
<path d="M170.766,439.555h 1.89292" fill="none" stroke="black"/>
<path d="M173.98,435.978v 0.109654" fill="none" stroke="black"/>
<path d="M173.98,441.656v -0.201671" fill="none" stroke="black"/>
<path d="M173.034,436.087h 1.89292" fill="none" stroke="black"/>
<path d="M173.034,441.455h 1.89292" fill="none" stroke="black"/>
<path d="M176.248,429.566v 0.0462589" fill="none" stroke="black"/>
<path d="M176.248,435.245v -0.131603" fill="none" stroke="black"/>
<path d="M175.302,429.612h 1.89292" fill="none" stroke="black"/>
<path d="M175.302,435.113h 1.89292" fill="none" stroke="black"/>
<path d="M178.516,422.709v -0.148309" fill="none" stroke="black"/>
<path d="M178.516,428.388v 0.0621398" fill="none" stroke="black"/>
<path d="M177.569,422.561h 1.89292" fill="none" stroke="black"/>
<path d="M177.569,428.45h 1.89292" fill="none" stroke="black"/>
<path d="M180.783,429.965v 0.0173951" fill="none" stroke="black"/>
<path d="M180.783,435.643v -0.105101" fill="none" stroke="black"/>
<path d="M179.837,429.982h 1.89292" fill="none" stroke="black"/>
<path d="M179.837,435.538h 1.89292" fill="none" stroke="black"/>
<path d="M183.051,431.378v 0.00488064" fill="none" stroke="black"/>
<path d="M183.051,437.056v -0.0956697" fill="none" stroke="black"/>
<path d="M182.105,431.383h 1.89292" fill="none" stroke="black"/>
<path d="M182.105,436.961h 1.89292" fill="none" stroke="black"/>
<path d="M185.319,421v -0.0663257" fill="none" stroke="black"/>
<path d="M185.319,426.678v -0.0129179" fill="none" stroke="black"/>
<path d="M184.372,420.933h 1.89292" fill="none" stroke="black"/>
<path d="M184.372,426.665h 1.89292" fill="none" stroke="black"/>
<path d="M187.587,425.891v -0.0558545" fill="none" stroke="black"/>
<path d="M187.587,431.57v -0.0298338" fill="none" stroke="black"/>
<path d="M186.64,425.835h 1.89292" fill="none" stroke="black"/>
<path d="M186.64,431.54h 1.89292" fill="none" stroke="black"/>
<path d="M189.854,425.713v -0.0594231" fill="none" stroke="black"/>
<path d="M189.854,431.392v -0.0262023" fill="none" stroke="black"/>
<path d="M188.908,425.654h 1.89292" fill="none" stroke="black"/>
<path d="M188.908,431.366h 1.89292" fill="none" stroke="black"/>
<path d="M192.122,425.109v -0.0175888" fill="none" stroke="black"/>
<path d="M192.122,430.787v -0.0647597" fill="none" stroke="black"/>
<path d="M191.176,425.091h 1.89292" fill="none" stroke="black"/>
<path d="M191.176,430.723h 1.89292" fill="none" stroke="black"/>
<path d="M194.39,426.265v -0.0213348" fill="none" stroke="black"/>
<path d="M194.39,431.944v -0.0629299" fill="none" stroke="black"/>
<path d="M193.443,426.243h 1.89292" fill="none" stroke="black"/>
<path d="M193.443,431.881h 1.89292" fill="none" stroke="black"/>
<path d="M196.657,425.249v -0.0229898" fill="none" stroke="black"/>
<path d="M196.657,430.927v -0.0598668" fill="none" stroke="black"/>
<path d="M195.711,425.226h 1.89292" fill="none" stroke="black"/>
<path d="M195.711,430.867h 1.89292" fill="none" stroke="black"/>
<path d="M198.925,421.262v -0.107526" fill="none" stroke="black"/>
<path d="M198.925,426.941v 0.0257058" fill="none" stroke="black"/>
<path d="M197.979,421.155h 1.89292" fill="none" stroke="black"/>
<path d="M197.979,426.967h 1.89292" fill="none" stroke="black"/>
<path d="M201.193,419.948v -0.0669443" fill="none" stroke="black"/>
<path d="M201.193,425.626v -0.0109173" fill="none" stroke="black"/>
<path d="M200.246,419.881h 1.89292" fill="none" stroke="black"/>
<path d="M200.246,425.615h 1.89292" fill="none" stroke="black"/>
<path d="M203.461,427.633v -0.0290266" fill="none" stroke="black"/>
<path d="M203.461,433.311v -0.0577722" fill="none" stroke="black"/>
<path d="M202.514,427.603h 1.89292" fill="none" stroke="black"/>
<path d="M202.514,433.253h 1.89292" fill="none" stroke="black"/>
<path d="M205.728,421.73v -0.120222" fill="none" stroke="black"/>
<path d="M205.728,427.408v 0.0370457" fill="none" stroke="black"/>
<path d="M204.782,421.609h 1.89292" fill="none" stroke="black"/>
<path d="M204.782,427.445h 1.89292" fill="none" stroke="black"/>
<path d="M207.996,425.034v -0.0538938" fill="none" stroke="black"/>
<path d="M207.996,430.713v -0.0303976" fill="none" stroke="black"/>
<path d="M207.05,424.98h 1.89292" fill="none" stroke="black"/>
<path d="M207.05,430.683h 1.89292" fill="none" stroke="black"/>
<path d="M210.264,421.22v -0.091206" fill="none" stroke="black"/>
<path d="M210.264,426.898v 0.0103269" fill="none" stroke="black"/>
<path d="M209.317,421.129h 1.89292" fill="none" stroke="black"/>
<path d="M209.317,426.909h 1.89292" fill="none" stroke="black"/>
<path d="M212.531,421.663v -0.078946" fill="none" stroke="black"/>
<path d="M212.531,427.341v -0.00188759" fill="none" stroke="black"/>
<path d="M211.585,421.584h 1.89292" fill="none" stroke="black"/>
<path d="M211.585,427.339h 1.89292" fill="none" stroke="black"/>
<path d="M214.799,419.914v -0.139696" fill="none" stroke="black"/>
<path d="M214.799,425.593v 0.0580291" fill="none" stroke="black"/>
<path d="M213.853,419.775h 1.89292" fill="none" stroke="black"/>
<path d="M213.853,425.651h 1.89292" fill="none" stroke="black"/>
<path d="M217.067,417.082v -0.125468" fill="none" stroke="black"/>
<path d="M217.067,422.761v 0.0483504" fill="none" stroke="black"/>
<path d="M216.12,416.957h 1.89292" fill="none" stroke="black"/>
<path d="M216.12,422.809h 1.89292" fill="none" stroke="black"/>
<path d="M219.335,414.94v -0.183408" fill="none" stroke="black"/>
<path d="M219.335,420.619v 0.106137" fill="none" stroke="black"/>
<path d="M218.388,414.757h 1.89292" fill="none" stroke="black"/>
<path d="M218.388,420.725h 1.89292" fill="none" stroke="black"/>
<path d="M221.602,419.006v -0.10708" fill="none" stroke="black"/>
<path d="M221.602,424.685v 0.0283763" fill="none" stroke="black"/>
<path d="M220.656,418.899h 1.89292" fill="none" stroke="black"/>
<path d="M220.656,424.714h 1.89292" fill="none" stroke="black"/>
<path d="M223.87,412.072v -0.245863" fill="none" stroke="black"/>
<path d="M223.87,417.75v 0.16917" fill="none" stroke="black"/>
<path d="M222.924,411.826h 1.89292" fill="none" stroke="black"/>
<path d="M222.924,417.92h 1.89292" fill="none" stroke="black"/>
<path d="M226.138,419.436v -0.120119" fill="none" stroke="black"/>
<path d="M226.138,425.115v 0.0401511" fill="none" stroke="black"/>
<path d="M225.191,419.316h 1.89292" fill="none" stroke="black"/>
<path d="M225.191,425.155h 1.89292" fill="none" stroke="black"/>
<path d="M228.406,414.234v -0.160429" fill="none" stroke="black"/>
<path d="M228.406,419.913v 0.0851912" fill="none" stroke="black"/>
<path d="M227.459,414.073h 1.89292" fill="none" stroke="black"/>
<path d="M227.459,419.998h 1.89292" fill="none" stroke="black"/>
<path d="M230.673,414.894v -0.149342" fill="none" stroke="black"/>
<path d="M230.673,420.573v 0.0738227" fill="none" stroke="black"/>
<path d="M229.727,414.745h 1.89292" fill="none" stroke="black"/>
<path d="M229.727,420.647h 1.89292" fill="none" stroke="black"/>
<path d="M232.941,417.359v -0.133411" fill="none" stroke="black"/>
<path d="M232.941,423.038v 0.0555267" fill="none" stroke="black"/>
<path d="M231.994,417.226h 1.89292" fill="none" stroke="black"/>
<path d="M231.994,423.094h 1.89292" fill="none" stroke="black"/>
<path d="M235.209,417.538v -0.134965" fill="none" stroke="black"/>
<path d="M235.209,423.216v 0.0567664" fill="none" stroke="black"/>
<path d="M234.262,417.403h 1.89292" fill="none" stroke="black"/>
<path d="M234.262,423.273h 1.89292" fill="none" stroke="black"/>
<path d="M237.476,411.397v -0.1983" fill="none" stroke="black"/>
<path d="M237.476,417.076v 0.124722" fill="none" stroke="black"/>
<path d="M236.53,411.199h 1.89292" fill="none" stroke="black"/>
<path d="M236.53,417.201h 1.89292" fill="none" stroke="black"/>
<path d="M239.744,415.986v -0.209433" fill="none" stroke="black"/>
<path d="M239.744,421.664v 0.129474" fill="none" stroke="black"/>
<path d="M238.798,415.776h 1.89292" fill="none" stroke="black"/>
<path d="M238.798,421.794h 1.89292" fill="none" stroke="black"/>
<path d="M242.012,411.234v -0.203186" fill="none" stroke="black"/>
<path d="M242.012,416.913v 0.129574" fill="none" stroke="black"/>
<path d="M241.065,411.031h 1.89292" fill="none" stroke="black"/>
<path d="M241.065,417.043h 1.89292" fill="none" stroke="black"/>
<path d="M244.28,415.689v -0.171944" fill="none" stroke="black"/>
<path d="M244.28,421.367v 0.094282" fill="none" stroke="black"/>
<path d="M243.333,415.517h 1.89292" fill="none" stroke="black"/>
<path d="M243.333,421.462h 1.89292" fill="none" stroke="black"/>
<path d="M246.547,406.673v -0.260443" fill="none" stroke="black"/>
<path d="M246.547,412.352v 0.189568" fill="none" stroke="black"/>
<path d="M245.601,406.413h 1.89292" fill="none" stroke="black"/>
<path d="M245.601,412.542h 1.89292" fill="none" stroke="black"/>
<path d="M248.815,411.334v -0.202491" fill="none" stroke="black"/>
<path d="M248.815,417.012v 0.128793" fill="none" stroke="black"/>
<path d="M247.868,411.131h 1.89292" fill="none" stroke="black"/>
<path d="M247.868,417.141h 1.89292" fill="none" stroke="black"/>
<path d="M251.083,408.797v -0.271137" fill="none" stroke="black"/>
<path d="M251.083,414.476v 0.197278" fill="none" stroke="black"/>
<path d="M250.136,408.526h 1.89292" fill="none" stroke="black"/>
<path d="M250.136,414.673h 1.89292" fill="none" stroke="black"/>
<path d="M253.35,412.988v -0.234577" fill="none" stroke="black"/>
<path d="M253.35,418.666v 0.157273" fill="none" stroke="black"/>
<path d="M252.404,412.753h 1.89292" fill="none" stroke="black"/>
<path d="M252.404,418.824h 1.89292" fill="none" stroke="black"/>
<path d="M255.618,411.558v -0.242374" fill="none" stroke="black"/>
<path d="M255.618,417.237v 0.166494" fill="none" stroke="black"/>
<path d="M254.672,411.316h 1.89292" fill="none" stroke="black"/>
<path d="M254.672,417.403h 1.89292" fill="none" stroke="black"/>
<path d="M257.886,413.385v -0.217409" fill="none" stroke="black"/>
<path d="M257.886,419.064v 0.140442" fill="none" stroke="black"/>
<path d="M256.939,413.168h 1.89292" fill="none" stroke="black"/>
<path d="M256.939,419.204h 1.89292" fill="none" stroke="black"/>
<path d="M260.154,407.19v -0.261138" fill="none" stroke="black"/>
<path d="M260.154,412.869v 0.189635" fill="none" stroke="black"/>
<path d="M259.207,406.929h 1.89292" fill="none" stroke="black"/>
<path d="M259.207,413.059h 1.89292" fill="none" stroke="black"/>
<path d="M262.421,405.538v -0.292904" fill="none" stroke="black"/>
<path d="M262.421,411.217v 0.221884" fill="none" stroke="black"/>
<path d="M261.475,405.245h 1.89292" fill="none" stroke="black"/>
<path d="M261.475,411.439h 1.89292" fill="none" stroke="black"/>
<path d="M264.689,407.947v -0.27998" fill="none" stroke="black"/>
<path d="M264.689,413.626v 0.206729" fill="none" stroke="black"/>
<path d="M263.743,407.667h 1.89292" fill="none" stroke="black"/>
<path d="M263.743,413.832h 1.89292" fill="none" stroke="black"/>
<path d="M266.957,399.929v -0.30414" fill="none" stroke="black"/>
<path d="M266.957,405.608v 0.238791" fill="none" stroke="black"/>
<path d="M266.01,399.625h 1.89292" fill="none" stroke="black"/>
<path d="M266.01,405.847h 1.89292" fill="none" stroke="black"/>
<path d="M269.224,403.814v -0.290967" fill="none" stroke="black"/>
<path d="M269.224,409.492v 0.22198" fill="none" stroke="black"/>
<path d="M268.278,403.523h 1.89292" fill="none" stroke="black"/>
<path d="M268.278,409.714h 1.89292" fill="none" stroke="black"/>
<path d="M271.492,407.14v -0.289766" fill="none" stroke="black"/>
<path d="M271.492,412.819v 0.217024" fill="none" stroke="black"/>
<path d="M270.546,406.85h 1.89292" fill="none" stroke="black"/>
<path d="M270.546,413.036h 1.89292" fill="none" stroke="black"/>
<path d="M273.76,405.793v -0.2484" fill="none" stroke="black"/>
<path d="M273.76,411.472v 0.179058" fill="none" stroke="black"/>
<path d="M272.813,405.544h 1.89292" fill="none" stroke="black"/>
<path d="M272.813,411.651h 1.89292" fill="none" stroke="black"/>
<path d="M276.028,406.656v -0.263141" fill="none" stroke="black"/>
<path d="M276.028,412.335v 0.192164" fill="none" stroke="black"/>
<path d="M275.081,406.393h 1.89292" fill="none" stroke="black"/>
<path d="M275.081,412.527h 1.89292" fill="none" stroke="black"/>
<path d="M278.295,404.985v -0.310918" fill="none" stroke="black"/>
<path d="M278.295,410.664v 0.239735" fill="none" stroke="black"/>
<path d="M277.349,404.674h 1.89292" fill="none" stroke="black"/>
<path d="M277.349,410.904h 1.89292" fill="none" stroke="black"/>
<path d="M280.563,405.861v -0.283683" fill="none" stroke="black"/>
<path d="M280.563,411.54v 0.212702" fill="none" stroke="black"/>
<path d="M279.617,405.578h 1.89292" fill="none" stroke="black"/>
<path d="M279.617,411.753h 1.89292" fill="none" stroke="black"/>
<path d="M282.831,403.932v -0.3029" fill="none" stroke="black"/>
<path d="M282.831,409.611v 0.233264" fill="none" stroke="black"/>
<path d="M281.884,403.629h 1.89292" fill="none" stroke="black"/>
<path d="M281.884,409.844h 1.89292" fill="none" stroke="black"/>
<path d="M285.098,407.867v -0.303299" fill="none" stroke="black"/>
<path d="M285.098,413.546v 0.229069" fill="none" stroke="black"/>
<path d="M284.152,407.564h 1.89292" fill="none" stroke="black"/>
<path d="M284.152,413.775h 1.89292" fill="none" stroke="black"/>
<path d="M287.366,398.137v -0.402789" fill="none" stroke="black"/>
<path d="M287.366,403.816v 0.335323" fill="none" stroke="black"/>
<path d="M286.42,397.734h 1.89292" fill="none" stroke="black"/>
<path d="M286.42,404.151h 1.89292" fill="none" stroke="black"/>
<path d="M289.634,397.322v -0.449028" fill="none" stroke="black"/>
<path d="M289.634,403.001v 0.380562" fill="none" stroke="black"/>
<path d="M288.687,396.873h 1.89292" fill="none" stroke="black"/>
<path d="M288.687,403.382h 1.89292" fill="none" stroke="black"/>
<path d="M291.902,405.231v -0.345144" fill="none" stroke="black"/>
<path d="M291.902,410.909v 0.272151" fill="none" stroke="black"/>
<path d="M290.955,404.885h 1.89292" fill="none" stroke="black"/>
<path d="M290.955,411.181h 1.89292" fill="none" stroke="black"/>
<path d="M294.169,396.607v -0.493368" fill="none" stroke="black"/>
<path d="M294.169,402.286v 0.42388" fill="none" stroke="black"/>
<path d="M293.223,396.114h 1.89292" fill="none" stroke="black"/>
<path d="M293.223,402.71h 1.89292" fill="none" stroke="black"/>
<path d="M296.437,399.402v -0.456327" fill="none" stroke="black"/>
<path d="M296.437,405.081v 0.385237" fill="none" stroke="black"/>
<path d="M295.491,398.946h 1.89292" fill="none" stroke="black"/>
<path d="M295.491,405.466h 1.89292" fill="none" stroke="black"/>
<path d="M298.705,401.448v -0.490346" fill="none" stroke="black"/>
<path d="M298.705,407.127v 0.415396" fill="none" stroke="black"/>
<path d="M297.758,400.958h 1.89292" fill="none" stroke="black"/>
<path d="M297.758,407.542h 1.89292" fill="none" stroke="black"/>
<path d="M300.972,388.087v -0.602264" fill="none" stroke="black"/>
<path d="M300.972,393.766v 0.537696" fill="none" stroke="black"/>
<path d="M300.026,387.485h 1.89292" fill="none" stroke="black"/>
<path d="M300.026,394.303h 1.89292" fill="none" stroke="black"/>
<path d="M303.24,391.36v -0.559149" fill="none" stroke="black"/>
<path d="M303.24,397.038v 0.492759" fill="none" stroke="black"/>
<path d="M302.294,390.801h 1.89292" fill="none" stroke="black"/>
<path d="M302.294,397.531h 1.89292" fill="none" stroke="black"/>
<path d="M305.508,394.333v -0.547561" fill="none" stroke="black"/>
<path d="M305.508,400.012v 0.478401" fill="none" stroke="black"/>
<path d="M304.561,393.785h 1.89292" fill="none" stroke="black"/>
<path d="M304.561,400.49h 1.89292" fill="none" stroke="black"/>
<path d="M307.776,385.211v -0.65832" fill="none" stroke="black"/>
<path d="M307.776,390.89v 0.594696" fill="none" stroke="black"/>
<path d="M306.829,384.552h 1.89292" fill="none" stroke="black"/>
<path d="M306.829,391.484h 1.89292" fill="none" stroke="black"/>
<path d="M310.043,388.917v -0.610533" fill="none" stroke="black"/>
<path d="M310.043,394.595v 0.544788" fill="none" stroke="black"/>
<path d="M309.097,388.306h 1.89292" fill="none" stroke="black"/>
<path d="M309.097,395.14h 1.89292" fill="none" stroke="black"/>
<path d="M312.311,393.467v -0.587246" fill="none" stroke="black"/>
<path d="M312.311,399.146v 0.517462" fill="none" stroke="black"/>
<path d="M311.365,392.88h 1.89292" fill="none" stroke="black"/>
<path d="M311.365,399.663h 1.89292" fill="none" stroke="black"/>
<path d="M314.579,386.399v -0.685939" fill="none" stroke="black"/>
<path d="M314.579,392.078v 0.620072" fill="none" stroke="black"/>
<path d="M313.632,385.713h 1.89292" fill="none" stroke="black"/>
<path d="M313.632,392.698h 1.89292" fill="none" stroke="black"/>
<path d="M316.846,383.729v -0.729359" fill="none" stroke="black"/>
<path d="M316.846,389.408v 0.664746" fill="none" stroke="black"/>
<path d="M315.9,383h 1.89292" fill="none" stroke="black"/>
<path d="M315.9,390.073h 1.89292" fill="none" stroke="black"/>
<path d="M319.114,386.132v -0.7332" fill="none" stroke="black"/>
<path d="M319.114,391.811v 0.66588" fill="none" stroke="black"/>
<path d="M318.168,385.399h 1.89292" fill="none" stroke="black"/>
<path d="M318.168,392.477h 1.89292" fill="none" stroke="black"/>
<path d="M321.382,385.547v -0.743235" fill="none" stroke="black"/>
<path d="M321.382,391.226v 0.67618" fill="none" stroke="black"/>
<path d="M320.435,384.804h 1.89292" fill="none" stroke="black"/>
<path d="M320.435,391.902h 1.89292" fill="none" stroke="black"/>
<path d="M323.65,378.475v -0.899696" fill="none" stroke="black"/>
<path d="M323.65,384.154v 0.834734" fill="none" stroke="black"/>
<path d="M322.703,377.575h 1.89292" fill="none" stroke="black"/>
<path d="M322.703,384.988h 1.89292" fill="none" stroke="black"/>
<path d="M325.917,379.546v -0.875959" fill="none" stroke="black"/>
<path d="M325.917,385.225v 0.810659" fill="none" stroke="black"/>
<path d="M324.971,378.671h 1.89292" fill="none" stroke="black"/>
<path d="M324.971,386.036h 1.89292" fill="none" stroke="black"/>
<path d="M328.185,378.417v -0.866544" fill="none" stroke="black"/>
<path d="M328.185,384.096v 0.80277" fill="none" stroke="black"/>
<path d="M327.239,377.55h 1.89292" fill="none" stroke="black"/>
<path d="M327.239,384.898h 1.89292" fill="none" stroke="black"/>
<path d="M330.453,375.284v -0.974392" fill="none" stroke="black"/>
<path d="M330.453,380.963v 0.910355" fill="none" stroke="black"/>
<path d="M329.506,374.31h 1.89292" fill="none" stroke="black"/>
<path d="M329.506,381.873h 1.89292" fill="none" stroke="black"/>
<path d="M332.72,375.386v -0.904954" fill="none" stroke="black"/>
<path d="M332.72,381.065v 0.84308" fill="none" stroke="black"/>
<path d="M331.774,374.481h 1.89292" fill="none" stroke="black"/>
<path d="M331.774,381.908h 1.89292" fill="none" stroke="black"/>
<path d="M334.988,369.578v -1.05246" fill="none" stroke="black"/>
<path d="M334.988,375.257v 0.992003" fill="none" stroke="black"/>
<path d="M334.042,368.526h 1.89292" fill="none" stroke="black"/>
<path d="M334.042,376.249h 1.89292" fill="none" stroke="black"/>
<path d="M337.256,370.023v -1.05237" fill="none" stroke="black"/>
<path d="M337.256,375.701v 0.991447" fill="none" stroke="black"/>
<path d="M336.309,368.97h 1.89292" fill="none" stroke="black"/>
<path d="M336.309,376.693h 1.89292" fill="none" stroke="black"/>
<path d="M339.524,376.132v -0.96674" fill="none" stroke="black"/>
<path d="M339.524,381.811v 0.902043" fill="none" stroke="black"/>
<path d="M338.577,375.165h 1.89292" fill="none" stroke="black"/>
<path d="M338.577,382.713h 1.89292" fill="none" stroke="black"/>
<path d="M341.791,362.171v -1.06716" fill="none" stroke="black"/>
<path d="M341.791,367.85v 1.01379" fill="none" stroke="black"/>
<path d="M340.845,361.104h 1.89292" fill="none" stroke="black"/>
<path d="M340.845,368.864h 1.89292" fill="none" stroke="black"/>
<path d="M344.059,367.604v -1.08227" fill="none" stroke="black"/>
<path d="M344.059,373.282v 1.02298" fill="none" stroke="black"/>
<path d="M343.113,366.521h 1.89292" fill="none" stroke="black"/>
<path d="M343.113,374.305h 1.89292" fill="none" stroke="black"/>
<path d="M346.327,360.178v -1.12831" fill="none" stroke="black"/>
<path d="M346.327,365.857v 1.07528" fill="none" stroke="black"/>
<path d="M345.38,359.05h 1.89292" fill="none" stroke="black"/>
<path d="M345.38,366.932h 1.89292" fill="none" stroke="black"/>
<path d="M348.594,360.806v -1.18917" fill="none" stroke="black"/>
<path d="M348.594,366.485v 1.13389" fill="none" stroke="black"/>
<path d="M347.648,359.617h 1.89292" fill="none" stroke="black"/>
<path d="M347.648,367.619h 1.89292" fill="none" stroke="black"/>
<path d="M350.862,357.98v -1.27812" fill="none" stroke="black"/>
<path d="M350.862,363.659v 1.22341" fill="none" stroke="black"/>
<path d="M349.916,356.702h 1.89292" fill="none" stroke="black"/>
<path d="M349.916,364.883h 1.89292" fill="none" stroke="black"/>
<path d="M353.13,359.229v -1.22808" fill="none" stroke="black"/>
<path d="M353.13,364.908v 1.17338" fill="none" stroke="black"/>
<path d="M352.183,358.001h 1.89292" fill="none" stroke="black"/>
<path d="M352.183,366.082h 1.89292" fill="none" stroke="black"/>
<path d="M355.398,362.224v -1.2633" fill="none" stroke="black"/>
<path d="M355.398,367.903v 1.20448" fill="none" stroke="black"/>
<path d="M354.451,360.961h 1.89292" fill="none" stroke="black"/>
<path d="M354.451,369.107h 1.89292" fill="none" stroke="black"/>
<path d="M357.665,351.734v -1.29656" fill="none" stroke="black"/>
<path d="M357.665,357.413v 1.24778" fill="none" stroke="black"/>
<path d="M356.719,350.437h 1.89292" fill="none" stroke="black"/>
<path d="M356.719,358.66h 1.89292" fill="none" stroke="black"/>
<path d="M359.933,357.898v -1.28779" fill="none" stroke="black"/>
<path d="M359.933,363.577v 1.23291" fill="none" stroke="black"/>
<path d="M358.987,356.611h 1.89292" fill="none" stroke="black"/>
<path d="M358.987,364.81h 1.89292" fill="none" stroke="black"/>
<path d="M362.201,351.266v -1.37275" fill="none" stroke="black"/>
<path d="M362.201,356.945v 1.32268" fill="none" stroke="black"/>
<path d="M361.254,349.894h 1.89292" fill="none" stroke="black"/>
<path d="M361.254,358.268h 1.89292" fill="none" stroke="black"/>
<path d="M364.469,340.642v -1.32955" fill="none" stroke="black"/>
<path d="M364.469,346.321v 1.29086" fill="none" stroke="black"/>
<path d="M363.522,339.312h 1.89292" fill="none" stroke="black"/>
<path d="M363.522,347.612h 1.89292" fill="none" stroke="black"/>
<path d="M366.736,350.133v -1.39823" fill="none" stroke="black"/>
<path d="M366.736,355.812v 1.34874" fill="none" stroke="black"/>
<path d="M365.79,348.735h 1.89292" fill="none" stroke="black"/>
<path d="M365.79,357.161h 1.89292" fill="none" stroke="black"/>
<path d="M369.004,343.586v -1.44201" fill="none" stroke="black"/>
<path d="M369.004,349.264v 1.39828" fill="none" stroke="black"/>
<path d="M368.057,342.144h 1.89292" fill="none" stroke="black"/>
<path d="M368.057,350.663h 1.89292" fill="none" stroke="black"/>
<path d="M371.272,340.007v -1.46991" fill="none" stroke="black"/>
<path d="M371.272,345.685v 1.42925" fill="none" stroke="black"/>
<path d="M370.325,338.537h 1.89292" fill="none" stroke="black"/>
<path d="M370.325,347.115h 1.89292" fill="none" stroke="black"/>
<path d="M373.539,336.576v -1.53685" fill="none" stroke="black"/>
<path d="M373.539,342.254v 1.49844" fill="none" stroke="black"/>
<path d="M372.593,335.039h 1.89292" fill="none" stroke="black"/>
<path d="M372.593,343.753h 1.89292" fill="none" stroke="black"/>
<path d="M375.807,336.783v -1.65462" fill="none" stroke="black"/>
<path d="M375.807,342.462v 1.61393" fill="none" stroke="black"/>
<path d="M374.861,335.128h 1.89292" fill="none" stroke="black"/>
<path d="M374.861,344.075h 1.89292" fill="none" stroke="black"/>
<path d="M378.075,328.882v -1.58161" fill="none" stroke="black"/>
<path d="M378.075,334.561v 1.55022" fill="none" stroke="black"/>
<path d="M377.128,327.301h 1.89292" fill="none" stroke="black"/>
<path d="M377.128,336.111h 1.89292" fill="none" stroke="black"/>
<path d="M380.343,327.101v -1.69409" fill="none" stroke="black"/>
<path d="M380.343,332.779v 1.66296" fill="none" stroke="black"/>
<path d="M379.396,325.407h 1.89292" fill="none" stroke="black"/>
<path d="M379.396,334.442h 1.89292" fill="none" stroke="black"/>
<path d="M382.61,329.329v -1.77577" fill="none" stroke="black"/>
<path d="M382.61,335.008v 1.74112" fill="none" stroke="black"/>
<path d="M381.664,327.553h 1.89292" fill="none" stroke="black"/>
<path d="M381.664,336.749h 1.89292" fill="none" stroke="black"/>
<path d="M384.878,326.172v -1.70132" fill="none" stroke="black"/>
<path d="M384.878,331.85v 1.67106" fill="none" stroke="black"/>
<path d="M383.931,324.47h 1.89292" fill="none" stroke="black"/>
<path d="M383.931,333.522h 1.89292" fill="none" stroke="black"/>
<path d="M387.146,333.697v -1.74501" fill="none" stroke="black"/>
<path d="M387.146,339.376v 1.70609" fill="none" stroke="black"/>
<path d="M386.199,331.952h 1.89292" fill="none" stroke="black"/>
<path d="M386.199,341.082h 1.89292" fill="none" stroke="black"/>
<path d="M389.413,315.441v -1.72081" fill="none" stroke="black"/>
<path d="M389.413,321.12v 1.70131" fill="none" stroke="black"/>
<path d="M388.467,313.721h 1.89292" fill="none" stroke="black"/>
<path d="M388.467,322.822h 1.89292" fill="none" stroke="black"/>
<path d="M391.681,317.512v -1.75985" fill="none" stroke="black"/>
<path d="M391.681,323.19v 1.73788" fill="none" stroke="black"/>
<path d="M390.735,315.752h 1.89292" fill="none" stroke="black"/>
<path d="M390.735,324.928h 1.89292" fill="none" stroke="black"/>
<path d="M393.949,326.542v -1.90669" fill="none" stroke="black"/>
<path d="M393.949,332.22v 1.87325" fill="none" stroke="black"/>
<path d="M393.002,324.635h 1.89292" fill="none" stroke="black"/>
<path d="M393.002,334.094h 1.89292" fill="none" stroke="black"/>
<path d="M396.217,321.36v -1.94154" fill="none" stroke="black"/>
<path d="M396.217,327.039v 1.91351" fill="none" stroke="black"/>
<path d="M395.27,319.419h 1.89292" fill="none" stroke="black"/>
<path d="M395.27,328.953h 1.89292" fill="none" stroke="black"/>
<path d="M398.484,320.672v -1.85596" fill="none" stroke="black"/>
<path d="M398.484,326.35v 1.82966" fill="none" stroke="black"/>
<path d="M397.538,318.816h 1.89292" fill="none" stroke="black"/>
<path d="M397.538,328.18h 1.89292" fill="none" stroke="black"/>
<path d="M400.752,316.966v -1.93385" fill="none" stroke="black"/>
<path d="M400.752,322.645v 1.91081" fill="none" stroke="black"/>
<path d="M399.806,315.032h 1.89292" fill="none" stroke="black"/>
<path d="M399.806,324.555h 1.89292" fill="none" stroke="black"/>
<path d="M403.02,313.708v -1.99786" fill="none" stroke="black"/>
<path d="M403.02,319.387v 1.97792" fill="none" stroke="black"/>
<path d="M402.073,311.71h 1.89292" fill="none" stroke="black"/>
<path d="M402.073,321.364h 1.89292" fill="none" stroke="black"/>
<path d="M405.287,312.052v -1.91829" fill="none" stroke="black"/>
<path d="M405.287,317.731v 1.9008" fill="none" stroke="black"/>
<path d="M404.341,310.134h 1.89292" fill="none" stroke="black"/>
<path d="M404.341,319.632h 1.89292" fill="none" stroke="black"/>
<path d="M407.555,310.172v -2.12337" fill="none" stroke="black"/>
<path d="M407.555,315.85v 2.10658" fill="none" stroke="black"/>
<path d="M406.609,308.048h 1.89292" fill="none" stroke="black"/>
<path d="M406.609,317.957h 1.89292" fill="none" stroke="black"/>
<path d="M409.823,311.95v -2.16405" fill="none" stroke="black"/>
<path d="M409.823,317.628v 2.14485" fill="none" stroke="black"/>
<path d="M408.876,309.786h 1.89292" fill="none" stroke="black"/>
<path d="M408.876,319.773h 1.89292" fill="none" stroke="black"/>
<path d="M412.091,316.774v -2.16826" fill="none" stroke="black"/>
<path d="M412.091,322.453v 2.14317" fill="none" stroke="black"/>
<path d="M411.144,314.606h 1.89292" fill="none" stroke="black"/>
<path d="M411.144,324.596h 1.89292" fill="none" stroke="black"/>
<path d="M414.358,297.956v -2.11207" fill="none" stroke="black"/>
<path d="M414.358,303.635v 2.10964" fill="none" stroke="black"/>
<path d="M413.412,295.844h 1.89292" fill="none" stroke="black"/>
<path d="M413.412,305.745h 1.89292" fill="none" stroke="black"/>
<path d="M416.626,301.464v -2.24161" fill="none" stroke="black"/>
<path d="M416.626,307.142v 2.23475" fill="none" stroke="black"/>
<path d="M415.68,299.222h 1.89292" fill="none" stroke="black"/>
<path d="M415.68,309.377h 1.89292" fill="none" stroke="black"/>
<path d="M418.894,304.405v -2.28675" fill="none" stroke="black"/>
<path d="M418.894,310.084v 2.27609" fill="none" stroke="black"/>
<path d="M417.947,302.118h 1.89292" fill="none" stroke="black"/>
<path d="M417.947,312.36h 1.89292" fill="none" stroke="black"/>
<path d="M421.161,304.048v -2.252" fill="none" stroke="black"/>
<path d="M421.161,309.727v 2.24192" fill="none" stroke="black"/>
<path d="M420.215,301.796h 1.89292" fill="none" stroke="black"/>
<path d="M420.215,311.969h 1.89292" fill="none" stroke="black"/>
<path d="M423.429,289.449v -2.33119" fill="none" stroke="black"/>
<path d="M423.429,295.128v 2.33939" fill="none" stroke="black"/>
<path d="M422.483,287.118h 1.89292" fill="none" stroke="black"/>
<path d="M422.483,297.467h 1.89292" fill="none" stroke="black"/>
<path d="M425.697,293.985v -2.17151" fill="none" stroke="black"/>
<path d="M425.697,299.663v 2.17377" fill="none" stroke="black"/>
<path d="M424.75,291.813h 1.89292" fill="none" stroke="black"/>
<path d="M424.75,301.837h 1.89292" fill="none" stroke="black"/>
<path d="M427.965,297.394v -2.58235" fill="none" stroke="black"/>
<path d="M427.965,303.073v 2.58023" fill="none" stroke="black"/>
<path d="M427.018,294.812h 1.89292" fill="none" stroke="black"/>
<path d="M427.018,305.653h 1.89292" fill="none" stroke="black"/>
<path d="M430.232,296.834v -2.55576" fill="none" stroke="black"/>
<path d="M430.232,302.512v 2.55444" fill="none" stroke="black"/>
<path d="M429.286,294.278h 1.89292" fill="none" stroke="black"/>
<path d="M429.286,305.067h 1.89292" fill="none" stroke="black"/>
<path d="M432.5,286.148v -2.33239" fill="none" stroke="black"/>
<path d="M432.5,291.827v 2.34483" fill="none" stroke="black"/>
<path d="M431.554,283.816h 1.89292" fill="none" stroke="black"/>
<path d="M431.554,294.172h 1.89292" fill="none" stroke="black"/>
<path d="M434.768,288.687v -2.52838" fill="none" stroke="black"/>
<path d="M434.768,294.366v 2.53826" fill="none" stroke="black"/>
<path d="M433.821,286.159h 1.89292" fill="none" stroke="black"/>
<path d="M433.821,296.904h 1.89292" fill="none" stroke="black"/>
<path d="M437.035,296.018v -2.62749" fill="none" stroke="black"/>
<path d="M437.035,301.697v 2.62729" fill="none" stroke="black"/>
<path d="M436.089,293.39h 1.89292" fill="none" stroke="black"/>
<path d="M436.089,304.324h 1.89292" fill="none" stroke="black"/>
<path d="M439.303,281.254v -2.69395" fill="none" stroke="black"/>
<path d="M439.303,286.933v 2.7154" fill="none" stroke="black"/>
<path d="M438.357,278.56h 1.89292" fill="none" stroke="black"/>
<path d="M438.357,289.648h 1.89292" fill="none" stroke="black"/>
<path d="M441.571,287.414v -2.73033" fill="none" stroke="black"/>
<path d="M441.571,293.092v 2.74285" fill="none" stroke="black"/>
<path d="M440.624,284.683h 1.89292" fill="none" stroke="black"/>
<path d="M440.624,295.835h 1.89292" fill="none" stroke="black"/>
<path d="M443.839,288.299v -2.78404" fill="none" stroke="black"/>
<path d="M443.839,293.977v 2.79546" fill="none" stroke="black"/>
<path d="M442.892,285.515h 1.89292" fill="none" stroke="black"/>
<path d="M442.892,296.773h 1.89292" fill="none" stroke="black"/>
<path d="M446.106,288.802v -2.7618" fill="none" stroke="black"/>
<path d="M446.106,294.48v 2.77237" fill="none" stroke="black"/>
<path d="M445.16,286.04h 1.89292" fill="none" stroke="black"/>
<path d="M445.16,297.253h 1.89292" fill="none" stroke="black"/>
<path d="M448.374,289.543v -2.89941" fill="none" stroke="black"/>
<path d="M448.374,295.222v 2.90933" fill="none" stroke="black"/>
<path d="M447.428,286.644h 1.89292" fill="none" stroke="black"/>
<path d="M447.428,298.131h 1.89292" fill="none" stroke="black"/>
<path d="M450.642,285.797v -2.94911" fill="none" stroke="black"/>
<path d="M450.642,291.476v 2.96521" fill="none" stroke="black"/>
<path d="M449.695,282.848h 1.89292" fill="none" stroke="black"/>
<path d="M449.695,294.441h 1.89292" fill="none" stroke="black"/>
<path d="M452.909,289.543v -2.89941" fill="none" stroke="black"/>
<path d="M452.909,295.222v 2.90933" fill="none" stroke="black"/>
<path d="M451.963,286.644h 1.89292" fill="none" stroke="black"/>
<path d="M451.963,298.131h 1.89292" fill="none" stroke="black"/>
<path d="M455.177,274.957v -2.93567" fill="none" stroke="black"/>
<path d="M455.177,280.635v 2.96931" fill="none" stroke="black"/>
<path d="M454.231,272.021h 1.89292" fill="none" stroke="black"/>
<path d="M454.231,283.605h 1.89292" fill="none" stroke="black"/>
<path d="M457.445,278.779v -3.05851" fill="none" stroke="black"/>
<path d="M457.445,284.458v 3.08705" fill="none" stroke="black"/>
<path d="M456.498,275.72h 1.89292" fill="none" stroke="black"/>
<path d="M456.498,287.545h 1.89292" fill="none" stroke="black"/>
<path d="M459.713,294.339v -3.21155" fill="none" stroke="black"/>
<path d="M459.713,300.018v 3.21422" fill="none" stroke="black"/>
<path d="M458.766,291.128h 1.89292" fill="none" stroke="black"/>
<path d="M458.766,303.232h 1.89292" fill="none" stroke="black"/>
<path d="M461.98,274.395v -3.15349" fill="none" stroke="black"/>
<path d="M461.98,280.073v 3.19069" fill="none" stroke="black"/>
<path d="M461.034,271.241h 1.89292" fill="none" stroke="black"/>
<path d="M461.034,283.264h 1.89292" fill="none" stroke="black"/>
<path d="M464.248,274.757v -3.20197" fill="none" stroke="black"/>
<path d="M464.248,280.435v 3.23912" fill="none" stroke="black"/>
<path d="M463.302,271.555h 1.89292" fill="none" stroke="black"/>
<path d="M463.302,283.674h 1.89292" fill="none" stroke="black"/>
<path d="M466.516,296.249v -3.47305" fill="none" stroke="black"/>
<path d="M466.516,301.927v 3.47235" fill="none" stroke="black"/>
<path d="M465.569,292.776h 1.89292" fill="none" stroke="black"/>
<path d="M465.569,305.4h 1.89292" fill="none" stroke="black"/>
<path d="M468.783,278.364v -3.51741" fill="none" stroke="black"/>
<path d="M468.783,284.042v 3.55132" fill="none" stroke="black"/>
<path d="M467.837,274.846h 1.89292" fill="none" stroke="black"/>
<path d="M467.837,287.594h 1.89292" fill="none" stroke="black"/>
<path d="M471.051,283.068v -3.69889" fill="none" stroke="black"/>
<path d="M471.051,288.747v 3.72499" fill="none" stroke="black"/>
<path d="M470.105,279.369h 1.89292" fill="none" stroke="black"/>
<path d="M470.105,292.472h 1.89292" fill="none" stroke="black"/>
<path d="M473.319,293.338v -3.63973" fill="none" stroke="black"/>
<path d="M473.319,299.017v 3.64478" fill="none" stroke="black"/>
<path d="M472.372,289.699h 1.89292" fill="none" stroke="black"/>
<path d="M472.372,302.662h 1.89292" fill="none" stroke="black"/>
<path d="M475.587,293.53v -3.94257" fill="none" stroke="black"/>
<path d="M475.587,299.209v 3.94767" fill="none" stroke="black"/>
<path d="M474.64,289.587h 1.89292" fill="none" stroke="black"/>
<path d="M474.64,303.156h 1.89292" fill="none" stroke="black"/>
<path d="M477.854,285.149v -3.94308" fill="none" stroke="black"/>
<path d="M477.854,290.828v 3.96654" fill="none" stroke="black"/>
<path d="M476.908,281.206h 1.89292" fill="none" stroke="black"/>
<path d="M476.908,294.794h 1.89292" fill="none" stroke="black"/>
<path d="M480.122,283.643v -4.13109" fill="none" stroke="black"/>
<path d="M480.122,289.322v 4.15936" fill="none" stroke="black"/>
<path d="M479.176,279.512h 1.89292" fill="none" stroke="black"/>
<path d="M479.176,293.481h 1.89292" fill="none" stroke="black"/>
<path d="M482.39,276.778v -4.24946" fill="none" stroke="black"/>
<path d="M482.39,282.456v 4.29542" fill="none" stroke="black"/>
<path d="M481.443,272.528h 1.89292" fill="none" stroke="black"/>
<path d="M481.443,286.752h 1.89292" fill="none" stroke="black"/>
<path d="M484.657,289.312v -4.40554" fill="none" stroke="black"/>
<path d="M484.657,294.991v 4.42184" fill="none" stroke="black"/>
<path d="M483.711,284.907h 1.89292" fill="none" stroke="black"/>
<path d="M483.711,299.413h 1.89292" fill="none" stroke="black"/>
<path d="M486.925,273.26v -4.46827" fill="none" stroke="black"/>
<path d="M486.925,278.939v 4.52634" fill="none" stroke="black"/>
<path d="M485.979,268.792h 1.89292" fill="none" stroke="black"/>
<path d="M485.979,283.465h 1.89292" fill="none" stroke="black"/>
<path d="M489.193,285.497v -4.74045" fill="none" stroke="black"/>
<path d="M489.193,291.176v 4.76869" fill="none" stroke="black"/>
<path d="M488.246,280.757h 1.89292" fill="none" stroke="black"/>
<path d="M488.246,295.945h 1.89292" fill="none" stroke="black"/>
<path d="M491.461,278.516v -4.85015" fill="none" stroke="black"/>
<path d="M491.461,284.195v 4.8991" fill="none" stroke="black"/>
<path d="M490.514,273.666h 1.89292" fill="none" stroke="black"/>
<path d="M490.514,289.094h 1.89292" fill="none" stroke="black"/>
<path d="M493.728,276.102v -5.17709" fill="none" stroke="black"/>
<path d="M493.728,281.78v 5.2378" fill="none" stroke="black"/>
<path d="M492.782,270.925h 1.89292" fill="none" stroke="black"/>
<path d="M492.782,287.018h 1.89292" fill="none" stroke="black"/>
<path d="M495.996,274.344v -5.66128" fill="none" stroke="black"/>
<path d="M495.996,280.022v 5.73567" fill="none" stroke="black"/>
<path d="M495.05,268.682h 1.89292" fill="none" stroke="black"/>
<path d="M495.05,285.758h 1.89292" fill="none" stroke="black"/>
<path d="M498.264,278.307v -5.61863" fill="none" stroke="black"/>
<path d="M498.264,283.986v 5.67842" fill="none" stroke="black"/>
<path d="M497.317,272.689h 1.89292" fill="none" stroke="black"/>
<path d="M497.317,289.665h 1.89292" fill="none" stroke="black"/>
<path d="M500.531,291.309v -6.30305" fill="none" stroke="black"/>
<path d="M500.531,296.988v 6.32095" fill="none" stroke="black"/>
<path d="M499.585,285.006h 1.89292" fill="none" stroke="black"/>
<path d="M499.585,303.308h 1.89292" fill="none" stroke="black"/>
<path d="M502.799,277.873v -7.06808" fill="none" stroke="black"/>
<path d="M502.799,283.552v 7.15177" fill="none" stroke="black"/>
<path d="M501.853,270.805h 1.89292" fill="none" stroke="black"/>
<path d="M501.853,290.703h 1.89292" fill="none" stroke="black"/>
<path d="M505.067,265.775v -7.63054" fill="none" stroke="black"/>
<path d="M505.067,271.454v 7.78963" fill="none" stroke="black"/>
<path d="M504.12,258.145h 1.89292" fill="none" stroke="black"/>
<path d="M504.12,279.243h 1.89292" fill="none" stroke="black"/>
<path d="M507.335,276.232v -9.40581" fill="none" stroke="black"/>
<path d="M507.335,281.911v 9.54456" fill="none" stroke="black"/>
<path d="M506.388,266.826h 1.89292" fill="none" stroke="black"/>
<path d="M506.388,291.455h 1.89292" fill="none" stroke="black"/>
<path d="M509.602,279.723v -14.0555" fill="none" stroke="black"/>
<path d="M509.602,285.402v 14.2685" fill="none" stroke="black"/>
<path d="M508.656,265.668h 1.89292" fill="none" stroke="black"/>
<path d="M508.656,299.67h 1.89292" fill="none" stroke="black"/>
<g fill="black">
<circle cx="58.3268" cy="492.641" r="2.83938"/>
<circle cx="60.5945" cy="486.476" r="2.83938"/>
<circle cx="62.8622" cy="482.846" r="2.83938"/>
<circle cx="65.1299" cy="484.163" r="2.83938"/>
<circle cx="67.3976" cy="479.543" r="2.83938"/>
<circle cx="69.6654" cy="476.196" r="2.83938"/>
<circle cx="71.9331" cy="475.572" r="2.83938"/>
<circle cx="74.2008" cy="476.028" r="2.83938"/>
<circle cx="76.4685" cy="475.046" r="2.83938"/>
<circle cx="78.7362" cy="471.037" r="2.83938"/>
<circle cx="81.0039" cy="469.906" r="2.83938"/>
<circle cx="83.2717" cy="470.638" r="2.83938"/>
<circle cx="85.5394" cy="469.231" r="2.83938"/>
<circle cx="87.8071" cy="467.947" r="2.83938"/>
<circle cx="90.0748" cy="461.241" r="2.83938"/>
<circle cx="92.3425" cy="463.345" r="2.83938"/>
<circle cx="94.6102" cy="462.055" r="2.83938"/>
<circle cx="96.878" cy="464.826" r="2.83938"/>
<circle cx="99.1457" cy="462.536" r="2.83938"/>
<circle cx="101.413" cy="460.243" r="2.83938"/>
<circle cx="103.681" cy="456.743" r="2.83938"/>
<circle cx="105.949" cy="458.149" r="2.83938"/>
<circle cx="108.217" cy="455.936" r="2.83938"/>
<circle cx="110.484" cy="453.936" r="2.83938"/>
<circle cx="112.752" cy="458.561" r="2.83938"/>
<circle cx="115.02" cy="459.03" r="2.83938"/>
<circle cx="117.287" cy="453.289" r="2.83938"/>
<circle cx="119.555" cy="450.203" r="2.83938"/>
<circle cx="121.823" cy="451.742" r="2.83938"/>
<circle cx="124.091" cy="453.105" r="2.83938"/>
<circle cx="126.358" cy="450.649" r="2.83938"/>
<circle cx="128.626" cy="443.878" r="2.83938"/>
<circle cx="130.894" cy="448.382" r="2.83938"/>
<circle cx="133.161" cy="447.547" r="2.83938"/>
<circle cx="135.429" cy="448.823" r="2.83938"/>
<circle cx="137.697" cy="445.247" r="2.83938"/>
<circle cx="139.965" cy="443.417" r="2.83938"/>
<circle cx="142.232" cy="446.448" r="2.83938"/>
<circle cx="144.5" cy="440.704" r="2.83938"/>
<circle cx="146.768" cy="444.815" r="2.83938"/>
<circle cx="149.035" cy="441.823" r="2.83938"/>
<circle cx="151.303" cy="438.421" r="2.83938"/>
<circle cx="153.571" cy="445.994" r="2.83938"/>
<circle cx="155.839" cy="440.159" r="2.83938"/>
<circle cx="158.106" cy="436.599" r="2.83938"/>
<circle cx="160.374" cy="434.303" r="2.83938"/>
<circle cx="162.642" cy="434.557" r="2.83938"/>
<circle cx="164.909" cy="439.253" r="2.83938"/>
<circle cx="167.177" cy="431.264" r="2.83938"/>
<circle cx="169.445" cy="437.013" r="2.83938"/>
<circle cx="171.713" cy="436.873" r="2.83938"/>
<circle cx="173.98" cy="438.817" r="2.83938"/>
<circle cx="176.248" cy="432.405" r="2.83938"/>
<circle cx="178.516" cy="425.549" r="2.83938"/>
<circle cx="180.783" cy="432.804" r="2.83938"/>
<circle cx="183.051" cy="434.217" r="2.83938"/>
<circle cx="185.319" cy="423.839" r="2.83938"/>
<circle cx="187.587" cy="428.73" r="2.83938"/>
<circle cx="189.854" cy="428.553" r="2.83938"/>
<circle cx="192.122" cy="427.948" r="2.83938"/>
<circle cx="194.39" cy="429.104" r="2.83938"/>
<circle cx="196.657" cy="428.088" r="2.83938"/>
<circle cx="198.925" cy="424.102" r="2.83938"/>
<circle cx="201.193" cy="422.787" r="2.83938"/>
<circle cx="203.461" cy="430.472" r="2.83938"/>
<circle cx="205.728" cy="424.569" r="2.83938"/>
<circle cx="207.996" cy="427.874" r="2.83938"/>
<circle cx="210.264" cy="424.059" r="2.83938"/>
<circle cx="212.531" cy="424.502" r="2.83938"/>
<circle cx="214.799" cy="422.754" r="2.83938"/>
<circle cx="217.067" cy="419.922" r="2.83938"/>
<circle cx="219.335" cy="417.78" r="2.83938"/>
<circle cx="221.602" cy="421.846" r="2.83938"/>
<circle cx="223.87" cy="414.911" r="2.83938"/>
<circle cx="226.138" cy="422.276" r="2.83938"/>
<circle cx="228.406" cy="417.073" r="2.83938"/>
<circle cx="230.673" cy="417.733" r="2.83938"/>
<circle cx="232.941" cy="420.199" r="2.83938"/>
<circle cx="235.209" cy="420.377" r="2.83938"/>
<circle cx="237.476" cy="414.237" r="2.83938"/>
<circle cx="239.744" cy="418.825" r="2.83938"/>
<circle cx="242.012" cy="414.074" r="2.83938"/>
<circle cx="244.28" cy="418.528" r="2.83938"/>
<circle cx="246.547" cy="409.513" r="2.83938"/>
<circle cx="248.815" cy="414.173" r="2.83938"/>
<circle cx="251.083" cy="411.636" r="2.83938"/>
<circle cx="253.35" cy="415.827" r="2.83938"/>
<circle cx="255.618" cy="414.397" r="2.83938"/>
<circle cx="257.886" cy="416.225" r="2.83938"/>
<circle cx="260.154" cy="410.03" r="2.83938"/>
<circle cx="262.421" cy="408.378" r="2.83938"/>
<circle cx="264.689" cy="410.786" r="2.83938"/>
<circle cx="266.957" cy="402.768" r="2.83938"/>
<circle cx="269.224" cy="406.653" r="2.83938"/>
<circle cx="271.492" cy="409.979" r="2.83938"/>
<circle cx="273.76" cy="408.632" r="2.83938"/>
<circle cx="276.028" cy="409.496" r="2.83938"/>
<circle cx="278.295" cy="407.825" r="2.83938"/>
<circle cx="280.563" cy="408.701" r="2.83938"/>
<circle cx="282.831" cy="406.772" r="2.83938"/>
<circle cx="285.098" cy="410.707" r="2.83938"/>
<circle cx="287.366" cy="400.976" r="2.83938"/>
<circle cx="289.634" cy="400.162" r="2.83938"/>
<circle cx="291.902" cy="408.07" r="2.83938"/>
<circle cx="294.169" cy="399.447" r="2.83938"/>
<circle cx="296.437" cy="402.242" r="2.83938"/>
<circle cx="298.705" cy="404.287" r="2.83938"/>
<circle cx="300.972" cy="390.926" r="2.83938"/>
<circle cx="303.24" cy="394.199" r="2.83938"/>
<circle cx="305.508" cy="397.172" r="2.83938"/>
<circle cx="307.776" cy="388.05" r="2.83938"/>
<circle cx="310.043" cy="391.756" r="2.83938"/>
<circle cx="312.311" cy="396.306" r="2.83938"/>
<circle cx="314.579" cy="389.238" r="2.83938"/>
<circle cx="316.846" cy="386.568" r="2.83938"/>
<circle cx="319.114" cy="388.971" r="2.83938"/>
<circle cx="321.382" cy="388.387" r="2.83938"/>
<circle cx="323.65" cy="381.314" r="2.83938"/>
<circle cx="325.917" cy="382.386" r="2.83938"/>
<circle cx="328.185" cy="381.256" r="2.83938"/>
<circle cx="330.453" cy="378.123" r="2.83938"/>
<circle cx="332.72" cy="378.226" r="2.83938"/>
<circle cx="334.988" cy="372.418" r="2.83938"/>
<circle cx="337.256" cy="372.862" r="2.83938"/>
<circle cx="339.524" cy="378.971" r="2.83938"/>
<circle cx="341.791" cy="365.01" r="2.83938"/>
<circle cx="344.059" cy="370.443" r="2.83938"/>
<circle cx="346.327" cy="363.017" r="2.83938"/>
<circle cx="348.594" cy="363.646" r="2.83938"/>
<circle cx="350.862" cy="360.82" r="2.83938"/>
<circle cx="353.13" cy="362.069" r="2.83938"/>
<circle cx="355.398" cy="365.063" r="2.83938"/>
<circle cx="357.665" cy="354.573" r="2.83938"/>
<circle cx="359.933" cy="360.738" r="2.83938"/>
<circle cx="362.201" cy="354.106" r="2.83938"/>
<circle cx="364.469" cy="343.481" r="2.83938"/>
<circle cx="366.736" cy="352.973" r="2.83938"/>
<circle cx="369.004" cy="346.425" r="2.83938"/>
<circle cx="371.272" cy="342.846" r="2.83938"/>
<circle cx="373.539" cy="339.415" r="2.83938"/>
<circle cx="375.807" cy="339.622" r="2.83938"/>
<circle cx="378.075" cy="331.722" r="2.83938"/>
<circle cx="380.343" cy="329.94" r="2.83938"/>
<circle cx="382.61" cy="332.168" r="2.83938"/>
<circle cx="384.878" cy="329.011" r="2.83938"/>
<circle cx="387.146" cy="336.537" r="2.83938"/>
<circle cx="389.413" cy="318.281" r="2.83938"/>
<circle cx="391.681" cy="320.351" r="2.83938"/>
<circle cx="393.949" cy="329.381" r="2.83938"/>
<circle cx="396.217" cy="324.2" r="2.83938"/>
<circle cx="398.484" cy="323.511" r="2.83938"/>
<circle cx="400.752" cy="319.805" r="2.83938"/>
<circle cx="403.02" cy="316.547" r="2.83938"/>
<circle cx="405.287" cy="314.891" r="2.83938"/>
<circle cx="407.555" cy="313.011" r="2.83938"/>
<circle cx="409.823" cy="314.789" r="2.83938"/>
<circle cx="412.091" cy="319.614" r="2.83938"/>
<circle cx="414.358" cy="300.796" r="2.83938"/>
<circle cx="416.626" cy="304.303" r="2.83938"/>
<circle cx="418.894" cy="307.244" r="2.83938"/>
<circle cx="421.161" cy="306.887" r="2.83938"/>
<circle cx="423.429" cy="292.289" r="2.83938"/>
<circle cx="425.697" cy="296.824" r="2.83938"/>
<circle cx="427.965" cy="300.234" r="2.83938"/>
<circle cx="430.232" cy="299.673" r="2.83938"/>
<circle cx="432.5" cy="288.987" r="2.83938"/>
<circle cx="434.768" cy="291.527" r="2.83938"/>
<circle cx="437.035" cy="298.857" r="2.83938"/>
<circle cx="439.303" cy="284.094" r="2.83938"/>
<circle cx="441.571" cy="290.253" r="2.83938"/>
<circle cx="443.839" cy="291.138" r="2.83938"/>
<circle cx="446.106" cy="291.641" r="2.83938"/>
<circle cx="448.374" cy="292.382" r="2.83938"/>
<circle cx="450.642" cy="288.637" r="2.83938"/>
<circle cx="452.909" cy="292.382" r="2.83938"/>
<circle cx="455.177" cy="277.796" r="2.83938"/>
<circle cx="457.445" cy="281.618" r="2.83938"/>
<circle cx="459.713" cy="297.179" r="2.83938"/>
<circle cx="461.98" cy="277.234" r="2.83938"/>
<circle cx="464.248" cy="277.596" r="2.83938"/>
<circle cx="466.516" cy="299.088" r="2.83938"/>
<circle cx="468.783" cy="281.203" r="2.83938"/>
<circle cx="471.051" cy="285.907" r="2.83938"/>
<circle cx="473.319" cy="296.178" r="2.83938"/>
<circle cx="475.587" cy="296.369" r="2.83938"/>
<circle cx="477.854" cy="287.989" r="2.83938"/>
<circle cx="480.122" cy="286.482" r="2.83938"/>
<circle cx="482.39" cy="279.617" r="2.83938"/>
<circle cx="484.657" cy="292.152" r="2.83938"/>
<circle cx="486.925" cy="276.099" r="2.83938"/>
<circle cx="489.193" cy="288.336" r="2.83938"/>
<circle cx="491.461" cy="281.355" r="2.83938"/>
<circle cx="493.728" cy="278.941" r="2.83938"/>
<circle cx="495.996" cy="277.183" r="2.83938"/>
<circle cx="498.264" cy="281.147" r="2.83938"/>
<circle cx="500.531" cy="294.148" r="2.83938"/>
<circle cx="502.799" cy="280.712" r="2.83938"/>
<circle cx="505.067" cy="268.615" r="2.83938"/>
<circle cx="507.335" cy="279.071" r="2.83938"/>
<circle cx="509.602" cy="282.562" r="2.83938"/>
</g>
<rect x="170.579" y="122.434" width="79.3701" height="55.6518" fill="white"/>
<text xml:space="preserve" x="190.265" y="156.166" fill="black" font-size="14.7959" font-family="Helvetica">Geant4 Data
</text>
<g fill="black">
<circle cx="180.5" cy="150.26" r="2.83938"/>
</g></svg>
