<?xml version="1.0" encoding="utf-8" standalone="no"?>
<!DOCTYPE svg PUBLIC "-//W3C//DTD SVG 1.1//EN"
  "http://www.w3.org/Graphics/SVG/1.1/DTD/svg11.dtd">
<svg xmlns:xlink="http://www.w3.org/1999/xlink" width="720pt" height="720pt" viewBox="0 0 720 720" xmlns="http://www.w3.org/2000/svg" version="1.1">
 <metadata>
  <rdf:RDF xmlns:dc="http://purl.org/dc/elements/1.1/" xmlns:cc="http://creativecommons.org/ns#" xmlns:rdf="http://www.w3.org/1999/02/22-rdf-syntax-ns#">
   <cc:Work>
    <dc:type rdf:resource="http://purl.org/dc/dcmitype/StillImage"/>
    <dc:date>2025-07-01T02:23:35.673478</dc:date>
    <dc:format>image/svg+xml</dc:format>
    <dc:creator>
     <cc:Agent>
      <dc:title>Matplotlib v3.10.3, https://matplotlib.org/</dc:title>
     </cc:Agent>
    </dc:creator>
   </cc:Work>
  </rdf:RDF>
 </metadata>
 <defs>
  <style type="text/css">*{stroke-linejoin: round; stroke-linecap: butt}</style>
 </defs>
 <g id="figure_1">
  <g id="patch_1">
   <path d="M 0 720 
L 720 720 
L 720 0 
L 0 0 
z
" style="fill: #ffffff"/>
  </g>
  <g id="axes_1">
   <g id="patch_2">
    <path d="M 413.082 368.04 
C 413.082 339.243454 406.124968 310.868644 392.804838 285.337972 
C 379.484708 259.807301 360.191635 237.86858 336.5727 221.394753 
C 312.953765 204.920926 285.700784 194.394523 257.140386 190.714201 
C 228.579989 187.033878 199.548731 190.307435 172.525056 200.255403 
C 145.501381 210.203371 121.276833 226.534366 101.9195 247.854186 
C 82.562166 269.174006 68.639038 294.858177 61.338755 322.714001 
C 54.038472 350.569825 53.574864 379.781384 59.987511 407.854842 
C 66.400158 435.9283 79.501228 462.041363 98.172262 483.96472 
L 139.007583 449.187304 
C 125.937859 433.840954 116.76711 415.56181 112.278258 395.910389 
C 107.789405 376.258969 108.11393 355.810877 113.224129 336.3118 
C 118.334327 316.812724 128.080517 298.833804 141.63065 283.90993 
C 155.180783 268.986056 172.137967 257.55436 191.054539 250.590782 
C 209.971112 243.627205 230.292992 241.335715 250.28527 243.91194 
C 270.277549 246.488166 289.354635 253.856648 305.88789 265.388327 
C 322.421144 276.920006 335.926295 292.27711 345.250387 310.148581 
C 354.574478 328.020051 359.4444 347.882418 359.4444 368.04 
z
" style="fill: #0088e3; stroke: #ffffff; stroke-linejoin: miter"/>
   </g>
   <g id="patch_3">
    <path d="M 98.172257 483.964706 
C 121.886653 511.809936 153.583859 531.719033 188.964019 540.991245 
C 224.344177 550.263458 261.731765 548.459682 296.054994 535.824578 
C 330.378225 523.189484 360.011555 500.321518 380.935246 470.322701 
C 401.858937 440.323885 413.082 404.614954 413.082 368.039969 
L 359.4444 368.039978 
C 359.4444 393.642468 351.588256 418.63872 336.941672 439.637891 
C 322.295088 460.637062 301.551758 476.644639 277.525496 485.489204 
C 253.499235 494.333778 227.327924 495.59642 202.561814 489.105872 
C 177.795701 482.615323 155.607657 468.678955 139.00758 449.187294 
z
" style="fill: #e77515; stroke: #ffffff; stroke-linejoin: miter"/>
   </g>
   <g id="patch_4">
    <path d="M 359.4444 368.04 
C 359.4444 339.315692 349.555584 311.44888 331.449401 289.149731 
C 313.343219 266.850582 288.100704 251.450473 259.988455 245.552396 
C 231.876205 239.654318 202.572671 243.610419 177.030858 256.75202 
C 151.489045 269.893622 131.233936 291.436101 119.689134 317.738258 
L 168.803791 339.296147 
C 175.40082 324.266344 186.975169 311.956355 201.57049 304.446869 
C 216.165812 296.937382 232.910689 294.676753 248.974831 298.047083 
C 265.038974 301.417413 279.463268 310.217475 289.809658 322.959846 
C 300.156048 335.702217 305.8068 351.626109 305.8068 368.04 
z
" style="fill: #2196f3; stroke: #ffffff; stroke-linejoin: miter"/>
   </g>
   <g id="patch_5">
    <path d="M 119.689127 317.738265 
C 110.246586 339.250916 107.049606 362.993807 110.465679 386.237864 
C 113.881746 409.481921 123.774769 431.301068 139.00758 449.187294 
L 179.842903 414.409882 
C 171.138439 404.189182 165.485283 391.721098 163.533245 378.438779 
C 161.581203 365.156461 163.408049 351.589095 168.803787 339.296152 
z
" style="fill: #7cc1fa; stroke: #ffffff; stroke-linejoin: miter"/>
   </g>
   <g id="patch_6">
    <path d="M 139.00758 449.187294 
C 142.799887 453.640188 146.899687 457.821777 151.27682 461.701283 
C 155.653952 465.580788 160.29766 469.148698 165.173792 472.378747 
L 194.795024 427.662141 
C 192.008663 425.816399 189.355116 423.777593 186.853897 421.560733 
C 184.352679 419.343873 182.009936 416.954393 179.842903 414.409882 
z
" style="fill: #ff963b; stroke: #ffffff; stroke-linejoin: miter"/>
   </g>
   <g id="patch_7">
    <path d="M 165.173792 472.378747 
C 184.031409 484.870438 205.927483 492.019201 228.523184 493.061467 
C 251.118886 494.103733 273.580016 489.001032 293.507519 478.298376 
C 313.435021 467.59572 330.093143 451.688269 341.702648 432.275092 
C 353.312152 412.861916 359.4444 390.659705 359.4444 368.039978 
L 305.8068 368.039987 
C 305.8068 380.965546 302.302658 393.652523 295.668656 404.745767 
C 289.034653 415.839011 279.515726 424.928983 268.128582 431.044786 
C 256.741438 437.16059 243.906506 440.076419 230.994677 439.480838 
C 218.082848 438.885257 205.570805 434.80025 194.795024 427.662141 
z
" style="fill: #faba81; stroke: #ffffff; stroke-linejoin: miter"/>
   </g>
   <g id="patch_8">
    <path d="M 305.8068 368.04 
C 305.8068 351.591124 300.131934 335.635402 289.745282 322.880677 
C 279.35863 310.125953 264.882997 301.337026 248.775042 298.005464 
L 237.91126 350.531366 
C 241.938249 351.364256 245.557157 353.561488 248.15382 356.750169 
C 250.750483 359.93885 252.1692 363.927781 252.1692 368.04 
z
" style="fill: #008a1a; stroke: #ffffff; stroke-linejoin: miter"/>
   </g>
   <g id="patch_9">
    <path d="M 248.775044 298.005463 
C 232.735604 294.688068 216.033301 296.979359 201.47979 304.493616 
C 186.926278 312.007873 175.386756 324.298378 168.803787 339.296152 
L 217.918447 360.854038 
C 219.564189 357.104595 222.44907 354.031968 226.087447 352.153404 
C 229.725825 350.27484 233.901401 349.702017 237.911261 350.531366 
z
" style="fill: #8dc998; stroke: #ffffff; stroke-linejoin: miter"/>
   </g>
   <g id="patch_10">
    <path d="M 168.803787 339.296152 
C 168.803787 339.296152 168.803787 339.296152 168.803787 339.296152 
L 217.918447 360.854038 
C 217.918447 360.854038 217.918447 360.854038 217.918447 360.854038 
z
" style="fill: #008a1a; stroke: #ffffff; stroke-linejoin: miter"/>
   </g>
   <g id="patch_11">
    <path d="M 168.803787 339.296152 
C 163.408049 351.589095 161.581203 365.156461 163.533245 378.438779 
C 165.485283 391.721098 171.138439 404.189182 179.842903 414.409882 
L 220.678226 379.632471 
C 218.50211 377.077295 217.088821 373.960274 216.600811 370.639695 
C 216.112801 367.319115 216.569512 363.927274 217.918447 360.854038 
z
" style="fill: #8dc998; stroke: #ffffff; stroke-linejoin: miter"/>
   </g>
   <g id="patch_12">
    <path d="M 179.842903 414.409882 
C 180.225359 414.858957 180.613353 415.303292 181.006804 415.742767 
C 181.400254 416.182242 181.799122 416.616827 182.203323 417.046434 
L 221.268331 380.291609 
C 221.167281 380.184207 221.067563 380.07556 220.969201 379.965692 
C 220.870838 379.855823 220.77384 379.744739 220.678226 379.632471 
z
" style="fill: #8f0067; stroke: #ffffff; stroke-linejoin: miter"/>
   </g>
   <g id="patch_13">
    <path d="M 182.203323 417.046434 
C 184.088965 419.050592 186.088698 420.944244 188.192562 422.717954 
C 190.296425 424.491665 192.500919 426.142477 194.795024 427.662141 
L 224.416256 382.945535 
C 223.84273 382.565619 223.291606 382.152916 222.76564 381.709489 
C 222.239675 381.266061 221.739741 380.792648 221.268331 380.291609 
z
" style="fill: #b68faa; stroke: #ffffff; stroke-linejoin: miter"/>
   </g>
   <g id="patch_14">
    <path d="M 194.795024 427.662141 
C 194.795024 427.662141 194.795024 427.662141 194.795024 427.662141 
L 224.416256 382.945535 
C 224.416256 382.945535 224.416256 382.945535 224.416256 382.945535 
z
" style="fill: #8f0067; stroke: #ffffff; stroke-linejoin: miter"/>
   </g>
   <g id="patch_15">
    <path d="M 194.795024 427.662141 
C 205.570805 434.80025 218.082848 438.885257 230.994677 439.480838 
C 243.906506 440.076419 256.741438 437.16059 268.128582 431.044786 
C 279.515726 424.928983 289.034653 415.839011 295.668656 404.745767 
C 302.302658 393.652523 305.8068 380.965546 305.8068 368.039987 
L 252.1692 368.039997 
C 252.1692 371.271386 251.293165 374.443131 249.634664 377.216442 
C 247.976163 379.989753 245.596432 382.262246 242.749646 383.791197 
C 239.902859 385.320147 236.694127 386.049105 233.466169 385.90021 
C 230.238212 385.751314 227.110201 384.730063 224.416256 382.945535 
z
" style="fill: #b68faa; stroke: #ffffff; stroke-linejoin: miter"/>
   </g>
   <g id="matplotlib.axis_1"/>
   <g id="matplotlib.axis_2"/>
   <g id="text_1">
    <!-- True Positive showers (TPS) -->
    <g transform="translate(8.921983 186.236324) scale(0.1 -0.1)">
     <defs>
      <path id="DejaVuSans-Bold-54" d="M 31 4666 
L 4331 4666 
L 4331 3756 
L 2784 3756 
L 2784 0 
L 1581 0 
L 1581 3756 
L 31 3756 
L 31 4666 
z
" transform="scale(0.015625)"/>
      <path id="DejaVuSans-Bold-72" d="M 3138 2547 
Q 2991 2616 2845 2648 
Q 2700 2681 2553 2681 
Q 2122 2681 1889 2404 
Q 1656 2128 1656 1613 
L 1656 0 
L 538 0 
L 538 3500 
L 1656 3500 
L 1656 2925 
Q 1872 3269 2151 3426 
Q 2431 3584 2822 3584 
Q 2878 3584 2943 3579 
Q 3009 3575 3134 3559 
L 3138 2547 
z
" transform="scale(0.015625)"/>
      <path id="DejaVuSans-Bold-75" d="M 500 1363 
L 500 3500 
L 1625 3500 
L 1625 3150 
Q 1625 2866 1622 2436 
Q 1619 2006 1619 1863 
Q 1619 1441 1641 1255 
Q 1663 1069 1716 984 
Q 1784 875 1895 815 
Q 2006 756 2150 756 
Q 2500 756 2700 1025 
Q 2900 1294 2900 1772 
L 2900 3500 
L 4019 3500 
L 4019 0 
L 2900 0 
L 2900 506 
Q 2647 200 2364 54 
Q 2081 -91 1741 -91 
Q 1134 -91 817 281 
Q 500 653 500 1363 
z
" transform="scale(0.015625)"/>
      <path id="DejaVuSans-Bold-65" d="M 4031 1759 
L 4031 1441 
L 1416 1441 
Q 1456 1047 1700 850 
Q 1944 653 2381 653 
Q 2734 653 3104 758 
Q 3475 863 3866 1075 
L 3866 213 
Q 3469 63 3072 -14 
Q 2675 -91 2278 -91 
Q 1328 -91 801 392 
Q 275 875 275 1747 
Q 275 2603 792 3093 
Q 1309 3584 2216 3584 
Q 3041 3584 3536 3087 
Q 4031 2591 4031 1759 
z
M 2881 2131 
Q 2881 2450 2695 2645 
Q 2509 2841 2209 2841 
Q 1884 2841 1681 2658 
Q 1478 2475 1428 2131 
L 2881 2131 
z
" transform="scale(0.015625)"/>
      <path id="DejaVuSans-Bold-20" transform="scale(0.015625)"/>
      <path id="DejaVuSans-Bold-50" d="M 588 4666 
L 2584 4666 
Q 3475 4666 3951 4270 
Q 4428 3875 4428 3144 
Q 4428 2409 3951 2014 
Q 3475 1619 2584 1619 
L 1791 1619 
L 1791 0 
L 588 0 
L 588 4666 
z
M 1791 3794 
L 1791 2491 
L 2456 2491 
Q 2806 2491 2997 2661 
Q 3188 2831 3188 3144 
Q 3188 3456 2997 3625 
Q 2806 3794 2456 3794 
L 1791 3794 
z
" transform="scale(0.015625)"/>
      <path id="DejaVuSans-Bold-6f" d="M 2203 2784 
Q 1831 2784 1636 2517 
Q 1441 2250 1441 1747 
Q 1441 1244 1636 976 
Q 1831 709 2203 709 
Q 2569 709 2762 976 
Q 2956 1244 2956 1747 
Q 2956 2250 2762 2517 
Q 2569 2784 2203 2784 
z
M 2203 3584 
Q 3106 3584 3614 3096 
Q 4122 2609 4122 1747 
Q 4122 884 3614 396 
Q 3106 -91 2203 -91 
Q 1297 -91 786 396 
Q 275 884 275 1747 
Q 275 2609 786 3096 
Q 1297 3584 2203 3584 
z
" transform="scale(0.015625)"/>
      <path id="DejaVuSans-Bold-73" d="M 3272 3391 
L 3272 2541 
Q 2913 2691 2578 2766 
Q 2244 2841 1947 2841 
Q 1628 2841 1473 2761 
Q 1319 2681 1319 2516 
Q 1319 2381 1436 2309 
Q 1553 2238 1856 2203 
L 2053 2175 
Q 2913 2066 3209 1816 
Q 3506 1566 3506 1031 
Q 3506 472 3093 190 
Q 2681 -91 1863 -91 
Q 1516 -91 1145 -36 
Q 775 19 384 128 
L 384 978 
Q 719 816 1070 734 
Q 1422 653 1784 653 
Q 2113 653 2278 743 
Q 2444 834 2444 1013 
Q 2444 1163 2330 1236 
Q 2216 1309 1875 1350 
L 1678 1375 
Q 931 1469 631 1722 
Q 331 1975 331 2491 
Q 331 3047 712 3315 
Q 1094 3584 1881 3584 
Q 2191 3584 2531 3537 
Q 2872 3491 3272 3391 
z
" transform="scale(0.015625)"/>
      <path id="DejaVuSans-Bold-69" d="M 538 3500 
L 1656 3500 
L 1656 0 
L 538 0 
L 538 3500 
z
M 538 4863 
L 1656 4863 
L 1656 3950 
L 538 3950 
L 538 4863 
z
" transform="scale(0.015625)"/>
      <path id="DejaVuSans-Bold-74" d="M 1759 4494 
L 1759 3500 
L 2913 3500 
L 2913 2700 
L 1759 2700 
L 1759 1216 
Q 1759 972 1856 886 
Q 1953 800 2241 800 
L 2816 800 
L 2816 0 
L 1856 0 
Q 1194 0 917 276 
Q 641 553 641 1216 
L 641 2700 
L 84 2700 
L 84 3500 
L 641 3500 
L 641 4494 
L 1759 4494 
z
" transform="scale(0.015625)"/>
      <path id="DejaVuSans-Bold-76" d="M 97 3500 
L 1216 3500 
L 2088 1081 
L 2956 3500 
L 4078 3500 
L 2700 0 
L 1472 0 
L 97 3500 
z
" transform="scale(0.015625)"/>
      <path id="DejaVuSans-Bold-68" d="M 4056 2131 
L 4056 0 
L 2931 0 
L 2931 347 
L 2931 1625 
Q 2931 2084 2911 2256 
Q 2891 2428 2841 2509 
Q 2775 2619 2662 2680 
Q 2550 2741 2406 2741 
Q 2056 2741 1856 2470 
Q 1656 2200 1656 1722 
L 1656 0 
L 538 0 
L 538 4863 
L 1656 4863 
L 1656 2988 
Q 1909 3294 2193 3439 
Q 2478 3584 2822 3584 
Q 3428 3584 3742 3212 
Q 4056 2841 4056 2131 
z
" transform="scale(0.015625)"/>
      <path id="DejaVuSans-Bold-77" d="M 225 3500 
L 1313 3500 
L 1900 1088 
L 2491 3500 
L 3425 3500 
L 4013 1113 
L 4603 3500 
L 5691 3500 
L 4769 0 
L 3547 0 
L 2956 2406 
L 2369 0 
L 1147 0 
L 225 3500 
z
" transform="scale(0.015625)"/>
      <path id="DejaVuSans-Bold-28" d="M 2413 -844 
L 1484 -844 
Q 1006 -72 778 623 
Q 550 1319 550 2003 
Q 550 2688 779 3389 
Q 1009 4091 1484 4856 
L 2413 4856 
Q 2013 4116 1813 3408 
Q 1613 2700 1613 2009 
Q 1613 1319 1811 609 
Q 2009 -100 2413 -844 
z
" transform="scale(0.015625)"/>
      <path id="DejaVuSans-Bold-53" d="M 3834 4519 
L 3834 3531 
Q 3450 3703 3084 3790 
Q 2719 3878 2394 3878 
Q 1963 3878 1756 3759 
Q 1550 3641 1550 3391 
Q 1550 3203 1689 3098 
Q 1828 2994 2194 2919 
L 2706 2816 
Q 3484 2659 3812 2340 
Q 4141 2022 4141 1434 
Q 4141 663 3683 286 
Q 3225 -91 2284 -91 
Q 1841 -91 1394 -6 
Q 947 78 500 244 
L 500 1259 
Q 947 1022 1364 901 
Q 1781 781 2169 781 
Q 2563 781 2772 912 
Q 2981 1044 2981 1288 
Q 2981 1506 2839 1625 
Q 2697 1744 2272 1838 
L 1806 1941 
Q 1106 2091 782 2419 
Q 459 2747 459 3303 
Q 459 4000 909 4375 
Q 1359 4750 2203 4750 
Q 2588 4750 2994 4692 
Q 3400 4634 3834 4519 
z
" transform="scale(0.015625)"/>
      <path id="DejaVuSans-Bold-29" d="M 513 -844 
Q 913 -100 1113 609 
Q 1313 1319 1313 2009 
Q 1313 2700 1113 3408 
Q 913 4116 513 4856 
L 1441 4856 
Q 1916 4091 2145 3389 
Q 2375 2688 2375 2003 
Q 2375 1319 2147 623 
Q 1919 -72 1441 -844 
L 513 -844 
z
" transform="scale(0.015625)"/>
     </defs>
     <use xlink:href="#DejaVuSans-Bold-54"/>
     <use xlink:href="#DejaVuSans-Bold-72" transform="translate(57.212891 0)"/>
     <use xlink:href="#DejaVuSans-Bold-75" transform="translate(106.529297 0)"/>
     <use xlink:href="#DejaVuSans-Bold-65" transform="translate(177.720703 0)"/>
     <use xlink:href="#DejaVuSans-Bold-20" transform="translate(245.542969 0)"/>
     <use xlink:href="#DejaVuSans-Bold-50" transform="translate(280.357422 0)"/>
     <use xlink:href="#DejaVuSans-Bold-6f" transform="translate(353.648438 0)"/>
     <use xlink:href="#DejaVuSans-Bold-73" transform="translate(422.349609 0)"/>
     <use xlink:href="#DejaVuSans-Bold-69" transform="translate(481.871094 0)"/>
     <use xlink:href="#DejaVuSans-Bold-74" transform="translate(516.148438 0)"/>
     <use xlink:href="#DejaVuSans-Bold-69" transform="translate(563.951172 0)"/>
     <use xlink:href="#DejaVuSans-Bold-76" transform="translate(598.228516 0)"/>
     <use xlink:href="#DejaVuSans-Bold-65" transform="translate(663.414062 0)"/>
     <use xlink:href="#DejaVuSans-Bold-20" transform="translate(731.236328 0)"/>
     <use xlink:href="#DejaVuSans-Bold-73" transform="translate(766.050781 0)"/>
     <use xlink:href="#DejaVuSans-Bold-68" transform="translate(825.572266 0)"/>
     <use xlink:href="#DejaVuSans-Bold-6f" transform="translate(896.763672 0)"/>
     <use xlink:href="#DejaVuSans-Bold-77" transform="translate(965.464844 0)"/>
     <use xlink:href="#DejaVuSans-Bold-65" transform="translate(1057.847656 0)"/>
     <use xlink:href="#DejaVuSans-Bold-72" transform="translate(1125.669922 0)"/>
     <use xlink:href="#DejaVuSans-Bold-73" transform="translate(1174.986328 0)"/>
     <use xlink:href="#DejaVuSans-Bold-20" transform="translate(1234.507812 0)"/>
     <use xlink:href="#DejaVuSans-Bold-28" transform="translate(1269.322266 0)"/>
     <use xlink:href="#DejaVuSans-Bold-54" transform="translate(1315.025391 0)"/>
     <use xlink:href="#DejaVuSans-Bold-50" transform="translate(1383.238281 0)"/>
     <use xlink:href="#DejaVuSans-Bold-53" transform="translate(1456.529297 0)"/>
     <use xlink:href="#DejaVuSans-Bold-29" transform="translate(1528.550781 0)"/>
    </g>
   </g>
   <g id="text_2">
    <!-- 61.2% -->
    <g transform="translate(160.974472 228.734347) scale(0.12 -0.12)">
     <defs>
      <path id="DejaVuSans-Bold-36" d="M 2316 2303 
Q 2000 2303 1842 2098 
Q 1684 1894 1684 1484 
Q 1684 1075 1842 870 
Q 2000 666 2316 666 
Q 2634 666 2792 870 
Q 2950 1075 2950 1484 
Q 2950 1894 2792 2098 
Q 2634 2303 2316 2303 
z
M 3803 4544 
L 3803 3681 
Q 3506 3822 3243 3889 
Q 2981 3956 2731 3956 
Q 2194 3956 1894 3657 
Q 1594 3359 1544 2772 
Q 1750 2925 1990 3001 
Q 2231 3078 2516 3078 
Q 3231 3078 3670 2659 
Q 4109 2241 4109 1563 
Q 4109 813 3618 361 
Q 3128 -91 2303 -91 
Q 1394 -91 895 523 
Q 397 1138 397 2266 
Q 397 3422 980 4083 
Q 1563 4744 2578 4744 
Q 2900 4744 3203 4694 
Q 3506 4644 3803 4544 
z
" transform="scale(0.015625)"/>
      <path id="DejaVuSans-Bold-31" d="M 750 831 
L 1813 831 
L 1813 3847 
L 722 3622 
L 722 4441 
L 1806 4666 
L 2950 4666 
L 2950 831 
L 4013 831 
L 4013 0 
L 750 0 
L 750 831 
z
" transform="scale(0.015625)"/>
      <path id="DejaVuSans-Bold-2e" d="M 653 1209 
L 1778 1209 
L 1778 0 
L 653 0 
L 653 1209 
z
" transform="scale(0.015625)"/>
      <path id="DejaVuSans-Bold-32" d="M 1844 884 
L 3897 884 
L 3897 0 
L 506 0 
L 506 884 
L 2209 2388 
Q 2438 2594 2547 2791 
Q 2656 2988 2656 3200 
Q 2656 3528 2436 3728 
Q 2216 3928 1850 3928 
Q 1569 3928 1234 3808 
Q 900 3688 519 3450 
L 519 4475 
Q 925 4609 1322 4679 
Q 1719 4750 2100 4750 
Q 2938 4750 3402 4381 
Q 3866 4013 3866 3353 
Q 3866 2972 3669 2642 
Q 3472 2313 2841 1759 
L 1844 884 
z
" transform="scale(0.015625)"/>
      <path id="DejaVuSans-Bold-25" d="M 4959 1925 
Q 4738 1925 4616 1733 
Q 4494 1541 4494 1184 
Q 4494 825 4614 633 
Q 4734 441 4959 441 
Q 5184 441 5303 633 
Q 5422 825 5422 1184 
Q 5422 1541 5301 1733 
Q 5181 1925 4959 1925 
z
M 4959 2450 
Q 5541 2450 5875 2112 
Q 6209 1775 6209 1184 
Q 6209 594 5875 251 
Q 5541 -91 4959 -91 
Q 4378 -91 4042 251 
Q 3706 594 3706 1184 
Q 3706 1772 4042 2111 
Q 4378 2450 4959 2450 
z
M 2094 -91 
L 1403 -91 
L 4319 4750 
L 5013 4750 
L 2094 -91 
z
M 1453 4750 
Q 2034 4750 2367 4411 
Q 2700 4072 2700 3481 
Q 2700 2891 2367 2550 
Q 2034 2209 1453 2209 
Q 872 2209 539 2550 
Q 206 2891 206 3481 
Q 206 4072 539 4411 
Q 872 4750 1453 4750 
z
M 1453 4225 
Q 1228 4225 1106 4031 
Q 984 3838 984 3481 
Q 984 3122 1106 2926 
Q 1228 2731 1453 2731 
Q 1678 2731 1798 2926 
Q 1919 3122 1919 3481 
Q 1919 3838 1797 4031 
Q 1675 4225 1453 4225 
z
" transform="scale(0.015625)"/>
     </defs>
     <use xlink:href="#DejaVuSans-Bold-36"/>
     <use xlink:href="#DejaVuSans-Bold-31" transform="translate(69.580078 0)"/>
     <use xlink:href="#DejaVuSans-Bold-2e" transform="translate(139.160156 0)"/>
     <use xlink:href="#DejaVuSans-Bold-32" transform="translate(177.148438 0)"/>
     <use xlink:href="#DejaVuSans-Bold-25" transform="translate(246.728516 0)"/>
    </g>
   </g>
   <g id="text_3">
    <!-- False Positive showers (FPS) -->
    <g transform="translate(302.231493 555.362412) scale(0.1 -0.1)">
     <defs>
      <path id="DejaVuSans-Bold-46" d="M 588 4666 
L 3834 4666 
L 3834 3756 
L 1791 3756 
L 1791 2888 
L 3713 2888 
L 3713 1978 
L 1791 1978 
L 1791 0 
L 588 0 
L 588 4666 
z
" transform="scale(0.015625)"/>
      <path id="DejaVuSans-Bold-61" d="M 2106 1575 
Q 1756 1575 1579 1456 
Q 1403 1338 1403 1106 
Q 1403 894 1545 773 
Q 1688 653 1941 653 
Q 2256 653 2472 879 
Q 2688 1106 2688 1447 
L 2688 1575 
L 2106 1575 
z
M 3816 1997 
L 3816 0 
L 2688 0 
L 2688 519 
Q 2463 200 2181 54 
Q 1900 -91 1497 -91 
Q 953 -91 614 226 
Q 275 544 275 1050 
Q 275 1666 698 1953 
Q 1122 2241 2028 2241 
L 2688 2241 
L 2688 2328 
Q 2688 2594 2478 2717 
Q 2269 2841 1825 2841 
Q 1466 2841 1156 2769 
Q 847 2697 581 2553 
L 581 3406 
Q 941 3494 1303 3539 
Q 1666 3584 2028 3584 
Q 2975 3584 3395 3211 
Q 3816 2838 3816 1997 
z
" transform="scale(0.015625)"/>
      <path id="DejaVuSans-Bold-6c" d="M 538 4863 
L 1656 4863 
L 1656 0 
L 538 0 
L 538 4863 
z
" transform="scale(0.015625)"/>
     </defs>
     <use xlink:href="#DejaVuSans-Bold-46"/>
     <use xlink:href="#DejaVuSans-Bold-61" transform="translate(62.435547 0)"/>
     <use xlink:href="#DejaVuSans-Bold-6c" transform="translate(129.916016 0)"/>
     <use xlink:href="#DejaVuSans-Bold-73" transform="translate(164.193359 0)"/>
     <use xlink:href="#DejaVuSans-Bold-65" transform="translate(223.714844 0)"/>
     <use xlink:href="#DejaVuSans-Bold-20" transform="translate(291.537109 0)"/>
     <use xlink:href="#DejaVuSans-Bold-50" transform="translate(326.351562 0)"/>
     <use xlink:href="#DejaVuSans-Bold-6f" transform="translate(399.642578 0)"/>
     <use xlink:href="#DejaVuSans-Bold-73" transform="translate(468.34375 0)"/>
     <use xlink:href="#DejaVuSans-Bold-69" transform="translate(527.865234 0)"/>
     <use xlink:href="#DejaVuSans-Bold-74" transform="translate(562.142578 0)"/>
     <use xlink:href="#DejaVuSans-Bold-69" transform="translate(609.945312 0)"/>
     <use xlink:href="#DejaVuSans-Bold-76" transform="translate(644.222656 0)"/>
     <use xlink:href="#DejaVuSans-Bold-65" transform="translate(709.408203 0)"/>
     <use xlink:href="#DejaVuSans-Bold-20" transform="translate(777.230469 0)"/>
     <use xlink:href="#DejaVuSans-Bold-73" transform="translate(812.044922 0)"/>
     <use xlink:href="#DejaVuSans-Bold-68" transform="translate(871.566406 0)"/>
     <use xlink:href="#DejaVuSans-Bold-6f" transform="translate(942.757812 0)"/>
     <use xlink:href="#DejaVuSans-Bold-77" transform="translate(1011.458984 0)"/>
     <use xlink:href="#DejaVuSans-Bold-65" transform="translate(1103.841797 0)"/>
     <use xlink:href="#DejaVuSans-Bold-72" transform="translate(1171.664062 0)"/>
     <use xlink:href="#DejaVuSans-Bold-73" transform="translate(1220.980469 0)"/>
     <use xlink:href="#DejaVuSans-Bold-20" transform="translate(1280.501953 0)"/>
     <use xlink:href="#DejaVuSans-Bold-28" transform="translate(1315.316406 0)"/>
     <use xlink:href="#DejaVuSans-Bold-46" transform="translate(1361.019531 0)"/>
     <use xlink:href="#DejaVuSans-Bold-50" transform="translate(1429.330078 0)"/>
     <use xlink:href="#DejaVuSans-Bold-53" transform="translate(1502.621094 0)"/>
     <use xlink:href="#DejaVuSans-Bold-29" transform="translate(1574.642578 0)"/>
    </g>
   </g>
   <g id="text_4">
    <!-- 38.8% -->
    <g transform="translate(265.974932 513.968142) scale(0.12 -0.12)">
     <defs>
      <path id="DejaVuSans-Bold-33" d="M 2981 2516 
Q 3453 2394 3698 2092 
Q 3944 1791 3944 1325 
Q 3944 631 3412 270 
Q 2881 -91 1863 -91 
Q 1503 -91 1142 -33 
Q 781 25 428 141 
L 428 1069 
Q 766 900 1098 814 
Q 1431 728 1753 728 
Q 2231 728 2486 893 
Q 2741 1059 2741 1369 
Q 2741 1688 2480 1852 
Q 2219 2016 1709 2016 
L 1228 2016 
L 1228 2791 
L 1734 2791 
Q 2188 2791 2409 2933 
Q 2631 3075 2631 3366 
Q 2631 3634 2415 3781 
Q 2200 3928 1806 3928 
Q 1516 3928 1219 3862 
Q 922 3797 628 3669 
L 628 4550 
Q 984 4650 1334 4700 
Q 1684 4750 2022 4750 
Q 2931 4750 3382 4451 
Q 3834 4153 3834 3553 
Q 3834 3144 3618 2883 
Q 3403 2622 2981 2516 
z
" transform="scale(0.015625)"/>
      <path id="DejaVuSans-Bold-38" d="M 2228 2088 
Q 1891 2088 1709 1903 
Q 1528 1719 1528 1375 
Q 1528 1031 1709 848 
Q 1891 666 2228 666 
Q 2563 666 2741 848 
Q 2919 1031 2919 1375 
Q 2919 1722 2741 1905 
Q 2563 2088 2228 2088 
z
M 1350 2484 
Q 925 2613 709 2878 
Q 494 3144 494 3541 
Q 494 4131 934 4440 
Q 1375 4750 2228 4750 
Q 3075 4750 3515 4442 
Q 3956 4134 3956 3541 
Q 3956 3144 3739 2878 
Q 3522 2613 3097 2484 
Q 3572 2353 3814 2058 
Q 4056 1763 4056 1313 
Q 4056 619 3595 264 
Q 3134 -91 2228 -91 
Q 1319 -91 855 264 
Q 391 619 391 1313 
Q 391 1763 633 2058 
Q 875 2353 1350 2484 
z
M 1631 3419 
Q 1631 3141 1786 2991 
Q 1941 2841 2228 2841 
Q 2509 2841 2662 2991 
Q 2816 3141 2816 3419 
Q 2816 3697 2662 3845 
Q 2509 3994 2228 3994 
Q 1941 3994 1786 3844 
Q 1631 3694 1631 3419 
z
" transform="scale(0.015625)"/>
     </defs>
     <use xlink:href="#DejaVuSans-Bold-33"/>
     <use xlink:href="#DejaVuSans-Bold-38" transform="translate(69.580078 0)"/>
     <use xlink:href="#DejaVuSans-Bold-2e" transform="translate(139.160156 0)"/>
     <use xlink:href="#DejaVuSans-Bold-38" transform="translate(177.148438 0)"/>
     <use xlink:href="#DejaVuSans-Bold-25" transform="translate(246.728516 0)"/>
    </g>
   </g>
   <g id="text_5">
    <!-- 43.4% -->
    <g transform="translate(235.35044 279.07164) scale(0.105 -0.105)">
     <defs>
      <path id="DejaVuSans-Bold-34" d="M 2356 3675 
L 1038 1722 
L 2356 1722 
L 2356 3675 
z
M 2156 4666 
L 3494 4666 
L 3494 1722 
L 4159 1722 
L 4159 850 
L 3494 850 
L 3494 0 
L 2356 0 
L 2356 850 
L 288 850 
L 288 1881 
L 2156 4666 
z
" transform="scale(0.015625)"/>
     </defs>
     <use xlink:href="#DejaVuSans-Bold-34"/>
     <use xlink:href="#DejaVuSans-Bold-33" transform="translate(69.580078 0)"/>
     <use xlink:href="#DejaVuSans-Bold-2e" transform="translate(139.160156 0)"/>
     <use xlink:href="#DejaVuSans-Bold-34" transform="translate(177.148438 0)"/>
     <use xlink:href="#DejaVuSans-Bold-25" transform="translate(246.728516 0)"/>
    </g>
   </g>
   <g id="text_6">
    <!-- 17.8% -->
    <g transform="translate(123.208367 384.585764) scale(0.105 -0.105)">
     <defs>
      <path id="DejaVuSans-Bold-37" d="M 428 4666 
L 3944 4666 
L 3944 3988 
L 2125 0 
L 953 0 
L 2675 3781 
L 428 3781 
L 428 4666 
z
" transform="scale(0.015625)"/>
     </defs>
     <use xlink:href="#DejaVuSans-Bold-31"/>
     <use xlink:href="#DejaVuSans-Bold-37" transform="translate(69.580078 0)"/>
     <use xlink:href="#DejaVuSans-Bold-2e" transform="translate(139.160156 0)"/>
     <use xlink:href="#DejaVuSans-Bold-38" transform="translate(177.148438 0)"/>
     <use xlink:href="#DejaVuSans-Bold-25" transform="translate(246.728516 0)"/>
    </g>
   </g>
   <g id="text_7">
    <!-- 4.5% -->
    <g transform="translate(157.469569 441.183306) scale(0.105 -0.105)">
     <defs>
      <path id="DejaVuSans-Bold-35" d="M 678 4666 
L 3669 4666 
L 3669 3781 
L 1638 3781 
L 1638 3059 
Q 1775 3097 1914 3117 
Q 2053 3138 2203 3138 
Q 3056 3138 3531 2711 
Q 4006 2284 4006 1522 
Q 4006 766 3489 337 
Q 2972 -91 2053 -91 
Q 1656 -91 1267 -14 
Q 878 63 494 219 
L 494 1166 
Q 875 947 1217 837 
Q 1559 728 1863 728 
Q 2300 728 2551 942 
Q 2803 1156 2803 1522 
Q 2803 1891 2551 2103 
Q 2300 2316 1863 2316 
Q 1603 2316 1309 2248 
Q 1016 2181 678 2041 
L 678 4666 
z
" transform="scale(0.015625)"/>
     </defs>
     <use xlink:href="#DejaVuSans-Bold-34"/>
     <use xlink:href="#DejaVuSans-Bold-2e" transform="translate(69.580078 0)"/>
     <use xlink:href="#DejaVuSans-Bold-35" transform="translate(107.568359 0)"/>
     <use xlink:href="#DejaVuSans-Bold-25" transform="translate(177.148438 0)"/>
    </g>
   </g>
   <g id="text_8">
    <!-- 34.3% -->
    <g transform="translate(260.48974 453.631125) scale(0.105 -0.105)">
     <use xlink:href="#DejaVuSans-Bold-33"/>
     <use xlink:href="#DejaVuSans-Bold-34" transform="translate(69.580078 0)"/>
     <use xlink:href="#DejaVuSans-Bold-2e" transform="translate(139.160156 0)"/>
     <use xlink:href="#DejaVuSans-Bold-33" transform="translate(177.148438 0)"/>
     <use xlink:href="#DejaVuSans-Bold-25" transform="translate(246.728516 0)"/>
    </g>
   </g>
   <g id="text_9">
    <!-- 21.8% -->
    <g transform="translate(257.497211 338.91191) scale(0.09 -0.09)">
     <use xlink:href="#DejaVuSans-Bold-32"/>
     <use xlink:href="#DejaVuSans-Bold-31" transform="translate(69.580078 0)"/>
     <use xlink:href="#DejaVuSans-Bold-2e" transform="translate(139.160156 0)"/>
     <use xlink:href="#DejaVuSans-Bold-38" transform="translate(177.148438 0)"/>
     <use xlink:href="#DejaVuSans-Bold-25" transform="translate(246.728516 0)"/>
    </g>
   </g>
   <g id="text_10">
    <!-- 21.7% -->
    <g transform="translate(195.711368 326.04097) scale(0.09 -0.09)">
     <use xlink:href="#DejaVuSans-Bold-32"/>
     <use xlink:href="#DejaVuSans-Bold-31" transform="translate(69.580078 0)"/>
     <use xlink:href="#DejaVuSans-Bold-2e" transform="translate(139.160156 0)"/>
     <use xlink:href="#DejaVuSans-Bold-37" transform="translate(177.148438 0)"/>
     <use xlink:href="#DejaVuSans-Bold-25" transform="translate(246.728516 0)"/>
    </g>
   </g>
   <g id="text_11">
    <!-- 17.8% -->
    <g transform="translate(169.14879 377.802595) scale(0.09 -0.09)">
     <use xlink:href="#DejaVuSans-Bold-31"/>
     <use xlink:href="#DejaVuSans-Bold-37" transform="translate(69.580078 0)"/>
     <use xlink:href="#DejaVuSans-Bold-2e" transform="translate(139.160156 0)"/>
     <use xlink:href="#DejaVuSans-Bold-38" transform="translate(177.148438 0)"/>
     <use xlink:href="#DejaVuSans-Bold-25" transform="translate(246.728516 0)"/>
    </g>
   </g>
   <g id="text_12">
    <!-- 0.8% -->
    <g transform="translate(184.511304 403.915384) scale(0.09 -0.09)">
     <defs>
      <path id="DejaVuSans-Bold-30" d="M 2944 2338 
Q 2944 3213 2780 3570 
Q 2616 3928 2228 3928 
Q 1841 3928 1675 3570 
Q 1509 3213 1509 2338 
Q 1509 1453 1675 1090 
Q 1841 728 2228 728 
Q 2613 728 2778 1090 
Q 2944 1453 2944 2338 
z
M 4147 2328 
Q 4147 1169 3647 539 
Q 3147 -91 2228 -91 
Q 1306 -91 806 539 
Q 306 1169 306 2328 
Q 306 3491 806 4120 
Q 1306 4750 2228 4750 
Q 3147 4750 3647 4120 
Q 4147 3491 4147 2328 
z
" transform="scale(0.015625)"/>
     </defs>
     <use xlink:href="#DejaVuSans-Bold-30"/>
     <use xlink:href="#DejaVuSans-Bold-2e" transform="translate(69.580078 0)"/>
     <use xlink:href="#DejaVuSans-Bold-38" transform="translate(107.568359 0)"/>
     <use xlink:href="#DejaVuSans-Bold-25" transform="translate(177.148438 0)"/>
    </g>
   </g>
   <g id="text_13">
    <!-- 3.7% -->
    <g transform="translate(189.541344 408.798023) scale(0.09 -0.09)">
     <use xlink:href="#DejaVuSans-Bold-33"/>
     <use xlink:href="#DejaVuSans-Bold-2e" transform="translate(69.580078 0)"/>
     <use xlink:href="#DejaVuSans-Bold-37" transform="translate(107.568359 0)"/>
     <use xlink:href="#DejaVuSans-Bold-25" transform="translate(177.148438 0)"/>
    </g>
   </g>
   <g id="text_14">
    <!-- 34.3% -->
    <g transform="translate(242.365523 414.626788) scale(0.09 -0.09)">
     <use xlink:href="#DejaVuSans-Bold-33"/>
     <use xlink:href="#DejaVuSans-Bold-34" transform="translate(69.580078 0)"/>
     <use xlink:href="#DejaVuSans-Bold-2e" transform="translate(139.160156 0)"/>
     <use xlink:href="#DejaVuSans-Bold-33" transform="translate(177.148438 0)"/>
     <use xlink:href="#DejaVuSans-Bold-25" transform="translate(246.728516 0)"/>
    </g>
   </g>
   <g id="text_15">
    <!-- Shower-AM primitives matching -->
    <g transform="translate(139.104688 138.55) scale(0.12 -0.12)">
     <defs>
      <path id="DejaVuSans-53" d="M 3425 4513 
L 3425 3897 
Q 3066 4069 2747 4153 
Q 2428 4238 2131 4238 
Q 1616 4238 1336 4038 
Q 1056 3838 1056 3469 
Q 1056 3159 1242 3001 
Q 1428 2844 1947 2747 
L 2328 2669 
Q 3034 2534 3370 2195 
Q 3706 1856 3706 1288 
Q 3706 609 3251 259 
Q 2797 -91 1919 -91 
Q 1588 -91 1214 -16 
Q 841 59 441 206 
L 441 856 
Q 825 641 1194 531 
Q 1563 422 1919 422 
Q 2459 422 2753 634 
Q 3047 847 3047 1241 
Q 3047 1584 2836 1778 
Q 2625 1972 2144 2069 
L 1759 2144 
Q 1053 2284 737 2584 
Q 422 2884 422 3419 
Q 422 4038 858 4394 
Q 1294 4750 2059 4750 
Q 2388 4750 2728 4690 
Q 3069 4631 3425 4513 
z
" transform="scale(0.015625)"/>
      <path id="DejaVuSans-68" d="M 3513 2113 
L 3513 0 
L 2938 0 
L 2938 2094 
Q 2938 2591 2744 2837 
Q 2550 3084 2163 3084 
Q 1697 3084 1428 2787 
Q 1159 2491 1159 1978 
L 1159 0 
L 581 0 
L 581 4863 
L 1159 4863 
L 1159 2956 
Q 1366 3272 1645 3428 
Q 1925 3584 2291 3584 
Q 2894 3584 3203 3211 
Q 3513 2838 3513 2113 
z
" transform="scale(0.015625)"/>
      <path id="DejaVuSans-6f" d="M 1959 3097 
Q 1497 3097 1228 2736 
Q 959 2375 959 1747 
Q 959 1119 1226 758 
Q 1494 397 1959 397 
Q 2419 397 2687 759 
Q 2956 1122 2956 1747 
Q 2956 2369 2687 2733 
Q 2419 3097 1959 3097 
z
M 1959 3584 
Q 2709 3584 3137 3096 
Q 3566 2609 3566 1747 
Q 3566 888 3137 398 
Q 2709 -91 1959 -91 
Q 1206 -91 779 398 
Q 353 888 353 1747 
Q 353 2609 779 3096 
Q 1206 3584 1959 3584 
z
" transform="scale(0.015625)"/>
      <path id="DejaVuSans-77" d="M 269 3500 
L 844 3500 
L 1563 769 
L 2278 3500 
L 2956 3500 
L 3675 769 
L 4391 3500 
L 4966 3500 
L 4050 0 
L 3372 0 
L 2619 2869 
L 1863 0 
L 1184 0 
L 269 3500 
z
" transform="scale(0.015625)"/>
      <path id="DejaVuSans-65" d="M 3597 1894 
L 3597 1613 
L 953 1613 
Q 991 1019 1311 708 
Q 1631 397 2203 397 
Q 2534 397 2845 478 
Q 3156 559 3463 722 
L 3463 178 
Q 3153 47 2828 -22 
Q 2503 -91 2169 -91 
Q 1331 -91 842 396 
Q 353 884 353 1716 
Q 353 2575 817 3079 
Q 1281 3584 2069 3584 
Q 2775 3584 3186 3129 
Q 3597 2675 3597 1894 
z
M 3022 2063 
Q 3016 2534 2758 2815 
Q 2500 3097 2075 3097 
Q 1594 3097 1305 2825 
Q 1016 2553 972 2059 
L 3022 2063 
z
" transform="scale(0.015625)"/>
      <path id="DejaVuSans-72" d="M 2631 2963 
Q 2534 3019 2420 3045 
Q 2306 3072 2169 3072 
Q 1681 3072 1420 2755 
Q 1159 2438 1159 1844 
L 1159 0 
L 581 0 
L 581 3500 
L 1159 3500 
L 1159 2956 
Q 1341 3275 1631 3429 
Q 1922 3584 2338 3584 
Q 2397 3584 2469 3576 
Q 2541 3569 2628 3553 
L 2631 2963 
z
" transform="scale(0.015625)"/>
      <path id="DejaVuSans-2d" d="M 313 2009 
L 1997 2009 
L 1997 1497 
L 313 1497 
L 313 2009 
z
" transform="scale(0.015625)"/>
      <path id="DejaVuSans-41" d="M 2188 4044 
L 1331 1722 
L 3047 1722 
L 2188 4044 
z
M 1831 4666 
L 2547 4666 
L 4325 0 
L 3669 0 
L 3244 1197 
L 1141 1197 
L 716 0 
L 50 0 
L 1831 4666 
z
" transform="scale(0.015625)"/>
      <path id="DejaVuSans-4d" d="M 628 4666 
L 1569 4666 
L 2759 1491 
L 3956 4666 
L 4897 4666 
L 4897 0 
L 4281 0 
L 4281 4097 
L 3078 897 
L 2444 897 
L 1241 4097 
L 1241 0 
L 628 0 
L 628 4666 
z
" transform="scale(0.015625)"/>
      <path id="DejaVuSans-20" transform="scale(0.015625)"/>
      <path id="DejaVuSans-70" d="M 1159 525 
L 1159 -1331 
L 581 -1331 
L 581 3500 
L 1159 3500 
L 1159 2969 
Q 1341 3281 1617 3432 
Q 1894 3584 2278 3584 
Q 2916 3584 3314 3078 
Q 3713 2572 3713 1747 
Q 3713 922 3314 415 
Q 2916 -91 2278 -91 
Q 1894 -91 1617 61 
Q 1341 213 1159 525 
z
M 3116 1747 
Q 3116 2381 2855 2742 
Q 2594 3103 2138 3103 
Q 1681 3103 1420 2742 
Q 1159 2381 1159 1747 
Q 1159 1113 1420 752 
Q 1681 391 2138 391 
Q 2594 391 2855 752 
Q 3116 1113 3116 1747 
z
" transform="scale(0.015625)"/>
      <path id="DejaVuSans-69" d="M 603 3500 
L 1178 3500 
L 1178 0 
L 603 0 
L 603 3500 
z
M 603 4863 
L 1178 4863 
L 1178 4134 
L 603 4134 
L 603 4863 
z
" transform="scale(0.015625)"/>
      <path id="DejaVuSans-6d" d="M 3328 2828 
Q 3544 3216 3844 3400 
Q 4144 3584 4550 3584 
Q 5097 3584 5394 3201 
Q 5691 2819 5691 2113 
L 5691 0 
L 5113 0 
L 5113 2094 
Q 5113 2597 4934 2840 
Q 4756 3084 4391 3084 
Q 3944 3084 3684 2787 
Q 3425 2491 3425 1978 
L 3425 0 
L 2847 0 
L 2847 2094 
Q 2847 2600 2669 2842 
Q 2491 3084 2119 3084 
Q 1678 3084 1418 2786 
Q 1159 2488 1159 1978 
L 1159 0 
L 581 0 
L 581 3500 
L 1159 3500 
L 1159 2956 
Q 1356 3278 1631 3431 
Q 1906 3584 2284 3584 
Q 2666 3584 2933 3390 
Q 3200 3197 3328 2828 
z
" transform="scale(0.015625)"/>
      <path id="DejaVuSans-74" d="M 1172 4494 
L 1172 3500 
L 2356 3500 
L 2356 3053 
L 1172 3053 
L 1172 1153 
Q 1172 725 1289 603 
Q 1406 481 1766 481 
L 2356 481 
L 2356 0 
L 1766 0 
Q 1100 0 847 248 
Q 594 497 594 1153 
L 594 3053 
L 172 3053 
L 172 3500 
L 594 3500 
L 594 4494 
L 1172 4494 
z
" transform="scale(0.015625)"/>
      <path id="DejaVuSans-76" d="M 191 3500 
L 800 3500 
L 1894 563 
L 2988 3500 
L 3597 3500 
L 2284 0 
L 1503 0 
L 191 3500 
z
" transform="scale(0.015625)"/>
      <path id="DejaVuSans-73" d="M 2834 3397 
L 2834 2853 
Q 2591 2978 2328 3040 
Q 2066 3103 1784 3103 
Q 1356 3103 1142 2972 
Q 928 2841 928 2578 
Q 928 2378 1081 2264 
Q 1234 2150 1697 2047 
L 1894 2003 
Q 2506 1872 2764 1633 
Q 3022 1394 3022 966 
Q 3022 478 2636 193 
Q 2250 -91 1575 -91 
Q 1294 -91 989 -36 
Q 684 19 347 128 
L 347 722 
Q 666 556 975 473 
Q 1284 391 1588 391 
Q 1994 391 2212 530 
Q 2431 669 2431 922 
Q 2431 1156 2273 1281 
Q 2116 1406 1581 1522 
L 1381 1569 
Q 847 1681 609 1914 
Q 372 2147 372 2553 
Q 372 3047 722 3315 
Q 1072 3584 1716 3584 
Q 2034 3584 2315 3537 
Q 2597 3491 2834 3397 
z
" transform="scale(0.015625)"/>
      <path id="DejaVuSans-61" d="M 2194 1759 
Q 1497 1759 1228 1600 
Q 959 1441 959 1056 
Q 959 750 1161 570 
Q 1363 391 1709 391 
Q 2188 391 2477 730 
Q 2766 1069 2766 1631 
L 2766 1759 
L 2194 1759 
z
M 3341 1997 
L 3341 0 
L 2766 0 
L 2766 531 
Q 2569 213 2275 61 
Q 1981 -91 1556 -91 
Q 1019 -91 701 211 
Q 384 513 384 1019 
Q 384 1609 779 1909 
Q 1175 2209 1959 2209 
L 2766 2209 
L 2766 2266 
Q 2766 2663 2505 2880 
Q 2244 3097 1772 3097 
Q 1472 3097 1187 3025 
Q 903 2953 641 2809 
L 641 3341 
Q 956 3463 1253 3523 
Q 1550 3584 1831 3584 
Q 2591 3584 2966 3190 
Q 3341 2797 3341 1997 
z
" transform="scale(0.015625)"/>
      <path id="DejaVuSans-63" d="M 3122 3366 
L 3122 2828 
Q 2878 2963 2633 3030 
Q 2388 3097 2138 3097 
Q 1578 3097 1268 2742 
Q 959 2388 959 1747 
Q 959 1106 1268 751 
Q 1578 397 2138 397 
Q 2388 397 2633 464 
Q 2878 531 3122 666 
L 3122 134 
Q 2881 22 2623 -34 
Q 2366 -91 2075 -91 
Q 1284 -91 818 406 
Q 353 903 353 1747 
Q 353 2603 823 3093 
Q 1294 3584 2113 3584 
Q 2378 3584 2631 3529 
Q 2884 3475 3122 3366 
z
" transform="scale(0.015625)"/>
      <path id="DejaVuSans-6e" d="M 3513 2113 
L 3513 0 
L 2938 0 
L 2938 2094 
Q 2938 2591 2744 2837 
Q 2550 3084 2163 3084 
Q 1697 3084 1428 2787 
Q 1159 2491 1159 1978 
L 1159 0 
L 581 0 
L 581 3500 
L 1159 3500 
L 1159 2956 
Q 1366 3272 1645 3428 
Q 1925 3584 2291 3584 
Q 2894 3584 3203 3211 
Q 3513 2838 3513 2113 
z
" transform="scale(0.015625)"/>
      <path id="DejaVuSans-67" d="M 2906 1791 
Q 2906 2416 2648 2759 
Q 2391 3103 1925 3103 
Q 1463 3103 1205 2759 
Q 947 2416 947 1791 
Q 947 1169 1205 825 
Q 1463 481 1925 481 
Q 2391 481 2648 825 
Q 2906 1169 2906 1791 
z
M 3481 434 
Q 3481 -459 3084 -895 
Q 2688 -1331 1869 -1331 
Q 1566 -1331 1297 -1286 
Q 1028 -1241 775 -1147 
L 775 -588 
Q 1028 -725 1275 -790 
Q 1522 -856 1778 -856 
Q 2344 -856 2625 -561 
Q 2906 -266 2906 331 
L 2906 616 
Q 2728 306 2450 153 
Q 2172 0 1784 0 
Q 1141 0 747 490 
Q 353 981 353 1791 
Q 353 2603 747 3093 
Q 1141 3584 1784 3584 
Q 2172 3584 2450 3431 
Q 2728 3278 2906 2969 
L 2906 3500 
L 3481 3500 
L 3481 434 
z
" transform="scale(0.015625)"/>
     </defs>
     <use xlink:href="#DejaVuSans-53"/>
     <use xlink:href="#DejaVuSans-68" transform="translate(63.476562 0)"/>
     <use xlink:href="#DejaVuSans-6f" transform="translate(126.855469 0)"/>
     <use xlink:href="#DejaVuSans-77" transform="translate(188.037109 0)"/>
     <use xlink:href="#DejaVuSans-65" transform="translate(269.824219 0)"/>
     <use xlink:href="#DejaVuSans-72" transform="translate(331.347656 0)"/>
     <use xlink:href="#DejaVuSans-2d" transform="translate(366.085938 0)"/>
     <use xlink:href="#DejaVuSans-41" transform="translate(399.919922 0)"/>
     <use xlink:href="#DejaVuSans-4d" transform="translate(468.328125 0)"/>
     <use xlink:href="#DejaVuSans-20" transform="translate(554.607422 0)"/>
     <use xlink:href="#DejaVuSans-70" transform="translate(586.394531 0)"/>
     <use xlink:href="#DejaVuSans-72" transform="translate(649.871094 0)"/>
     <use xlink:href="#DejaVuSans-69" transform="translate(690.984375 0)"/>
     <use xlink:href="#DejaVuSans-6d" transform="translate(718.767578 0)"/>
     <use xlink:href="#DejaVuSans-69" transform="translate(816.179688 0)"/>
     <use xlink:href="#DejaVuSans-74" transform="translate(843.962891 0)"/>
     <use xlink:href="#DejaVuSans-69" transform="translate(883.171875 0)"/>
     <use xlink:href="#DejaVuSans-76" transform="translate(910.955078 0)"/>
     <use xlink:href="#DejaVuSans-65" transform="translate(970.134766 0)"/>
     <use xlink:href="#DejaVuSans-73" transform="translate(1031.658203 0)"/>
     <use xlink:href="#DejaVuSans-20" transform="translate(1083.757812 0)"/>
     <use xlink:href="#DejaVuSans-6d" transform="translate(1115.544922 0)"/>
     <use xlink:href="#DejaVuSans-61" transform="translate(1212.957031 0)"/>
     <use xlink:href="#DejaVuSans-74" transform="translate(1274.236328 0)"/>
     <use xlink:href="#DejaVuSans-63" transform="translate(1313.445312 0)"/>
     <use xlink:href="#DejaVuSans-68" transform="translate(1368.425781 0)"/>
     <use xlink:href="#DejaVuSans-69" transform="translate(1431.804688 0)"/>
     <use xlink:href="#DejaVuSans-6e" transform="translate(1459.587891 0)"/>
     <use xlink:href="#DejaVuSans-67" transform="translate(1522.966797 0)"/>
    </g>
   </g>
   <g id="legend_1">
    <g id="patch_16">
     <path d="M 464.78 358.04375 
L 708.82375 358.04375 
Q 710.82375 358.04375 710.82375 356.04375 
L 710.82375 151.55 
Q 710.82375 149.55 708.82375 149.55 
L 464.78 149.55 
Q 462.78 149.55 462.78 151.55 
L 462.78 356.04375 
Q 462.78 358.04375 464.78 358.04375 
z
" style="fill: #ffffff; opacity: 0.8; stroke: #cccccc; stroke-linejoin: miter"/>
    </g>
    <g id="patch_17">
     <path d="M 466.78 161.148437 
L 486.78 161.148437 
L 486.78 154.148437 
L 466.78 154.148437 
z
" style="fill: #0088e3; stroke: #ffffff; stroke-linejoin: miter"/>
    </g>
    <g id="text_16">
     <!-- True Positive showers (TPS) -->
     <g transform="translate(494.78 161.148437) scale(0.1 -0.1)">
      <defs>
       <path id="DejaVuSans-54" d="M -19 4666 
L 3928 4666 
L 3928 4134 
L 2272 4134 
L 2272 0 
L 1638 0 
L 1638 4134 
L -19 4134 
L -19 4666 
z
" transform="scale(0.015625)"/>
       <path id="DejaVuSans-75" d="M 544 1381 
L 544 3500 
L 1119 3500 
L 1119 1403 
Q 1119 906 1312 657 
Q 1506 409 1894 409 
Q 2359 409 2629 706 
Q 2900 1003 2900 1516 
L 2900 3500 
L 3475 3500 
L 3475 0 
L 2900 0 
L 2900 538 
Q 2691 219 2414 64 
Q 2138 -91 1772 -91 
Q 1169 -91 856 284 
Q 544 659 544 1381 
z
M 1991 3584 
L 1991 3584 
z
" transform="scale(0.015625)"/>
       <path id="DejaVuSans-50" d="M 1259 4147 
L 1259 2394 
L 2053 2394 
Q 2494 2394 2734 2622 
Q 2975 2850 2975 3272 
Q 2975 3691 2734 3919 
Q 2494 4147 2053 4147 
L 1259 4147 
z
M 628 4666 
L 2053 4666 
Q 2838 4666 3239 4311 
Q 3641 3956 3641 3272 
Q 3641 2581 3239 2228 
Q 2838 1875 2053 1875 
L 1259 1875 
L 1259 0 
L 628 0 
L 628 4666 
z
" transform="scale(0.015625)"/>
       <path id="DejaVuSans-28" d="M 1984 4856 
Q 1566 4138 1362 3434 
Q 1159 2731 1159 2009 
Q 1159 1288 1364 580 
Q 1569 -128 1984 -844 
L 1484 -844 
Q 1016 -109 783 600 
Q 550 1309 550 2009 
Q 550 2706 781 3412 
Q 1013 4119 1484 4856 
L 1984 4856 
z
" transform="scale(0.015625)"/>
       <path id="DejaVuSans-29" d="M 513 4856 
L 1013 4856 
Q 1481 4119 1714 3412 
Q 1947 2706 1947 2009 
Q 1947 1309 1714 600 
Q 1481 -109 1013 -844 
L 513 -844 
Q 928 -128 1133 580 
Q 1338 1288 1338 2009 
Q 1338 2731 1133 3434 
Q 928 4138 513 4856 
z
" transform="scale(0.015625)"/>
      </defs>
      <use xlink:href="#DejaVuSans-54"/>
      <use xlink:href="#DejaVuSans-72" transform="translate(46.333984 0)"/>
      <use xlink:href="#DejaVuSans-75" transform="translate(87.447266 0)"/>
      <use xlink:href="#DejaVuSans-65" transform="translate(150.826172 0)"/>
      <use xlink:href="#DejaVuSans-20" transform="translate(212.349609 0)"/>
      <use xlink:href="#DejaVuSans-50" transform="translate(244.136719 0)"/>
      <use xlink:href="#DejaVuSans-6f" transform="translate(300.814453 0)"/>
      <use xlink:href="#DejaVuSans-73" transform="translate(361.996094 0)"/>
      <use xlink:href="#DejaVuSans-69" transform="translate(414.095703 0)"/>
      <use xlink:href="#DejaVuSans-74" transform="translate(441.878906 0)"/>
      <use xlink:href="#DejaVuSans-69" transform="translate(481.087891 0)"/>
      <use xlink:href="#DejaVuSans-76" transform="translate(508.871094 0)"/>
      <use xlink:href="#DejaVuSans-65" transform="translate(568.050781 0)"/>
      <use xlink:href="#DejaVuSans-20" transform="translate(629.574219 0)"/>
      <use xlink:href="#DejaVuSans-73" transform="translate(661.361328 0)"/>
      <use xlink:href="#DejaVuSans-68" transform="translate(713.460938 0)"/>
      <use xlink:href="#DejaVuSans-6f" transform="translate(776.839844 0)"/>
      <use xlink:href="#DejaVuSans-77" transform="translate(838.021484 0)"/>
      <use xlink:href="#DejaVuSans-65" transform="translate(919.808594 0)"/>
      <use xlink:href="#DejaVuSans-72" transform="translate(981.332031 0)"/>
      <use xlink:href="#DejaVuSans-73" transform="translate(1022.445312 0)"/>
      <use xlink:href="#DejaVuSans-20" transform="translate(1074.544922 0)"/>
      <use xlink:href="#DejaVuSans-28" transform="translate(1106.332031 0)"/>
      <use xlink:href="#DejaVuSans-54" transform="translate(1145.345703 0)"/>
      <use xlink:href="#DejaVuSans-50" transform="translate(1206.429688 0)"/>
      <use xlink:href="#DejaVuSans-53" transform="translate(1266.732422 0)"/>
      <use xlink:href="#DejaVuSans-29" transform="translate(1330.208984 0)"/>
     </g>
    </g>
    <g id="patch_18">
     <path d="M 466.78 175.826562 
L 486.78 175.826562 
L 486.78 168.826562 
L 466.78 168.826562 
z
" style="fill: #e77515; stroke: #ffffff; stroke-linejoin: miter"/>
    </g>
    <g id="text_17">
     <!-- False Positive showers (FPS) -->
     <g transform="translate(494.78 175.826562) scale(0.1 -0.1)">
      <defs>
       <path id="DejaVuSans-46" d="M 628 4666 
L 3309 4666 
L 3309 4134 
L 1259 4134 
L 1259 2759 
L 3109 2759 
L 3109 2228 
L 1259 2228 
L 1259 0 
L 628 0 
L 628 4666 
z
" transform="scale(0.015625)"/>
       <path id="DejaVuSans-6c" d="M 603 4863 
L 1178 4863 
L 1178 0 
L 603 0 
L 603 4863 
z
" transform="scale(0.015625)"/>
      </defs>
      <use xlink:href="#DejaVuSans-46"/>
      <use xlink:href="#DejaVuSans-61" transform="translate(48.394531 0)"/>
      <use xlink:href="#DejaVuSans-6c" transform="translate(109.673828 0)"/>
      <use xlink:href="#DejaVuSans-73" transform="translate(137.457031 0)"/>
      <use xlink:href="#DejaVuSans-65" transform="translate(189.556641 0)"/>
      <use xlink:href="#DejaVuSans-20" transform="translate(251.080078 0)"/>
      <use xlink:href="#DejaVuSans-50" transform="translate(282.867188 0)"/>
      <use xlink:href="#DejaVuSans-6f" transform="translate(339.544922 0)"/>
      <use xlink:href="#DejaVuSans-73" transform="translate(400.726562 0)"/>
      <use xlink:href="#DejaVuSans-69" transform="translate(452.826172 0)"/>
      <use xlink:href="#DejaVuSans-74" transform="translate(480.609375 0)"/>
      <use xlink:href="#DejaVuSans-69" transform="translate(519.818359 0)"/>
      <use xlink:href="#DejaVuSans-76" transform="translate(547.601562 0)"/>
      <use xlink:href="#DejaVuSans-65" transform="translate(606.78125 0)"/>
      <use xlink:href="#DejaVuSans-20" transform="translate(668.304688 0)"/>
      <use xlink:href="#DejaVuSans-73" transform="translate(700.091797 0)"/>
      <use xlink:href="#DejaVuSans-68" transform="translate(752.191406 0)"/>
      <use xlink:href="#DejaVuSans-6f" transform="translate(815.570312 0)"/>
      <use xlink:href="#DejaVuSans-77" transform="translate(876.751953 0)"/>
      <use xlink:href="#DejaVuSans-65" transform="translate(958.539062 0)"/>
      <use xlink:href="#DejaVuSans-72" transform="translate(1020.0625 0)"/>
      <use xlink:href="#DejaVuSans-73" transform="translate(1061.175781 0)"/>
      <use xlink:href="#DejaVuSans-20" transform="translate(1113.275391 0)"/>
      <use xlink:href="#DejaVuSans-28" transform="translate(1145.0625 0)"/>
      <use xlink:href="#DejaVuSans-46" transform="translate(1184.076172 0)"/>
      <use xlink:href="#DejaVuSans-50" transform="translate(1241.595703 0)"/>
      <use xlink:href="#DejaVuSans-53" transform="translate(1301.898438 0)"/>
      <use xlink:href="#DejaVuSans-29" transform="translate(1365.375 0)"/>
     </g>
    </g>
    <g id="patch_19">
     <path d="M 466.78 190.504687 
L 486.78 190.504687 
L 486.78 183.504687 
L 466.78 183.504687 
z
" style="fill: #2196f3; stroke: #ffffff; stroke-linejoin: miter"/>
    </g>
    <g id="text_18">
     <!-- TPS that match an AM TP -->
     <g transform="translate(494.78 190.504687) scale(0.1 -0.1)">
      <use xlink:href="#DejaVuSans-54"/>
      <use xlink:href="#DejaVuSans-50" transform="translate(61.083984 0)"/>
      <use xlink:href="#DejaVuSans-53" transform="translate(121.386719 0)"/>
      <use xlink:href="#DejaVuSans-20" transform="translate(184.863281 0)"/>
      <use xlink:href="#DejaVuSans-74" transform="translate(216.650391 0)"/>
      <use xlink:href="#DejaVuSans-68" transform="translate(255.859375 0)"/>
      <use xlink:href="#DejaVuSans-61" transform="translate(319.238281 0)"/>
      <use xlink:href="#DejaVuSans-74" transform="translate(380.517578 0)"/>
      <use xlink:href="#DejaVuSans-20" transform="translate(419.726562 0)"/>
      <use xlink:href="#DejaVuSans-6d" transform="translate(451.513672 0)"/>
      <use xlink:href="#DejaVuSans-61" transform="translate(548.925781 0)"/>
      <use xlink:href="#DejaVuSans-74" transform="translate(610.205078 0)"/>
      <use xlink:href="#DejaVuSans-63" transform="translate(649.414062 0)"/>
      <use xlink:href="#DejaVuSans-68" transform="translate(704.394531 0)"/>
      <use xlink:href="#DejaVuSans-20" transform="translate(767.773438 0)"/>
      <use xlink:href="#DejaVuSans-61" transform="translate(799.560547 0)"/>
      <use xlink:href="#DejaVuSans-6e" transform="translate(860.839844 0)"/>
      <use xlink:href="#DejaVuSans-20" transform="translate(924.21875 0)"/>
      <use xlink:href="#DejaVuSans-41" transform="translate(956.005859 0)"/>
      <use xlink:href="#DejaVuSans-4d" transform="translate(1024.414062 0)"/>
      <use xlink:href="#DejaVuSans-20" transform="translate(1110.693359 0)"/>
      <use xlink:href="#DejaVuSans-54" transform="translate(1142.480469 0)"/>
      <use xlink:href="#DejaVuSans-50" transform="translate(1203.564453 0)"/>
     </g>
    </g>
    <g id="patch_20">
     <path d="M 466.78 205.182812 
L 486.78 205.182812 
L 486.78 198.182812 
L 466.78 198.182812 
z
" style="fill: #7cc1fa; stroke: #ffffff; stroke-linejoin: miter"/>
    </g>
    <g id="text_19">
     <!-- TPS don't match to AM TP -->
     <g transform="translate(494.78 205.182812) scale(0.1 -0.1)">
      <defs>
       <path id="DejaVuSans-64" d="M 2906 2969 
L 2906 4863 
L 3481 4863 
L 3481 0 
L 2906 0 
L 2906 525 
Q 2725 213 2448 61 
Q 2172 -91 1784 -91 
Q 1150 -91 751 415 
Q 353 922 353 1747 
Q 353 2572 751 3078 
Q 1150 3584 1784 3584 
Q 2172 3584 2448 3432 
Q 2725 3281 2906 2969 
z
M 947 1747 
Q 947 1113 1208 752 
Q 1469 391 1925 391 
Q 2381 391 2643 752 
Q 2906 1113 2906 1747 
Q 2906 2381 2643 2742 
Q 2381 3103 1925 3103 
Q 1469 3103 1208 2742 
Q 947 2381 947 1747 
z
" transform="scale(0.015625)"/>
       <path id="DejaVuSans-27" d="M 1147 4666 
L 1147 2931 
L 616 2931 
L 616 4666 
L 1147 4666 
z
" transform="scale(0.015625)"/>
      </defs>
      <use xlink:href="#DejaVuSans-54"/>
      <use xlink:href="#DejaVuSans-50" transform="translate(61.083984 0)"/>
      <use xlink:href="#DejaVuSans-53" transform="translate(121.386719 0)"/>
      <use xlink:href="#DejaVuSans-20" transform="translate(184.863281 0)"/>
      <use xlink:href="#DejaVuSans-64" transform="translate(216.650391 0)"/>
      <use xlink:href="#DejaVuSans-6f" transform="translate(280.126953 0)"/>
      <use xlink:href="#DejaVuSans-6e" transform="translate(341.308594 0)"/>
      <use xlink:href="#DejaVuSans-27" transform="translate(404.6875 0)"/>
      <use xlink:href="#DejaVuSans-74" transform="translate(432.177734 0)"/>
      <use xlink:href="#DejaVuSans-20" transform="translate(471.386719 0)"/>
      <use xlink:href="#DejaVuSans-6d" transform="translate(503.173828 0)"/>
      <use xlink:href="#DejaVuSans-61" transform="translate(600.585938 0)"/>
      <use xlink:href="#DejaVuSans-74" transform="translate(661.865234 0)"/>
      <use xlink:href="#DejaVuSans-63" transform="translate(701.074219 0)"/>
      <use xlink:href="#DejaVuSans-68" transform="translate(756.054688 0)"/>
      <use xlink:href="#DejaVuSans-20" transform="translate(819.433594 0)"/>
      <use xlink:href="#DejaVuSans-74" transform="translate(851.220703 0)"/>
      <use xlink:href="#DejaVuSans-6f" transform="translate(890.429688 0)"/>
      <use xlink:href="#DejaVuSans-20" transform="translate(951.611328 0)"/>
      <use xlink:href="#DejaVuSans-41" transform="translate(983.398438 0)"/>
      <use xlink:href="#DejaVuSans-4d" transform="translate(1051.806641 0)"/>
      <use xlink:href="#DejaVuSans-20" transform="translate(1138.085938 0)"/>
      <use xlink:href="#DejaVuSans-54" transform="translate(1169.873047 0)"/>
      <use xlink:href="#DejaVuSans-50" transform="translate(1230.957031 0)"/>
     </g>
    </g>
    <g id="patch_21">
     <path d="M 466.78 219.860937 
L 486.78 219.860937 
L 486.78 212.860937 
L 466.78 212.860937 
z
" style="fill: #ff963b; stroke: #ffffff; stroke-linejoin: miter"/>
    </g>
    <g id="text_20">
     <!-- FPS that match an AM TP -->
     <g transform="translate(494.78 219.860937) scale(0.1 -0.1)">
      <use xlink:href="#DejaVuSans-46"/>
      <use xlink:href="#DejaVuSans-50" transform="translate(57.519531 0)"/>
      <use xlink:href="#DejaVuSans-53" transform="translate(117.822266 0)"/>
      <use xlink:href="#DejaVuSans-20" transform="translate(181.298828 0)"/>
      <use xlink:href="#DejaVuSans-74" transform="translate(213.085938 0)"/>
      <use xlink:href="#DejaVuSans-68" transform="translate(252.294922 0)"/>
      <use xlink:href="#DejaVuSans-61" transform="translate(315.673828 0)"/>
      <use xlink:href="#DejaVuSans-74" transform="translate(376.953125 0)"/>
      <use xlink:href="#DejaVuSans-20" transform="translate(416.162109 0)"/>
      <use xlink:href="#DejaVuSans-6d" transform="translate(447.949219 0)"/>
      <use xlink:href="#DejaVuSans-61" transform="translate(545.361328 0)"/>
      <use xlink:href="#DejaVuSans-74" transform="translate(606.640625 0)"/>
      <use xlink:href="#DejaVuSans-63" transform="translate(645.849609 0)"/>
      <use xlink:href="#DejaVuSans-68" transform="translate(700.830078 0)"/>
      <use xlink:href="#DejaVuSans-20" transform="translate(764.208984 0)"/>
      <use xlink:href="#DejaVuSans-61" transform="translate(795.996094 0)"/>
      <use xlink:href="#DejaVuSans-6e" transform="translate(857.275391 0)"/>
      <use xlink:href="#DejaVuSans-20" transform="translate(920.654297 0)"/>
      <use xlink:href="#DejaVuSans-41" transform="translate(952.441406 0)"/>
      <use xlink:href="#DejaVuSans-4d" transform="translate(1020.849609 0)"/>
      <use xlink:href="#DejaVuSans-20" transform="translate(1107.128906 0)"/>
      <use xlink:href="#DejaVuSans-54" transform="translate(1138.916016 0)"/>
      <use xlink:href="#DejaVuSans-50" transform="translate(1200 0)"/>
     </g>
    </g>
    <g id="patch_22">
     <path d="M 466.78 234.539062 
L 486.78 234.539062 
L 486.78 227.539062 
L 466.78 227.539062 
z
" style="fill: #faba81; stroke: #ffffff; stroke-linejoin: miter"/>
    </g>
    <g id="text_21">
     <!-- FPS don't match to AM TP -->
     <g transform="translate(494.78 234.539062) scale(0.1 -0.1)">
      <use xlink:href="#DejaVuSans-46"/>
      <use xlink:href="#DejaVuSans-50" transform="translate(57.519531 0)"/>
      <use xlink:href="#DejaVuSans-53" transform="translate(117.822266 0)"/>
      <use xlink:href="#DejaVuSans-20" transform="translate(181.298828 0)"/>
      <use xlink:href="#DejaVuSans-64" transform="translate(213.085938 0)"/>
      <use xlink:href="#DejaVuSans-6f" transform="translate(276.5625 0)"/>
      <use xlink:href="#DejaVuSans-6e" transform="translate(337.744141 0)"/>
      <use xlink:href="#DejaVuSans-27" transform="translate(401.123047 0)"/>
      <use xlink:href="#DejaVuSans-74" transform="translate(428.613281 0)"/>
      <use xlink:href="#DejaVuSans-20" transform="translate(467.822266 0)"/>
      <use xlink:href="#DejaVuSans-6d" transform="translate(499.609375 0)"/>
      <use xlink:href="#DejaVuSans-61" transform="translate(597.021484 0)"/>
      <use xlink:href="#DejaVuSans-74" transform="translate(658.300781 0)"/>
      <use xlink:href="#DejaVuSans-63" transform="translate(697.509766 0)"/>
      <use xlink:href="#DejaVuSans-68" transform="translate(752.490234 0)"/>
      <use xlink:href="#DejaVuSans-20" transform="translate(815.869141 0)"/>
      <use xlink:href="#DejaVuSans-74" transform="translate(847.65625 0)"/>
      <use xlink:href="#DejaVuSans-6f" transform="translate(886.865234 0)"/>
      <use xlink:href="#DejaVuSans-20" transform="translate(948.046875 0)"/>
      <use xlink:href="#DejaVuSans-41" transform="translate(979.833984 0)"/>
      <use xlink:href="#DejaVuSans-4d" transform="translate(1048.242188 0)"/>
      <use xlink:href="#DejaVuSans-20" transform="translate(1134.521484 0)"/>
      <use xlink:href="#DejaVuSans-54" transform="translate(1166.308594 0)"/>
      <use xlink:href="#DejaVuSans-50" transform="translate(1227.392578 0)"/>
     </g>
    </g>
    <g id="patch_23">
     <path d="M 466.78 249.217187 
L 486.78 249.217187 
L 486.78 242.217187 
L 466.78 242.217187 
z
" style="fill: #008a1a; stroke: #ffffff; stroke-linejoin: miter"/>
    </g>
    <g id="text_22">
     <!-- TPS that mathc AM TP and are highpt -->
     <g transform="translate(494.78 249.217187) scale(0.1 -0.1)">
      <use xlink:href="#DejaVuSans-54"/>
      <use xlink:href="#DejaVuSans-50" transform="translate(61.083984 0)"/>
      <use xlink:href="#DejaVuSans-53" transform="translate(121.386719 0)"/>
      <use xlink:href="#DejaVuSans-20" transform="translate(184.863281 0)"/>
      <use xlink:href="#DejaVuSans-74" transform="translate(216.650391 0)"/>
      <use xlink:href="#DejaVuSans-68" transform="translate(255.859375 0)"/>
      <use xlink:href="#DejaVuSans-61" transform="translate(319.238281 0)"/>
      <use xlink:href="#DejaVuSans-74" transform="translate(380.517578 0)"/>
      <use xlink:href="#DejaVuSans-20" transform="translate(419.726562 0)"/>
      <use xlink:href="#DejaVuSans-6d" transform="translate(451.513672 0)"/>
      <use xlink:href="#DejaVuSans-61" transform="translate(548.925781 0)"/>
      <use xlink:href="#DejaVuSans-74" transform="translate(610.205078 0)"/>
      <use xlink:href="#DejaVuSans-68" transform="translate(649.414062 0)"/>
      <use xlink:href="#DejaVuSans-63" transform="translate(712.792969 0)"/>
      <use xlink:href="#DejaVuSans-20" transform="translate(767.773438 0)"/>
      <use xlink:href="#DejaVuSans-41" transform="translate(799.560547 0)"/>
      <use xlink:href="#DejaVuSans-4d" transform="translate(867.96875 0)"/>
      <use xlink:href="#DejaVuSans-20" transform="translate(954.248047 0)"/>
      <use xlink:href="#DejaVuSans-54" transform="translate(986.035156 0)"/>
      <use xlink:href="#DejaVuSans-50" transform="translate(1047.119141 0)"/>
      <use xlink:href="#DejaVuSans-20" transform="translate(1107.421875 0)"/>
      <use xlink:href="#DejaVuSans-61" transform="translate(1139.208984 0)"/>
      <use xlink:href="#DejaVuSans-6e" transform="translate(1200.488281 0)"/>
      <use xlink:href="#DejaVuSans-64" transform="translate(1263.867188 0)"/>
      <use xlink:href="#DejaVuSans-20" transform="translate(1327.34375 0)"/>
      <use xlink:href="#DejaVuSans-61" transform="translate(1359.130859 0)"/>
      <use xlink:href="#DejaVuSans-72" transform="translate(1420.410156 0)"/>
      <use xlink:href="#DejaVuSans-65" transform="translate(1459.273438 0)"/>
      <use xlink:href="#DejaVuSans-20" transform="translate(1520.796875 0)"/>
      <use xlink:href="#DejaVuSans-68" transform="translate(1552.583984 0)"/>
      <use xlink:href="#DejaVuSans-69" transform="translate(1615.962891 0)"/>
      <use xlink:href="#DejaVuSans-67" transform="translate(1643.746094 0)"/>
      <use xlink:href="#DejaVuSans-68" transform="translate(1707.222656 0)"/>
      <use xlink:href="#DejaVuSans-70" transform="translate(1770.601562 0)"/>
      <use xlink:href="#DejaVuSans-74" transform="translate(1834.078125 0)"/>
     </g>
    </g>
    <g id="patch_24">
     <path d="M 466.78 263.895312 
L 486.78 263.895312 
L 486.78 256.895312 
L 466.78 256.895312 
z
" style="fill: #8dc998; stroke: #ffffff; stroke-linejoin: miter"/>
    </g>
    <g id="text_23">
     <!-- TPS that mathc AM TP and are not highpt -->
     <g transform="translate(494.78 263.895312) scale(0.1 -0.1)">
      <use xlink:href="#DejaVuSans-54"/>
      <use xlink:href="#DejaVuSans-50" transform="translate(61.083984 0)"/>
      <use xlink:href="#DejaVuSans-53" transform="translate(121.386719 0)"/>
      <use xlink:href="#DejaVuSans-20" transform="translate(184.863281 0)"/>
      <use xlink:href="#DejaVuSans-74" transform="translate(216.650391 0)"/>
      <use xlink:href="#DejaVuSans-68" transform="translate(255.859375 0)"/>
      <use xlink:href="#DejaVuSans-61" transform="translate(319.238281 0)"/>
      <use xlink:href="#DejaVuSans-74" transform="translate(380.517578 0)"/>
      <use xlink:href="#DejaVuSans-20" transform="translate(419.726562 0)"/>
      <use xlink:href="#DejaVuSans-6d" transform="translate(451.513672 0)"/>
      <use xlink:href="#DejaVuSans-61" transform="translate(548.925781 0)"/>
      <use xlink:href="#DejaVuSans-74" transform="translate(610.205078 0)"/>
      <use xlink:href="#DejaVuSans-68" transform="translate(649.414062 0)"/>
      <use xlink:href="#DejaVuSans-63" transform="translate(712.792969 0)"/>
      <use xlink:href="#DejaVuSans-20" transform="translate(767.773438 0)"/>
      <use xlink:href="#DejaVuSans-41" transform="translate(799.560547 0)"/>
      <use xlink:href="#DejaVuSans-4d" transform="translate(867.96875 0)"/>
      <use xlink:href="#DejaVuSans-20" transform="translate(954.248047 0)"/>
      <use xlink:href="#DejaVuSans-54" transform="translate(986.035156 0)"/>
      <use xlink:href="#DejaVuSans-50" transform="translate(1047.119141 0)"/>
      <use xlink:href="#DejaVuSans-20" transform="translate(1107.421875 0)"/>
      <use xlink:href="#DejaVuSans-61" transform="translate(1139.208984 0)"/>
      <use xlink:href="#DejaVuSans-6e" transform="translate(1200.488281 0)"/>
      <use xlink:href="#DejaVuSans-64" transform="translate(1263.867188 0)"/>
      <use xlink:href="#DejaVuSans-20" transform="translate(1327.34375 0)"/>
      <use xlink:href="#DejaVuSans-61" transform="translate(1359.130859 0)"/>
      <use xlink:href="#DejaVuSans-72" transform="translate(1420.410156 0)"/>
      <use xlink:href="#DejaVuSans-65" transform="translate(1459.273438 0)"/>
      <use xlink:href="#DejaVuSans-20" transform="translate(1520.796875 0)"/>
      <use xlink:href="#DejaVuSans-6e" transform="translate(1552.583984 0)"/>
      <use xlink:href="#DejaVuSans-6f" transform="translate(1615.962891 0)"/>
      <use xlink:href="#DejaVuSans-74" transform="translate(1677.144531 0)"/>
      <use xlink:href="#DejaVuSans-20" transform="translate(1716.353516 0)"/>
      <use xlink:href="#DejaVuSans-68" transform="translate(1748.140625 0)"/>
      <use xlink:href="#DejaVuSans-69" transform="translate(1811.519531 0)"/>
      <use xlink:href="#DejaVuSans-67" transform="translate(1839.302734 0)"/>
      <use xlink:href="#DejaVuSans-68" transform="translate(1902.779297 0)"/>
      <use xlink:href="#DejaVuSans-70" transform="translate(1966.158203 0)"/>
      <use xlink:href="#DejaVuSans-74" transform="translate(2029.634766 0)"/>
     </g>
    </g>
    <g id="patch_25">
     <path d="M 466.78 278.573437 
L 486.78 278.573437 
L 486.78 271.573437 
L 466.78 271.573437 
z
" style="fill: #008a1a; stroke: #ffffff; stroke-linejoin: miter"/>
    </g>
    <g id="text_24">
     <!-- TPS don't mathc AM TP and are highpt -->
     <g transform="translate(494.78 278.573437) scale(0.1 -0.1)">
      <use xlink:href="#DejaVuSans-54"/>
      <use xlink:href="#DejaVuSans-50" transform="translate(61.083984 0)"/>
      <use xlink:href="#DejaVuSans-53" transform="translate(121.386719 0)"/>
      <use xlink:href="#DejaVuSans-20" transform="translate(184.863281 0)"/>
      <use xlink:href="#DejaVuSans-64" transform="translate(216.650391 0)"/>
      <use xlink:href="#DejaVuSans-6f" transform="translate(280.126953 0)"/>
      <use xlink:href="#DejaVuSans-6e" transform="translate(341.308594 0)"/>
      <use xlink:href="#DejaVuSans-27" transform="translate(404.6875 0)"/>
      <use xlink:href="#DejaVuSans-74" transform="translate(432.177734 0)"/>
      <use xlink:href="#DejaVuSans-20" transform="translate(471.386719 0)"/>
      <use xlink:href="#DejaVuSans-6d" transform="translate(503.173828 0)"/>
      <use xlink:href="#DejaVuSans-61" transform="translate(600.585938 0)"/>
      <use xlink:href="#DejaVuSans-74" transform="translate(661.865234 0)"/>
      <use xlink:href="#DejaVuSans-68" transform="translate(701.074219 0)"/>
      <use xlink:href="#DejaVuSans-63" transform="translate(764.453125 0)"/>
      <use xlink:href="#DejaVuSans-20" transform="translate(819.433594 0)"/>
      <use xlink:href="#DejaVuSans-41" transform="translate(851.220703 0)"/>
      <use xlink:href="#DejaVuSans-4d" transform="translate(919.628906 0)"/>
      <use xlink:href="#DejaVuSans-20" transform="translate(1005.908203 0)"/>
      <use xlink:href="#DejaVuSans-54" transform="translate(1037.695312 0)"/>
      <use xlink:href="#DejaVuSans-50" transform="translate(1098.779297 0)"/>
      <use xlink:href="#DejaVuSans-20" transform="translate(1159.082031 0)"/>
      <use xlink:href="#DejaVuSans-61" transform="translate(1190.869141 0)"/>
      <use xlink:href="#DejaVuSans-6e" transform="translate(1252.148438 0)"/>
      <use xlink:href="#DejaVuSans-64" transform="translate(1315.527344 0)"/>
      <use xlink:href="#DejaVuSans-20" transform="translate(1379.003906 0)"/>
      <use xlink:href="#DejaVuSans-61" transform="translate(1410.791016 0)"/>
      <use xlink:href="#DejaVuSans-72" transform="translate(1472.070312 0)"/>
      <use xlink:href="#DejaVuSans-65" transform="translate(1510.933594 0)"/>
      <use xlink:href="#DejaVuSans-20" transform="translate(1572.457031 0)"/>
      <use xlink:href="#DejaVuSans-68" transform="translate(1604.244141 0)"/>
      <use xlink:href="#DejaVuSans-69" transform="translate(1667.623047 0)"/>
      <use xlink:href="#DejaVuSans-67" transform="translate(1695.40625 0)"/>
      <use xlink:href="#DejaVuSans-68" transform="translate(1758.882812 0)"/>
      <use xlink:href="#DejaVuSans-70" transform="translate(1822.261719 0)"/>
      <use xlink:href="#DejaVuSans-74" transform="translate(1885.738281 0)"/>
     </g>
    </g>
    <g id="patch_26">
     <path d="M 466.78 293.251562 
L 486.78 293.251562 
L 486.78 286.251562 
L 466.78 286.251562 
z
" style="fill: #8dc998; stroke: #ffffff; stroke-linejoin: miter"/>
    </g>
    <g id="text_25">
     <!-- TPS don't mathc AM TP and are not highpt -->
     <g transform="translate(494.78 293.251562) scale(0.1 -0.1)">
      <use xlink:href="#DejaVuSans-54"/>
      <use xlink:href="#DejaVuSans-50" transform="translate(61.083984 0)"/>
      <use xlink:href="#DejaVuSans-53" transform="translate(121.386719 0)"/>
      <use xlink:href="#DejaVuSans-20" transform="translate(184.863281 0)"/>
      <use xlink:href="#DejaVuSans-64" transform="translate(216.650391 0)"/>
      <use xlink:href="#DejaVuSans-6f" transform="translate(280.126953 0)"/>
      <use xlink:href="#DejaVuSans-6e" transform="translate(341.308594 0)"/>
      <use xlink:href="#DejaVuSans-27" transform="translate(404.6875 0)"/>
      <use xlink:href="#DejaVuSans-74" transform="translate(432.177734 0)"/>
      <use xlink:href="#DejaVuSans-20" transform="translate(471.386719 0)"/>
      <use xlink:href="#DejaVuSans-6d" transform="translate(503.173828 0)"/>
      <use xlink:href="#DejaVuSans-61" transform="translate(600.585938 0)"/>
      <use xlink:href="#DejaVuSans-74" transform="translate(661.865234 0)"/>
      <use xlink:href="#DejaVuSans-68" transform="translate(701.074219 0)"/>
      <use xlink:href="#DejaVuSans-63" transform="translate(764.453125 0)"/>
      <use xlink:href="#DejaVuSans-20" transform="translate(819.433594 0)"/>
      <use xlink:href="#DejaVuSans-41" transform="translate(851.220703 0)"/>
      <use xlink:href="#DejaVuSans-4d" transform="translate(919.628906 0)"/>
      <use xlink:href="#DejaVuSans-20" transform="translate(1005.908203 0)"/>
      <use xlink:href="#DejaVuSans-54" transform="translate(1037.695312 0)"/>
      <use xlink:href="#DejaVuSans-50" transform="translate(1098.779297 0)"/>
      <use xlink:href="#DejaVuSans-20" transform="translate(1159.082031 0)"/>
      <use xlink:href="#DejaVuSans-61" transform="translate(1190.869141 0)"/>
      <use xlink:href="#DejaVuSans-6e" transform="translate(1252.148438 0)"/>
      <use xlink:href="#DejaVuSans-64" transform="translate(1315.527344 0)"/>
      <use xlink:href="#DejaVuSans-20" transform="translate(1379.003906 0)"/>
      <use xlink:href="#DejaVuSans-61" transform="translate(1410.791016 0)"/>
      <use xlink:href="#DejaVuSans-72" transform="translate(1472.070312 0)"/>
      <use xlink:href="#DejaVuSans-65" transform="translate(1510.933594 0)"/>
      <use xlink:href="#DejaVuSans-20" transform="translate(1572.457031 0)"/>
      <use xlink:href="#DejaVuSans-6e" transform="translate(1604.244141 0)"/>
      <use xlink:href="#DejaVuSans-6f" transform="translate(1667.623047 0)"/>
      <use xlink:href="#DejaVuSans-74" transform="translate(1728.804688 0)"/>
      <use xlink:href="#DejaVuSans-20" transform="translate(1768.013672 0)"/>
      <use xlink:href="#DejaVuSans-68" transform="translate(1799.800781 0)"/>
      <use xlink:href="#DejaVuSans-69" transform="translate(1863.179688 0)"/>
      <use xlink:href="#DejaVuSans-67" transform="translate(1890.962891 0)"/>
      <use xlink:href="#DejaVuSans-68" transform="translate(1954.439453 0)"/>
      <use xlink:href="#DejaVuSans-70" transform="translate(2017.818359 0)"/>
      <use xlink:href="#DejaVuSans-74" transform="translate(2081.294922 0)"/>
     </g>
    </g>
    <g id="patch_27">
     <path d="M 466.78 307.929687 
L 486.78 307.929687 
L 486.78 300.929687 
L 466.78 300.929687 
z
" style="fill: #8f0067; stroke: #ffffff; stroke-linejoin: miter"/>
    </g>
    <g id="text_26">
     <!-- FPS that mathc AM TP and are highpt -->
     <g transform="translate(494.78 307.929687) scale(0.1 -0.1)">
      <use xlink:href="#DejaVuSans-46"/>
      <use xlink:href="#DejaVuSans-50" transform="translate(57.519531 0)"/>
      <use xlink:href="#DejaVuSans-53" transform="translate(117.822266 0)"/>
      <use xlink:href="#DejaVuSans-20" transform="translate(181.298828 0)"/>
      <use xlink:href="#DejaVuSans-74" transform="translate(213.085938 0)"/>
      <use xlink:href="#DejaVuSans-68" transform="translate(252.294922 0)"/>
      <use xlink:href="#DejaVuSans-61" transform="translate(315.673828 0)"/>
      <use xlink:href="#DejaVuSans-74" transform="translate(376.953125 0)"/>
      <use xlink:href="#DejaVuSans-20" transform="translate(416.162109 0)"/>
      <use xlink:href="#DejaVuSans-6d" transform="translate(447.949219 0)"/>
      <use xlink:href="#DejaVuSans-61" transform="translate(545.361328 0)"/>
      <use xlink:href="#DejaVuSans-74" transform="translate(606.640625 0)"/>
      <use xlink:href="#DejaVuSans-68" transform="translate(645.849609 0)"/>
      <use xlink:href="#DejaVuSans-63" transform="translate(709.228516 0)"/>
      <use xlink:href="#DejaVuSans-20" transform="translate(764.208984 0)"/>
      <use xlink:href="#DejaVuSans-41" transform="translate(795.996094 0)"/>
      <use xlink:href="#DejaVuSans-4d" transform="translate(864.404297 0)"/>
      <use xlink:href="#DejaVuSans-20" transform="translate(950.683594 0)"/>
      <use xlink:href="#DejaVuSans-54" transform="translate(982.470703 0)"/>
      <use xlink:href="#DejaVuSans-50" transform="translate(1043.554688 0)"/>
      <use xlink:href="#DejaVuSans-20" transform="translate(1103.857422 0)"/>
      <use xlink:href="#DejaVuSans-61" transform="translate(1135.644531 0)"/>
      <use xlink:href="#DejaVuSans-6e" transform="translate(1196.923828 0)"/>
      <use xlink:href="#DejaVuSans-64" transform="translate(1260.302734 0)"/>
      <use xlink:href="#DejaVuSans-20" transform="translate(1323.779297 0)"/>
      <use xlink:href="#DejaVuSans-61" transform="translate(1355.566406 0)"/>
      <use xlink:href="#DejaVuSans-72" transform="translate(1416.845703 0)"/>
      <use xlink:href="#DejaVuSans-65" transform="translate(1455.708984 0)"/>
      <use xlink:href="#DejaVuSans-20" transform="translate(1517.232422 0)"/>
      <use xlink:href="#DejaVuSans-68" transform="translate(1549.019531 0)"/>
      <use xlink:href="#DejaVuSans-69" transform="translate(1612.398438 0)"/>
      <use xlink:href="#DejaVuSans-67" transform="translate(1640.181641 0)"/>
      <use xlink:href="#DejaVuSans-68" transform="translate(1703.658203 0)"/>
      <use xlink:href="#DejaVuSans-70" transform="translate(1767.037109 0)"/>
      <use xlink:href="#DejaVuSans-74" transform="translate(1830.513672 0)"/>
     </g>
    </g>
    <g id="patch_28">
     <path d="M 466.78 322.607812 
L 486.78 322.607812 
L 486.78 315.607812 
L 466.78 315.607812 
z
" style="fill: #b68faa; stroke: #ffffff; stroke-linejoin: miter"/>
    </g>
    <g id="text_27">
     <!-- FPS that mathc AM TP and are not highpt -->
     <g transform="translate(494.78 322.607812) scale(0.1 -0.1)">
      <use xlink:href="#DejaVuSans-46"/>
      <use xlink:href="#DejaVuSans-50" transform="translate(57.519531 0)"/>
      <use xlink:href="#DejaVuSans-53" transform="translate(117.822266 0)"/>
      <use xlink:href="#DejaVuSans-20" transform="translate(181.298828 0)"/>
      <use xlink:href="#DejaVuSans-74" transform="translate(213.085938 0)"/>
      <use xlink:href="#DejaVuSans-68" transform="translate(252.294922 0)"/>
      <use xlink:href="#DejaVuSans-61" transform="translate(315.673828 0)"/>
      <use xlink:href="#DejaVuSans-74" transform="translate(376.953125 0)"/>
      <use xlink:href="#DejaVuSans-20" transform="translate(416.162109 0)"/>
      <use xlink:href="#DejaVuSans-6d" transform="translate(447.949219 0)"/>
      <use xlink:href="#DejaVuSans-61" transform="translate(545.361328 0)"/>
      <use xlink:href="#DejaVuSans-74" transform="translate(606.640625 0)"/>
      <use xlink:href="#DejaVuSans-68" transform="translate(645.849609 0)"/>
      <use xlink:href="#DejaVuSans-63" transform="translate(709.228516 0)"/>
      <use xlink:href="#DejaVuSans-20" transform="translate(764.208984 0)"/>
      <use xlink:href="#DejaVuSans-41" transform="translate(795.996094 0)"/>
      <use xlink:href="#DejaVuSans-4d" transform="translate(864.404297 0)"/>
      <use xlink:href="#DejaVuSans-20" transform="translate(950.683594 0)"/>
      <use xlink:href="#DejaVuSans-54" transform="translate(982.470703 0)"/>
      <use xlink:href="#DejaVuSans-50" transform="translate(1043.554688 0)"/>
      <use xlink:href="#DejaVuSans-20" transform="translate(1103.857422 0)"/>
      <use xlink:href="#DejaVuSans-61" transform="translate(1135.644531 0)"/>
      <use xlink:href="#DejaVuSans-6e" transform="translate(1196.923828 0)"/>
      <use xlink:href="#DejaVuSans-64" transform="translate(1260.302734 0)"/>
      <use xlink:href="#DejaVuSans-20" transform="translate(1323.779297 0)"/>
      <use xlink:href="#DejaVuSans-61" transform="translate(1355.566406 0)"/>
      <use xlink:href="#DejaVuSans-72" transform="translate(1416.845703 0)"/>
      <use xlink:href="#DejaVuSans-65" transform="translate(1455.708984 0)"/>
      <use xlink:href="#DejaVuSans-20" transform="translate(1517.232422 0)"/>
      <use xlink:href="#DejaVuSans-6e" transform="translate(1549.019531 0)"/>
      <use xlink:href="#DejaVuSans-6f" transform="translate(1612.398438 0)"/>
      <use xlink:href="#DejaVuSans-74" transform="translate(1673.580078 0)"/>
      <use xlink:href="#DejaVuSans-20" transform="translate(1712.789062 0)"/>
      <use xlink:href="#DejaVuSans-68" transform="translate(1744.576172 0)"/>
      <use xlink:href="#DejaVuSans-69" transform="translate(1807.955078 0)"/>
      <use xlink:href="#DejaVuSans-67" transform="translate(1835.738281 0)"/>
      <use xlink:href="#DejaVuSans-68" transform="translate(1899.214844 0)"/>
      <use xlink:href="#DejaVuSans-70" transform="translate(1962.59375 0)"/>
      <use xlink:href="#DejaVuSans-74" transform="translate(2026.070312 0)"/>
     </g>
    </g>
    <g id="patch_29">
     <path d="M 466.78 337.285937 
L 486.78 337.285937 
L 486.78 330.285937 
L 466.78 330.285937 
z
" style="fill: #8f0067; stroke: #ffffff; stroke-linejoin: miter"/>
    </g>
    <g id="text_28">
     <!-- FPS don't mathc AM TP and are highpt -->
     <g transform="translate(494.78 337.285937) scale(0.1 -0.1)">
      <use xlink:href="#DejaVuSans-46"/>
      <use xlink:href="#DejaVuSans-50" transform="translate(57.519531 0)"/>
      <use xlink:href="#DejaVuSans-53" transform="translate(117.822266 0)"/>
      <use xlink:href="#DejaVuSans-20" transform="translate(181.298828 0)"/>
      <use xlink:href="#DejaVuSans-64" transform="translate(213.085938 0)"/>
      <use xlink:href="#DejaVuSans-6f" transform="translate(276.5625 0)"/>
      <use xlink:href="#DejaVuSans-6e" transform="translate(337.744141 0)"/>
      <use xlink:href="#DejaVuSans-27" transform="translate(401.123047 0)"/>
      <use xlink:href="#DejaVuSans-74" transform="translate(428.613281 0)"/>
      <use xlink:href="#DejaVuSans-20" transform="translate(467.822266 0)"/>
      <use xlink:href="#DejaVuSans-6d" transform="translate(499.609375 0)"/>
      <use xlink:href="#DejaVuSans-61" transform="translate(597.021484 0)"/>
      <use xlink:href="#DejaVuSans-74" transform="translate(658.300781 0)"/>
      <use xlink:href="#DejaVuSans-68" transform="translate(697.509766 0)"/>
      <use xlink:href="#DejaVuSans-63" transform="translate(760.888672 0)"/>
      <use xlink:href="#DejaVuSans-20" transform="translate(815.869141 0)"/>
      <use xlink:href="#DejaVuSans-41" transform="translate(847.65625 0)"/>
      <use xlink:href="#DejaVuSans-4d" transform="translate(916.064453 0)"/>
      <use xlink:href="#DejaVuSans-20" transform="translate(1002.34375 0)"/>
      <use xlink:href="#DejaVuSans-54" transform="translate(1034.130859 0)"/>
      <use xlink:href="#DejaVuSans-50" transform="translate(1095.214844 0)"/>
      <use xlink:href="#DejaVuSans-20" transform="translate(1155.517578 0)"/>
      <use xlink:href="#DejaVuSans-61" transform="translate(1187.304688 0)"/>
      <use xlink:href="#DejaVuSans-6e" transform="translate(1248.583984 0)"/>
      <use xlink:href="#DejaVuSans-64" transform="translate(1311.962891 0)"/>
      <use xlink:href="#DejaVuSans-20" transform="translate(1375.439453 0)"/>
      <use xlink:href="#DejaVuSans-61" transform="translate(1407.226562 0)"/>
      <use xlink:href="#DejaVuSans-72" transform="translate(1468.505859 0)"/>
      <use xlink:href="#DejaVuSans-65" transform="translate(1507.369141 0)"/>
      <use xlink:href="#DejaVuSans-20" transform="translate(1568.892578 0)"/>
      <use xlink:href="#DejaVuSans-68" transform="translate(1600.679688 0)"/>
      <use xlink:href="#DejaVuSans-69" transform="translate(1664.058594 0)"/>
      <use xlink:href="#DejaVuSans-67" transform="translate(1691.841797 0)"/>
      <use xlink:href="#DejaVuSans-68" transform="translate(1755.318359 0)"/>
      <use xlink:href="#DejaVuSans-70" transform="translate(1818.697266 0)"/>
      <use xlink:href="#DejaVuSans-74" transform="translate(1882.173828 0)"/>
     </g>
    </g>
    <g id="patch_30">
     <path d="M 466.78 351.964062 
L 486.78 351.964062 
L 486.78 344.964062 
L 466.78 344.964062 
z
" style="fill: #b68faa; stroke: #ffffff; stroke-linejoin: miter"/>
    </g>
    <g id="text_29">
     <!-- FPS don't mathc AM TP and are not highpt -->
     <g transform="translate(494.78 351.964062) scale(0.1 -0.1)">
      <use xlink:href="#DejaVuSans-46"/>
      <use xlink:href="#DejaVuSans-50" transform="translate(57.519531 0)"/>
      <use xlink:href="#DejaVuSans-53" transform="translate(117.822266 0)"/>
      <use xlink:href="#DejaVuSans-20" transform="translate(181.298828 0)"/>
      <use xlink:href="#DejaVuSans-64" transform="translate(213.085938 0)"/>
      <use xlink:href="#DejaVuSans-6f" transform="translate(276.5625 0)"/>
      <use xlink:href="#DejaVuSans-6e" transform="translate(337.744141 0)"/>
      <use xlink:href="#DejaVuSans-27" transform="translate(401.123047 0)"/>
      <use xlink:href="#DejaVuSans-74" transform="translate(428.613281 0)"/>
      <use xlink:href="#DejaVuSans-20" transform="translate(467.822266 0)"/>
      <use xlink:href="#DejaVuSans-6d" transform="translate(499.609375 0)"/>
      <use xlink:href="#DejaVuSans-61" transform="translate(597.021484 0)"/>
      <use xlink:href="#DejaVuSans-74" transform="translate(658.300781 0)"/>
      <use xlink:href="#DejaVuSans-68" transform="translate(697.509766 0)"/>
      <use xlink:href="#DejaVuSans-63" transform="translate(760.888672 0)"/>
      <use xlink:href="#DejaVuSans-20" transform="translate(815.869141 0)"/>
      <use xlink:href="#DejaVuSans-41" transform="translate(847.65625 0)"/>
      <use xlink:href="#DejaVuSans-4d" transform="translate(916.064453 0)"/>
      <use xlink:href="#DejaVuSans-20" transform="translate(1002.34375 0)"/>
      <use xlink:href="#DejaVuSans-54" transform="translate(1034.130859 0)"/>
      <use xlink:href="#DejaVuSans-50" transform="translate(1095.214844 0)"/>
      <use xlink:href="#DejaVuSans-20" transform="translate(1155.517578 0)"/>
      <use xlink:href="#DejaVuSans-61" transform="translate(1187.304688 0)"/>
      <use xlink:href="#DejaVuSans-6e" transform="translate(1248.583984 0)"/>
      <use xlink:href="#DejaVuSans-64" transform="translate(1311.962891 0)"/>
      <use xlink:href="#DejaVuSans-20" transform="translate(1375.439453 0)"/>
      <use xlink:href="#DejaVuSans-61" transform="translate(1407.226562 0)"/>
      <use xlink:href="#DejaVuSans-72" transform="translate(1468.505859 0)"/>
      <use xlink:href="#DejaVuSans-65" transform="translate(1507.369141 0)"/>
      <use xlink:href="#DejaVuSans-20" transform="translate(1568.892578 0)"/>
      <use xlink:href="#DejaVuSans-6e" transform="translate(1600.679688 0)"/>
      <use xlink:href="#DejaVuSans-6f" transform="translate(1664.058594 0)"/>
      <use xlink:href="#DejaVuSans-74" transform="translate(1725.240234 0)"/>
      <use xlink:href="#DejaVuSans-20" transform="translate(1764.449219 0)"/>
      <use xlink:href="#DejaVuSans-68" transform="translate(1796.236328 0)"/>
      <use xlink:href="#DejaVuSans-69" transform="translate(1859.615234 0)"/>
      <use xlink:href="#DejaVuSans-67" transform="translate(1887.398438 0)"/>
      <use xlink:href="#DejaVuSans-68" transform="translate(1950.875 0)"/>
      <use xlink:href="#DejaVuSans-70" transform="translate(2014.253906 0)"/>
      <use xlink:href="#DejaVuSans-74" transform="translate(2077.730469 0)"/>
     </g>
    </g>
   </g>
  </g>
 </g>
</svg>
