<?xml version="1.0" standalone="no"?>
<svg width="567.429" height="556.072" viewBox="0 0 567.429 556.072" xmlns="http://www.w3.org/2000/svg" shape-rendering="crispEdges">
<title>
.plots/tps_shower_match_ratio/tps_shower_match_ratio.svg
</title>
<desc>
Creator: ROOT Version 6.32.08
CreationDate: Mon May 26 16:22:14 2025</desc>
<defs>
</defs>
<rect x="0.5" y="0" width="566.929" height="555.572" fill="white"/>
<rect x="57.1929" y="55.5572" width="453.543" height="444.457" fill="white"/>
<rect x="57.1929" y="55.5572" width="453.543" height="444.457" fill="none" stroke="black"/>
<path d="M57.1929,500.014h 453.543" fill="none" stroke="black"/>
<text xml:space="preserve" x="83.3152" y="514.401" fill="black" font-size="10.6939" font-family="Helvetica">-2
</text>
<text xml:space="preserve" x="105.084" y="514.401" fill="black" font-size="10.6939" font-family="Helvetica">-1
</text>
<text xml:space="preserve" x="126.379" y="514.401" fill="black" font-size="10.6939" font-family="Helvetica">0
</text>
<text xml:space="preserve" x="144.835" y="514.401" fill="black" font-size="10.6939" font-family="Helvetica">+1
</text>
<text xml:space="preserve" x="164.237" y="514.401" fill="black" font-size="10.6939" font-family="Helvetica">+2
</text>
<text xml:space="preserve" x="186.479" y="514.401" fill="black" font-size="10.6939" font-family="Helvetica">-2
</text>
<text xml:space="preserve" x="208.248" y="514.401" fill="black" font-size="10.6939" font-family="Helvetica">-1
</text>
<text xml:space="preserve" x="229.543" y="514.401" fill="black" font-size="10.6939" font-family="Helvetica">0
</text>
<text xml:space="preserve" x="247.999" y="514.401" fill="black" font-size="10.6939" font-family="Helvetica">+1
</text>
<text xml:space="preserve" x="267.402" y="514.401" fill="black" font-size="10.6939" font-family="Helvetica">+2
</text>
<text xml:space="preserve" x="289.643" y="514.401" fill="black" font-size="10.6939" font-family="Helvetica">-2
</text>
<text xml:space="preserve" x="310.939" y="514.401" fill="black" font-size="10.6939" font-family="Helvetica">-1
</text>
<text xml:space="preserve" x="332.707" y="514.401" fill="black" font-size="10.6939" font-family="Helvetica">0
</text>
<text xml:space="preserve" x="350.69" y="514.401" fill="black" font-size="10.6939" font-family="Helvetica">+1
</text>
<text xml:space="preserve" x="370.566" y="514.401" fill="black" font-size="10.6939" font-family="Helvetica">+2
</text>
<text xml:space="preserve" x="392.807" y="514.401" fill="black" font-size="10.6939" font-family="Helvetica">-2
</text>
<text xml:space="preserve" x="414.103" y="514.401" fill="black" font-size="10.6939" font-family="Helvetica">-1
</text>
<text xml:space="preserve" x="435.871" y="514.401" fill="black" font-size="10.6939" font-family="Helvetica">0
</text>
<text xml:space="preserve" x="453.854" y="514.401" fill="black" font-size="10.6939" font-family="Helvetica">+1
</text>
<text xml:space="preserve" x="473.73" y="514.401" fill="black" font-size="10.6939" font-family="Helvetica">+2
</text>
<path d="M57.1929,486.681v 13.3337" fill="none" stroke="black"/>
<path d="M77.8085,486.681v 13.3337" fill="none" stroke="black"/>
<path d="M98.4241,486.681v 13.3337" fill="none" stroke="black"/>
<path d="M119.04,486.681v 13.3337" fill="none" stroke="black"/>
<path d="M139.655,486.681v 13.3337" fill="none" stroke="black"/>
<path d="M160.271,486.681v 13.3337" fill="none" stroke="black"/>
<path d="M180.887,486.681v 13.3337" fill="none" stroke="black"/>
<path d="M201.502,486.681v 13.3337" fill="none" stroke="black"/>
<path d="M222.118,486.681v 13.3337" fill="none" stroke="black"/>
<path d="M242.733,486.681v 13.3337" fill="none" stroke="black"/>
<path d="M263.349,486.681v 13.3337" fill="none" stroke="black"/>
<path d="M283.965,486.681v 13.3337" fill="none" stroke="black"/>
<path d="M304.58,486.681v 13.3337" fill="none" stroke="black"/>
<path d="M325.196,486.681v 13.3337" fill="none" stroke="black"/>
<path d="M345.811,486.681v 13.3337" fill="none" stroke="black"/>
<path d="M366.427,486.681v 13.3337" fill="none" stroke="black"/>
<path d="M387.043,486.681v 13.3337" fill="none" stroke="black"/>
<path d="M407.658,486.681v 13.3337" fill="none" stroke="black"/>
<path d="M428.274,486.681v 13.3337" fill="none" stroke="black"/>
<path d="M448.889,486.681v 13.3337" fill="none" stroke="black"/>
<path d="M469.505,486.681v 13.3337" fill="none" stroke="black"/>
<path d="M490.121,486.681v 13.3337" fill="none" stroke="black"/>
<path d="M510.736,486.681v 13.3337" fill="none" stroke="black"/>
<text xml:space="preserve" x="452.908" y="543.741" fill="black" font-size="20.8879" font-family="Helvetica">Wheel
</text>
<path d="M57.1929,500.014v -444.457" fill="none" stroke="black"/>
<path d="M70.7992,500.014h -13.6063" fill="none" stroke="black"/>
<text xml:space="preserve" x="49.2427" y="500.204" fill="black" font-size="8.31538" font-family="Helvetica">3
</text>
<text xml:space="preserve" x="44.5104" y="500.204" fill="black" font-size="8.31538" font-family="Times">&#8722;
</text>
<text xml:space="preserve" x="31.7332" y="505.883" fill="black" font-size="12.2231" font-family="Helvetica">10
</text>
<path d="M63.9961,455.729h -6.80315" fill="none" stroke="black"/>
<path d="M63.9961,429.823h -6.80315" fill="none" stroke="black"/>
<path d="M63.9961,411.443h -6.80315" fill="none" stroke="black"/>
<path d="M63.9961,397.187h -6.80315" fill="none" stroke="black"/>
<path d="M63.9961,385.538h -6.80315" fill="none" stroke="black"/>
<path d="M63.9961,375.689h -6.80315" fill="none" stroke="black"/>
<path d="M63.9961,367.158h -6.80315" fill="none" stroke="black"/>
<path d="M63.9961,359.633h -6.80315" fill="none" stroke="black"/>
<path d="M70.7992,352.901h -13.6063" fill="none" stroke="black"/>
<text xml:space="preserve" x="49.2427" y="353.503" fill="black" font-size="8.31538" font-family="Helvetica">2
</text>
<text xml:space="preserve" x="44.5104" y="353.503" fill="black" font-size="8.31538" font-family="Times">&#8722;
</text>
<text xml:space="preserve" x="31.7332" y="358.708" fill="black" font-size="12.2231" font-family="Helvetica">10
</text>
<path d="M63.9961,308.616h -6.80315" fill="none" stroke="black"/>
<path d="M63.9961,282.71h -6.80315" fill="none" stroke="black"/>
<path d="M63.9961,264.33h -6.80315" fill="none" stroke="black"/>
<path d="M63.9961,250.073h -6.80315" fill="none" stroke="black"/>
<path d="M63.9961,238.425h -6.80315" fill="none" stroke="black"/>
<path d="M63.9961,228.576h -6.80315" fill="none" stroke="black"/>
<path d="M63.9961,220.044h -6.80315" fill="none" stroke="black"/>
<path d="M63.9961,212.519h -6.80315" fill="none" stroke="black"/>
<path d="M70.7992,205.788h -13.6063" fill="none" stroke="black"/>
<text xml:space="preserve" x="50.6623" y="206.328" fill="black" font-size="8.31538" font-family="Helvetica">1
</text>
<text xml:space="preserve" x="45.93" y="206.328" fill="black" font-size="8.31538" font-family="Times">&#8722;
</text>
<text xml:space="preserve" x="33.1528" y="211.534" fill="black" font-size="12.2231" font-family="Helvetica">10
</text>
<path d="M63.9961,161.502h -6.80315" fill="none" stroke="black"/>
<path d="M63.9961,135.597h -6.80315" fill="none" stroke="black"/>
<path d="M63.9961,117.217h -6.80315" fill="none" stroke="black"/>
<path d="M63.9961,102.96h -6.80315" fill="none" stroke="black"/>
<path d="M63.9961,91.3113h -6.80315" fill="none" stroke="black"/>
<path d="M63.9961,81.4625h -6.80315" fill="none" stroke="black"/>
<path d="M63.9961,72.9311h -6.80315" fill="none" stroke="black"/>
<path d="M63.9961,65.4059h -6.80315" fill="none" stroke="black"/>
<path d="M70.7992,58.6744h -13.6063" fill="none" stroke="black"/>
<text xml:space="preserve" x="49.2427" y="63.4128" fill="black" font-size="12.2231" font-family="Helvetica">1
</text>
<path d="M88.1163,190.205v -4.51449" fill="none" stroke="black"/>
<path d="M88.1163,195.884v 4.67762" fill="none" stroke="black"/>
<path d="M87.1699,185.691h 1.89292" fill="none" stroke="black"/>
<path d="M87.1699,200.562h 1.89292" fill="none" stroke="black"/>
<path d="M108.732,188.034v -5.21611" fill="none" stroke="black"/>
<path d="M108.732,193.712v 5.42244" fill="none" stroke="black"/>
<path d="M107.785,182.818h 1.89292" fill="none" stroke="black"/>
<path d="M107.785,199.135h 1.89292" fill="none" stroke="black"/>
<path d="M129.348,188.692v -4.72029" fill="none" stroke="black"/>
<path d="M129.348,194.37v 4.89744" fill="none" stroke="black"/>
<path d="M128.401,183.971h 1.89292" fill="none" stroke="black"/>
<path d="M128.401,199.268h 1.89292" fill="none" stroke="black"/>
<path d="M149.963,188.31v -5.08417" fill="none" stroke="black"/>
<path d="M149.963,193.989v 5.28219" fill="none" stroke="black"/>
<path d="M149.017,183.226h 1.89292" fill="none" stroke="black"/>
<path d="M149.017,199.271h 1.89292" fill="none" stroke="black"/>
<path d="M170.579,192.621v -4.87189" fill="none" stroke="black"/>
<path d="M170.579,198.3v 5.04792" fill="none" stroke="black"/>
<path d="M169.632,187.749h 1.89292" fill="none" stroke="black"/>
<path d="M169.632,203.348h 1.89292" fill="none" stroke="black"/>
<path d="M191.194,190.205v -4.51449" fill="none" stroke="black"/>
<path d="M191.194,195.884v 4.67762" fill="none" stroke="black"/>
<path d="M190.248,185.691h 1.89292" fill="none" stroke="black"/>
<path d="M190.248,200.562h 1.89292" fill="none" stroke="black"/>
<path d="M211.81,188.034v -5.21611" fill="none" stroke="black"/>
<path d="M211.81,193.712v 5.42244" fill="none" stroke="black"/>
<path d="M210.863,182.818h 1.89292" fill="none" stroke="black"/>
<path d="M210.863,199.135h 1.89292" fill="none" stroke="black"/>
<path d="M232.426,188.692v -4.72029" fill="none" stroke="black"/>
<path d="M232.426,194.37v 4.89744" fill="none" stroke="black"/>
<path d="M231.479,183.971h 1.89292" fill="none" stroke="black"/>
<path d="M231.479,199.268h 1.89292" fill="none" stroke="black"/>
<path d="M253.041,188.31v -5.08417" fill="none" stroke="black"/>
<path d="M253.041,193.989v 5.28219" fill="none" stroke="black"/>
<path d="M252.095,183.226h 1.89292" fill="none" stroke="black"/>
<path d="M252.095,199.271h 1.89292" fill="none" stroke="black"/>
<path d="M273.657,192.621v -4.87189" fill="none" stroke="black"/>
<path d="M273.657,198.3v 5.04792" fill="none" stroke="black"/>
<path d="M272.71,187.749h 1.89292" fill="none" stroke="black"/>
<path d="M272.71,203.348h 1.89292" fill="none" stroke="black"/>
<path d="M294.272,190.205v -4.51449" fill="none" stroke="black"/>
<path d="M294.272,195.884v 4.67762" fill="none" stroke="black"/>
<path d="M293.326,185.691h 1.89292" fill="none" stroke="black"/>
<path d="M293.326,200.562h 1.89292" fill="none" stroke="black"/>
<path d="M314.888,188.034v -5.21611" fill="none" stroke="black"/>
<path d="M314.888,193.712v 5.42244" fill="none" stroke="black"/>
<path d="M313.942,182.818h 1.89292" fill="none" stroke="black"/>
<path d="M313.942,199.135h 1.89292" fill="none" stroke="black"/>
<path d="M335.504,188.692v -4.72029" fill="none" stroke="black"/>
<path d="M335.504,194.37v 4.89744" fill="none" stroke="black"/>
<path d="M334.557,183.971h 1.89292" fill="none" stroke="black"/>
<path d="M334.557,199.268h 1.89292" fill="none" stroke="black"/>
<path d="M356.119,188.31v -5.08417" fill="none" stroke="black"/>
<path d="M356.119,193.989v 5.28219" fill="none" stroke="black"/>
<path d="M355.173,183.226h 1.89292" fill="none" stroke="black"/>
<path d="M355.173,199.271h 1.89292" fill="none" stroke="black"/>
<path d="M376.735,192.621v -4.87189" fill="none" stroke="black"/>
<path d="M376.735,198.3v 5.04792" fill="none" stroke="black"/>
<path d="M375.788,187.749h 1.89292" fill="none" stroke="black"/>
<path d="M375.788,203.348h 1.89292" fill="none" stroke="black"/>
<path d="M397.35,190.205v -4.51449" fill="none" stroke="black"/>
<path d="M397.35,195.884v 4.67762" fill="none" stroke="black"/>
<path d="M396.404,185.691h 1.89292" fill="none" stroke="black"/>
<path d="M396.404,200.562h 1.89292" fill="none" stroke="black"/>
<path d="M417.966,188.034v -5.21611" fill="none" stroke="black"/>
<path d="M417.966,193.712v 5.42244" fill="none" stroke="black"/>
<path d="M417.02,182.818h 1.89292" fill="none" stroke="black"/>
<path d="M417.02,199.135h 1.89292" fill="none" stroke="black"/>
<path d="M438.582,188.692v -4.72029" fill="none" stroke="black"/>
<path d="M438.582,194.37v 4.89744" fill="none" stroke="black"/>
<path d="M437.635,183.971h 1.89292" fill="none" stroke="black"/>
<path d="M437.635,199.268h 1.89292" fill="none" stroke="black"/>
<path d="M459.197,188.31v -5.08417" fill="none" stroke="black"/>
<path d="M459.197,193.989v 5.28219" fill="none" stroke="black"/>
<path d="M458.251,183.226h 1.89292" fill="none" stroke="black"/>
<path d="M458.251,199.271h 1.89292" fill="none" stroke="black"/>
<path d="M479.813,192.621v -4.87189" fill="none" stroke="black"/>
<path d="M479.813,198.3v 5.04792" fill="none" stroke="black"/>
<path d="M478.866,187.749h 1.89292" fill="none" stroke="black"/>
<path d="M478.866,203.348h 1.89292" fill="none" stroke="black"/>
<g fill="black">
<circle cx="88.1163" cy="193.045" r="2.83938"/>
<circle cx="108.732" cy="190.873" r="2.83938"/>
<circle cx="129.348" cy="191.531" r="2.83938"/>
<circle cx="149.963" cy="191.15" r="2.83938"/>
<circle cx="170.579" cy="195.46" r="2.83938"/>
<circle cx="191.194" cy="193.045" r="2.83938"/>
<circle cx="211.81" cy="190.873" r="2.83938"/>
<circle cx="232.426" cy="191.531" r="2.83938"/>
<circle cx="253.041" cy="191.15" r="2.83938"/>
<circle cx="273.657" cy="195.46" r="2.83938"/>
<circle cx="294.272" cy="193.045" r="2.83938"/>
<circle cx="314.888" cy="190.873" r="2.83938"/>
<circle cx="335.504" cy="191.531" r="2.83938"/>
<circle cx="356.119" cy="191.15" r="2.83938"/>
<circle cx="376.735" cy="195.46" r="2.83938"/>
<circle cx="397.35" cy="193.045" r="2.83938"/>
<circle cx="417.966" cy="190.873" r="2.83938"/>
<circle cx="438.582" cy="191.531" r="2.83938"/>
<circle cx="459.197" cy="191.15" r="2.83938"/>
<circle cx="479.813" cy="195.46" r="2.83938"/>
</g>
<text xml:space="preserve" x="187.426" y="46.3765" fill="black" font-size="15.791" font-family="Helvetica"> Phase-2 Simulation)
</text>
<text xml:space="preserve" x="152.88" y="46.3765" fill="black" font-size="15.791" font-family="Helvetica" font-weight="bold">CMS
</text>
<text xml:space="preserve" x="57.7608" y="46.3765" fill="black" font-size="15.791" font-family="Helvetica">Private work (
</text>
<text xml:space="preserve" x="429.719" y="47.7962" fill="black" font-size="15.791" font-family="Helvetica">200 PU
</text>
<text xml:space="preserve" x="84.2617" y="398.933" fill="black" font-size="25.9849" font-family="Helvetica">MB1
</text>
<text xml:space="preserve" x="197.364" y="398.933" fill="black" font-size="25.9849" font-family="Helvetica">MB2
</text>
<text xml:space="preserve" x="310.939" y="398.933" fill="black" font-size="25.9849" font-family="Helvetica">MB3
</text>
<text xml:space="preserve" x="424.514" y="398.933" fill="black" font-size="25.9849" font-family="Helvetica">MB4
</text>
<path d="M180.887,500.014v -444.457" fill="none" stroke="black" stroke-width="3"/>
<path d="M283.965,500.014v -444.457" fill="none" stroke="black" stroke-width="3"/>
<path d="M387.043,500.014v -444.457" fill="none" stroke="black" stroke-width="3"/>
<rect x="283.965" y="222.229" width="22.6772" height="66.6686" fill="white"/>
<text xml:space="preserve" x="365.833" y="270.214" fill="black" font-size="14.7716" font-family="Helvetica">AM TPs
</text>
<text xml:space="preserve" x="289.643" y="251.758" fill="black" font-size="14.7716" font-family="Helvetica">AM TPs that match any shower
</text>
<path d="M289.643,257.437h 203.962" fill="none" stroke="black" stroke-width="2"/>
<g fill="black">
<circle cx="286.799" cy="255.563" r="2.83938"/>
</g></svg>
